# https://github.com/mikedh/trimesh
mtllib material.mtl
usemtl Wood_Log
v 62.33764002 -11.13018635 0.11564822
v 62.38326380 -11.12464741 0.13182254
v 62.35828516 -11.16262654 0.11377139
v 62.39624903 -11.16665486 0.11018558
v 62.42286036 -11.13920430 0.10759158
v 65.18570063 -11.74479517 -0.20934863
v 65.15087244 -11.76730188 -0.18435473
v 65.15363428 -11.72367701 -0.20524402
v 65.11749384 -11.73518213 -0.20066638
v 65.18946192 -11.78275904 -0.20986742
v 65.10463068 -11.77079614 -0.19904894
v 65.12445948 -11.80386194 -0.20161241
v 65.16229365 -11.80918726 -0.20643419
v 67.92118189 -12.11215058 -0.56704510
v 67.88630030 -12.13459625 -0.54221905
v 67.88962672 -12.09106293 -0.56318463
v 67.84043238 -12.13845673 -0.55718792
v 67.85968897 -12.17121735 -0.55955303
v 67.85366938 -12.10279694 -0.55880536
v 67.92438624 -12.15008392 -0.56745708
v 67.89708826 -12.17639008 -0.56413066
v 70.63094446 -12.81637426 -0.89834381
v 70.62002680 -12.76763769 -0.87655427
v 70.65824244 -12.79946752 -0.90151765
v 70.59354517 -12.79670568 -0.89402558
v 70.57441065 -12.75538488 -0.89182832
v 70.58777735 -12.72305151 -0.89338472
v 70.65509913 -12.75848242 -0.90118196
v 70.62372706 -12.72428747 -0.89755037
v 62.41827509 -11.10099629 0.10792727
v 62.38570521 -11.08071736 0.11096376
v 62.34975550 -11.09374836 0.11441225
v 76.14383051 -16.13751083 -1.47355385
v 76.10894129 -16.16044479 -1.44938392
v 76.11170313 -16.11701828 -1.47030373
v 76.07587549 -16.12911850 -1.46661110
v 76.14803431 -16.17533737 -1.47388953
v 76.06345484 -16.16462570 -1.46523780
v 76.08359644 -16.19731002 -1.46723670
v 76.12130091 -16.20208603 -1.47108191
v 73.33078882 -14.76240397 -1.18079894
v 73.35676691 -14.73818827 -1.16288513
v 73.36843226 -14.79136515 -1.18438475
v 73.31127283 -14.71539164 -1.17902893
v 73.32431910 -14.68534709 -1.18040223
v 73.39560816 -14.78025676 -1.18707030
v 73.39209101 -14.73747111 -1.18685669
v 73.36034510 -14.69511271 -1.18388123
v 59.62976954 -11.24354386 0.36136052
v 59.61552546 -11.20358108 0.38310429
v 59.65549586 -11.21429276 0.35885807
v 51.23468706 -11.00500310 1.00558655
v 51.27127001 -11.03137029 1.02385133
v 51.22759936 -11.04234136 1.00616639
v 51.31312487 -11.04012884 1.00078004
v 51.30345843 -11.00321782 1.00126832
v 51.26851580 -10.98754705 1.00340454
v 45.91004870 -11.63448915 1.21776012
v 45.88651964 -11.59698304 1.23855784
v 45.93044207 -11.60246095 1.21743968
v 45.87171099 -11.63831911 1.21835521
v 45.84435198 -11.61105165 1.21876719
v 45.84842608 -11.57324037 1.21870615
v 45.91763994 -11.56634340 1.21763804
v 45.88112566 -11.55331239 1.21820261
v 48.50202868 -11.22183047 1.15207096
v 48.48075793 -11.18380556 1.17314335
v 48.52361224 -11.19021426 1.15132328
v 54.05400965 -10.94663826 0.81967346
v 54.05532191 -10.99049202 0.84022705
v 54.01962397 -10.96299569 0.82213013
v 59.59186671 -11.24270462 0.36491582
v 51.25232622 -11.07151616 1.00471681
v 59.57041285 -11.21241593 0.36685368
v 54.03474543 -11.03001229 0.82132142
v 54.07283137 -11.03036324 0.81866639
v 54.09661219 -11.00089852 0.81691163
v 54.08833430 -10.96362130 0.81735413
v 59.58145258 -11.17556595 0.36572452
v 54.01114771 -11.00012032 0.82286255
v 59.64978907 -11.17707657 0.35928531
v 59.61684534 -11.15983414 0.36235233
v 51.29047320 -11.07052434 1.00232118
v 56.85601160 -11.33024425 0.61258124
v 56.84012720 -11.28996105 0.63434026
v 56.88079188 -11.30181713 0.61032293
v 56.84012720 -11.24621410 0.61369511
v 56.80512354 -11.26093883 0.61679265
v 56.81791804 -11.32830639 0.61589239
v 56.79532740 -11.29745312 0.61775396
v 56.87382624 -11.26443310 0.61081121
v 48.51244280 -11.15383731 1.15162845
v 48.47673724 -11.14004336 1.15275760
v 48.44348833 -11.15929995 1.15387149
v 48.46381304 -11.22485171 1.15332219
v 48.43777392 -11.19700442 1.15411564
v 42.88661120 -11.84179506 1.23723037
v 42.92739794 -11.82514771 1.25766188
v 42.91472552 -11.86733827 1.23716934
v 42.88912127 -11.80373964 1.23730665
v 42.95243761 -11.86108217 1.23715408
v 42.97119829 -11.82774171 1.23719985
v 40.13945696 -11.94413194 1.22889908
v 40.17848894 -11.96300706 1.24949845
v 40.13857958 -11.98147020 1.22877702
v 40.22284624 -11.96395311 1.22934159
v 40.20716021 -11.93006334 1.22935685
v 40.17001269 -11.92121324 1.22915848
v 40.16788409 -12.00518236 1.22886858
v 40.20540545 -11.99738512 1.22912798
v 42.95707629 -11.79243287 1.23727614
v 42.92049334 -11.78172120 1.23732191
v 32.15995714 -14.54825794 1.09858945
v 32.12895891 -14.51687061 1.11897519
v 32.17263720 -14.51261341 1.09860470
v 29.54538653 -15.30478870 1.11213938
v 29.52386401 -15.34290515 1.13290660
v 29.50743029 -15.30242359 1.11249033
v 32.12387774 -14.56028186 1.09852842
v 29.48176501 -15.33083545 1.11282603
v 29.56690905 -15.33611499 1.11204783
v 29.48778460 -15.36852466 1.11290233
v 29.52072832 -15.38721668 1.11265819
v 29.55599139 -15.37278186 1.11229198
v 26.99494860 -16.60856067 1.14343537
v 26.96156237 -16.58013354 1.16414154
v 27.00442431 -16.57168017 1.14314544
v 32.15249560 -14.48017322 1.09858944
v 32.11453173 -14.47538196 1.09854366
v 34.80427477 -13.70223438 1.11566390
v 34.77446673 -13.66977893 1.13583601
v 34.81845019 -13.66692554 1.11599959
v 34.76781390 -13.71308338 1.11512984
v 32.08742449 -14.50188648 1.09849789
v 34.73663256 -13.69124805 1.11480940
v 34.73406145 -13.65325366 1.11493147
v 34.79981921 -13.63370716 1.11589277
v 34.76222918 -13.62760364 1.11541975
v 37.49846575 -12.93155871 1.17187715
v 37.45436022 -12.93305407 1.19133211
v 37.48140642 -12.89765368 1.17172456
v 37.41501543 -12.91510973 1.17013765
v 37.41589281 -12.95327197 1.16990877
v 37.44601366 -12.97617541 1.17042757
v 37.44419024 -12.89029894 1.17094636
v 26.96012041 -16.62412463 1.14393891
v 26.92623827 -16.60659228 1.14425934
v 26.91870806 -16.56926928 1.14416778
v 26.98158190 -16.54120837 1.14328277
v 26.94336626 -16.54012500 1.14374053
v 32.09168932 -14.53962146 1.09849790
v 37.48277972 -12.96650134 1.17129732
v 17.06983111 -22.43383226 1.19636906
v 17.11344073 -22.43956957 1.21675480
v 17.08175585 -22.47004137 1.19632329
v 17.15523455 -22.42588243 1.19630802
v 17.12887499 -22.39834032 1.19635379
v 12.49269793 -24.94379626 1.18477278
v 12.45612261 -24.92009935 1.20523482
v 12.49489519 -24.90699206 1.18484907
v 12.46295855 -24.96283922 1.18474227
v 21.97601244 -19.61451159 1.18396320
v 21.95869372 -19.65813646 1.20451680
v 21.93798754 -19.62055407 1.18414631
v 21.91551897 -19.65458117 1.18428364
v 22.00079272 -19.64098559 1.18390217
v 21.92562792 -19.69079027 1.18428365
v 21.96044848 -19.70209704 1.18414632
v 21.99401781 -19.67989550 1.18396321
v 24.47248766 -17.79221545 1.16817006
v 24.43791888 -17.76493273 1.18876942
v 24.48071215 -17.75518237 1.16804798
v 17.11746142 -22.48337755 1.19629277
v 24.43810198 -17.80877123 1.16842946
v 24.40353319 -17.79232226 1.16861256
v 24.39468310 -17.75536547 1.16858204
v 24.45674059 -17.72550402 1.16812427
v 24.41840288 -17.72556506 1.16836841
v 17.15015337 -22.46370897 1.19627751
v 17.09085009 -22.40188036 1.19638431
v 19.53543780 -20.78080187 1.19392738
v 19.51918719 -20.82586107 1.21437416
v 19.49741289 -20.78760729 1.19400368
v 19.47570727 -20.82332811 1.19404946
v 19.56110308 -20.80797777 1.19386635
v 19.48680804 -20.86087999 1.19400369
v 19.52213976 -20.87217150 1.19394265
v 19.55520556 -20.84859667 1.19388161
v 10.34007952 -26.47562609 1.17880685
v 10.32929156 -26.51983080 1.19897897
v 10.30475542 -26.48324023 1.17860848
v 10.28800127 -26.51842699 1.17834909
v 10.36724779 -26.50126086 1.17882211
v 10.30236742 -26.55452929 1.17825754
v 10.33706591 -26.56452380 1.17839488
v 10.36592791 -26.54078112 1.17863901
v 12.46803973 -24.87995348 1.18487959
v 12.43215105 -24.88315783 1.18486433
v 12.41445849 -24.91428576 1.18480330
v 12.42819903 -24.94970141 1.18475753
v 14.77527544 -23.72730455 1.19504175
v 14.73800585 -23.70151720 1.21548852
v 14.77960894 -23.69236193 1.19508752
v 14.74283526 -23.74285326 1.19501124
v 14.70681689 -23.72724352 1.19502649
v 14.69420550 -23.69230089 1.19507226
v 14.75268481 -23.66425524 1.19511804
v 14.71465990 -23.66420946 1.19511804
v 5.44676897 -29.64636813 1.14079772
v 5.42725298 -29.68655978 1.16100036
v 5.40152666 -29.65047275 1.14061462
v 5.37573168 -29.68173800 1.14041626
v 0.58965227 -32.67180073 1.07779467
v 0.61513445 -32.70744526 1.09819568
v 0.57622454 -32.70543110 1.07738269
v 0.64970324 -32.69009602 1.07829822
v 0.62234423 -32.66501057 1.07822192
v 0.59229204 -32.74043476 1.07726063
v -3.02166059 -35.99806417 0.99431438
v -3.05347517 -36.01599324 1.01402874
v -3.04883650 -35.97328390 0.99419231
v 0.62560961 -32.75049030 1.07750477
v 2.73361895 -31.15173541 1.11285912
v 2.69364855 -31.12982379 1.13307702
v 2.73706744 -31.11490070 1.11316429
v 2.70017168 -31.17201435 1.11238610
v 2.66202471 -31.16038715 1.11214196
v 2.64771197 -31.12570392 1.11226403
v 2.70801470 -31.08914386 1.11308800
v 2.66817400 -31.09393512 1.11269127
v 0.65120623 -32.72810566 1.07797779
v 5.47732470 -29.67246066 1.14079773
v 5.38890765 -29.71648227 1.14032471
v 5.43095324 -29.72867404 1.14043152
v 5.47035906 -29.70905124 1.14064514
v -4.91778066 -37.64177145 0.94783638
v -4.92919424 -37.68454184 0.96765755
v -4.95510366 -37.64918722 0.94725654
v -4.97280386 -37.68309225 0.94667672
v -4.88897207 -37.66641440 0.94794319
v -4.95742300 -37.71783652 0.94650887
v -4.92072561 -37.72743429 0.94689035
v -4.89016226 -37.70451559 0.94753121
v -7.46457937 -39.38241782 0.89171483
v -7.50693777 -39.36262717 0.91173436
v -7.45955923 -39.34434715 0.89226414
v -3.07311323 -36.04919637 0.99289532
v -3.04117658 -36.05891622 0.99327679
v -7.50109365 -39.40542808 0.89087560
v -7.54137685 -39.39598289 0.89035680
v -3.09018781 -36.01437582 0.99306316
v -1.25255659 -34.37701619 1.04445450
v -1.28920057 -34.35669148 1.06455032
v -1.25405958 -34.33889973 1.04492751
v -1.27853468 -34.39970601 1.04375260
v -3.07938459 -35.98053182 0.99364299
v -7.55568960 -39.36128440 0.89057042
v -1.31229475 -34.38981831 1.04331009
v -1.32854536 -34.35492146 1.04350845
v -7.48998525 -39.31979575 0.89209629
v -7.53290823 -39.32733360 0.89133336
v -1.28179243 -34.31401265 1.04480544
v -1.31498792 -34.32113850 1.04416457
v -3.01827314 -36.03613485 0.99390240
v 8.17610094 -28.21525012 1.15906226
v 8.13700793 -28.19356737 1.17937170
v 8.17942736 -28.17716418 1.15927588
v 8.14328692 -28.23694811 1.15875709
v 8.10575793 -28.22587023 1.15860450
v 8.09176562 -28.19045458 1.15871130
v 8.15093920 -28.15133105 1.15924535
v 8.11197588 -28.15723620 1.15898595
v -15.62848547 -46.16797085 0.62682336
v -15.66695287 -46.14898891 0.64681237
v -15.62390783 -46.12956447 0.62738793
v -15.66255834 -46.19192714 0.62593836
v -15.70052221 -46.18333645 0.62538904
v -15.71370580 -46.14871425 0.62558740
v -15.65195348 -46.10550136 0.62720482
v -15.69191625 -46.11400051 0.62639611
v -22.40612676 -51.51230073 0.32936940
v -22.41213873 -51.55488801 0.34800039
v -22.43818548 -51.52002168 0.32766042
v -22.45010259 -51.55392671 0.32581411
v -22.37832525 -51.53640961 0.32972035
v -24.39742925 -54.05519321 0.19452789
v -24.40972784 -54.10003878 0.21383027
v -24.43682745 -54.06320407 0.19345978
v -9.49660566 -41.08122460 0.82860476
v -9.47965315 -41.04782310 0.84996706
v -9.46566084 -41.09057823 0.82910830
v -9.51461103 -41.04660240 0.82880312
v -9.44973066 -41.02942101 0.83049684
v -9.47689131 -41.00497643 0.83031373
v -9.50588300 -41.01260582 0.82956605
v -9.44477155 -41.06747643 0.82996279
v -18.13199499 -48.02105924 0.56168389
v -18.17201879 -48.00323697 0.58165765
v -18.13036230 -47.98138638 0.56223320
v -18.16342809 -48.04710599 0.56078363
v -18.20076635 -48.03984280 0.56023431
v -18.21626928 -48.00485440 0.56043267
v -18.15965917 -47.95788785 0.56205009
v -18.19800451 -47.96830960 0.56124138
v -11.12276342 -42.76077478 0.76943145
v -11.16229894 -42.74131982 0.78935942
v -11.12232092 -42.72267358 0.77005705
v -11.15270117 -42.78405969 0.76843963
v -11.18945959 -42.77487390 0.76781402
v -11.20558813 -42.74028222 0.76805816
v -11.15163305 -42.69833581 0.76985869
v -11.18871191 -42.70617883 0.76895842
v -13.45026281 -44.46093958 0.69670834
v -13.48923376 -44.44160670 0.71663631
v -13.44838598 -44.42285365 0.69733394
v -13.48107031 -44.48427027 0.69571652
v -13.51752355 -44.47517603 0.69510617
v -13.53252294 -44.44064540 0.69533504
v -24.36711004 -54.08020236 0.19477204
v -20.47933080 -49.86499236 0.46839196
v -20.51991918 -49.84610197 0.48787743
v -20.47794225 -49.82670805 0.46961265
v -20.51070287 -49.88884184 0.46645410
v -20.54828527 -49.88025115 0.46527917
v -20.56435278 -49.84575102 0.46573692
v -20.50780370 -49.80272124 0.46921592
v -20.54646948 -49.81117461 0.46750694
v -22.37562444 -51.57411408 0.32846914
v -13.47693517 -44.39859217 0.69712031
v -13.51451757 -44.40651148 0.69622005
v -22.40003851 -51.59717011 0.32654654
v -22.43304327 -51.58835053 0.32528006
v -24.36849859 -54.11940219 0.19400911
v -24.40067938 -54.14337375 0.19280367
v -24.43926885 -54.13388278 0.19208650
v -24.45545843 -54.09823825 0.19237641
v 70.48988459 -12.81077448 -2.11111237
v 70.45217249 -12.79109065 -2.10674836
v 70.59354517 -12.79670568 -0.89402558
v 70.63094446 -12.81637426 -0.89834381
v 62.29773829 -11.22866678 -1.10703853
v 62.30219385 -11.26670694 -1.10735896
v 62.42286036 -11.13920430 0.10759158
v 62.41827509 -11.10099629 0.10792727
v 62.27590296 -11.29408120 -1.10481074
v 62.39624903 -11.16665486 0.11018558
v 70.43278620 -12.74972407 -2.10452058
v 70.57441065 -12.75538488 -0.89182832
v 70.43278620 -12.74972407 -2.10452058
v 70.44621393 -12.71739069 -2.10609224
v 70.58777735 -12.72305151 -0.89338472
v 70.57441065 -12.75538488 -0.89182832
v 62.23838160 -11.29014444 -1.10125544
v 62.35828516 -11.16262654 0.11377139
v 62.21811030 -11.25785684 -1.09942439
v 62.33764002 -11.13018635 0.11564822
v 62.21811030 -11.25785684 -1.09942439
v 62.23009608 -11.22155618 -1.10064510
v 62.34975550 -11.09374836 0.11441225
v 62.33764002 -11.13018635 0.11564822
v 64.99532435 -11.72271590 -1.41587634
v 65.02687952 -11.74322371 -1.41990466
v 65.18570063 -11.74479517 -0.20934863
v 65.15363428 -11.72367701 -0.20524402
v 64.95967982 -11.73509078 -1.41135974
v 65.11749384 -11.73518213 -0.20066638
v 65.03052637 -11.78106551 -1.42042345
v 65.18946192 -11.78275904 -0.20986742
v 65.00367091 -11.80784468 -1.41702074
v 65.16229365 -11.80918726 -0.20643419
v 64.96639368 -11.80334334 -1.41227525
v 65.12445948 -11.80386194 -0.20161241
v 64.94687769 -11.77096419 -1.40975756
v 65.10463068 -11.77079614 -0.19904894
v 64.94687769 -11.77096419 -1.40975756
v 65.10463068 -11.77079614 -0.19904894
v 67.73771021 -12.09008656 -1.77464093
v 67.76940272 -12.11118947 -1.77851666
v 67.92118189 -12.11215058 -0.56704510
v 67.88962672 -12.09106293 -0.56318463
v 67.70156214 -12.10180531 -1.77023114
v 67.85366938 -12.10279694 -0.55880536
v 70.48247645 -12.71865717 -2.11030367
v 70.62372706 -12.72428747 -0.89755037
v 70.51422999 -12.75291316 -2.11396577
v 70.65509913 -12.75848242 -0.90118196
v 67.68833277 -12.13746510 -1.76861370
v 67.84043238 -12.13845673 -0.55718792
v 67.70765040 -12.17022572 -1.77099407
v 67.68833277 -12.13746510 -1.76861370
v 67.84043238 -12.13845673 -0.55718792
v 67.85968897 -12.17121735 -0.55955303
v 67.74524042 -12.17542897 -1.77558696
v 67.89708826 -12.17639008 -0.56413066
v 67.77266047 -12.14913808 -1.77892864
v 67.92438624 -12.15008392 -0.56745708
v 62.26561091 -11.20854043 -1.10404781
v 62.38570521 -11.08071736 0.11096376
v 70.51743433 -12.79391352 -2.11431672
v 70.65824244 -12.79946752 -0.90151765
v 76.02285120 -16.17809941 -2.68838233
v 75.99605677 -16.20484806 -2.68557471
v 76.12130091 -16.20208603 -1.47108191
v 76.14803431 -16.17533737 -1.47388953
v 73.18797419 -14.71958801 -2.39372009
v 73.20102808 -14.68954345 -2.39509339
v 73.32431910 -14.68534709 -1.18040223
v 73.31127283 -14.71539164 -1.17902893
v 75.98645899 -16.11976506 -2.68479652
v 76.01864741 -16.14025761 -2.68804664
v 76.14383051 -16.13751083 -1.47355385
v 76.11170313 -16.11701828 -1.47030373
v 75.95063135 -16.13185002 -2.68108864
v 76.07587549 -16.12911850 -1.46661110
v 75.95828364 -16.20005680 -2.68172949
v 76.08359644 -16.19731002 -1.46723670
v 75.93814204 -16.16735722 -2.67973060
v 76.06345484 -16.16462570 -1.46523780
v 75.93814204 -16.16735722 -2.67973060
v 76.06345484 -16.16462570 -1.46523780
v 73.26904414 -14.74185058 -2.40157836
v 73.27256129 -14.78463623 -2.40179198
v 73.39560816 -14.78025676 -1.18707030
v 73.39209101 -14.73747111 -1.18685669
v 73.23716852 -14.69938537 -2.39858765
v 73.36034510 -14.69511271 -1.18388123
v 73.24532435 -14.79569885 -2.39910643
v 73.36843226 -14.79136515 -1.18438475
v 73.20755122 -14.76664611 -2.39550536
v 73.18797419 -14.71958801 -2.39372009
v 73.31127283 -14.71539164 -1.17902893
v 73.33078882 -14.76240397 -1.18079894
v 59.53859827 -11.18173070 -0.85656552
v 59.54430506 -11.21934362 -0.85700802
v 59.65549586 -11.21429276 0.35885807
v 59.64978907 -11.17707657 0.35928531
v 59.51857874 -11.24749608 -0.85450557
v 59.62976954 -11.24354386 0.36136052
v 59.48067591 -11.24493260 -0.85093501
v 59.59186671 -11.24270462 0.36491582
v 59.45928309 -11.21362157 -0.84899715
v 59.57041285 -11.21241593 0.36685368
v 54.01184199 -11.00428617 -0.40107543
v 53.98812220 -11.03413236 -0.39932067
v 54.07283137 -11.03036324 0.81866639
v 54.09661219 -11.00089852 0.81691163
v 45.73416827 -11.53765707 -0.00205801
v 45.73824236 -11.49986105 -0.00211905
v 45.84842608 -11.57324037 1.21870615
v 45.84435198 -11.61105165 1.21876719
v 59.45928309 -11.21362157 -0.84899715
v 59.47033045 -11.17713780 -0.85014157
v 59.58145258 -11.17556595 0.36572452
v 59.57041285 -11.21241593 0.36685368
v 53.95015833 -11.03417814 -0.39666564
v 54.03474543 -11.03001229 0.82132142
v 53.92656824 -11.00442350 -0.39513976
v 54.01114771 -11.00012032 0.82286255
v 45.76120684 -11.56484824 -0.00247000
v 45.73416827 -11.53765707 -0.00205801
v 45.84435198 -11.61105165 1.21876719
v 45.87171099 -11.63831911 1.21835521
v 45.79910967 -11.56092673 -0.00304983
v 45.91004870 -11.63448915 1.21776012
v 45.81925127 -11.52885275 -0.00337027
v 45.93044207 -11.60246095 1.21743968
v 45.80657885 -11.49278098 -0.00317191
v 45.91763994 -11.56634340 1.21763804
v 56.78045771 -11.21244660 -0.60647396
v 56.75579951 -11.24102631 -0.60423091
v 56.85601160 -11.33024425 0.61258124
v 56.88079188 -11.30181713 0.61032293
v 53.92656824 -11.00442350 -0.39513976
v 53.93503687 -10.96726835 -0.39585693
v 54.01962397 -10.96299569 0.82213013
v 54.01114771 -11.00012032 0.82286255
v 48.46482012 -11.15647728 -0.06837277
v 48.47586748 -11.19286949 -0.06867794
v 48.52361224 -11.19021426 1.15132328
v 48.51244280 -11.15383731 1.15162845
v 48.42955706 -11.14265281 -0.06725888
v 48.47673724 -11.14004336 1.15275760
v 54.00356409 -10.96714628 -0.40063293
v 54.08833430 -10.96362130 0.81735413
v 56.77349207 -11.17503205 -0.60598568
v 56.87382624 -11.26443310 0.61081121
v 45.77049944 -11.47985678 -0.00262260
v 45.88112566 -11.55331239 1.21820261
v 56.71796534 -11.23921052 -0.60095027
v 56.81791804 -11.32830639 0.61589239
v 59.50565455 -11.16291661 -0.85351376
v 59.61684534 -11.15983414 0.36235233
v 51.21536181 -11.07470545 -0.21630675
v 51.17740557 -11.07569727 -0.21391112
v 51.25232622 -11.07151616 1.00471681
v 51.29047320 -11.07052434 1.00232118
v 51.19346545 -10.99172815 -0.21520813
v 51.22829363 -11.00739893 -0.21734435
v 51.30345843 -11.00321782 1.00126832
v 51.26851580 -10.98754705 1.00340454
v 56.69562647 -11.20838776 -0.59908871
v 56.79532740 -11.29745312 0.61775396
v 53.96936152 -10.95063627 -0.39831360
v 54.05400965 -10.94663826 0.81967346
v 56.69562647 -11.20838776 -0.59908871
v 56.70534632 -11.17176667 -0.60005002
v 56.80512354 -11.26093883 0.61679265
v 56.79532740 -11.29745312 0.61775396
v 48.39680407 -11.16186363 -0.06617551
v 48.44348833 -11.15929995 1.15387149
v 51.15273974 -11.04652247 -0.21246153
v 51.15983507 -11.00918421 -0.21304137
v 51.23468706 -11.00500310 1.00558655
v 51.22759936 -11.04234136 1.00616639
v 48.39121935 -11.19956810 -0.06593136
v 48.43777392 -11.19700442 1.15411564
v 48.41694567 -11.22743064 -0.06670955
v 48.39121935 -11.19956810 -0.06593136
v 48.43777392 -11.19700442 1.15411564
v 48.46381304 -11.22485171 1.15332219
v 51.23795244 -11.04430994 -0.21783263
v 51.31312487 -11.04012884 1.00078004
v 56.74004481 -11.15688935 -0.60313229
v 56.84012720 -11.24621410 0.61369511
v 51.15273974 -11.04652247 -0.21246153
v 51.22759936 -11.04234136 1.00616639
v 48.45458910 -11.22443992 -0.06793026
v 48.50202868 -11.22183047 1.15207096
v 42.88655016 -11.80160360 0.01637465
v 42.91786120 -11.77961569 0.01638990
v 42.92049334 -11.78172120 1.23732191
v 42.88912127 -11.80373964 1.23730665
v 42.95432207 -11.79035788 0.01635939
v 42.95707629 -11.79243287 1.23727614
v 42.91215441 -11.86521750 0.01623733
v 42.88410113 -11.83965902 0.01629836
v 42.88661120 -11.84179506 1.23723037
v 42.91472552 -11.86733827 1.23716934
v 42.94967577 -11.85899191 0.01622207
v 42.95243761 -11.86108217 1.23715408
v 42.96837542 -11.82566672 0.01626784
v 42.97119829 -11.82774171 1.23719985
v 40.21883318 -12.23484259 0.00827230
v 40.18156359 -12.24228888 0.00802816
v 40.16788409 -12.00518236 1.22886858
v 40.20540545 -11.99738512 1.22912798
v 37.44262621 -12.90690070 -0.05045867
v 37.47193072 -12.88207465 -0.04963470
v 37.44419024 -12.89029894 1.17094636
v 37.41501543 -12.91510973 1.17013765
v 37.50926134 -12.88939887 -0.04885650
v 37.48140642 -12.89765368 1.17172456
v 40.15251086 -12.21796637 0.00793661
v 40.15326617 -12.18023138 0.00804341
v 40.13945696 -11.94413194 1.22889908
v 40.13857958 -11.98147020 1.22877702
v 40.18357012 -12.15741949 0.00830281
v 40.17001269 -11.92121324 1.22915848
v 40.22052691 -12.16680365 0.00850117
v 40.20716021 -11.93006334 1.22935685
v 42.88410113 -11.83965902 0.01629836
v 42.88661120 -11.84179506 1.23723037
v 40.23609087 -12.20125799 0.00848592
v 40.22284624 -11.96395311 1.22934159
v 40.15251086 -12.21796637 0.00793661
v 40.13857958 -11.98147020 1.22877702
v 29.49801562 -15.40770943 -0.10841114
v 29.53604052 -15.41004402 -0.10874683
v 29.54538653 -15.30478870 1.11213938
v 29.50743029 -15.30242359 1.11249033
v 26.91425249 -16.61124641 -0.07661163
v 26.90672228 -16.57392341 -0.07670319
v 26.91870806 -16.56926928 1.14416778
v 26.92623827 -16.60659228 1.14425934
v 29.47228930 -15.43615181 -0.10807544
v 29.48176501 -15.33083545 1.11282603
v 32.15224383 -14.48038704 -0.12234257
v 32.17244646 -14.51281197 -0.12232730
v 32.17263720 -14.51261341 1.09860470
v 32.15249560 -14.48017322 1.09858944
v 34.75187609 -13.68648751 -0.10603105
v 34.74936602 -13.64847786 -0.10589373
v 34.73406145 -13.65325366 1.11493147
v 34.73663256 -13.69124805 1.11480940
v 34.78318713 -13.70826180 -0.10569535
v 34.75187609 -13.68648751 -0.10603105
v 34.73663256 -13.69124805 1.11480940
v 34.76781390 -13.71308338 1.11512984
v 34.81989977 -13.69735176 -0.10516130
v 34.80427477 -13.70223438 1.11566390
v 34.83420489 -13.66199715 -0.10481035
v 34.81845019 -13.66692554 1.11599959
v 32.15964434 -14.54850228 -0.12235781
v 32.15995714 -14.54825794 1.09858945
v 32.12331316 -14.56060250 -0.12240359
v 32.12387774 -14.56028186 1.09852842
v 26.94807360 -16.62877876 -0.07693206
v 26.91425249 -16.61124641 -0.07661163
v 26.92623827 -16.60659228 1.14425934
v 26.96012041 -16.62412463 1.14393891
v 26.98284075 -16.61324531 -0.07743560
v 26.99494860 -16.60856067 1.14343537
v 32.09100268 -14.53998787 -0.12244937
v 32.09168932 -14.53962146 1.09849790
v 29.55756304 -15.44137032 -0.10883838
v 29.56690905 -15.33611499 1.11204783
v 29.54664538 -15.47805245 -0.10860949
v 29.55599139 -15.37278186 1.11229198
v 29.51131365 -15.49251778 -0.10822802
v 29.52072832 -15.38721668 1.11265819
v 29.47830889 -15.47384102 -0.10799914
v 29.48778460 -15.36852466 1.11290233
v 29.47830889 -15.47384102 -0.10799914
v 29.48778460 -15.36852466 1.11290233
v 32.11408922 -14.47565682 -0.12238834
v 32.11453173 -14.47538196 1.09854366
v 26.99230883 -16.57636482 -0.07772553
v 27.00442431 -16.57168017 1.14314544
v 32.08679888 -14.50222237 -0.12243412
v 32.08742449 -14.50188648 1.09849789
v 26.96947405 -16.54589302 -0.07758820
v 26.98158190 -16.54120837 1.14328277
v 26.93131945 -16.54479439 -0.07713044
v 26.94336626 -16.54012500 1.14374053
v 34.81556628 -13.62879402 -0.10493243
v 34.79981921 -13.63370716 1.11589277
v 37.52632830 -12.92330390 -0.04870390
v 37.51058123 -12.95826179 -0.04928373
v 37.48277972 -12.96650134 1.17129732
v 37.49846575 -12.93155871 1.17187715
v 37.44344256 -12.94507819 -0.05068754
v 37.41589281 -12.95327197 1.16990877
v 34.77773211 -13.62275154 -0.10540545
v 34.76222918 -13.62760364 1.11541975
v 37.47362444 -12.96796638 -0.05016874
v 37.44344256 -12.94507819 -0.05068754
v 37.41589281 -12.95327197 1.16990877
v 37.44601366 -12.97617541 1.17042757
v 32.09100268 -14.53998787 -0.12244937
v 32.09168932 -14.53962146 1.09849790
v 12.46233294 -24.85811835 -0.03605242
v 12.48918841 -24.88512641 -0.03608294
v 12.49489519 -24.90699206 1.18484907
v 12.46803973 -24.87995348 1.18487959
v 12.48693011 -24.92200690 -0.03614397
v 12.49269793 -24.94379626 1.18477278
v 19.55808947 -20.77973395 -0.02706566
v 19.55219195 -20.82020026 -0.02705040
v 19.55520556 -20.84859667 1.19388161
v 19.56110308 -20.80797777 1.19386635
v 24.39581225 -17.79494697 -0.05228893
v 24.38690111 -17.75799018 -0.05231945
v 24.39468310 -17.75536547 1.16858204
v 24.40353319 -17.79232226 1.16861256
v 24.43032000 -17.81141120 -0.05248729
v 24.39581225 -17.79494697 -0.05228893
v 24.40353319 -17.79232226 1.16861256
v 24.43810198 -17.80877123 1.16842946
v 24.46464464 -17.79488593 -0.05273143
v 24.47248766 -17.79221545 1.16817006
v 24.47280047 -17.75788337 -0.05286877
v 24.48071215 -17.75518237 1.16804798
v 24.44883654 -17.72818977 -0.05277722
v 24.45674059 -17.72550402 1.16812427
v 19.51912615 -20.84351569 -0.02698936
v 19.52213976 -20.87217150 1.19394265
v 19.48380205 -20.83207160 -0.02692832
v 19.48680804 -20.86087999 1.19400369
v 19.48380205 -20.83207160 -0.02692832
v 19.47275469 -20.79455024 -0.02689781
v 19.47570727 -20.82332811 1.19404946
v 19.48680804 -20.86087999 1.19400369
v 21.93221209 -19.26027900 -0.03677050
v 21.97017596 -19.25507575 -0.03695361
v 21.97601244 -19.61451159 1.18396320
v 21.93798754 -19.62055407 1.18414631
v 21.90981219 -19.29435187 -0.03664842
v 21.91551897 -19.65458117 1.18428364
v 21.99502489 -19.28260261 -0.03702990
v 22.00079272 -19.64098559 1.18390217
v 21.98824999 -19.32203132 -0.03695359
v 21.99401781 -19.67989550 1.18396321
v 21.95474169 -19.34380561 -0.03678574
v 21.96044848 -19.70209704 1.18414632
v 21.91991350 -19.33147651 -0.03664842
v 21.92562792 -19.69079027 1.18428365
v 21.91991350 -19.33147651 -0.03664842
v 21.92562792 -19.69079027 1.18428365
v 24.41055987 -17.72823554 -0.05253308
v 24.41840288 -17.72556506 1.16836841
v 17.12799761 -22.35474616 -0.02457822
v 17.15428850 -22.38228827 -0.02462399
v 17.15523455 -22.42588243 1.19630802
v 17.12887499 -22.39834032 1.19635379
v 17.14926836 -22.42008429 -0.02465451
v 17.15015337 -22.46370897 1.19627751
v 17.11657641 -22.43973761 -0.02465450
v 17.11746142 -22.48337755 1.19629277
v 17.06895373 -22.39017707 -0.02457822
v 17.08997271 -22.35825568 -0.02456296
v 17.09085009 -22.40188036 1.19638431
v 17.06983111 -22.43383226 1.19636906
v 14.70838854 -23.69579535 -0.02590552
v 14.69577715 -23.66080695 -0.02585975
v 14.69420550 -23.69230089 1.19507226
v 14.70681689 -23.72724352 1.19502649
v 14.74440691 -23.71126777 -0.02592078
v 14.70838854 -23.69579535 -0.02590552
v 14.70681689 -23.72724352 1.19502649
v 14.74283526 -23.74285326 1.19501124
v 19.49439928 -20.75907355 -0.02692834
v 19.53242419 -20.75249701 -0.02700463
v 19.53543780 -20.78080187 1.19392738
v 19.49741289 -20.78760729 1.19400368
v 17.08087847 -22.42638617 -0.02460873
v 17.08175585 -22.47004137 1.19632329
v 17.08087847 -22.42638617 -0.02460873
v 17.08175585 -22.47004137 1.19632329
v 10.29063341 -26.46332771 -0.04232353
v 10.32608721 -26.45585090 -0.04210990
v 10.34007952 -26.47562609 1.17880685
v 10.30475542 -26.48324023 1.17860848
v 10.27375719 -26.49834663 -0.04256766
v 10.28800127 -26.51842699 1.17834909
v 14.77677843 -23.69549018 -0.02590552
v 14.77527544 -23.72730455 1.19504175
v 10.35325548 -26.48153144 -0.04209464
v 10.36724779 -26.50126086 1.17882211
v 10.35187456 -26.52094489 -0.04227774
v 10.36592791 -26.54078112 1.17863901
v 10.32289049 -26.54451972 -0.04253713
v 10.33706591 -26.56452380 1.17839488
v 10.28818438 -26.53441840 -0.04265921
v 10.30236742 -26.55452929 1.17825754
v 10.28818438 -26.53441840 -0.04265921
v 10.30236742 -26.55452929 1.17825754
v 12.42631457 -24.86142951 -0.03606768
v 12.43215105 -24.88315783 1.18486433
v 12.40849230 -24.89264899 -0.03612871
v 12.41445849 -24.91428576 1.18480330
v 14.78105089 -23.66042548 -0.02584449
v 14.77960894 -23.69236193 1.19508752
v 14.75418780 -23.63237983 -0.02581398
v 14.75268481 -23.66425524 1.19511804
v 14.71616289 -23.63251716 -0.02581398
v 14.71465990 -23.66420946 1.19511804
v 12.42223284 -24.92807990 -0.03617448
v 12.42819903 -24.94970141 1.18475753
v 12.45706103 -24.94114142 -0.03618974
v 12.42223284 -24.92807990 -0.03617448
v 12.42819903 -24.94970141 1.18475753
v 12.46295855 -24.96283922 1.18474227
v 5.39588091 -29.65942985 -0.08048524
v 5.42122576 -29.62808830 -0.08028688
v 5.40152666 -29.65047275 1.14061462
v 5.37573168 -29.68173800 1.14041626
v 2.79147265 -31.13624794 -0.10799659
v 2.75827715 -31.15661843 -0.10845435
v 2.70017168 -31.17201435 1.11238610
v 2.73361895 -31.15173541 1.11285912
v 2.79473040 -31.09936745 -0.10769142
v 2.73706744 -31.11490070 1.11316429
v 2.76580736 -31.07364113 -0.10776772
v 2.70801470 -31.08914386 1.11308800
v 2.70594713 -31.11033852 -0.10857643
v 2.72621081 -31.07849343 -0.10816445
v 2.66817400 -31.09393512 1.11269127
v 2.64771197 -31.12570392 1.11226403
v 0.62039873 -32.69621499 -0.14347302
v 0.63407824 -32.66258462 -0.14306104
v 0.58965227 -32.67180073 1.07779467
v 0.57622454 -32.70543110 1.07738269
v 0.66715166 -32.65579446 -0.14263380
v 0.62234423 -32.66501057 1.07822192
v 0.63640520 -32.73120339 -0.14359509
v 0.59229204 -32.74043476 1.07726063
v 0.66991350 -32.74127419 -0.14335094
v 0.63640520 -32.73120339 -0.14359509
v 0.59229204 -32.74043476 1.07726063
v 0.62560961 -32.75049030 1.07750477
v 0.69588396 -32.71888955 -0.14287793
v 0.65120623 -32.72810566 1.07797779
v 0.69457171 -32.68087991 -0.14255750
v 0.64970324 -32.69009602 1.07829822
v -5.04006460 -37.66922221 -0.27407219
v -5.02244070 -37.63534770 -0.27347710
v -4.95510366 -37.64918722 0.94725654
v -4.97280386 -37.68309225 0.94667672
v -4.98510244 -37.62796245 -0.27291253
v -4.91778066 -37.64177145 0.94783638
v -4.95623281 -37.65262065 -0.27279045
v -4.88897207 -37.66641440 0.94794319
v -4.95742300 -37.69069133 -0.27320243
v -4.89016226 -37.70451559 0.94753121
v -7.52292898 -39.30362164 -0.32856106
v -7.49250295 -39.32817303 -0.32839321
v -7.45955923 -39.34434715 0.89226414
v -7.48998525 -39.31979575 0.89209629
v -7.49752310 -39.36622845 -0.32894252
v -7.46457937 -39.38241782 0.89171483
v -7.53397634 -39.38920818 -0.32978175
v -7.50109365 -39.40542808 0.89087560
v -7.57432058 -39.37974773 -0.33030055
v -7.54137685 -39.39598289 0.89035680
v -7.57432058 -39.37974773 -0.33030055
v -7.58869436 -39.34506451 -0.33008693
v -7.55568960 -39.36128440 0.89057042
v -7.54137685 -39.39598289 0.89035680
v -3.10900190 -36.03599772 -0.22785358
v -3.12595442 -36.00117716 -0.22768574
v -3.09018781 -36.01437582 0.99306316
v -3.07311323 -36.04919637 0.99289532
v -3.07669904 -36.04573283 -0.22748737
v -3.10900190 -36.03599772 -0.22785358
v -3.07311323 -36.04919637 0.99289532
v -3.04117658 -36.05891622 0.99327679
v -3.05323103 -36.02293619 -0.22684650
v -3.01827314 -36.03613485 0.99390240
v -1.30206373 -34.37800821 -0.17746933
v -1.31818464 -34.34312662 -0.17728623
v -1.32854536 -34.35492146 1.04350845
v -1.31229475 -34.38981831 1.04331009
v -3.08353498 -35.96006998 -0.22655660
v -3.05623701 -35.98485026 -0.22644978
v -3.02166059 -35.99806417 0.99431438
v -3.04883650 -35.97328390 0.99419231
v -1.26773908 -34.38791116 -0.17704208
v -1.30206373 -34.37800821 -0.17746933
v -1.31229475 -34.38981831 1.04331009
v -1.27853468 -34.39970601 1.04375260
v -1.24094465 -34.36525186 -0.17632492
v -1.25255659 -34.37701619 1.04445450
v -1.24189069 -34.32716592 -0.17586717
v -1.25405958 -34.33889973 1.04492751
v -1.26981428 -34.30226358 -0.17598924
v -1.28179243 -34.31401265 1.04480544
v -4.98792532 -37.71356425 -0.27384330
v -4.92072561 -37.72743429 0.94689035
v -5.02463796 -37.70396648 -0.27422477
v -4.95742300 -37.71783652 0.94650887
v -5.02463796 -37.70396648 -0.27422477
v -4.95742300 -37.71783652 0.94650887
v -7.56591299 -39.31112896 -0.32932400
v -7.53290823 -39.32733360 0.89133336
v 5.46590349 -29.62387688 -0.08010377
v 5.44676897 -29.64636813 1.14079772
v 2.72031328 -31.14503701 -0.10871375
v 2.66202471 -31.16038715 1.11214196
v 2.72031328 -31.14503701 -0.10871375
v 2.66202471 -31.16038715 1.11214196
v -1.30381849 -34.30935892 -0.17663011
v -1.31498792 -34.32113850 1.04416457
v 8.08925555 -28.19689399 -0.06229700
v 8.07526324 -28.16149360 -0.06219019
v 8.09176562 -28.19045458 1.15871130
v 8.10575793 -28.22587023 1.15860450
v 8.12653277 -28.20797187 -0.06214441
v 8.08925555 -28.19689399 -0.06229700
v 8.10575793 -28.22587023 1.15860450
v 8.14328692 -28.23694811 1.15875709
v 8.15903399 -28.18627388 -0.06185449
v 8.17610094 -28.21525012 1.15906226
v 8.16216967 -28.14820320 -0.06162562
v 8.17942736 -28.17716418 1.15927588
v 8.13387224 -28.12235481 -0.06165614
v 8.15093920 -28.15133105 1.15924535
v 8.09515307 -28.12827522 -0.06191554
v 8.11197588 -28.15723620 1.15898595
v 5.40911791 -29.69418938 -0.08057678
v 5.38890765 -29.71648227 1.14032471
v 5.45078203 -29.70632011 -0.08046997
v 5.40911791 -29.69418938 -0.08057678
v 5.38890765 -29.71648227 1.14032471
v 5.43095324 -29.72867404 1.14043152
v 5.48955462 -29.68660576 -0.08025635
v 5.47035906 -29.70905124 1.14064514
v 5.49620745 -29.64993889 -0.08008851
v 5.47732470 -29.67246066 1.14079773
v -3.11464765 -35.96734843 -0.22712117
v -3.07938459 -35.98053182 0.99364299
v -24.53497198 -53.70718620 -1.01572302
v -24.55134466 -53.67096184 -1.01538733
v -24.45545843 -54.09823825 0.19237641
v -24.43926885 -54.13388278 0.19208650
v -15.79256323 -46.12997666 -0.59499366
v -15.77149084 -46.09532395 -0.59418495
v -15.69191625 -46.11400051 0.62639611
v -15.71370580 -46.14871425 0.62558740
v -22.51129034 -51.47047659 -0.88654247
v -22.47872808 -51.46270986 -0.88490978
v -22.40612676 -51.51230073 0.32936940
v -22.43818548 -51.52002168 0.32766042
v -22.52358892 -51.50432058 -0.88834300
v -22.45010259 -51.55392671 0.32581411
v -24.49656561 -53.71826408 -1.01506689
v -24.53497198 -53.70718620 -1.01572302
v -24.43926885 -54.13388278 0.19208650
v -24.40067938 -54.14337375 0.19280367
v -24.46475103 -53.69572685 -1.01392248
v -24.36849859 -54.11940219 0.19400911
v -24.46362188 -53.65666435 -1.01315955
v -24.36711004 -54.08020236 0.19477204
v -24.49398687 -53.63038872 -1.01332740
v -24.39742925 -54.05519321 0.19452789
v -24.53314092 -53.63675163 -1.01431922
v -24.43682745 -54.06320407 0.19345978
v -15.73026159 -46.08685532 -0.59337624
v -15.70052221 -46.11094895 -0.59319313
v -15.62390783 -46.12956447 0.62738793
v -15.65195348 -46.10550136 0.62720482
v -15.70372656 -46.14930955 -0.59374244
v -15.62848547 -46.16797085 0.62682336
v -9.57158735 -41.03009259 -0.39185423
v -9.56247785 -40.99609601 -0.39107604
v -9.50588300 -41.01260582 0.82956605
v -9.51461103 -41.04660240 0.82880312
v -9.53311994 -40.98845136 -0.39032836
v -9.47689131 -41.00497643 0.83031373
v -9.50582197 -41.01288068 -0.39014525
v -9.44973066 -41.02942101 0.83049684
v -18.25472143 -48.00885240 -0.66025520
v -18.27028539 -47.97387926 -0.66005684
v -18.21626928 -48.00485440 0.56043267
v -18.20076635 -48.03984280 0.56023431
v -18.21733740 -48.01629869 -0.65970588
v -18.25472143 -48.00885240 -0.66025520
v -18.20076635 -48.03984280 0.56023431
v -18.16342809 -48.04710599 0.56078363
v -18.18608740 -47.99049608 -0.65882087
v -18.13199499 -48.02105924 0.56168389
v -18.18451574 -47.95096056 -0.65827156
v -18.13036230 -47.98138638 0.56223320
v -18.21387365 -47.92735521 -0.65846993
v -18.15965917 -47.95788785 0.56205009
v -9.50112226 -41.05095136 -0.39067930
v -9.44477155 -41.06747643 0.82996279
v -9.52245405 -41.07405316 -0.39153379
v -9.46566084 -41.09057823 0.82910830
v -9.55364301 -41.06471479 -0.39205259
v -9.49660566 -41.08122460 0.82860476
v -9.55364301 -41.06471479 -0.39205259
v -9.49660566 -41.08122460 0.82860476
v -11.28496435 -42.75677717 -0.45276704
v -11.30103185 -42.72218550 -0.45253816
v -11.20558813 -42.74028222 0.76805816
v -11.18945959 -42.77487390 0.76781402
v -11.24812963 -42.76596296 -0.45215668
v -11.28496435 -42.75677717 -0.45276704
v -11.18945959 -42.77487390 0.76781402
v -11.15270117 -42.78405969 0.76843963
v -11.21813085 -42.74272383 -0.45116487
v -11.12276342 -42.76077478 0.76943145
v -11.21770361 -42.70462263 -0.45053926
v -11.12232092 -42.72267358 0.77005705
v -11.24700048 -42.68030012 -0.45073763
v -11.15163305 -42.69833581 0.76985869
v -11.28415563 -42.68809736 -0.45162264
v -11.18871191 -42.70617883 0.76895842
v -13.59802892 -44.45578231 -0.52542911
v -13.61315038 -44.42123641 -0.52520024
v -13.53252294 -44.44064540 0.69533504
v -13.51752355 -44.47517603 0.69510617
v -13.56133154 -44.46486129 -0.52481876
v -13.59802892 -44.45578231 -0.52542911
v -13.51752355 -44.47517603 0.69510617
v -13.48107031 -44.48427027 0.69571652
v -13.53044775 -44.44153060 -0.52382694
v -13.45026281 -44.46093958 0.69670834
v -13.52869299 -44.40341415 -0.52320134
v -13.44838598 -44.42285365 0.69733394
v -13.55744055 -44.37916793 -0.52341497
v -13.47693517 -44.39859217 0.69712031
v -18.25215795 -47.93754808 -0.65926339
v -18.19800451 -47.96830960 0.56124138
v -20.59552648 -49.83191150 -0.75348610
v -20.61159399 -49.79739612 -0.75302834
v -20.56435278 -49.84575102 0.46573692
v -20.54828527 -49.88025115 0.46527917
v -20.55782201 -49.84071582 -0.75235695
v -20.59552648 -49.83191150 -0.75348610
v -20.54828527 -49.88025115 0.46527917
v -20.51070287 -49.88884184 0.46645410
v -20.52638891 -49.81707996 -0.75049538
v -20.47933080 -49.86499236 0.46839196
v -20.52493932 -49.77888721 -0.74930520
v -20.47794225 -49.82670805 0.46961265
v -20.55492284 -49.75477832 -0.74967142
v -20.50780370 -49.80272124 0.46921592
v -20.59364965 -49.76300281 -0.75131936
v -20.54646948 -49.81117461 0.46750694
v -22.50639227 -51.53865286 -0.88889232
v -22.43304327 -51.58835053 0.32528006
v -22.47294500 -51.54773183 -0.88768687
v -22.50639227 -51.53865286 -0.88889232
v -22.43304327 -51.58835053 0.32528006
v -22.40003851 -51.59717011 0.32654654
v -22.44804266 -51.52463003 -0.88582530
v -22.37562444 -51.57411408 0.32846914
v -22.45060613 -51.48686452 -0.88458935
v -22.37832525 -51.53640961 0.32972035
v -13.59508398 -44.38708724 -0.52429998
v -13.51451757 -44.40651148 0.69622005
v -15.77713659 -46.16459885 -0.59519202
v -15.70052221 -46.18333645 0.62538904
v -15.73760107 -46.17322007 -0.59464270
v -15.77713659 -46.16459885 -0.59519202
v -15.70052221 -46.18333645 0.62538904
v -15.66255834 -46.19192714 0.62593836
vt 0.23137347 0.18955916
vt 0.23308387 0.19703883
vt 0.22616403 0.19370478
vt 0.22616403 0.20037287
vt 0.23137347 0.20451850
vt -0.43928352 0.94818252
vt -0.44360206 0.94166332
vt -0.43664402 0.94244373
vt -0.43924424 0.93611330
vt -0.44517201 0.94899482
vt -0.44512305 0.93397409
vt -0.44985604 0.93760538
vt -0.44987795 0.94430101
vt 0.23786883 0.20304888
vt 0.23308387 0.19703883
vt 0.24076144 0.19703883
vt 0.23137347 0.18955916
vt 0.22616403 0.19370478
vt 0.23786883 0.19102877
vt 0.23137347 0.20451850
vt 0.22616403 0.20037287
vt -0.44987795 0.94430101
vt -0.44360206 0.94166332
vt -0.44517201 0.94899482
vt -0.44985604 0.93760538
vt -0.44512305 0.93397409
vt -0.43924424 0.93611330
vt -0.43928352 0.94818252
vt -0.43664402 0.94244373
vt 0.23786883 0.20304888
vt 0.24076144 0.19703883
vt 0.23786883 0.19102877
vt 0.23786883 0.20304888
vt 0.23308387 0.19703883
vt 0.24076144 0.19703883
vt 0.23786883 0.19102877
vt 0.23137347 0.20451850
vt 0.23137347 0.18955916
vt 0.22616403 0.19370478
vt 0.22616403 0.20037287
vt 0.22616403 0.19370478
vt 0.23308387 0.19703883
vt 0.22616403 0.20037287
vt 0.23137347 0.18955916
vt 0.23786883 0.19102877
vt 0.23137347 0.20451850
vt 0.23786883 0.20304888
vt 0.24076144 0.19703883
vt 0.22616403 0.20037287
vt 0.23308387 0.19703883
vt 0.23137347 0.20451850
vt -0.48700315 0.93585092
vt -0.49133608 0.94140100
vt -0.49284270 0.93371189
vt -0.49289966 0.94873261
vt -0.48704880 0.94792002
vt -0.48442328 0.94218123
vt 0.22616403 0.20037287
vt 0.23308387 0.19703883
vt 0.23137347 0.20451850
vt 0.22616403 0.19370478
vt 0.23137347 0.18955916
vt 0.23786883 0.19102877
vt 0.23786883 0.20304888
vt 0.24076144 0.19703883
vt 0.22616403 0.20037287
vt 0.23308387 0.19703883
vt 0.23137347 0.20451850
vt -0.43664402 0.94244373
vt -0.44360206 0.94166332
vt -0.43924424 0.93611330
vt 0.22616403 0.19370478
vt -0.49754715 0.93734330
vt 0.23137347 0.18955916
vt -0.44985604 0.93760538
vt -0.44987795 0.94430101
vt -0.44517201 0.94899482
vt -0.43928352 0.94818252
vt 0.23786883 0.19102877
vt -0.44512305 0.93397409
vt 0.23786883 0.20304888
vt 0.24076144 0.19703883
vt -0.49757266 0.94403893
vt 0.22616403 0.20037287
vt 0.23308387 0.19703883
vt 0.23137347 0.20451850
vt 0.24076144 0.19703883
vt 0.23786883 0.19102877
vt 0.22616403 0.19370478
vt 0.23137347 0.18955916
vt 0.23786883 0.20304888
vt 0.23786883 0.20304888
vt 0.24076144 0.19703883
vt 0.23786883 0.19102877
vt 0.22616403 0.19370478
vt 0.23137347 0.18955916
vt -0.49284270 0.93371189
vt -0.49133608 0.94140100
vt -0.49754715 0.93734330
vt -0.48700315 0.93585092
vt -0.49757266 0.94403893
vt -0.49289966 0.94873261
vt 0.23786883 0.19102877
vt 0.23308387 0.19703883
vt 0.23137347 0.18955916
vt 0.23137347 0.20451850
vt 0.23786883 0.20304888
vt 0.24076144 0.19703883
vt 0.22616403 0.19370478
vt 0.22616403 0.20037287
vt -0.48704880 0.94792002
vt -0.48442328 0.94218123
vt -0.49757266 0.94403893
vt -0.49133608 0.94140100
vt -0.49289966 0.94873261
vt -0.48704880 0.94792002
vt -0.49133608 0.94140100
vt -0.48442328 0.94218123
vt -0.49754715 0.93734330
vt -0.48700315 0.93585092
vt -0.49289966 0.94873261
vt -0.49284270 0.93371189
vt -0.49754715 0.93734330
vt -0.49757266 0.94403893
vt -0.44987795 0.94430101
vt -0.44360206 0.94166332
vt -0.44517201 0.94899482
vt -0.48704880 0.94792002
vt -0.48442328 0.94218123
vt 0.22616403 0.20037287
vt 0.23308387 0.19703883
vt 0.23137347 0.20451850
vt 0.22616403 0.19370478
vt -0.48700315 0.93585092
vt 0.23137347 0.18955916
vt 0.23786883 0.19102877
vt 0.23786883 0.20304888
vt 0.24076144 0.19703883
vt 0.23137347 0.20451850
vt 0.23308387 0.19703883
vt 0.23786883 0.20304888
vt 0.23786883 0.19102877
vt 0.23137347 0.18955916
vt 0.22616403 0.19370478
vt 0.24076144 0.19703883
vt -0.44985604 0.93760538
vt -0.44512305 0.93397409
vt -0.43924424 0.93611330
vt -0.43928352 0.94818252
vt -0.43664402 0.94244373
vt -0.49284270 0.93371189
vt 0.22616403 0.20037287
vt 0.23786883 0.19102877
vt 0.23308387 0.19703883
vt 0.23137347 0.18955916
vt 0.23137347 0.20451850
vt 0.23786883 0.20304888
vt 0.22616403 0.20037287
vt 0.23308387 0.19703883
vt 0.23137347 0.20451850
vt 0.22616403 0.19370478
vt -0.43928352 0.94818252
vt -0.44360206 0.94166332
vt -0.43664402 0.94244373
vt -0.43924424 0.93611330
vt -0.44517201 0.94899482
vt -0.44512305 0.93397409
vt -0.44985604 0.93760538
vt -0.44987795 0.94430101
vt -0.44987795 0.94430101
vt -0.44360206 0.94166332
vt -0.44517201 0.94899482
vt 0.22616403 0.19370478
vt -0.44985604 0.93760538
vt -0.44512305 0.93397409
vt -0.43924424 0.93611330
vt -0.43928352 0.94818252
vt -0.43664402 0.94244373
vt 0.22616403 0.20037287
vt 0.24076144 0.19703883
vt 0.23786883 0.20304888
vt 0.23308387 0.19703883
vt 0.24076144 0.19703883
vt 0.23786883 0.19102877
vt 0.23137347 0.20451850
vt 0.23137347 0.18955916
vt 0.22616403 0.19370478
vt 0.22616403 0.20037287
vt 0.23786883 0.20304888
vt 0.23308387 0.19703883
vt 0.24076144 0.19703883
vt 0.23786883 0.19102877
vt 0.23137347 0.20451850
vt 0.23137347 0.18955916
vt 0.22616403 0.19370478
vt 0.22616403 0.20037287
vt 0.23786883 0.20304888
vt 0.24076144 0.19703883
vt 0.23786883 0.19102877
vt 0.23137347 0.18955916
vt -0.44987795 0.94430101
vt -0.44360206 0.94166332
vt -0.44517201 0.94899482
vt -0.44985604 0.93760538
vt -0.44512305 0.93397409
vt -0.43924424 0.93611330
vt -0.43928352 0.94818252
vt -0.43664402 0.94244373
vt -0.43928352 0.94818252
vt -0.44360206 0.94166332
vt -0.43664402 0.94244373
vt -0.43924424 0.93611330
vt -0.48442328 0.94218123
vt -0.49133608 0.94140100
vt -0.48700315 0.93585092
vt -0.49289966 0.94873261
vt -0.48704880 0.94792002
vt -0.49284270 0.93371189
vt -0.44517201 0.94899482
vt -0.44360206 0.94166332
vt -0.43928352 0.94818252
vt -0.49754715 0.93734330
vt -0.44987795 0.94430101
vt -0.44360206 0.94166332
vt -0.44517201 0.94899482
vt -0.44985604 0.93760538
vt -0.44512305 0.93397409
vt -0.43924424 0.93611330
vt -0.43928352 0.94818252
vt -0.43664402 0.94244373
vt -0.49757266 0.94403893
vt -0.44517201 0.94899482
vt -0.44512305 0.93397409
vt -0.44985604 0.93760538
vt -0.44987795 0.94430101
vt -0.43928352 0.94818252
vt -0.44360206 0.94166332
vt -0.43664402 0.94244373
vt -0.43924424 0.93611330
vt -0.44517201 0.94899482
vt -0.44512305 0.93397409
vt -0.44985604 0.93760538
vt -0.44987795 0.94430101
vt 0.22616403 0.20037287
vt 0.23308387 0.19703883
vt 0.23137347 0.20451850
vt -0.44512305 0.93397409
vt -0.44985604 0.93760538
vt 0.22616403 0.19370478
vt 0.23137347 0.18955916
vt -0.43924424 0.93611330
vt 0.22616403 0.20037287
vt 0.23308387 0.19703883
vt 0.23137347 0.20451850
vt 0.22616403 0.19370478
vt -0.43664402 0.94244373
vt 0.23786883 0.19102877
vt 0.23137347 0.18955916
vt 0.23786883 0.19102877
vt 0.23786883 0.20304888
vt 0.24076144 0.19703883
vt 0.23786883 0.20304888
vt 0.24076144 0.19703883
vt -0.44987795 0.94430101
vt 0.22616403 0.20037287
vt 0.23308387 0.19703883
vt 0.23137347 0.20451850
vt 0.22616403 0.19370478
vt 0.23137347 0.18955916
vt 0.23786883 0.19102877
vt 0.23786883 0.20304888
vt 0.24076144 0.19703883
vt -0.44987795 0.94430101
vt -0.44360206 0.94166332
vt -0.44517201 0.94899482
vt -0.44985604 0.93760538
vt -0.44512305 0.93397409
vt -0.43924424 0.93611330
vt -0.43928352 0.94818252
vt -0.43664402 0.94244373
vt -0.43928352 0.94818252
vt -0.44360206 0.94166332
vt -0.43664402 0.94244373
vt -0.43924424 0.93611330
vt -0.44517201 0.94899482
vt 0.23786883 0.20304888
vt 0.23308387 0.19703883
vt 0.24076144 0.19703883
vt -0.49284270 0.93371189
vt -0.49133608 0.94140100
vt -0.49754715 0.93734330
vt -0.48700315 0.93585092
vt -0.49289966 0.94873261
vt -0.48704880 0.94792002
vt -0.48442328 0.94218123
vt -0.49757266 0.94403893
vt 0.22616403 0.20037287
vt 0.23308387 0.19703883
vt 0.23137347 0.20451850
vt 0.22616403 0.19370478
vt 0.23137347 0.18955916
vt 0.23786883 0.19102877
vt 0.23786883 0.20304888
vt 0.24076144 0.19703883
vt -0.44987795 0.94430101
vt -0.44360206 0.94166332
vt -0.44517201 0.94899482
vt -0.44985604 0.93760538
vt -0.44512305 0.93397409
vt -0.43924424 0.93611330
vt -0.43928352 0.94818252
vt -0.43664402 0.94244373
vt -0.49757266 0.94403893
vt -0.49133608 0.94140100
vt -0.49289966 0.94873261
vt -0.49754715 0.93734330
vt -0.49284270 0.93371189
vt -0.48700315 0.93585092
vt 0.23137347 0.20451850
vt -0.49757266 0.94403893
vt -0.49133608 0.94140100
vt -0.49289966 0.94873261
vt -0.49754715 0.93734330
vt -0.49284270 0.93371189
vt -0.48700315 0.93585092
vt -0.48704880 0.94792002
vt -0.48442328 0.94218123
vt -0.44987795 0.94430101
vt -0.48704880 0.94792002
vt -0.48442328 0.94218123
vt -0.44985604 0.93760538
vt -0.44512305 0.93397409
vt 0.22616403 0.20037287
vt 0.22616403 0.19370478
vt 0.23137347 0.18955916
vt 0.23786883 0.19102877
vt 0.25155810 0.99992216
vt 0.24497010 0.99992216
vt 0.24497016 0.78375673
vt 0.25155815 0.78375673
vt 0.97723842 0.00009668
vt 0.97065890 0.00009668
vt 0.97065896 0.21626210
vt 0.97723848 0.21626210
vt 0.96408117 0.00009668
vt 0.96408123 0.21626210
vt 0.23839243 0.99992216
vt 0.23839255 0.78375673
vt 0.28447440 0.99992216
vt 0.27789488 0.99992216
vt 0.27789506 0.78375673
vt 0.28447458 0.78375673
vt 0.95749319 0.00009668
vt 0.95749325 0.21626210
vt 0.95091552 0.00009668
vt 0.95091563 0.21626210
vt 0.99699748 0.00009668
vt 0.99041796 0.00009668
vt 0.99041814 0.21626210
vt 0.99699765 0.21626210
vt 0.27130511 0.99992216
vt 0.26471534 0.99992216
vt 0.26471540 0.78375673
vt 0.27130529 0.78375673
vt 0.27789488 0.99992216
vt 0.27789506 0.78375673
vt 0.25813583 0.99992216
vt 0.25813589 0.78375673
vt 0.25155810 0.99992216
vt 0.25155815 0.78375673
vt 0.24497010 0.99992216
vt 0.24497016 0.78375673
vt 0.23839243 0.99992216
vt 0.23839255 0.78375673
vt 0.28447440 0.99992216
vt 0.28447458 0.78375673
vt 0.98382819 0.00009668
vt 0.97723842 0.00009668
vt 0.97723848 0.21626210
vt 0.98382837 0.21626210
vt 0.99041796 0.00009668
vt 0.99041814 0.21626210
vt 0.27130511 0.99992216
vt 0.27130529 0.78375673
vt 0.26471534 0.99992216
vt 0.26471540 0.78375673
vt 0.99699748 0.00009668
vt 0.99699765 0.21626210
vt 0.95749319 0.00009668
vt 0.95091552 0.00009668
vt 0.95091563 0.21626210
vt 0.95749325 0.21626210
vt 0.96408117 0.00009668
vt 0.96408123 0.21626210
vt 0.97065890 0.00009668
vt 0.97065896 0.21626210
vt 0.98382819 0.00009668
vt 0.98382837 0.21626210
vt 0.25813583 0.99992216
vt 0.25813589 0.78375673
vt 0.97065890 0.00009668
vt 0.96408117 0.00009668
vt 0.96408123 0.21626210
vt 0.97065896 0.21626210
vt 0.99699748 0.00009668
vt 0.99041796 0.00009668
vt 0.99041814 0.21626210
vt 0.99699765 0.21626210
vt 0.98382819 0.00009668
vt 0.97723842 0.00009668
vt 0.97723848 0.21626210
vt 0.98382837 0.21626210
vt 0.99041796 0.00009668
vt 0.99041814 0.21626210
vt 0.95749319 0.00009668
vt 0.95749325 0.21626210
vt 0.95091552 0.00009668
vt 0.95091563 0.21626210
vt 0.99699748 0.00009668
vt 0.99699765 0.21626210
vt 0.97723842 0.00009668
vt 0.97065890 0.00009668
vt 0.97065896 0.21626210
vt 0.97723848 0.21626210
vt 0.98382819 0.00009668
vt 0.98382837 0.21626210
vt 0.96408117 0.00009668
vt 0.96408123 0.21626210
vt 0.95749319 0.00009668
vt 0.95091552 0.00009668
vt 0.95091563 0.21626210
vt 0.95749325 0.21626210
vt 0.97723842 0.00009668
vt 0.97065890 0.00009668
vt 0.97065896 0.21626210
vt 0.97723848 0.21626210
vt 0.96408117 0.00009668
vt 0.96408123 0.21626210
vt 0.95749319 0.00009668
vt 0.95749325 0.21626210
vt 0.95091552 0.00009668
vt 0.95091563 0.21626210
vt 0.25813583 0.99992216
vt 0.25155810 0.99992216
vt 0.25155815 0.78375673
vt 0.25813589 0.78375673
vt 0.99699748 0.00009668
vt 0.99041796 0.00009668
vt 0.99041814 0.21626210
vt 0.99699765 0.21626210
vt 0.99699748 0.00009668
vt 0.99041796 0.00009668
vt 0.99041814 0.21626210
vt 0.99699765 0.21626210
vt 0.24497010 0.99992216
vt 0.24497016 0.78375673
vt 0.23839243 0.99992216
vt 0.23839255 0.78375673
vt 0.95749319 0.00009668
vt 0.95091552 0.00009668
vt 0.95091563 0.21626210
vt 0.95749325 0.21626210
vt 0.96408117 0.00009668
vt 0.96408123 0.21626210
vt 0.97065890 0.00009668
vt 0.97065896 0.21626210
vt 0.97723842 0.00009668
vt 0.97723848 0.21626210
vt 0.97065890 0.00009668
vt 0.96408117 0.00009668
vt 0.96408123 0.21626210
vt 0.97065896 0.21626210
vt 0.28447440 0.99992216
vt 0.27789488 0.99992216
vt 0.27789506 0.78375673
vt 0.28447458 0.78375673
vt 0.97723842 0.00009668
vt 0.97065890 0.00009668
vt 0.97065896 0.21626210
vt 0.97723848 0.21626210
vt 0.98382819 0.00009668
vt 0.98382837 0.21626210
vt 0.26471534 0.99992216
vt 0.26471540 0.78375673
vt 0.97723842 0.00009668
vt 0.97723848 0.21626210
vt 0.98382819 0.00009668
vt 0.98382837 0.21626210
vt 0.95749319 0.00009668
vt 0.95749325 0.21626210
vt 0.98382819 0.00009668
vt 0.98382837 0.21626210
vt 0.20149136 0.99964708
vt 0.19490337 0.99964708
vt 0.19490343 0.78348166
vt 0.20149142 0.78348166
vt 0.22123837 0.99964708
vt 0.21464860 0.99964708
vt 0.21464866 0.78348166
vt 0.22123855 0.78348166
vt 0.95091552 0.00009668
vt 0.95091563 0.21626210
vt 0.27130511 0.99992216
vt 0.27130529 0.78375673
vt 0.99699748 0.00009668
vt 0.99041796 0.00009668
vt 0.99041814 0.21626210
vt 0.99699765 0.21626210
vt 0.99041796 0.00009668
vt 0.99041814 0.21626210
vt 0.23440766 0.99964708
vt 0.22782815 0.99964708
vt 0.22782832 0.78348166
vt 0.23440784 0.78348166
vt 0.99699748 0.00009668
vt 0.99699765 0.21626210
vt 0.95749319 0.00009668
vt 0.95091552 0.00009668
vt 0.95091563 0.21626210
vt 0.95749325 0.21626210
vt 0.20806909 0.99964708
vt 0.20806915 0.78348166
vt 0.98382819 0.00009668
vt 0.98382837 0.21626210
vt 0.18832570 0.99964708
vt 0.18832582 0.78348166
vt 0.96408117 0.00009668
vt 0.96408123 0.21626210
vt 0.22782815 0.99964708
vt 0.22123837 0.99964708
vt 0.22123855 0.78348166
vt 0.22782832 0.78348166
vt 0.21464860 0.99964708
vt 0.21464866 0.78348166
vt 0.19490337 0.99964708
vt 0.18832570 0.99964708
vt 0.18832582 0.78348166
vt 0.19490343 0.78348166
vt 0.20149136 0.99964708
vt 0.20149142 0.78348166
vt 0.20806909 0.99964708
vt 0.20806915 0.78348166
vt 0.96408117 0.00009668
vt 0.95749319 0.00009668
vt 0.95749325 0.21626210
vt 0.96408123 0.21626210
vt 0.99041796 0.00009668
vt 0.98382819 0.00009668
vt 0.98382837 0.21626210
vt 0.99041814 0.21626210
vt 0.97723842 0.00009668
vt 0.97723848 0.21626210
vt 0.99699748 0.00009668
vt 0.99041796 0.00009668
vt 0.99041814 0.21626210
vt 0.99699765 0.21626210
vt 0.98382819 0.00009668
vt 0.98382837 0.21626210
vt 0.97723842 0.00009668
vt 0.97723848 0.21626210
vt 0.23440766 0.99964708
vt 0.23440784 0.78348166
vt 0.97065890 0.00009668
vt 0.97065896 0.21626210
vt 0.95091552 0.00009668
vt 0.95091563 0.21626210
vt 0.22123837 0.99964708
vt 0.21464860 0.99964708
vt 0.21464866 0.78348166
vt 0.22123855 0.78348166
vt 0.28447440 0.99992216
vt 0.27789488 0.99992216
vt 0.27789506 0.78375673
vt 0.28447458 0.78375673
vt 0.22782815 0.99964708
vt 0.22782832 0.78348166
vt 0.21464860 0.99964708
vt 0.20806909 0.99964708
vt 0.20806915 0.78348166
vt 0.21464866 0.78348166
vt 0.99699748 0.00009668
vt 0.99041796 0.00009668
vt 0.99041814 0.21626210
vt 0.99699765 0.21626210
vt 0.95749319 0.00009668
vt 0.95091552 0.00009668
vt 0.95091563 0.21626210
vt 0.95749325 0.21626210
vt 0.96408117 0.00009668
vt 0.96408123 0.21626210
vt 0.97065890 0.00009668
vt 0.97065896 0.21626210
vt 0.20149136 0.99964708
vt 0.20149142 0.78348166
vt 0.19490337 0.99964708
vt 0.19490343 0.78348166
vt 0.24497010 0.99992216
vt 0.23839243 0.99992216
vt 0.23839255 0.78375673
vt 0.24497016 0.78375673
vt 0.25155810 0.99992216
vt 0.25155815 0.78375673
vt 0.18832570 0.99964708
vt 0.18832582 0.78348166
vt 0.20806909 0.99964708
vt 0.20806915 0.78348166
vt 0.20149136 0.99964708
vt 0.20149142 0.78348166
vt 0.19490337 0.99964708
vt 0.19490343 0.78348166
vt 0.18832570 0.99964708
vt 0.18832582 0.78348166
vt 0.23440766 0.99964708
vt 0.23440784 0.78348166
vt 0.22123837 0.99964708
vt 0.22123855 0.78348166
vt 0.25813583 0.99992216
vt 0.25813589 0.78375673
vt 0.22782815 0.99964708
vt 0.22782832 0.78348166
vt 0.26471534 0.99992216
vt 0.26471540 0.78375673
vt 0.27130511 0.99992216
vt 0.27130529 0.78375673
vt 0.97723842 0.00009668
vt 0.97723848 0.21626210
vt 0.97065890 0.00009668
vt 0.96408117 0.00009668
vt 0.96408123 0.21626210
vt 0.97065896 0.21626210
vt 0.99699748 0.00009668
vt 0.99699765 0.21626210
vt 0.98382819 0.00009668
vt 0.98382837 0.21626210
vt 0.95749319 0.00009668
vt 0.95091552 0.00009668
vt 0.95091563 0.21626210
vt 0.95749325 0.21626210
vt 0.23440766 0.99964708
vt 0.23440784 0.78348166
vt 0.97723842 0.00009668
vt 0.97065890 0.00009668
vt 0.97065896 0.21626210
vt 0.97723848 0.21626210
vt 0.96408117 0.00009668
vt 0.96408123 0.21626210
vt 0.97065890 0.00009668
vt 0.96408117 0.00009668
vt 0.96408123 0.21626210
vt 0.97065896 0.21626210
vt 0.28447440 0.99992216
vt 0.27789488 0.99992216
vt 0.27789506 0.78375673
vt 0.28447458 0.78375673
vt 0.24497010 0.99992216
vt 0.23839243 0.99992216
vt 0.23839255 0.78375673
vt 0.24497016 0.78375673
vt 0.25155810 0.99992216
vt 0.25155815 0.78375673
vt 0.25813583 0.99992216
vt 0.25813589 0.78375673
vt 0.26471534 0.99992216
vt 0.26471540 0.78375673
vt 0.95749319 0.00009668
vt 0.95749325 0.21626210
vt 0.95091552 0.00009668
vt 0.95091563 0.21626210
vt 0.99699748 0.00009668
vt 0.99041796 0.00009668
vt 0.99041814 0.21626210
vt 0.99699765 0.21626210
vt 0.27130511 0.99992216
vt 0.26471534 0.99992216
vt 0.26471540 0.78375673
vt 0.27130529 0.78375673
vt 0.27789488 0.99992216
vt 0.27789506 0.78375673
vt 0.25813583 0.99992216
vt 0.25813589 0.78375673
vt 0.25155810 0.99992216
vt 0.25155815 0.78375673
vt 0.24497010 0.99992216
vt 0.24497016 0.78375673
vt 0.23839243 0.99992216
vt 0.23839255 0.78375673
vt 0.28447440 0.99992216
vt 0.28447458 0.78375673
vt 0.27130511 0.99992216
vt 0.27130529 0.78375673
vt 0.97723842 0.00009668
vt 0.97065890 0.00009668
vt 0.97065896 0.21626210
vt 0.97723848 0.21626210
vt 0.96408117 0.00009668
vt 0.96408123 0.21626210
vt 0.95749319 0.00009668
vt 0.95749325 0.21626210
vt 0.99041796 0.00009668
vt 0.98382819 0.00009668
vt 0.98382837 0.21626210
vt 0.99041814 0.21626210
vt 0.28447440 0.99992216
vt 0.27789488 0.99992216
vt 0.27789506 0.78375673
vt 0.28447458 0.78375673
vt 0.24497010 0.99992216
vt 0.23839243 0.99992216
vt 0.23839255 0.78375673
vt 0.24497016 0.78375673
vt 0.98382819 0.00009668
vt 0.97723842 0.00009668
vt 0.97723848 0.21626210
vt 0.98382837 0.21626210
vt 0.95091552 0.00009668
vt 0.95091563 0.21626210
vt 0.99699748 0.00009668
vt 0.99699765 0.21626210
vt 0.98382819 0.00009668
vt 0.97723842 0.00009668
vt 0.97723848 0.21626210
vt 0.98382837 0.21626210
vt 0.99041796 0.00009668
vt 0.99041814 0.21626210
vt 0.25155810 0.99992216
vt 0.25155815 0.78375673
vt 0.97065890 0.00009668
vt 0.97065896 0.21626210
vt 0.96408117 0.00009668
vt 0.96408123 0.21626210
vt 0.95749319 0.00009668
vt 0.95749325 0.21626210
vt 0.95091552 0.00009668
vt 0.95091563 0.21626210
vt 0.99699748 0.00009668
vt 0.99699765 0.21626210
vt 0.98382819 0.00009668
vt 0.98382837 0.21626210
vt 0.99041796 0.00009668
vt 0.99041814 0.21626210
vt 0.25813583 0.99992216
vt 0.25813589 0.78375673
vt 0.26471534 0.99992216
vt 0.26471540 0.78375673
vt 0.27130511 0.99992216
vt 0.27130529 0.78375673
vt 0.99699748 0.00009668
vt 0.99699765 0.21626210
vt 0.95749319 0.00009668
vt 0.95091552 0.00009668
vt 0.95091563 0.21626210
vt 0.95749325 0.21626210
vt 0.27789488 0.99992216
vt 0.27130511 0.99992216
vt 0.27130529 0.78375673
vt 0.27789506 0.78375673
vt 0.25155810 0.99992216
vt 0.24497010 0.99992216
vt 0.24497016 0.78375673
vt 0.25155815 0.78375673
vt 0.25813583 0.99992216
vt 0.25813589 0.78375673
vt 0.26471534 0.99992216
vt 0.26471540 0.78375673
vt 0.27789488 0.99992216
vt 0.27130511 0.99992216
vt 0.27130529 0.78375673
vt 0.27789506 0.78375673
vt 0.22782815 0.99964708
vt 0.22123837 0.99964708
vt 0.22123855 0.78348166
vt 0.22782832 0.78348166
vt 0.21464860 0.99964708
vt 0.21464866 0.78348166
vt 0.23440766 0.99964708
vt 0.23440784 0.78348166
vt 0.19490337 0.99964708
vt 0.18832570 0.99964708
vt 0.18832582 0.78348166
vt 0.19490343 0.78348166
vt 0.20149136 0.99964708
vt 0.20149142 0.78348166
vt 0.20806909 0.99964708
vt 0.20806915 0.78348166
vt 0.27789488 0.99992216
vt 0.27130511 0.99992216
vt 0.27130529 0.78375673
vt 0.27789506 0.78375673
vt 0.26471534 0.99992216
vt 0.26471540 0.78375673
vt 0.25813583 0.99992216
vt 0.25813589 0.78375673
vt 0.25155810 0.99992216
vt 0.25155815 0.78375673
vt 0.97723842 0.00009668
vt 0.97065890 0.00009668
vt 0.97065896 0.21626210
vt 0.97723848 0.21626210
vt 0.96408117 0.00009668
vt 0.96408123 0.21626210
vt 0.95749319 0.00009668
vt 0.95749325 0.21626210
vt 0.95091552 0.00009668
vt 0.95091563 0.21626210
vt 0.99699748 0.00009668
vt 0.99041796 0.00009668
vt 0.99041814 0.21626210
vt 0.99699765 0.21626210
vt 0.28447440 0.99992216
vt 0.27789488 0.99992216
vt 0.27789506 0.78375673
vt 0.28447458 0.78375673
vt 0.24497010 0.99992216
vt 0.23839243 0.99992216
vt 0.23839255 0.78375673
vt 0.24497016 0.78375673
vt 0.25155810 0.99992216
vt 0.25155815 0.78375673
vt 0.99699748 0.00009668
vt 0.99041796 0.00009668
vt 0.99041814 0.21626210
vt 0.99699765 0.21626210
vt 0.26471534 0.99992216
vt 0.25813583 0.99992216
vt 0.25813589 0.78375673
vt 0.26471540 0.78375673
vt 0.95749319 0.00009668
vt 0.95091552 0.00009668
vt 0.95091563 0.21626210
vt 0.95749325 0.21626210
vt 0.96408117 0.00009668
vt 0.96408123 0.21626210
vt 0.97065890 0.00009668
vt 0.97065896 0.21626210
vt 0.97723842 0.00009668
vt 0.97723848 0.21626210
vt 0.24497010 0.99992216
vt 0.24497016 0.78375673
vt 0.23839243 0.99992216
vt 0.23839255 0.78375673
vt 0.28447440 0.99992216
vt 0.28447458 0.78375673
vt 0.98382819 0.00009668
vt 0.98382837 0.21626210
vt 0.26471534 0.99992216
vt 0.26471540 0.78375673
vt 0.28447440 0.99992216
vt 0.28447458 0.78375673
vt 0.23839243 0.99992216
vt 0.23839255 0.78375673
vt 0.98382819 0.00009668
vt 0.98382837 0.21626210
vt 0.99699748 0.00009668
vt 0.99041796 0.00009668
vt 0.99041814 0.21626210
vt 0.99699765 0.21626210
vt 0.95749319 0.00009668
vt 0.95091552 0.00009668
vt 0.95091563 0.21626210
vt 0.95749325 0.21626210
vt 0.96408117 0.00009668
vt 0.96408123 0.21626210
vt 0.97065890 0.00009668
vt 0.97065896 0.21626210
vt 0.97723842 0.00009668
vt 0.97723848 0.21626210
vt 0.98382819 0.00009668
vt 0.98382837 0.21626210
vt 0.28447440 0.99992216
vt 0.28447458 0.78375673
vt 0.24497010 0.99992216
vt 0.23839243 0.99992216
vt 0.23839255 0.78375673
vt 0.24497016 0.78375673
vt 0.25155810 0.99992216
vt 0.25155815 0.78375673
vt 0.25813583 0.99992216
vt 0.25813589 0.78375673
vt 0.27130511 0.99992216
vt 0.27130529 0.78375673
vt 0.99699748 0.00009668
vt 0.99041796 0.00009668
vt 0.99041814 0.21626210
vt 0.99699765 0.21626210
vt 0.27789488 0.99992216
vt 0.27130511 0.99992216
vt 0.27130529 0.78375673
vt 0.27789506 0.78375673
vt 0.27130511 0.99992216
vt 0.26471534 0.99992216
vt 0.26471540 0.78375673
vt 0.27130529 0.78375673
vt 0.27789488 0.99992216
vt 0.27789506 0.78375673
vt 0.95749319 0.00009668
vt 0.95091552 0.00009668
vt 0.95091563 0.21626210
vt 0.95749325 0.21626210
vt 0.96408117 0.00009668
vt 0.96408123 0.21626210
vt 0.97065890 0.00009668
vt 0.97065896 0.21626210
vt 0.97723842 0.00009668
vt 0.97723848 0.21626210
vt 0.98382819 0.00009668
vt 0.98382837 0.21626210
vt 0.26471534 0.99992216
vt 0.25813583 0.99992216
vt 0.25813589 0.78375673
vt 0.26471540 0.78375673
vt 0.25155810 0.99992216
vt 0.25155815 0.78375673
vt 0.22782815 0.99964708
vt 0.22123837 0.99964708
vt 0.22123855 0.78348166
vt 0.22782832 0.78348166
vt 0.21464860 0.99964708
vt 0.21464866 0.78348166
vt 0.20806909 0.99964708
vt 0.20806915 0.78348166
vt 0.99699748 0.00009668
vt 0.99041796 0.00009668
vt 0.99041814 0.21626210
vt 0.99699765 0.21626210
vt 0.95749319 0.00009668
vt 0.95091552 0.00009668
vt 0.95091563 0.21626210
vt 0.95749325 0.21626210
vt 0.96408117 0.00009668
vt 0.96408123 0.21626210
vt 0.97065890 0.00009668
vt 0.97065896 0.21626210
vt 0.97723842 0.00009668
vt 0.97723848 0.21626210
vt 0.20149136 0.99964708
vt 0.20149142 0.78348166
vt 0.19490337 0.99964708
vt 0.19490343 0.78348166
vt 0.18832570 0.99964708
vt 0.18832582 0.78348166
vt 0.23440766 0.99964708
vt 0.23440784 0.78348166
vt 0.28447440 0.99992216
vt 0.27789488 0.99992216
vt 0.27789506 0.78375673
vt 0.28447458 0.78375673
vt 0.24497010 0.99992216
vt 0.23839243 0.99992216
vt 0.23839255 0.78375673
vt 0.24497016 0.78375673
vt 0.25155810 0.99992216
vt 0.25155815 0.78375673
vt 0.25813583 0.99992216
vt 0.25813589 0.78375673
vt 0.26471534 0.99992216
vt 0.26471540 0.78375673
vt 0.27130511 0.99992216
vt 0.27130529 0.78375673
vt 0.23440766 0.99964708
vt 0.22782815 0.99964708
vt 0.22782832 0.78348166
vt 0.23440784 0.78348166
vt 0.19490337 0.99964708
vt 0.18832570 0.99964708
vt 0.18832582 0.78348166
vt 0.19490343 0.78348166
vt 0.20149136 0.99964708
vt 0.20149142 0.78348166
vt 0.20806909 0.99964708
vt 0.20806915 0.78348166
vt 0.21464860 0.99964708
vt 0.21464866 0.78348166
vt 0.98382819 0.00009668
vt 0.98382837 0.21626210
vt 0.23440766 0.99964708
vt 0.22782815 0.99964708
vt 0.22782832 0.78348166
vt 0.23440784 0.78348166
vt 0.19490337 0.99964708
vt 0.18832570 0.99964708
vt 0.18832582 0.78348166
vt 0.19490343 0.78348166
vt 0.20149136 0.99964708
vt 0.20149142 0.78348166
vt 0.20806909 0.99964708
vt 0.20806915 0.78348166
vt 0.21464860 0.99964708
vt 0.21464866 0.78348166
vt 0.22123837 0.99964708
vt 0.22123855 0.78348166
vt 0.28447440 0.99992216
vt 0.28447458 0.78375673
vt 0.24497010 0.99992216
vt 0.23839243 0.99992216
vt 0.23839255 0.78375673
vt 0.24497016 0.78375673
vt 0.25155810 0.99992216
vt 0.25155815 0.78375673
vt 0.25813583 0.99992216
vt 0.25813589 0.78375673
vt 0.22123837 0.99964708
vt 0.22123855 0.78348166
vt 0.28447440 0.99992216
vt 0.28447458 0.78375673
vt 0.24497010 0.99992216
vt 0.23839243 0.99992216
vt 0.23839255 0.78375673
vt 0.24497016 0.78375673
f 1/1 2/2 3/3
f 3/3 2/2 4/4
f 4/4 2/2 5/5
f 6/6 7/7 8/8
f 8/8 7/7 9/9
f 10/10 7/7 6/6
f 9/9 7/7 11/11
f 11/11 7/7 12/12
f 12/12 7/7 13/13
f 13/13 7/7 10/10
f 14/14 15/15 16/16
f 17/17 15/15 18/18
f 19/19 15/15 17/17
f 20/20 15/15 14/14
f 16/16 15/15 19/19
f 18/18 15/15 21/21
f 22/22 23/23 24/24
f 25/25 23/23 22/22
f 26/26 23/23 25/25
f 27/27 23/23 26/26
f 24/24 23/23 28/28
f 29/29 23/23 27/27
f 28/28 23/23 29/29
f 21/21 15/15 20/20
f 30/30 2/2 31/31
f 31/31 2/2 32/32
f 5/5 2/2 30/30
f 32/32 2/2 1/1
f 33/33 34/34 35/35
f 35/35 34/34 36/36
f 37/37 34/34 33/33
f 36/36 34/34 38/38
f 38/38 34/34 39/39
f 39/39 34/34 40/40
f 41/41 42/42 43/43
f 40/40 34/34 37/37
f 44/44 42/42 41/41
f 45/45 42/42 44/44
f 46/46 42/42 47/47
f 48/48 42/42 45/45
f 47/47 42/42 48/48
f 43/43 42/42 46/46
f 49/49 50/50 51/51
f 52/52 53/53 54/54
f 55/55 53/53 56/56
f 57/57 53/53 52/52
f 58/58 59/59 60/60
f 61/61 59/59 58/58
f 62/62 59/59 61/61
f 63/63 59/59 62/62
f 60/60 59/59 64/64
f 65/65 59/59 63/63
f 66/66 67/67 68/68
f 69/69 70/70 71/71
f 72/72 50/50 49/49
f 54/54 53/53 73/73
f 74/74 50/50 72/72
f 75/75 70/70 76/76
f 64/64 59/59 65/65
f 77/77 70/70 78/78
f 79/79 50/50 74/74
f 71/71 70/70 80/80
f 80/80 70/70 75/75
f 51/51 50/50 81/81
f 82/82 50/50 79/79
f 73/73 53/53 83/83
f 84/84 85/85 86/86
f 87/87 85/85 88/88
f 89/89 85/85 84/84
f 81/81 50/50 82/82
f 76/76 70/70 77/77
f 90/90 85/85 89/89
f 88/88 85/85 90/90
f 83/83 53/53 55/55
f 78/78 70/70 69/69
f 91/91 85/85 87/87
f 92/92 67/67 93/93
f 93/93 67/67 94/94
f 86/86 85/85 91/91
f 95/95 67/67 66/66
f 96/96 67/67 95/95
f 94/94 67/67 96/96
f 56/56 53/53 57/57
f 68/68 67/67 92/92
f 97/97 98/98 99/99
f 100/100 98/98 97/97
f 101/101 98/98 102/102
f 103/103 104/104 105/105
f 106/106 104/104 107/107
f 108/108 104/104 103/103
f 107/107 104/104 108/108
f 109/109 104/104 110/110
f 105/105 104/104 109/109
f 102/102 98/98 111/111
f 112/112 98/98 100/100
f 111/111 98/98 112/112
f 110/110 104/104 106/106
f 99/99 98/98 101/101
f 113/113 114/114 115/115
f 116/116 117/117 118/118
f 119/119 114/114 113/113
f 118/118 117/117 120/120
f 121/121 117/117 116/116
f 120/120 117/117 122/122
f 122/122 117/117 123/123
f 123/123 117/117 124/124
f 124/124 117/117 121/121
f 125/125 126/126 127/127
f 128/128 114/114 129/129
f 130/130 131/131 132/132
f 133/133 131/131 130/130
f 129/129 114/114 134/134
f 135/135 131/131 133/133
f 136/136 131/131 135/135
f 132/132 131/131 137/137
f 138/138 131/131 136/136
f 115/115 114/114 128/128
f 137/137 131/131 138/138
f 139/139 140/140 141/141
f 142/142 140/140 143/143
f 143/143 140/140 144/144
f 145/145 140/140 142/142
f 146/146 126/126 125/125
f 147/147 126/126 146/146
f 141/141 140/140 145/145
f 148/148 126/126 147/147
f 127/127 126/126 149/149
f 150/150 126/126 148/148
f 149/149 126/126 150/150
f 151/151 114/114 119/119
f 144/144 140/140 152/152
f 134/134 114/114 151/151
f 152/152 140/140 139/139
f 153/153 154/154 155/155
f 156/156 154/154 157/157
f 158/158 159/159 160/160
f 161/161 159/159 158/158
f 162/162 163/163 164/164
f 164/164 163/163 165/165
f 166/166 163/163 162/162
f 165/165 163/163 167/167
f 167/167 163/163 168/168
f 168/168 163/163 169/169
f 169/169 163/163 166/166
f 170/170 171/171 172/172
f 155/155 154/154 173/173
f 174/174 171/171 170/170
f 175/175 171/171 174/174
f 176/176 171/171 175/175
f 172/172 171/171 177/177
f 178/178 171/171 176/176
f 177/177 171/171 178/178
f 173/173 154/154 179/179
f 179/179 154/154 156/156
f 180/180 154/154 153/153
f 157/157 154/154 180/180
f 181/181 182/182 183/183
f 183/183 182/182 184/184
f 185/185 182/182 181/181
f 184/184 182/182 186/186
f 186/186 182/182 187/187
f 187/187 182/182 188/188
f 188/188 182/182 185/185
f 189/189 190/190 191/191
f 191/191 190/190 192/192
f 193/193 190/190 189/189
f 192/192 190/190 194/194
f 194/194 190/190 195/195
f 195/195 190/190 196/196
f 196/196 190/190 193/193
f 197/197 159/159 198/198
f 198/198 159/159 199/199
f 160/160 159/159 197/197
f 199/199 159/159 200/200
f 200/200 159/159 161/161
f 201/201 202/202 203/203
f 204/204 202/202 201/201
f 205/205 202/202 204/204
f 206/206 202/202 205/205
f 203/203 202/202 207/207
f 208/208 202/202 206/206
f 207/207 202/202 208/208
f 209/209 210/210 211/211
f 211/211 210/210 212/212
f 213/213 214/214 215/215
f 216/216 214/214 217/217
f 215/215 214/214 218/218
f 219/219 220/220 221/221
f 218/218 214/214 222/222
f 223/223 224/224 225/225
f 226/226 224/224 223/223
f 227/227 224/224 226/226
f 228/228 224/224 227/227
f 225/225 224/224 229/229
f 230/230 224/224 228/228
f 229/229 224/224 230/230
f 217/217 214/214 213/213
f 231/231 214/214 216/216
f 232/232 210/210 209/209
f 212/212 210/210 233/233
f 233/233 210/210 234/234
f 234/234 210/210 235/235
f 236/236 237/237 238/238
f 238/238 237/237 239/239
f 240/240 237/237 236/236
f 235/235 210/210 232/232
f 239/239 237/237 241/241
f 241/241 237/237 242/242
f 242/242 237/237 243/243
f 243/243 237/237 240/240
f 244/244 245/245 246/246
f 247/247 220/220 248/248
f 249/249 245/245 244/244
f 250/250 245/245 249/249
f 251/251 220/220 247/247
f 252/252 253/253 254/254
f 255/255 253/253 252/252
f 256/256 220/220 251/251
f 257/257 245/245 250/250
f 258/258 253/253 255/255
f 259/259 253/253 258/258
f 246/246 245/245 260/260
f 221/221 220/220 256/256
f 261/261 245/245 257/257
f 260/260 245/245 261/261
f 254/254 253/253 262/262
f 263/263 253/253 259/259
f 262/262 253/253 263/263
f 264/264 220/220 219/219
f 248/248 220/220 264/264
f 222/222 214/214 231/231
f 265/265 266/266 267/267
f 268/268 266/266 265/265
f 269/269 266/266 268/268
f 270/270 266/266 269/269
f 267/267 266/266 271/271
f 272/272 266/266 270/270
f 271/271 266/266 272/272
f 273/273 274/274 275/275
f 276/276 274/274 273/273
f 277/277 274/274 276/276
f 278/278 274/274 277/277
f 275/275 274/274 279/279
f 280/280 274/274 278/278
f 279/279 274/274 280/280
f 281/281 282/282 283/283
f 283/283 282/282 284/284
f 285/285 282/282 281/281
f 286/286 287/287 288/288
f 289/289 290/290 291/291
f 292/292 290/290 289/289
f 293/293 290/290 294/294
f 295/295 290/290 292/292
f 294/294 290/290 295/295
f 296/296 290/290 293/293
f 297/297 298/298 299/299
f 300/300 298/298 297/297
f 301/301 298/298 300/300
f 302/302 298/298 301/301
f 299/299 298/298 303/303
f 304/304 298/298 302/302
f 303/303 298/298 304/304
f 305/305 306/306 307/307
f 308/308 306/306 305/305
f 309/309 306/306 308/308
f 310/310 306/306 309/309
f 307/307 306/306 311/311
f 312/312 306/306 310/310
f 311/311 306/306 312/312
f 313/313 314/314 315/315
f 316/316 314/314 313/313
f 317/317 314/314 316/316
f 318/318 314/314 317/317
f 291/291 290/290 296/296
f 319/319 287/287 286/286
f 320/320 321/321 322/322
f 323/323 321/321 320/320
f 324/324 321/321 323/323
f 325/325 321/321 324/324
f 322/322 321/321 326/326
f 327/327 321/321 325/325
f 326/326 321/321 327/327
f 328/328 282/282 285/285
f 315/315 314/314 329/329
f 330/330 314/314 318/318
f 331/331 282/282 328/328
f 332/332 282/282 331/331
f 284/284 282/282 332/332
f 329/329 314/314 330/330
f 333/333 287/287 319/319
f 334/334 287/287 333/333
f 335/335 287/287 334/334
f 336/336 287/287 335/335
f 288/288 287/287 336/336
f 337/337 338/338 339/339
f 337/337 339/339 340/340
f 341/341 342/342 343/343
f 341/341 343/343 344/344
f 342/342 345/345 346/346
f 342/342 346/346 343/343
f 338/338 347/347 348/348
f 338/338 348/348 339/339
f 349/349 350/350 351/351
f 349/349 351/351 352/352
f 345/345 353/353 354/354
f 345/345 354/354 346/346
f 353/353 355/355 356/356
f 353/353 356/356 354/354
f 357/357 358/358 359/359
f 357/357 359/359 360/360
f 361/361 362/362 363/363
f 361/361 363/363 364/364
f 365/365 361/361 364/364
f 365/365 364/364 366/366
f 362/362 367/367 368/368
f 362/362 368/368 363/363
f 367/367 369/369 370/370
f 367/367 370/370 368/368
f 369/369 371/371 372/372
f 369/369 372/372 370/370
f 371/371 373/373 374/374
f 371/371 374/374 372/372
f 375/375 365/365 366/366
f 375/375 366/366 376/376
f 377/377 378/378 379/379
f 377/377 379/379 380/380
f 381/381 377/377 380/380
f 381/381 380/380 382/382
f 350/350 383/383 384/384
f 350/350 384/384 351/351
f 383/383 385/385 386/386
f 383/383 386/386 384/384
f 387/387 381/381 382/382
f 387/387 382/382 388/388
f 389/389 390/390 391/391
f 389/389 391/391 392/392
f 393/393 389/389 392/392
f 393/393 392/392 394/394
f 395/395 393/393 394/394
f 395/395 394/394 396/396
f 378/378 395/395 396/396
f 378/378 396/396 379/379
f 397/397 341/341 344/344
f 397/397 344/344 398/398
f 358/358 397/397 398/398
f 358/358 398/398 359/359
f 385/385 399/399 400/400
f 385/385 400/400 386/386
f 399/399 337/337 340/340
f 399/399 340/340 400/400
f 401/401 402/402 403/403
f 401/401 403/403 404/404
f 405/405 406/406 407/407
f 405/405 407/407 408/408
f 409/409 410/410 411/411
f 409/409 411/411 412/412
f 413/413 409/409 412/412
f 413/413 412/412 414/414
f 402/402 415/415 416/416
f 402/402 416/416 403/403
f 415/415 417/417 418/418
f 415/415 418/418 416/416
f 419/419 413/413 414/414
f 419/419 414/414 420/420
f 421/421 422/422 423/423
f 421/421 423/423 424/424
f 425/425 421/421 424/424
f 425/425 424/424 426/426
f 422/422 427/427 428/428
f 422/422 428/428 423/423
f 410/410 401/401 404/404
f 410/410 404/404 411/411
f 429/429 430/430 431/431
f 429/429 431/431 432/432
f 406/406 425/425 426/426
f 406/406 426/426 407/407
f 427/427 429/429 432/432
f 427/427 432/432 428/428
f 433/433 434/434 435/435
f 433/433 435/435 436/436
f 434/434 437/437 438/438
f 434/434 438/438 435/435
f 437/437 439/439 440/440
f 437/437 440/440 438/438
f 439/439 441/441 442/442
f 439/439 442/442 440/440
f 443/443 444/444 445/445
f 443/443 445/445 446/446
f 447/447 448/448 449/449
f 447/447 449/449 450/450
f 451/451 452/452 453/453
f 451/451 453/453 454/454
f 444/444 455/455 456/456
f 444/444 456/456 445/445
f 455/455 457/457 458/458
f 455/455 458/458 456/456
f 459/459 460/460 461/461
f 459/459 461/461 462/462
f 463/463 459/459 462/462
f 463/463 462/462 464/464
f 465/465 463/463 464/464
f 465/465 464/464 466/466
f 467/467 465/465 466/466
f 467/467 466/466 468/468
f 469/469 470/470 471/471
f 469/469 471/471 472/472
f 473/473 474/474 475/475
f 473/473 475/475 476/476
f 477/477 478/478 479/479
f 477/477 479/479 480/480
f 481/481 477/477 480/480
f 481/481 480/480 482/482
f 483/483 443/443 446/446
f 483/483 446/446 484/484
f 485/485 469/469 472/472
f 485/485 472/472 486/486
f 448/448 487/487 488/488
f 448/448 488/488 449/449
f 487/487 467/467 468/468
f 487/487 468/468 488/488
f 470/470 489/489 490/490
f 470/470 490/490 471/471
f 452/452 491/491 492/492
f 452/452 492/492 453/453
f 493/493 494/494 495/495
f 493/493 495/495 496/496
f 497/497 498/498 499/499
f 497/497 499/499 500/500
f 489/489 501/501 502/502
f 489/489 502/502 490/490
f 491/491 433/433 436/436
f 491/491 436/436 492/492
f 474/474 503/503 504/504
f 474/474 504/504 475/475
f 505/505 506/506 507/507
f 505/505 507/507 508/508
f 509/509 481/481 482/482
f 509/509 482/482 510/510
f 503/503 483/483 484/484
f 503/503 484/484 504/504
f 511/511 512/512 513/513
f 511/511 513/513 514/514
f 515/515 509/509 510/510
f 515/515 510/510 516/516
f 517/517 518/518 519/519
f 517/517 519/519 520/520
f 521/521 493/493 496/496
f 521/521 496/496 522/522
f 498/498 521/521 522/522
f 498/498 522/522 499/499
f 523/523 485/485 486/486
f 523/523 486/486 524/524
f 494/494 525/525 526/526
f 494/494 526/526 495/495
f 527/527 517/517 520/520
f 527/527 520/520 528/528
f 512/512 497/497 500/500
f 512/512 500/500 513/513
f 506/506 523/523 524/524
f 506/506 524/524 507/507
f 478/478 527/527 528/528
f 478/478 528/528 479/479
f 529/529 530/530 531/531
f 529/529 531/531 532/532
f 530/530 533/533 534/534
f 530/530 534/534 531/531
f 535/535 536/536 537/537
f 535/535 537/537 538/538
f 539/539 535/535 538/538
f 539/539 538/538 540/540
f 541/541 539/539 540/540
f 541/541 540/540 542/542
f 533/533 541/541 542/542
f 533/533 542/542 534/534
f 543/543 544/544 545/545
f 543/543 545/545 546/546
f 547/547 548/548 549/549
f 547/547 549/549 550/550
f 548/548 551/551 552/552
f 548/548 552/552 549/549
f 553/553 554/554 555/555
f 553/553 555/555 556/556
f 554/554 557/557 558/558
f 554/554 558/558 555/555
f 557/557 559/559 560/560
f 557/557 560/560 558/558
f 561/561 529/529 532/532
f 561/561 532/532 562/562
f 559/559 563/563 564/564
f 559/559 564/564 560/560
f 563/563 543/543 546/546
f 563/563 546/546 564/564
f 544/544 565/565 566/566
f 544/544 566/566 545/545
f 567/567 568/568 569/569
f 567/567 569/569 570/570
f 571/571 572/572 573/573
f 571/571 573/573 574/574
f 575/575 567/567 570/570
f 575/575 570/570 576/576
f 577/577 578/578 579/579
f 577/577 579/579 580/580
f 581/581 582/582 583/583
f 581/581 583/583 584/584
f 585/585 586/586 587/587
f 585/585 587/587 588/588
f 589/589 585/585 588/588
f 589/589 588/588 590/590
f 591/591 589/589 590/590
f 591/591 590/590 592/592
f 578/578 593/593 594/594
f 578/578 594/594 579/579
f 593/593 595/595 596/596
f 593/593 596/596 594/594
f 597/597 598/598 599/599
f 597/597 599/599 600/600
f 601/601 597/597 600/600
f 601/601 600/600 602/602
f 595/595 603/603 604/604
f 595/595 604/604 596/596
f 568/568 605/605 606/606
f 568/568 606/606 569/569
f 605/605 607/607 608/608
f 605/605 608/608 606/606
f 607/607 609/609 610/610
f 607/607 610/610 608/608
f 609/609 611/611 612/612
f 609/609 612/612 610/610
f 613/613 575/575 576/576
f 613/613 576/576 614/614
f 615/615 577/577 580/580
f 615/615 580/580 616/616
f 617/617 601/601 602/602
f 617/617 602/602 618/618
f 619/619 615/615 616/616
f 619/619 616/616 620/620
f 621/621 617/617 618/618
f 621/621 618/618 622/622
f 623/623 621/621 622/622
f 623/623 622/622 624/624
f 625/625 591/591 592/592
f 625/625 592/592 626/626
f 627/627 628/628 629/629
f 627/627 629/629 630/630
f 631/631 547/547 550/550
f 631/631 550/550 632/632
f 582/582 633/633 634/634
f 582/582 634/634 583/583
f 635/635 636/636 637/637
f 635/635 637/637 638/638
f 572/572 623/623 624/624
f 572/572 624/624 573/573
f 628/628 635/635 638/638
f 628/628 638/638 629/629
f 633/633 625/625 626/626
f 633/633 626/626 634/634
f 551/551 627/627 630/630
f 551/551 630/630 552/552
f 639/639 619/619 620/620
f 639/639 620/620 640/640
f 641/641 642/642 643/643
f 641/641 643/643 644/644
f 642/642 645/645 646/646
f 642/642 646/646 643/643
f 647/647 648/648 649/649
f 647/647 649/649 650/650
f 651/651 652/652 653/653
f 651/651 653/653 654/654
f 655/655 656/656 657/657
f 655/655 657/657 658/658
f 659/659 655/655 658/658
f 659/659 658/658 660/660
f 661/661 659/659 660/660
f 661/661 660/660 662/662
f 663/663 661/661 662/662
f 663/663 662/662 664/664
f 648/648 665/665 666/666
f 648/648 666/666 649/649
f 665/665 667/667 668/668
f 665/665 668/668 666/666
f 669/669 670/670 671/671
f 669/669 671/671 672/672
f 673/673 674/674 675/675
f 673/673 675/675 676/676
f 677/677 673/673 676/676
f 677/677 676/676 678/678
f 674/674 679/679 680/680
f 674/674 680/680 675/675
f 679/679 681/681 682/682
f 679/679 682/682 680/680
f 681/681 683/683 684/684
f 681/681 684/684 682/682
f 683/683 685/685 686/686
f 683/683 686/686 684/684
f 687/687 677/677 678/678
f 687/687 678/678 688/688
f 689/689 663/663 664/664
f 689/689 664/664 690/690
f 652/652 689/689 690/690
f 652/652 690/690 653/653
f 691/691 692/692 693/693
f 691/691 693/693 694/694
f 692/692 695/695 696/696
f 692/692 696/696 693/693
f 695/695 697/697 698/698
f 695/695 698/698 696/696
f 699/699 700/700 701/701
f 699/699 701/701 702/702
f 700/700 691/691 694/694
f 700/700 694/694 701/701
f 703/703 704/704 705/705
f 703/703 705/705 706/706
f 707/707 708/708 709/709
f 707/707 709/709 710/710
f 711/711 712/712 713/713
f 711/711 713/713 714/714
f 670/670 711/711 714/714
f 670/670 714/714 671/671
f 712/712 647/647 650/650
f 712/712 650/650 713/713
f 697/697 715/715 716/716
f 697/697 716/716 698/698
f 717/717 699/699 702/702
f 717/717 702/702 718/718
f 719/719 720/720 721/721
f 719/719 721/721 722/722
f 723/723 719/719 722/722
f 723/723 722/722 724/724
f 725/725 707/707 710/710
f 725/725 710/710 726/726
f 720/720 727/727 728/728
f 720/720 728/728 721/721
f 727/727 729/729 730/730
f 727/727 730/730 728/728
f 729/729 731/731 732/732
f 729/729 732/732 730/730
f 731/731 733/733 734/734
f 731/731 734/734 732/732
f 735/735 723/723 724/724
f 735/735 724/724 736/736
f 737/737 641/641 644/644
f 737/737 644/644 738/738
f 739/739 737/737 738/738
f 739/739 738/738 740/740
f 741/741 725/725 726/726
f 741/741 726/726 742/742
f 743/743 741/741 742/742
f 743/743 742/742 744/744
f 704/704 745/745 746/746
f 704/704 746/746 705/705
f 745/745 743/743 744/744
f 745/745 744/744 746/746
f 747/747 739/739 740/740
f 747/747 740/740 748/748
f 749/749 750/750 751/751
f 749/749 751/751 752/752
f 645/645 749/749 752/752
f 645/645 752/752 646/646
f 753/753 754/754 755/755
f 753/753 755/755 756/756
f 757/757 758/758 759/759
f 757/757 759/759 760/760
f 761/761 757/757 760/760
f 761/761 760/760 762/762
f 763/763 761/761 762/762
f 763/763 762/762 764/764
f 765/765 766/766 767/767
f 765/765 767/767 768/768
f 766/766 763/763 764/764
f 766/766 764/764 767/767
f 769/769 770/770 771/771
f 769/769 771/771 772/772
f 770/770 773/773 774/774
f 770/770 774/774 771/771
f 775/775 769/769 772/772
f 775/775 772/772 776/776
f 777/777 778/778 779/779
f 777/777 779/779 780/780
f 781/781 777/777 780/780
f 781/781 780/780 782/782
f 783/783 781/781 782/782
f 783/783 782/782 784/784
f 773/773 783/783 784/784
f 773/773 784/784 774/774
f 785/785 786/786 787/787
f 785/785 787/787 788/788
f 786/786 789/789 790/790
f 786/786 790/790 787/787
f 789/789 791/791 792/792
f 789/789 792/792 790/790
f 791/791 793/793 794/794
f 791/791 794/794 792/792
f 795/795 796/796 797/797
f 795/795 797/797 798/798
f 796/796 799/799 800/800
f 796/796 800/800 797/797
f 799/799 801/801 802/802
f 799/799 802/802 800/800
f 801/801 803/803 804/804
f 801/801 804/804 802/802
f 805/805 806/806 807/807
f 805/805 807/807 808/808
f 809/809 810/810 811/811
f 809/809 811/811 812/812
f 813/813 814/814 815/815
f 813/813 815/815 816/816
f 817/817 813/813 816/816
f 817/817 816/816 818/818
f 819/819 820/820 821/821
f 819/819 821/821 822/822
f 823/823 824/824 825/825
f 823/823 825/825 826/826
f 827/827 828/828 829/829
f 827/827 829/829 830/830
f 831/831 827/827 830/830
f 831/831 830/830 832/832
f 833/833 831/831 832/832
f 833/833 832/832 834/834
f 835/835 833/833 834/834
f 835/835 834/834 836/836
f 793/793 837/837 838/838
f 793/793 838/838 794/794
f 837/837 839/839 840/840
f 837/837 840/840 838/838
f 841/841 785/785 788/788
f 841/841 788/788 842/842
f 806/806 843/843 844/844
f 806/806 844/844 807/807
f 843/843 795/795 798/798
f 843/843 798/798 844/844
f 754/754 845/845 846/846
f 754/754 846/846 755/755
f 847/847 765/765 768/768
f 847/847 768/768 848/848
f 758/758 849/849 850/850
f 758/758 850/850 759/759
f 820/820 851/851 852/852
f 820/820 852/852 821/821
f 851/851 835/835 836/836
f 851/851 836/836 852/852
f 824/824 817/817 818/818
f 824/824 818/818 825/825
f 853/853 854/854 855/855
f 853/853 855/855 856/856
f 857/857 858/858 859/859
f 857/857 859/859 860/860
f 861/861 857/857 860/860
f 861/861 860/860 862/862
f 863/863 861/861 862/862
f 863/863 862/862 864/864
f 865/865 863/863 864/864
f 865/865 864/864 866/866
f 854/854 867/867 868/868
f 854/854 868/868 855/855
f 867/867 865/865 866/866
f 867/867 866/866 868/868
f 869/869 753/753 756/756
f 869/869 756/756 870/870
f 871/871 872/872 873/873
f 871/871 873/873 874/874
f 875/875 871/871 874/874
f 875/875 874/874 876/876
f 877/877 875/875 876/876
f 877/877 876/876 878/878
f 845/845 877/877 878/878
f 845/845 878/878 846/846
f 810/810 879/879 880/880
f 810/810 880/880 811/811
f 879/879 823/823 826/826
f 879/879 826/826 880/880
f 881/881 882/882 883/883
f 881/881 883/883 884/884
f 885/885 886/886 887/887
f 885/885 887/887 888/888
f 889/889 890/890 891/891
f 889/889 891/891 892/892
f 893/893 889/889 892/892
f 893/893 892/892 894/894
f 895/895 896/896 897/897
f 895/895 897/897 898/898
f 899/899 895/895 898/898
f 899/899 898/898 900/900
f 901/901 899/899 900/900
f 901/901 900/900 902/902
f 903/903 901/901 902/902
f 903/903 902/902 904/904
f 905/905 903/903 904/904
f 905/905 904/904 906/906
f 882/882 905/905 906/906
f 882/882 906/906 883/883
f 907/907 908/908 909/909
f 907/907 909/909 910/910
f 908/908 911/911 912/912
f 908/908 912/912 909/909
f 913/913 914/914 915/915
f 913/913 915/915 916/916
f 914/914 917/917 918/918
f 914/914 918/918 915/915
f 917/917 919/919 920/920
f 917/917 920/920 918/918
f 886/886 907/907 910/910
f 886/886 910/910 887/887
f 921/921 922/922 923/923
f 921/921 923/923 924/924
f 925/925 926/926 927/927
f 925/925 927/927 928/928
f 929/929 925/925 928/928
f 929/929 928/928 930/930
f 931/931 929/929 930/930
f 931/931 930/930 932/932
f 933/933 931/931 932/932
f 933/933 932/932 934/934
f 919/919 935/935 936/936
f 919/919 936/936 920/920
f 935/935 937/937 938/938
f 935/935 938/938 936/936
f 937/937 939/939 940/940
f 937/937 940/940 938/938
f 941/941 913/913 916/916
f 941/941 916/916 942/942
f 943/943 944/944 945/945
f 943/943 945/945 946/946
f 947/947 948/948 949/949
f 947/947 949/949 950/950
f 951/951 947/947 950/950
f 951/951 950/950 952/952
f 953/953 951/951 952/952
f 953/953 952/952 954/954
f 955/955 953/953 954/954
f 955/955 954/954 956/956
f 944/944 957/957 958/958
f 944/944 958/958 945/945
f 957/957 955/955 956/956
f 957/957 956/956 958/958
f 959/959 960/960 961/961
f 959/959 961/961 962/962
f 963/963 964/964 965/965
f 963/963 965/965 966/966
f 967/967 963/963 966/966
f 967/967 966/966 968/968
f 969/969 967/967 968/968
f 969/969 968/968 970/970
f 971/971 969/969 970/970
f 971/971 970/970 972/972
f 922/922 973/973 974/974
f 922/922 974/974 923/923
f 973/973 933/933 934/934
f 973/973 934/934 974/974
f 975/975 976/976 977/977
f 975/975 977/977 978/978
f 979/979 980/980 981/981
f 979/979 981/981 982/982
f 983/983 979/979 982/982
f 983/983 982/982 984/984
f 985/985 983/983 984/984
f 985/985 984/984 986/986
f 987/987 985/985 986/986
f 987/987 986/986 988/988
f 976/976 989/989 990/990
f 976/976 990/990 977/977
f 989/989 987/987 988/988
f 989/989 988/988 990/990
f 991/991 893/893 894/894
f 991/991 894/894 992/992
f 993/993 994/994 995/995
f 993/993 995/995 996/996
f 997/997 993/993 996/996
f 997/997 996/996 998/998
f 999/999 997/997 998/998
f 999/999 998/998 1000/1000
f 890/890 999/999 1000/1000
f 890/890 1000/1000 891/891
f 960/960 1001/1001 1002/1002
f 960/960 1002/1002 961/961
f 1001/1001 971/971 972/972
f 1001/1001 972/972 1002/1002
f 1003/1003 885/885 888/888
f 1003/1003 888/888 1004/1004
f 1005/1005 1006/1006 1007/1007
f 1005/1005 1007/1007 1008/1008
f 911/911 1005/1005 1008/1008
f 911/911 1008/1008 912/912

