# https://github.com/mikedh/trimesh
v 0.15240000 0.19049999 -0.28624332
v 0.15240000 -0.08890000 -0.21466149
v 0.15240000 -0.08890000 -0.20210743
v 0.15240000 0.19049999 -0.20210743
v 0.19049999 -0.08890000 0.21590000
v 0.15240000 -0.08890000 0.21590000
v 0.15240000 -0.08890000 0.20210743
v 0.19049999 -0.08890000 0.20210743
v -0.15240000 0.19049999 0.28448001
v -0.15240000 -0.08890000 0.21590000
v -0.15240000 -0.08890000 0.20210743
v -0.15240000 0.19049999 0.20210743
v -0.15240000 -0.08890000 0.21590000
v -0.19049999 -0.08890000 0.21590000
v -0.19049999 -0.08890000 0.20210743
v -0.15240000 -0.08890000 0.20210743
v -0.15240000 -0.08890000 -0.20210743
v -0.19049999 -0.08890000 -0.20210743
v -0.19049999 0.19049999 -0.20210743
v -0.15240000 0.19049999 -0.20210743
v -0.15240000 0.19049999 0.20210743
v -0.19049999 0.19049999 0.20210743
v -0.19049999 -0.08890000 0.20210743
v -0.15240000 -0.08890000 0.20210743
v 0.15240000 0.19049999 0.20210743
v 0.19049999 0.19049999 0.20210743
v 0.15240000 -0.08890000 0.20210743
v 0.19049999 -0.08890000 0.20210743
v 0.19049999 0.19049999 -0.20210743
v 0.19049999 -0.08890000 -0.20210743
v 0.15240000 -0.08890000 -0.20210743
v 0.15240000 0.19049999 -0.20210743
v -0.19049999 0.21590000 0.39687499
v 0.19049999 0.21590000 0.39687499
v -0.19049999 0.19049999 0.39687499
v 0.19049999 0.19049999 0.39687499
v 0.15240000 -0.08890000 0.21590000
v 0.15240000 0.19049999 0.28448001
v 0.15240000 0.19049999 0.20210743
v 0.15240000 -0.08890000 0.20210743
v -0.19049999 0.19049999 0.28448001
v -0.15240000 0.19049999 0.28448001
v -0.15240000 -0.08890000 0.21590000
v -0.19049999 -0.08890000 0.21590000
v 0.19049999 0.19049999 0.28448001
v 0.19049999 -0.08890000 0.21590000
v 0.15240000 -0.08890000 0.21590000
v 0.15240000 0.19049999 0.28448001
v 0.15240000 -0.08890000 -0.21466149
v 0.19049999 -0.08890000 -0.21466149
v 0.19049999 -0.08890000 -0.20210743
v 0.15240000 -0.08890000 -0.20210743
v 0.15240000 0.19049999 -0.28624332
v 0.15240000 0.19049999 -0.20210743
v 0.19049999 0.19049999 -0.20210743
v 0.19049999 0.19049999 0.20210743
v 0.15240000 0.19049999 0.20210743
v 0.15240000 0.19049999 0.28448001
v 0.19049999 0.19049999 0.28448001
v 0.19049999 0.19049999 0.39687499
v -0.19049999 0.19049999 0.39687499
v -0.19049999 0.19049999 0.28448001
v -0.15240000 0.19049999 0.28448001
v -0.15240000 0.19049999 0.20210743
v -0.19049999 0.19049999 0.20210743
v -0.19049999 0.19049999 -0.20210743
v -0.15240000 0.19049999 -0.20210743
v -0.15240000 0.19049999 -0.28624332
v -0.19049999 0.19049999 -0.28624332
v -0.19049999 0.19049999 -0.39687499
v 0.19049999 0.19049999 -0.39687499
v 0.19049999 0.19049999 -0.28624332
v -0.15240000 -0.08890000 -0.21466149
v -0.15240000 0.19049999 -0.28624332
v -0.15240000 0.19049999 -0.20210743
v -0.15240000 -0.08890000 -0.20210743
v -0.19049999 -0.08890000 -0.21466149
v -0.15240000 -0.08890000 -0.21466149
v -0.15240000 -0.08890000 -0.20210743
v -0.19049999 -0.08890000 -0.20210743
v -0.19049999 0.21590000 -0.39687499
v -0.19049999 0.21590000 0.39687499
v -0.19049999 0.19049999 -0.39687499
v -0.19049999 0.19049999 -0.28624332
v -0.19049999 -0.08890000 -0.21466149
v -0.19049999 -0.08890000 -0.20210743
v -0.19049999 0.19049999 -0.20210743
v -0.19049999 0.19049999 0.20210743
v -0.19049999 -0.08890000 0.20210743
v -0.19049999 -0.08890000 0.21590000
v -0.19049999 0.19049999 0.28448001
v -0.19049999 0.19049999 0.39687499
v -0.19049999 -0.08890000 -0.21466149
v -0.15240000 -0.08890000 -0.21466149
v -0.15240000 0.19049999 -0.28624332
v -0.19049999 0.19049999 -0.28624332
v 0.19049999 0.19049999 -0.28624332
v 0.15240000 0.19049999 -0.28624332
v 0.15240000 -0.08890000 -0.21466149
v 0.19049999 -0.08890000 -0.21466149
v 0.19049999 0.21590000 0.39687499
v 0.19049999 0.21590000 -0.39687499
v 0.19049999 0.19049999 0.39687499
v 0.19049999 0.19049999 0.28448001
v 0.19049999 -0.08890000 0.21590000
v 0.19049999 -0.08890000 0.20210743
v 0.19049999 0.19049999 0.20210743
v 0.19049999 0.19049999 -0.20210743
v 0.19049999 -0.08890000 -0.20210743
v 0.19049999 -0.08890000 -0.21466149
v 0.19049999 0.19049999 -0.28624332
v 0.19049999 0.19049999 -0.39687499
v 0.19049999 0.21590000 -0.39687499
v -0.19049999 0.21590000 -0.39687499
v 0.19049999 0.19049999 -0.39687499
v -0.19049999 0.19049999 -0.39687499
v -0.19049999 0.21590000 -0.39687499
v -0.19049999 0.21590000 0.39687499
v 0.19049999 0.21590000 0.39687499
v 0.19049999 0.21590000 -0.39687499
v 0.16727898 0.24130000 0.37147501
v 0.40640000 0.48042101 0.37147501
v 0.40640000 0.50800002 0.37147501
v -0.16509999 0.50800002 0.37147501
v -0.16509999 0.24130000 0.37147501
v 0.40640000 0.48042101 -0.37147501
v 0.16727898 0.24130000 -0.37147501
v 0.40640000 0.48042101 0.37147501
v 0.16727898 0.24130000 0.37147501
v -0.16509999 0.50800002 -0.37147501
v -0.16509999 0.24130000 -0.37147501
v 0.40640000 0.50800002 -0.37147501
v 0.40640000 0.48042101 -0.37147501
v 0.16727898 0.24130000 -0.37147501
v -0.16509999 0.24130000 0.37147501
v 0.16727898 0.24130000 0.37147501
v 0.16727898 0.24130000 -0.37147501
v -0.16509999 0.24130000 -0.37147501
v -0.16509999 0.24130000 0.37147501
v -0.16509999 0.50800002 0.37147501
v -0.16509999 0.50800002 -0.37147501
v -0.16509999 0.24130000 -0.37147501
v 0.40640000 0.48042101 0.37147501
v 0.40640000 0.48042101 -0.37147501
v 0.40640000 0.50800002 -0.37147501
v 0.40640000 0.50800002 0.37147501
v -0.19049999 0.21590000 0.39687499
v 0.19049999 0.21590000 0.39687499
v 0.19049999 0.21590000 -0.39687499
v -0.19049999 0.21590000 -0.39687499
v -0.19049999 0.21590000 -0.39687499
v -0.19049999 0.21590000 0.39687499
v -0.19049999 0.50800002 0.39687499
v -0.19049999 0.50800002 -0.39687499
v -0.19049999 0.21590000 0.39687499
v 0.19049999 0.21590000 0.39687499
v 0.19049999 0.22860000 0.39687499
v 0.43180001 0.46989998 0.39687499
v 0.43180001 0.50800002 0.39687499
v -0.19049999 0.50800002 0.39687499
v -0.19049999 0.50800002 0.39687499
v 0.43180001 0.50800002 0.39687499
v 0.43180001 0.50800002 -0.39687499
v -0.19049999 0.50800002 -0.39687499
v -0.16509999 0.50800002 -0.37147501
v 0.40640000 0.50800002 -0.37147501
v 0.40640000 0.50800002 0.37147501
v -0.16509999 0.50800002 0.37147501
v 0.19049999 0.21590000 0.39687499
v 0.19049999 0.21590000 -0.39687499
v 0.19049999 0.22860000 -0.39687499
v 0.19049999 0.22860000 0.39687499
v 0.19049999 0.21590000 -0.39687499
v -0.19049999 0.21590000 -0.39687499
v -0.19049999 0.50800002 -0.39687499
v 0.43180001 0.50800002 -0.39687499
v 0.43180001 0.46989998 -0.39687499
v 0.19049999 0.22860000 -0.39687499
v 0.43180001 0.46989998 0.39687499
v 0.43180001 0.50800002 0.39687499
v 0.43180001 0.46989998 -0.39687499
v 0.43180001 0.50800002 -0.39687499
v 0.43180001 0.46989998 -0.39687499
v 0.43180001 0.46989998 0.39687499
v 0.19049999 0.22860000 0.39687499
v 0.19049999 0.22860000 -0.39687499
f 2 4 1
f 3 4 2
f 5 6 7
f 5 7 8
f 12 10 11
f 9 10 12
f 13 14 15
f 13 15 16
f 20 18 17
f 20 19 18
f 24 22 21
f 24 23 22
f 28 25 26
f 28 27 25
f 32 31 30
f 29 32 30
f 34 33 35
f 34 35 36
f 37 38 39
f 37 39 40
f 41 44 43
f 42 41 43
f 48 47 46
f 45 48 46
f 51 49 50
f 51 52 49
f 68 69 70
f 53 70 71
f 53 68 70
f 72 53 71
f 54 67 68
f 54 68 53
f 64 65 66
f 64 66 67
f 61 62 63
f 57 67 54
f 57 64 67
f 56 54 55
f 56 57 54
f 58 63 64
f 58 64 57
f 60 58 59
f 60 61 63
f 60 63 58
f 75 73 74
f 75 76 73
f 79 77 78
f 79 80 77
f 84 81 83
f 87 81 84
f 85 87 84
f 86 87 85
f 82 88 91
f 92 82 91
f 90 88 89
f 90 91 88
f 82 81 87
f 82 87 88
f 93 96 95
f 94 93 95
f 100 98 97
f 100 99 98
f 111 112 102
f 108 109 110
f 108 110 111
f 108 111 102
f 107 105 106
f 104 105 107
f 101 103 104
f 101 104 107
f 102 101 107
f 102 107 108
f 114 113 115
f 114 115 116
f 117 118 119
f 117 119 120
f 121 125 124
f 123 122 121
f 123 121 124
f 128 126 127
f 128 127 129
f 132 134 133
f 130 131 134
f 130 134 132
f 138 135 136
f 138 136 137
f 139 141 140
f 139 142 141
f 146 144 143
f 146 145 144
f 150 148 147
f 150 149 148
f 152 153 154
f 152 154 151
f 157 155 156
f 157 160 155
f 159 157 158
f 159 160 157
f 163 164 165
f 166 163 165
f 168 164 161
f 168 165 164
f 162 167 168
f 162 168 161
f 162 163 166
f 162 166 167
f 172 169 170
f 172 170 171
f 176 177 178
f 174 178 173
f 175 178 174
f 175 176 178
f 180 179 181
f 180 181 182
f 185 186 183
f 184 185 183

