# https://github.com/mikedh/trimesh
mtllib material.mtl
usemtl Wood_Fence
v 70.87685892 71.88114401 -18.90293525
v 70.78542826 71.96158083 -18.26055550
v 70.53909037 71.76677949 -18.27141973
v 70.63050577 71.68634268 -18.91376896
v 67.00312159 75.25726552 -19.02230531
v 66.82146570 75.37837452 -19.05466922
v 66.76210902 75.36387104 -19.08291323
v 67.01623652 75.19446797 -19.03764038
v 70.63050577 71.68634268 -18.91376896
v 70.53909037 71.76677949 -18.27141973
v 70.34582255 72.00103241 -18.33428598
v 70.43630717 71.92172475 -18.97684883
v 70.43630717 71.92172475 -18.97684883
v 70.34582255 72.00103241 -18.33428598
v 70.58921549 72.19953400 -18.32430676
v 70.67970011 72.12023397 -18.96690013
v 70.54316447 71.83096559 -18.25686285
v 70.71917460 71.97075136 -18.24917245
v 70.57961771 72.13994081 -18.29452160
v 70.40511820 71.99825532 -18.30176950
v 70.78542826 71.96158083 -18.26055550
v 70.58921549 72.19953400 -18.32430676
v 70.53909037 71.76677949 -18.27141973
v 70.78542826 71.96158083 -18.26055550
v 70.34582255 72.00103241 -18.33428598
v 70.53909037 71.76677949 -18.27141973
v 70.58921549 72.19953400 -18.32430676
v 70.34582255 72.00103241 -18.33428598
v 70.41798136 72.03943114 -18.41784311
v 70.54121134 72.13995605 -18.41277721
v 69.07713053 73.77186822 -18.78368812
v 68.96611903 73.65783929 -18.78568700
v 70.54121134 72.13995605 -18.41277721
v 70.59505961 72.09276055 -18.79523875
v 69.11891672 73.73754351 -19.16933875
v 69.07713053 73.77186822 -18.78368812
v 70.59505961 72.09276055 -18.79523875
v 70.47181437 71.99224327 -18.80027414
v 69.00797770 73.62351458 -19.17132238
v 69.11891672 73.73754351 -19.16933875
v 62.49282191 77.64832515 -20.48478433
v 62.40541193 77.71509009 -19.83791850
v 62.70584986 77.63519508 -19.78753397
v 62.79219172 77.56871243 -20.43458291
v 60.19876597 78.10468507 -20.17492418
v 60.16820261 77.88269258 -20.15588117
v 60.20892832 77.83184266 -20.16753888
v 60.25241587 78.14194703 -20.19404345
v 73.16187784 67.65785476 -17.45040466
v 73.06223795 67.85229751 -17.48244814
v 73.00538370 67.86867018 -17.51403384
v 73.14486429 67.59643050 -17.46917296
v 70.47181437 71.99224327 -18.80027414
v 70.41798136 72.03943114 -18.41784311
v 68.96611903 73.65783929 -18.78568700
v 69.00797770 73.62351458 -19.17132238
v 73.36216471 67.75902816 -17.43548158
v 73.14486429 67.59643050 -17.46917296
v 73.42503092 67.73723861 -17.44822266
v 72.02726481 69.67783597 -18.50037752
v 71.94331095 69.74813332 -17.85488498
v 71.77615092 70.00441993 -17.90584937
v 71.86010477 69.93413785 -18.55121985
v 71.86010477 69.93413785 -18.55121985
v 71.77615092 70.00441993 -17.90584937
v 72.03887675 70.17616524 -17.89022440
v 72.12276957 70.10588315 -18.53561013
v 71.95397684 69.81139626 -17.83770359
v 72.14329264 69.93234506 -17.82615271
v 72.02287028 70.11695351 -17.86283487
v 71.83469889 69.99437203 -17.87408057
v 71.77615092 70.00441993 -17.90584937
v 71.94331095 69.74813332 -17.85488498
v 72.03887675 70.17616524 -17.89022440
v 71.77615092 70.00441993 -17.90584937
v 66.94953272 75.56321186 -19.05735480
v 66.94031641 75.62266773 -19.08680427
v 66.76210902 75.36387104 -19.08291323
v 66.81614039 75.41951220 -19.17037662
v 66.90636561 75.55056994 -19.17234503
v 65.02111170 76.65623700 -19.49892907
v 64.95064661 76.51367413 -19.49337485
v 66.90636561 75.55056994 -19.17234503
v 66.95129511 75.51388774 -19.55784307
v 65.06829951 76.61821203 -19.88419823
v 65.02111170 76.65623700 -19.49892907
v 66.95129511 75.51388774 -19.55784307
v 66.86100123 75.38283763 -19.55587466
v 64.99783442 76.47564917 -19.87864401
v 65.06829951 76.61821203 -19.88419823
v 66.86100123 75.38283763 -19.55587466
v 66.81614039 75.41951220 -19.17037662
v 64.95064661 76.51367413 -19.49337485
v 64.99783442 76.47564917 -19.87864401
v 68.96103785 73.98792494 -19.38259563
v 68.89089320 74.04549646 -18.73438702
v 69.12186930 73.83513880 -18.69608742
v 69.19208262 73.77746810 -19.34412819
v 69.19208262 73.77746810 -19.34412819
v 69.12186930 73.83513880 -18.69608742
v 68.90268824 73.60996485 -18.70002416
v 68.97290156 73.55228652 -19.34803440
v 68.97290156 73.55228652 -19.34803440
v 68.90268824 73.60996485 -18.70002416
v 68.67585108 73.81642389 -18.73751503
v 68.74594233 73.75885237 -19.38570838
v 68.74594233 73.75885237 -19.38570838
v 68.67585108 73.81642389 -18.73751503
v 68.89089320 74.04549646 -18.73438702
v 68.96103785 73.98792494 -19.38259563
v 68.89873621 73.67370081 -18.68256811
v 69.05516550 73.83525324 -18.67983681
v 68.89101527 73.98476648 -18.70704326
v 68.73665736 73.82123041 -18.70936257
v 69.12186930 73.83513880 -18.69608742
v 68.89089320 74.04549646 -18.73438702
v 68.90268824 73.60996485 -18.70002416
v 69.12186930 73.83513880 -18.69608742
v 68.67585108 73.81642389 -18.73751503
v 68.90268824 73.60996485 -18.70002416
v 68.89089320 74.04549646 -18.73438702
v 68.67585108 73.81642389 -18.73751503
v 68.73829005 73.86527489 -18.82336099
v 68.84721491 73.98127220 -18.82178935
v 67.16432307 75.37848132 -19.12637027
v 67.07151911 75.24925464 -19.12489015
v 68.84721491 73.98127220 -18.82178935
v 68.88894007 73.94700853 -19.20753153
v 67.20900080 75.34195935 -19.51191409
v 67.16432307 75.37848132 -19.12637027
v 68.88894007 73.94700853 -19.20753153
v 68.78001520 73.83101121 -19.20910317
v 67.11612818 75.21273266 -19.51041870
v 67.20900080 75.34195935 -19.51191409
v 68.78001520 73.83101121 -19.20910317
v 68.73829005 73.86527489 -18.82336099
v 67.07151911 75.24925464 -19.12489015
v 67.11612818 75.21273266 -19.51041870
v 71.85220072 70.03742468 -17.98824684
v 71.98522684 70.12439215 -17.98034280
v 70.73685953 71.90275818 -18.34920906
v 70.61211893 71.80411774 -18.35471746
v 71.98522684 70.12439215 -17.98034280
v 72.03516886 70.08257538 -18.36440652
v 70.79119608 71.85489893 -18.73153327
v 70.73685953 71.90275818 -18.34920906
v 72.03516886 70.08257538 -18.36440652
v 71.90215800 69.99560028 -18.37231055
v 70.66645548 71.75625085 -18.73702642
v 70.79119608 71.85489893 -18.73153327
v 71.90215800 69.99560028 -18.37231055
v 71.85220072 70.03742468 -17.98824684
v 70.61211893 71.80411774 -18.35471746
v 70.66645548 71.75625085 -18.73702642
v 73.26151774 67.95546218 -17.46784550
v 73.42503092 67.73723861 -17.44822266
v 73.28353617 68.01337691 -17.49372442
v 73.08663676 67.80319461 -18.16077760
v 73.00538370 67.86867018 -17.51403384
v 73.28353617 68.01337691 -17.49372442
v 73.36486552 67.94790134 -18.14046818
v 73.22556803 67.53217564 -18.11611508
v 73.14486429 67.59643050 -17.46917296
v 73.00538370 67.86867018 -17.51403384
v 73.08663676 67.80319461 -18.16077760
v 73.28353617 68.01337691 -17.49372442
v 73.00538370 67.86867018 -17.51403384
v 73.08488200 67.89564008 -17.59539371
v 73.22575114 67.96892041 -17.58509404
v 72.15389750 69.86568702 -17.92893590
v 72.01986429 69.78034461 -17.93714511
v 73.22575114 67.96892041 -17.58509404
v 73.27412150 67.92995703 -17.96995121
v 72.20383951 69.82386262 -18.31306065
v 72.15389750 69.86568702 -17.92893590
v 73.50567362 67.67298375 -18.09516479
v 73.42503092 67.73723861 -17.44822266
v 73.14486429 67.59643050 -17.46917296
v 73.22556803 67.53217564 -18.11611508
v 74.13401530 65.57149762 -17.62220302
v 74.08213541 65.61936450 -17.23884121
v 73.22480509 67.62259931 -17.55039549
v 73.27280924 67.58436835 -17.93534422
v 74.28216288 65.62810010 -17.60920254
v 74.13401530 65.57149762 -17.62220302
v 73.27280924 67.58436835 -17.93534422
v 73.41468546 67.65567268 -17.92473937
v 74.23028300 65.67596698 -17.22584073
v 74.28216288 65.62810010 -17.60920254
v 73.41468546 67.65567268 -17.92473937
v 73.36668131 67.69390364 -17.53979065
v 73.36486552 67.94790134 -18.14046818
v 73.28353617 68.01337691 -17.49372442
v 73.42503092 67.73723861 -17.44822266
v 73.50567362 67.67298375 -18.09516479
v 71.94331095 69.74813332 -17.85488498
v 72.20805094 69.91667428 -17.83866491
v 72.20805094 69.91667428 -17.83866491
v 72.03887675 70.17616524 -17.89022440
v 74.08213541 65.61936450 -17.23884121
v 74.23028300 65.67596698 -17.22584073
v 73.36668131 67.69390364 -17.53979065
v 73.22480509 67.62259931 -17.55039549
v 72.29200480 69.84638456 -18.48418797
v 72.20805094 69.91667428 -17.83866491
v 71.94331095 69.74813332 -17.85488498
v 72.02726481 69.67783597 -18.50037752
v 72.12276957 70.10588315 -18.53561013
v 72.03887675 70.17616524 -17.89022440
v 72.20805094 69.91667428 -17.83866491
v 72.29200480 69.84638456 -18.48418797
v 73.27412150 67.92995703 -17.96995121
v 73.13326762 67.85667670 -17.98022036
v 72.06980631 69.73852021 -18.32126986
v 72.20383951 69.82386262 -18.31306065
v 73.13326762 67.85667670 -17.98022036
v 73.08488200 67.89564008 -17.59539371
v 72.01986429 69.78034461 -17.93714511
v 72.06980631 69.73852021 -18.32126986
v 64.77997706 76.80627668 -19.43046291
v 64.98170588 76.71486128 -19.39799219
v 65.04483149 76.73426283 -19.41526514
v 64.76102564 76.86292493 -19.46096524
v 64.88269160 76.51308668 -19.39004233
v 64.90565607 76.45272291 -19.40429403
v 65.04483149 76.73426283 -19.41526514
v 64.68402979 76.60306776 -19.42199425
v 64.62774775 76.57858503 -19.44898704
v 64.90565607 76.45272291 -19.40429403
v 64.76102564 76.86292493 -19.46096524
v 64.62774775 76.57858503 -19.44898704
v 64.67129633 76.64020000 -19.53831200
v 64.73874781 76.78418956 -19.54436977
v 62.69499323 77.55221014 -19.86901589
v 62.64899561 77.40015631 -19.85941808
v 64.73874781 76.78418956 -19.54436977
v 64.78624842 76.74605016 -19.92963892
v 62.74638483 77.51265167 -20.25394935
v 62.69499323 77.55221014 -19.86901589
v 64.78624842 76.74605016 -19.92963892
v 64.71872828 76.60206060 -19.92358116
v 62.70038721 77.36059784 -20.24435155
v 62.74638483 77.51265167 -20.25394935
v 64.71872828 76.60206060 -19.92358116
v 64.67129633 76.64020000 -19.53831200
v 62.64899561 77.40015631 -19.85941808
v 62.70038721 77.36059784 -20.24435155
v 67.01574061 75.56102974 -19.73463141
v 66.94031641 75.62266773 -19.08680427
v 67.19958613 75.44965596 -19.04058537
v 67.27457545 75.38828500 -19.68848880
v 67.27457545 75.38828500 -19.68848880
v 67.19958613 75.44965596 -19.04058537
v 67.01623652 75.19446797 -19.03764038
v 67.09122584 75.13309701 -19.68554381
v 67.09122584 75.13309701 -19.68554381
v 67.01623652 75.19446797 -19.03764038
v 66.76210902 75.36387104 -19.08291323
v 66.83753321 75.30223305 -19.73074037
v 60.34177134 78.07468618 -20.83993272
v 60.25241587 78.14194703 -20.19404345
v 60.20892832 77.83184266 -20.16753888
v 60.29828379 77.76458181 -20.81342815
v 66.83753321 75.30223305 -19.73074037
v 66.76210902 75.36387104 -19.08291323
v 66.94031641 75.62266773 -19.08680427
v 67.01574061 75.56102974 -19.73463141
v 67.13376734 75.44027180 -19.02450260
v 67.19958613 75.44965596 -19.04058537
v 66.94031641 75.62266773 -19.08680427
v 67.01623652 75.19446797 -19.03764038
v 67.19958613 75.44965596 -19.04058537
v 62.79219172 77.56871243 -20.43458291
v 62.70584986 77.63519508 -19.78753397
v 62.61505244 77.33492500 -19.76858250
v 62.70145533 77.26844235 -20.41564670
v 62.70145533 77.26844235 -20.41564670
v 62.61505244 77.33492500 -19.76858250
v 62.32064173 77.41314918 -19.81800573
v 62.40804407 77.34638424 -20.46487157
v 62.40804407 77.34638424 -20.46487157
v 62.32064173 77.41314918 -19.81800573
v 62.40541193 77.71509009 -19.83791850
v 62.49282191 77.64832515 -20.48478433
v 62.58261225 77.39117653 -19.75611608
v 62.64692805 77.60623390 -19.76977273
v 62.43340418 77.66301185 -19.80560038
v 62.37215540 77.44709236 -19.79144019
v 62.70584986 77.63519508 -19.78753397
v 62.40541193 77.71509009 -19.83791850
v 62.61505244 77.33492500 -19.76858250
v 62.70584986 77.63519508 -19.78753397
v 62.32064173 77.41314918 -19.81800573
v 62.61505244 77.33492500 -19.76858250
v 62.40541193 77.71509009 -19.83791850
v 62.32064173 77.41314918 -19.81800573
v 62.35326502 77.47875432 -19.90907020
v 62.39618799 77.63165502 -19.91915628
v 60.25360606 78.05642913 -20.27367905
v 60.23158762 77.89940093 -20.26025129
v 62.39618799 77.63165502 -19.91915628
v 62.44820521 77.59192870 -20.30396768
v 60.30681345 78.01640526 -20.65795639
v 60.25360606 78.05642913 -20.27367905
v 62.44820521 77.59192870 -20.30396768
v 62.40522120 77.43902037 -20.29388159
v 60.28479502 77.85937707 -20.64454389
v 60.30681345 78.01640526 -20.65795639
v 62.40522120 77.43902037 -20.29388159
v 62.35326502 77.47875432 -19.90907020
v 60.23158762 77.89940093 -20.26025129
v 60.28479502 77.85937707 -20.64454389
v 64.84077570 76.79883028 -20.10851772
v 64.76102564 76.86292493 -19.46096524
v 65.04483149 76.73426283 -19.41526514
v 65.12420771 76.67035891 -20.06277185
v 65.12420771 76.67035891 -20.06277185
v 65.04483149 76.73426283 -19.41526514
v 64.90565607 76.45272291 -19.40429403
v 64.98503229 76.38881900 -20.05181599
v 64.98503229 76.38881900 -20.05181599
v 64.90565607 76.45272291 -19.40429403
v 64.62774775 76.57858503 -19.44898704
v 64.70749781 76.51449038 -20.09653952
v 64.70749781 76.51449038 -20.09653952
v 64.62774775 76.57858503 -19.44898704
v 64.76102564 76.86292493 -19.46096524
v 64.84077570 76.79883028 -20.10851772
v 70.67970011 72.12023397 -18.96690013
v 70.58921549 72.19953400 -18.32430676
v 70.78542826 71.96158083 -18.26055550
v 70.87685892 71.88114401 -18.90293525
v 45.40047190 75.26364315 -22.36118775
v 45.46805308 75.22611409 -22.74244385
v 43.61925242 74.22642686 -22.99883712
v 43.59679148 74.23178275 -22.61706222
v 50.16817210 76.78979683 -21.60038478
v 50.11012766 77.00476265 -21.63218413
v 50.05968211 77.03202247 -21.66761504
v 50.14113352 76.73174477 -21.62310511
v 59.97858164 78.12709259 -20.20885973
v 60.25241587 78.14194703 -20.19404345
v 59.94269297 78.17346405 -20.24175769
v 57.70222971 78.02063197 -20.52222946
v 57.70309946 78.24431056 -20.54551441
v 57.48235056 78.23504847 -20.57772571
v 57.48367808 78.01140803 -20.55412033
v 45.40988657 75.32251157 -22.25408632
v 45.61375925 75.40728941 -22.23197635
v 45.64275095 75.46273221 -22.25649724
v 45.35661814 75.34309567 -22.28747256
v 50.13516733 76.79706000 -21.72005946
v 50.09393809 76.94912146 -21.74258146
v 48.01579783 76.27513306 -22.07029436
v 48.06511423 76.12567323 -22.04610916
v 45.45940134 75.11789120 -22.33637694
v 45.40047190 75.26364315 -22.36118775
v 43.59679148 74.23178275 -22.61706222
v 43.65439341 74.09460624 -22.59139691
v 55.08055613 77.70489694 -21.57076762
v 54.98066447 77.77195179 -20.92680096
v 54.94571421 78.08195697 -20.96450547
v 55.04560587 78.01490212 -21.60847214
v 50.09393809 76.94912146 -21.74258146
v 50.15681956 76.90994445 -22.12391385
v 48.08093760 76.23667322 -22.44953630
v 48.01579783 76.27513306 -22.07029436
v 47.84004710 75.98400293 -22.46305555
v 47.77460215 76.02235596 -22.08369154
v 45.74390147 75.23685635 -22.30553895
v 45.81116221 75.19922049 -22.68655090
v 47.94527170 76.30195040 -21.97298907
v 48.01523325 76.09080691 -21.93877883
v 48.07452891 76.06145663 -21.94836135
v 47.97708628 76.35660738 -21.99610615
v 47.73720286 76.22796816 -21.99985979
v 47.97708628 76.35660738 -21.99610615
v 47.68486521 76.25268739 -22.03385637
v 47.80823252 76.01721377 -21.96554274
v 47.89444468 75.89385398 -22.62284557
v 47.78444407 75.95830721 -21.98589795
v 47.68486521 76.25268739 -22.03385637
v 47.79486582 76.18823416 -22.67065141
v 48.18402598 75.99682792 -22.58521742
v 48.07452891 76.06145663 -21.94836135
v 47.78444407 75.95830721 -21.98589795
v 47.89444468 75.89385398 -22.62284557
v 48.08658335 76.29197867 -22.63277911
v 47.97708628 76.35660738 -21.99610615
v 48.07452891 76.06145663 -21.94836135
v 48.18402598 75.99682792 -22.58521742
v 47.79486582 76.18823416 -22.67065141
v 47.68486521 76.25268739 -22.03385637
v 47.97708628 76.35660738 -21.99610615
v 48.08658335 76.29197867 -22.63277911
v 45.49290964 75.11644163 -22.21905211
v 45.35661814 75.34309567 -22.28747256
v 45.47289011 75.05527677 -22.23850706
v 45.69575999 75.20079222 -22.19703369
v 45.47289011 75.05527677 -22.23850706
v 45.75700877 75.17405882 -22.20768432
v 45.75700877 75.17405882 -22.20768432
v 45.64275095 75.46273221 -22.25649724
v 50.16541025 76.96618832 -22.30810271
v 50.05968211 77.03202247 -21.66761504
v 50.35767100 77.11801338 -21.61877168
v 50.46283457 77.05202665 -22.25988495
v 50.46283457 77.05202665 -22.25988495
v 50.35767100 77.11801338 -21.61877168
v 50.43666575 76.81704141 -21.57473476
v 50.54182932 76.75105467 -22.21587855
v 50.54182932 76.75105467 -22.21587855
v 50.43666575 76.81704141 -21.57473476
v 50.14113352 76.73174477 -21.62310511
v 50.24686167 76.66590299 -22.26362329
v 50.24686167 76.66590299 -22.26362329
v 50.14113352 76.73174477 -21.62310511
v 50.05968211 77.03202247 -21.66761504
v 50.16541025 76.96618832 -22.30810271
v 50.37900278 76.85084726 -21.56583889
v 50.32220957 77.06616402 -21.59739410
v 50.35767100 77.11801338 -21.61877168
v 50.05968211 77.03202247 -21.66761504
v 59.99432871 77.79542745 -20.86019635
v 59.90466807 77.86271881 -20.21445966
v 59.94269297 78.17346405 -20.24175769
v 60.03241465 78.10617268 -20.88749437
v 50.15681956 76.90994445 -22.12391385
v 50.19803355 76.75788300 -22.10139186
v 48.13025400 76.08721339 -22.42541213
v 48.08093760 76.23667322 -22.44953630
v 50.19803355 76.75788300 -22.10139186
v 50.13516733 76.79706000 -21.72005946
v 48.06511423 76.12567323 -22.04610916
v 48.13025400 76.08721339 -22.42541213
v 52.58740732 77.57701296 -21.95681496
v 52.48456309 77.64359479 -21.31327554
v 52.78813669 77.70850569 -21.27178691
v 52.89110300 77.64193149 -21.91531107
v 52.89110300 77.64193149 -21.91531107
v 52.78813669 77.70850569 -21.27178691
v 52.84548685 77.40226180 -21.23092382
v 52.94845316 77.33568760 -21.87446324
v 52.94845316 77.33568760 -21.87446324
v 52.84548685 77.40226180 -21.23092382
v 52.54480479 77.33796126 -21.27201573
v 52.64770243 77.27137180 -21.91557041
v 60.29828379 77.76458181 -20.81342815
v 60.20892832 77.83184266 -20.16753888
v 59.90466807 77.86271881 -20.21445966
v 59.99432871 77.79542745 -20.86019635
v 60.03241465 78.10617268 -20.88749437
v 59.94269297 78.17346405 -20.24175769
v 60.25241587 78.14194703 -20.19404345
v 60.34177134 78.07468618 -20.83993272
v 47.78444407 75.95830721 -21.98589795
v 48.07452891 76.06145663 -21.94836135
v 45.47012827 75.28003862 -22.92800599
v 45.35661814 75.34309567 -22.28747256
v 45.64275095 75.46273221 -22.25649724
v 45.75581858 75.39946917 -22.89652713
v 45.75581858 75.39946917 -22.89652713
v 45.64275095 75.46273221 -22.25649724
v 45.75700877 75.17405882 -22.20768432
v 45.87007639 75.11080341 -22.84772948
v 57.51184580 77.99077043 -21.05585983
v 57.45531199 78.03091637 -20.67225388
v 55.29126475 77.87155353 -20.97976423
v 55.35030863 77.83159833 -21.36301923
v 45.87007639 75.11080341 -22.84772948
v 45.75700877 75.17405882 -22.20768432
v 45.47289011 75.05527677 -22.23850706
v 45.58646128 74.99221972 -22.87904049
v 59.95078013 77.90476441 -20.18940474
v 57.51059458 78.14900407 -21.07261401
v 57.51184580 77.99077043 -21.05585983
v 55.35030863 77.83159833 -21.36301923
v 55.33450053 77.98880963 -21.38184860
v 45.58646128 74.99221972 -22.87904049
v 45.47289011 75.05527677 -22.23850706
v 45.35661814 75.34309567 -22.28747256
v 45.47012827 75.28003862 -22.92800599
v 43.60864756 74.05577264 -22.48386822
v 43.40108225 73.96542535 -22.51121196
v 43.37529490 73.90964684 -22.53153666
v 43.66550181 74.03674493 -22.49322186
v 43.52733347 74.24935326 -22.52018417
v 43.66550181 74.03674493 -22.49322186
v 43.55161021 74.30774102 -22.54391160
v 43.31763193 74.15925774 -22.54764998
v 43.55161021 74.30774102 -22.54391160
v 43.25771067 74.18085655 -22.58248580
v 57.45406077 78.18915764 -20.68900806
v 57.51059458 78.14900407 -21.07261401
v 55.33450053 77.98880963 -21.38184860
v 55.27545664 78.02876483 -20.99859360
v 57.45531199 78.03091637 -20.67225388
v 57.45406077 78.18915764 -20.68900806
v 55.27545664 78.02876483 -20.99859360
v 55.29126475 77.87155353 -20.97976423
v 57.44075510 78.27528589 -20.61108143
v 57.44325754 77.96280115 -20.57800033
v 57.44325754 77.96280115 -20.57800033
v 57.74928782 77.97573298 -20.53336837
v 57.74928782 77.97573298 -20.53336837
v 57.75116465 78.28828638 -20.56580861
v 57.75116465 78.28828638 -20.56580861
v 57.44075510 78.27528589 -20.61108143
v 45.46805308 75.22611409 -22.74244385
v 45.52690623 75.08036214 -22.71764830
v 43.67905161 74.08780839 -22.97315656
v 43.61925242 74.22642686 -22.99883712
v 59.92599985 77.93042967 -20.30735518
v 59.94527170 78.08778593 -20.32117967
v 57.76334116 78.20214288 -20.64388782
v 57.76239512 78.04386346 -20.62746934
v 59.94527170 78.08778593 -20.32117967
v 59.99866221 78.04773918 -20.70539597
v 57.81955454 78.16198168 -21.02752429
v 57.76334116 78.20214288 -20.64388782
v 59.99866221 78.04773918 -20.70539597
v 59.97940562 77.89038292 -20.69157148
v 57.81862376 78.00370989 -21.01110580
v 57.81955454 78.16198168 -21.02752429
v 50.43666575 76.81704141 -21.57473476
v 50.35767100 77.11801338 -21.61877168
v 59.94269297 78.17346405 -20.24175769
v 59.90466807 77.86271881 -20.21445966
v 57.53825877 77.89533431 -21.22266890
v 57.44325754 77.96280115 -20.57800033
v 57.44075510 78.27528589 -20.61108143
v 57.53575632 78.20781905 -21.25575000
v 57.84384653 77.90825088 -21.17808272
v 57.74928782 77.97573298 -20.53336837
v 57.44325754 77.96280115 -20.57800033
v 57.53825877 77.89533431 -21.22266890
v 57.84572336 78.22081191 -21.21052295
v 57.75116465 78.28828638 -20.56580861
v 57.74928782 77.97573298 -20.53336837
v 57.84384653 77.90825088 -21.17808272
v 57.53575632 78.20781905 -21.25575000
v 57.44075510 78.27528589 -20.61108143
v 57.75116465 78.28828638 -20.56580861
v 57.84572336 78.22081191 -21.21052295
v 55.04478953 77.79960827 -21.40528607
v 54.98537180 77.83951006 -21.02210736
v 52.84511301 77.46895795 -21.32694739
v 52.90635416 77.42933844 -21.70988196
v 55.02709696 77.95659069 -21.42437484
v 55.04478953 77.79960827 -21.40528607
v 52.90635416 77.42933844 -21.70988196
v 52.87730143 77.58442114 -21.73055764
v 54.96767161 77.99649248 -21.04119613
v 55.02709696 77.95659069 -21.42437484
v 52.87730143 77.58442114 -21.73055764
v 52.81606028 77.62403302 -21.34763833
v 50.14113352 76.73174477 -21.62310511
v 50.43666575 76.81704141 -21.57473476
v 52.57593272 77.39295393 -21.24984472
v 52.53313181 77.61174971 -21.27933999
v 52.48456309 77.64359479 -21.31327554
v 52.54480479 77.33796126 -21.27201573
v 52.54367564 77.40449719 -21.36814611
v 52.51311228 77.55927471 -21.38903542
v 50.39117930 77.03492164 -21.69386016
v 50.43120310 76.88250923 -21.67156705
v 52.51311228 77.55927471 -21.38903542
v 52.57436106 77.51965520 -21.77196998
v 50.45380137 76.99565308 -22.07552825
v 50.39117930 77.03492164 -21.69386016
v 59.90466807 77.86271881 -20.21445966
v 60.20892832 77.83184266 -20.16753888
v 52.57436106 77.51965520 -21.77196998
v 52.60484812 77.36487768 -21.75108068
v 50.49376414 76.84324830 -22.05321987
v 50.45380137 76.99565308 -22.07552825
v 47.68486521 76.25268739 -22.03385637
v 47.78444407 75.95830721 -21.98589795
v 52.79057810 77.43883712 -21.22051733
v 52.54480479 77.33796126 -21.27201573
v 52.84548685 77.40226180 -21.23092382
v 55.38488505 77.73674204 -21.52866863
v 55.28574106 77.80388844 -20.88459515
v 54.98066447 77.77195179 -20.92680096
v 55.08055613 77.70489694 -21.57076762
v 55.35369608 78.04721261 -21.56583909
v 55.25449869 78.11435902 -20.92176561
v 55.28574106 77.80388844 -20.88459515
v 55.38488505 77.73674204 -21.52866863
v 55.04560587 78.01490212 -21.60847214
v 54.94571421 78.08195697 -20.96450547
v 55.25449869 78.11435902 -20.92176561
v 55.35369608 78.04721261 -21.56583909
v 52.60484812 77.36487768 -21.75108068
v 52.54367564 77.40449719 -21.36814611
v 50.43120310 76.88250923 -21.67156705
v 50.49376414 76.84324830 -22.05321987
v 47.77460215 76.02235596 -22.08369154
v 47.72415659 76.17142670 -22.10798356
v 45.68604014 75.38303555 -22.33027347
v 45.74390147 75.23685635 -22.30553895
v 47.72415659 76.17142670 -22.10798356
v 47.78960154 76.13307367 -22.48730179
v 45.75330088 75.34539968 -22.71127017
v 45.68604014 75.38303555 -22.33027347
v 47.78960154 76.13307367 -22.48730179
v 47.84004710 75.98400293 -22.46305555
v 45.81116221 75.19922049 -22.68655090
v 45.75330088 75.34539968 -22.71127017
v 59.97940562 77.89038292 -20.69157148
v 59.92599985 77.93042967 -20.30735518
v 57.76239512 78.04386346 -20.62746934
v 57.81862376 78.00370989 -21.01110580
v 43.42241404 73.89518903 -23.17301615
v 43.37529490 73.90964684 -22.53153666
v 43.25771067 74.18085655 -22.58248580
v 43.29942820 74.16993878 -23.22398055
v 43.70685313 74.02543043 -23.13477764
v 43.66550181 74.03674493 -22.49322186
v 43.37529490 73.90964684 -22.53153666
v 43.42241404 73.89518903 -23.17301615
v 43.58638499 74.30070661 -23.18548264
v 43.55161021 74.30774102 -22.54391160
v 43.66550181 74.03674493 -22.49322186
v 43.70685313 74.02543043 -23.13477764
v 43.29942820 74.16993878 -23.22398055
v 43.25771067 74.18085655 -22.58248580
v 43.55161021 74.30774102 -22.54391160
v 43.58638499 74.30070661 -23.18548264
v 45.52690623 75.08036214 -22.71764830
v 45.45940134 75.11789120 -22.33637694
v 43.65439341 74.09460624 -22.59139691
v 43.67905161 74.08780839 -22.97315656
v 52.64770243 77.27137180 -21.91557041
v 52.54480479 77.33796126 -21.27201573
v 52.48456309 77.64359479 -21.31327554
v 52.58740732 77.57701296 -21.95681496
v 52.74923441 77.65794570 -21.24979898
v 55.21126292 78.06788838 -20.90046433
v 55.23397562 77.84574330 -20.87380719
v 55.28574106 77.80388844 -20.88459515
v 55.25449869 78.11435902 -20.92176561
v 52.78813669 77.70850569 -21.27178691
v 52.48456309 77.64359479 -21.31327554
v 55.01617930 77.82293141 -20.90394330
v 54.98066447 77.77195179 -20.92680096
v 55.28574106 77.80388844 -20.88459515
v 54.99152109 78.04483997 -20.93087510
v 54.94571421 78.08195697 -20.96450547
v 54.98066447 77.77195179 -20.92680096
v 52.84548685 77.40226180 -21.23092382
v 52.78813669 77.70850569 -21.27178691
v 54.98537180 77.83951006 -21.02210736
v 54.96767161 77.99649248 -21.04119613
v 52.81606028 77.62403302 -21.34763833
v 52.84511301 77.46895795 -21.32694739
v 43.25771067 74.18085655 -22.58248580
v 43.37529490 73.90964684 -22.53153666
v 55.25449869 78.11435902 -20.92176561
v 54.94571421 78.08195697 -20.96450547
v 41.00287363 73.01685496 -23.34104579
v 41.07741282 72.87887737 -23.31417504
v 39.21901438 71.75282447 -23.58221074
v 39.13756296 71.88663641 -23.61007331
v 41.07741282 72.87887737 -23.31417504
v 41.00412485 72.91353777 -22.93287316
v 39.14252207 71.78556989 -23.20138189
v 39.21901438 71.75282447 -23.58221074
v 37.25343821 70.27723082 -24.04673382
v 37.11797068 70.32747812 -23.40775677
v 36.86786387 70.14843148 -23.44607156
v 37.00427744 70.09887846 -24.08489602
v 41.27187083 73.21601265 -23.49073454
v 41.14932749 73.27462177 -22.84985015
v 41.29471323 73.00108509 -22.79703944
v 41.41725657 72.94247598 -23.43790857
v 38.88431284 71.61704419 -23.23888797
v 38.80186961 71.75021526 -23.26690312
v 37.00270579 70.51144569 -23.53635788
v 37.09236643 70.38324898 -23.50725935
v 43.39166758 73.95878006 -23.01148661
v 43.36324045 73.96764548 -22.62977275
v 41.27519724 73.06076983 -22.89565700
v 41.34810374 73.02589580 -23.27700465
v 33.50589487 67.07184742 -24.65981618
v 33.35548899 67.10911712 -24.02331106
v 33.13957712 66.89048155 -24.06177843
v 33.29086802 66.85406635 -24.69813096
v 41.14719126 72.79581612 -23.47498740
v 41.02400706 72.85406665 -22.83420982
v 40.87674448 73.12654284 -22.88729519
v 40.99991343 73.06829231 -23.52807277
v 34.95059702 68.60979617 -23.77781265
v 35.13112376 68.73497928 -23.75085039
v 35.14297983 68.79525913 -23.77592059
v 34.88960764 68.61895144 -23.81379287
v 35.09843943 68.47088771 -24.23278394
v 35.04597971 68.45023500 -23.85329785
v 33.32304880 67.15904386 -24.12392752
v 33.41258738 67.13686515 -24.50268118
v 38.80042002 71.81121992 -23.15981695
v 38.98534128 71.93193983 -23.13294625
v 39.00417063 71.99194502 -23.15736032
v 38.74438975 71.82240461 -23.19511053
v 35.25648997 68.58433690 -23.70769851
v 35.07866404 68.45794834 -23.73447766
v 35.06969187 68.40583195 -23.75318493
v 35.31812022 68.58401646 -23.71567885
v 39.10072825 71.74295211 -23.09353276
v 38.91675303 71.62288832 -23.12026614
v 39.03661082 71.50489963 -23.77968995
v 38.90727732 71.55941939 -23.13978212
v 38.74438975 71.82240461 -23.19511053
v 38.87370798 71.76787722 -23.83500310
v 33.29318735 67.29429004 -24.72312493
v 33.14278147 67.33155973 -24.08660455
v 33.35548899 67.10911712 -24.02331106
v 33.50589487 67.07184742 -24.65981618
v 33.28835032 67.11126098 -24.01598684
v 33.13586924 67.27022704 -24.06132073
v 32.98051951 67.11324461 -24.08898489
v 33.13405344 66.95538482 -24.04345264
v 33.14278147 67.33155973 -24.08660455
v 32.92473337 67.11075742 -24.12545339
v 33.35548899 67.10911712 -24.02331106
v 33.14278147 67.33155973 -24.08660455
v 33.13957712 66.89048155 -24.06177843
v 33.35548899 67.10911712 -24.02331106
v 37.05214426 70.33944101 -23.39947125
v 36.92520640 70.52046365 -23.44060898
v 36.74568674 70.39193123 -23.46810530
v 36.87369273 70.21167154 -23.42679972
v 32.92473337 67.11075742 -24.12545339
v 33.13957712 66.89048155 -24.06177843
v 36.94089243 70.58063668 -23.46520616
v 36.68877146 70.40009468 -23.50384138
v 37.11797068 70.32747812 -23.40775677
v 36.94089243 70.58063668 -23.46520616
v 36.86786387 70.14843148 -23.44607156
v 37.11797068 70.32747812 -23.40775677
v 36.68877146 70.40009468 -23.50384138
v 36.86786387 70.14843148 -23.44607156
v 36.84187815 70.20392768 -23.54563517
v 36.75114939 70.33136145 -23.57488629
v 35.20699045 68.73449862 -23.84623308
v 35.29558298 68.62771762 -23.81573074
v 36.75114939 70.33136145 -23.57488629
v 36.83234141 70.30187378 -23.95501324
v 35.25253794 68.76370388 -24.22582598
v 35.20699045 68.73449862 -23.84623308
v 36.83234141 70.30187378 -23.95501324
v 36.92300913 70.17444001 -23.92576212
v 35.34358713 68.65333706 -24.19532364
v 35.25253794 68.76370388 -24.22582598
v 36.92300913 70.17444001 -23.92576212
v 36.84187815 70.20392768 -23.54563517
v 35.29558298 68.62771762 -23.81573074
v 35.34358713 68.65333706 -24.19532364
v 38.87370798 71.76787722 -23.83500310
v 38.74438975 71.82240461 -23.19511053
v 39.00417063 71.99194502 -23.15736032
v 39.13274119 71.93692172 -23.79737496
v 33.10675547 66.93998105 -24.16247119
v 32.99796030 67.05153042 -24.19471303
v 31.53217051 65.43006660 -24.46265710
v 31.64674876 65.32479622 -24.42936241
v 39.13274119 71.93692172 -23.79737496
v 39.00417063 71.99194502 -23.15736032
v 39.16510508 71.72769332 -23.10232182
v 39.29361460 71.67267002 -23.74233646
v 32.99796030 67.05153042 -24.19471303
v 33.08794138 67.02986288 -24.57337513
v 31.62416575 65.41053147 -24.84095300
v 31.53217051 65.43006660 -24.46265710
v 35.00551340 68.58125453 -24.26348464
v 35.09843943 68.47088771 -24.23278394
v 33.41258738 67.13686515 -24.50268118
v 33.30486033 67.24950552 -24.53473992
v 41.12666819 73.21649341 -22.82568022
v 41.23088572 73.02084522 -22.78785365
v 41.29471323 73.00108509 -22.79703944
v 41.14932749 73.27462177 -22.84985015
v 40.93259165 73.11105518 -22.85233731
v 41.14932749 73.27462177 -22.84985015
v 40.87674448 73.12654284 -22.88729519
v 36.82512400 70.35053403 -24.14266584
v 36.68877146 70.40009468 -23.50384138
v 36.94089243 70.58063668 -23.46520616
v 37.07637522 70.53038938 -24.10418320
v 37.07637522 70.53038938 -24.10418320
v 36.94089243 70.58063668 -23.46520616
v 37.11797068 70.32747812 -23.40775677
v 37.25343821 70.27723082 -24.04673382
v 33.07600901 67.07434985 -24.76182119
v 32.92473337 67.11075742 -24.12545339
v 33.14278147 67.33155973 -24.08660455
v 33.29318735 67.29429004 -24.72312493
v 38.90727732 71.55941939 -23.13978212
v 39.16510508 71.72769332 -23.10232182
v 39.29361460 71.67267002 -23.74233646
v 39.16510508 71.72769332 -23.10232182
v 38.90727732 71.55941939 -23.13978212
v 39.03661082 71.50489963 -23.77968995
v 41.03775523 72.91594868 -22.81437341
v 35.04597971 68.45023500 -23.85329785
v 34.95486948 68.55801546 -23.88399855
v 33.21532175 67.27168424 -24.15598626
v 33.32304880 67.15904386 -24.12392752
v 34.95486948 68.55801546 -23.88399855
v 35.00551340 68.58125453 -24.26348464
v 33.30486033 67.24950552 -24.53473992
v 33.21532175 67.27168424 -24.15598626
v 35.25648997 68.58433690 -23.70769851
v 35.31812022 68.58401646 -23.71567885
v 35.14297983 68.79525913 -23.77592059
v 33.29086802 66.85406635 -24.69813096
v 33.13957712 66.89048155 -24.06177843
v 32.92473337 67.11075742 -24.12545339
v 33.07600901 67.07434985 -24.76182119
v 38.87878916 71.71777502 -23.64767094
v 38.96130869 71.58460394 -23.61967104
v 37.17299387 70.35334932 -23.88747785
v 37.08333323 70.48154603 -23.91657638
v 38.80186961 71.75021526 -23.26690312
v 38.87878916 71.71777502 -23.64767094
v 37.08333323 70.48154603 -23.91657638
v 37.00270579 70.51144569 -23.53635788
v 41.00412485 72.91353777 -22.93287316
v 40.92950938 73.05151536 -22.95975917
v 39.06107065 71.91938184 -23.22924446
v 39.14252207 71.78556989 -23.20138189
v 38.96130869 71.58460394 -23.61967104
v 38.88431284 71.61704419 -23.23888797
v 37.09236643 70.38324898 -23.50725935
v 37.17299387 70.35334932 -23.88747785
v 35.15691111 68.44186547 -24.39092602
v 35.06969187 68.40583195 -23.75318493
v 34.88960764 68.61895144 -23.81379287
v 34.97087595 68.66343834 -24.45153397
v 35.39836619 68.62767175 -24.35358780
v 35.31812022 68.58401646 -23.71567885
v 35.06969187 68.40583195 -23.75318493
v 35.15691111 68.44186547 -24.39092602
v 41.41725657 72.94247598 -23.43790857
v 41.29471323 73.00108509 -22.79703944
v 41.02400706 72.85406665 -22.83420982
v 41.14719126 72.79581612 -23.47498740
v 35.21570322 68.84971764 -24.41382953
v 35.14297983 68.79525913 -23.77592059
v 35.31812022 68.58401646 -23.71567885
v 35.39836619 68.62767175 -24.35358780
v 38.74438975 71.82240461 -23.19511053
v 38.90727732 71.55941939 -23.13978212
v 34.97087595 68.66343834 -24.45153397
v 34.88960764 68.61895144 -23.81379287
v 35.14297983 68.79525913 -23.77592059
v 35.21570322 68.84971764 -24.41382953
v 43.33049509 74.09719254 -23.03728925
v 43.39166758 73.95878006 -23.01148661
v 41.34810374 73.02589580 -23.27700465
v 41.27449534 73.16440746 -23.30375333
v 40.99991343 73.06829231 -23.52807277
v 40.87674448 73.12654284 -22.88729519
v 41.14932749 73.27462177 -22.84985015
v 41.27187083 73.21601265 -23.49073454
v 39.16510508 71.72769332 -23.10232182
v 39.00417063 71.99194502 -23.15736032
v 43.30376169 74.10495169 -22.65557538
v 43.33049509 74.09719254 -23.03728925
v 41.27449534 73.16440746 -23.30375333
v 41.20158884 73.19928148 -22.92240568
v 43.36324045 73.96764548 -22.62977275
v 43.30376169 74.10495169 -22.65557538
v 41.20158884 73.19928148 -22.92240568
v 41.27519724 73.06076983 -22.89565700
v 35.07866404 68.45794834 -23.73447766
v 34.88960764 68.61895144 -23.81379287
v 35.06969187 68.40583195 -23.75318493
v 37.00427744 70.09887846 -24.08489602
v 36.86786387 70.14843148 -23.44607156
v 36.68877146 70.40009468 -23.50384138
v 36.82512400 70.35053403 -24.14266584
v 33.08794138 67.02986288 -24.57337513
v 33.19673655 66.91831351 -24.54113329
v 31.73872874 65.30526300 -24.80765830
v 31.62416575 65.41053147 -24.84095300
v 40.87674448 73.12654284 -22.88729519
v 41.02400706 72.85406665 -22.83420982
v 41.02400706 72.85406665 -22.83420982
v 41.29471323 73.00108509 -22.79703944
v 33.19673655 66.91831351 -24.54113329
v 33.10675547 66.93998105 -24.16247119
v 31.64674876 65.32479622 -24.42936241
v 31.73872874 65.30526300 -24.80765830
v 40.92950938 73.05151536 -22.95975917
v 41.00287363 73.01685496 -23.34104579
v 39.13756296 71.88663641 -23.61007331
v 39.06107065 71.91938184 -23.22924446
v 74.33135721 65.45067862 -17.06548608
v 74.12115214 65.37283590 -17.08423912
v 74.09663126 65.31290891 -17.10187827
v 74.39040873 65.42117575 -17.07558740
v 75.62302897 60.65475933 -16.22545845
v 75.40534708 60.60340588 -16.24888068
v 75.37453959 60.54696743 -16.26850347
v 75.67873881 60.61856167 -16.23572761
v 75.35911295 60.81765071 -16.28431162
v 75.57665751 60.86959545 -16.26098094
v 75.61361429 60.92022029 -16.28562389
v 75.30965922 60.84747020 -16.31818614
v 75.96067545 58.02308357 -16.48356043
v 75.86855814 58.12141894 -15.84244717
v 75.80914042 58.42242907 -15.89698213
v 75.90105936 58.32489860 -16.53823272
v 74.81973002 63.16319726 -17.36042284
v 74.72980997 63.25077137 -16.71744800
v 75.03024027 63.33786091 -16.68729665
v 75.12016032 63.25029062 -17.33027149
v 76.38052103 55.89828200 -16.09244681
v 76.28834269 55.99730020 -15.45145561
v 76.59316752 56.06608301 -15.41823724
v 76.68534586 55.96706481 -16.05921318
v 76.44169352 55.59816833 -16.03693528
v 76.34957621 55.69683939 -15.39588305
v 76.28834269 55.99730020 -15.45145561
v 76.38052103 55.89828200 -16.09244681
v 76.33727763 55.96733195 -15.41671134
v 76.55538676 56.01664454 -15.39295342
v 76.59316752 56.06608301 -15.41823724
v 76.28834269 55.99730020 -15.45145561
v 74.37804911 65.63385263 -17.77773587
v 74.29082987 65.71429707 -17.13346403
v 74.39040873 65.42117575 -17.07558740
v 74.47881815 65.33769290 -17.71930992
v 74.47881815 65.33769290 -17.71930992
v 74.39040873 65.42117575 -17.07558740
v 74.09663126 65.31290891 -17.10187827
v 74.18497965 65.22942988 -17.74561605
v 74.18497965 65.22942988 -17.74561605
v 74.09663126 65.31290891 -17.10187827
v 73.99824259 65.60251881 -17.15914455
v 74.08552286 65.52207437 -17.80341639
v 74.08552286 65.52207437 -17.80341639
v 73.99824259 65.60251881 -17.15914455
v 74.29082987 65.71429707 -17.13346403
v 74.37804911 65.63385263 -17.77773587
v 74.05100748 65.57950856 -17.12510219
v 74.26052592 65.65914419 -17.10666959
v 74.29082987 65.71429707 -17.13346403
v 73.99824259 65.60251881 -17.15914455
v 76.07644388 58.43961429 -15.83831209
v 76.11886332 58.22495746 -15.79946318
v 76.17388651 58.18779468 -15.80878629
v 76.11434672 58.48903369 -15.86335177
v 75.05653117 63.07497106 -16.62420152
v 74.84112284 63.01425824 -16.64606735
v 74.81188700 62.95641789 -16.66547652
v 75.11294291 63.04098592 -16.63489792
v 76.10600016 58.40153590 -16.33886140
v 75.95144388 58.36780634 -16.35589020
v 75.51534769 60.49968418 -16.72867803
v 75.66940043 60.53593906 -16.71209173
v 74.78152201 63.22391018 -16.68349719
v 74.72980997 63.25077137 -16.71744800
v 74.81188700 62.95641789 -16.66547652
v 76.38088724 55.75328547 -15.37711475
v 76.59893534 55.80303676 -15.35344838
v 76.65421793 55.76647670 -15.36281727
v 76.59316752 56.06608301 -15.41823724
v 75.30965922 60.84747020 -16.31818614
v 75.37453959 60.54696743 -16.26850347
v 76.53022501 56.03588585 -15.51203301
v 76.58506510 55.97696398 -15.89344169
v 76.16560099 58.09976665 -16.28418911
v 76.11082194 58.15828035 -15.90270413
v 75.39957926 60.75951843 -16.96109994
v 75.30965922 60.84747020 -16.31818614
v 75.61361429 60.92022029 -16.28562389
v 75.70353434 60.83226853 -16.92853770
v 76.34957621 55.69683939 -15.39588305
v 76.65421793 55.76647670 -15.36281727
v 76.58506510 55.97696398 -15.89344169
v 76.43076823 55.94213579 -15.91027213
v 76.01099894 58.06615535 -16.30123317
v 76.16560099 58.09976665 -16.28418911
v 74.99654887 63.28596578 -16.66187550
v 75.03024027 63.33786091 -16.68729665
v 74.72980997 63.25077137 -16.71744800
v 74.86948893 63.20846249 -17.17846179
v 74.81596110 63.26057322 -16.79586292
v 74.18089030 65.32848431 -17.18134605
v 74.23347208 65.27880926 -17.56440268
v 75.02158854 63.25256420 -17.16318775
v 74.86948893 63.20846249 -17.17846179
v 74.23347208 65.27880926 -17.56440268
v 74.38232157 65.33363218 -17.55108177
v 74.96812174 63.30467494 -16.78058888
v 75.02158854 63.25256420 -17.16318775
v 74.38232157 65.33363218 -17.55108177
v 74.32973978 65.38330723 -17.16804039
v 74.39040873 65.42117575 -17.07558740
v 74.29082987 65.71429707 -17.13346403
v 75.67873881 60.61856167 -16.23572761
v 75.61361429 60.92022029 -16.28562389
v 75.70353434 60.83226853 -16.92853770
v 75.61361429 60.92022029 -16.28562389
v 75.67873881 60.61856167 -16.23572761
v 75.76891825 60.52940828 -16.87845830
v 75.12016032 63.25029062 -17.33027149
v 75.03024027 63.33786091 -16.68729665
v 75.11294291 63.04098592 -16.63489792
v 75.20261881 62.95441317 -17.27804061
v 76.43076823 55.94213579 -15.91027213
v 76.37586710 56.00105385 -15.52884819
v 75.95621989 58.12466905 -15.91974819
v 76.01099894 58.06615535 -16.30123317
v 76.26594279 58.08945931 -16.44988430
v 76.17388651 58.18779468 -15.80878629
v 75.86855814 58.12141894 -15.84244717
v 75.96067545 58.02308357 -16.48356043
v 75.90037272 58.17746829 -15.82355680
v 75.85795328 58.39199542 -15.86239045
v 75.90105936 58.32489860 -16.53823272
v 75.80914042 58.42242907 -15.89698213
v 76.11434672 58.48903369 -15.86335177
v 76.20626566 58.39150322 -16.50460236
v 75.20261881 62.95441317 -17.27804061
v 75.11294291 63.04098592 -16.63489792
v 74.81188700 62.95641789 -16.66547652
v 74.90148661 62.86984896 -17.30863447
v 74.90148661 62.86984896 -17.30863447
v 74.81188700 62.95641789 -16.66547652
v 74.72980997 63.25077137 -16.71744800
v 74.81973002 63.16319726 -17.36042284
v 75.11294291 63.04098592 -16.63489792
v 75.03024027 63.33786091 -16.68729665
v 75.60413859 60.83818515 -16.76207957
v 75.45022318 60.80134662 -16.77855906
v 74.95150492 62.91421582 -17.12652083
v 75.10397074 62.95703962 -17.11103316
v 73.99824259 65.60251881 -17.15914455
v 74.09663126 65.31290891 -17.10187827
v 75.86855814 58.12141894 -15.84244717
v 76.17388651 58.18779468 -15.80878629
v 75.80914042 58.42242907 -15.89698213
v 75.86855814 58.12141894 -15.84244717
v 76.11434672 58.48903369 -15.86335177
v 75.80914042 58.42242907 -15.89698213
v 75.55061075 60.89052286 -16.37951122
v 75.60413859 60.83818515 -16.76207957
v 75.10397074 62.95703962 -17.11103316
v 75.05064127 63.00855335 -16.72832748
v 75.39669535 60.85368051 -16.39600596
v 75.55061075 60.89052286 -16.37951122
v 75.05064127 63.00855335 -16.72832748
v 74.89816019 62.96572956 -16.74381515
v 75.89672587 58.42584321 -15.97431367
v 76.05128214 58.45957276 -15.95728487
v 75.61568949 60.58898631 -16.32964545
v 75.46163676 60.55273142 -16.34623174
v 76.05128214 58.45957276 -15.95728487
v 76.10600016 58.40153590 -16.33886140
v 75.66940043 60.53593906 -16.71209173
v 75.61568949 60.58898631 -16.32964545
v 75.46471903 60.45781785 -16.91121891
v 75.37453959 60.54696743 -16.26850347
v 75.30965922 60.84747020 -16.31818614
v 75.39957926 60.75951843 -16.96109994
v 75.76891825 60.52940828 -16.87845830
v 75.67873881 60.61856167 -16.23572761
v 75.37453959 60.54696743 -16.26850347
v 75.46471903 60.45781785 -16.91121891
v 76.68534586 55.96706481 -16.05921318
v 76.59316752 56.06608301 -15.41823724
v 76.65421793 55.76647670 -15.36281727
v 76.74633524 55.66780563 -16.00386950
v 76.28834269 55.99730020 -15.45145561
v 76.34957621 55.69683939 -15.39588305
v 75.95144388 58.36780634 -16.35589020
v 75.89672587 58.42584321 -15.97431367
v 75.46163676 60.55273142 -16.34623174
v 75.51534769 60.49968418 -16.72867803
v 74.81596110 63.26057322 -16.79586292
v 74.96812174 63.30467494 -16.78058888
v 74.32973978 65.38330723 -17.16804039
v 74.18089030 65.32848431 -17.18134605
v 76.74633524 55.66780563 -16.00386950
v 76.65421793 55.76647670 -15.36281727
v 76.34957621 55.69683939 -15.39588305
v 76.44169352 55.59816833 -16.03693528
v 75.45022318 60.80134662 -16.77855906
v 75.39669535 60.85368051 -16.39600596
v 74.89816019 62.96572956 -16.74381515
v 74.95150492 62.91421582 -17.12652083
v 76.20626566 58.39150322 -16.50460236
v 76.11434672 58.48903369 -15.86335177
v 76.17388651 58.18779468 -15.80878629
v 76.26594279 58.08945931 -16.44988430
v 76.37586710 56.00105385 -15.52884819
v 76.53022501 56.03588585 -15.51203301
v 76.11082194 58.15828035 -15.90270413
v 75.95621989 58.12466905 -15.91974819
v 31.45360300 65.42350534 -24.36811364
v 31.61568186 65.27484469 -24.32104025
v 31.68201182 65.27787165 -24.32822714
v 31.45567820 65.48575738 -24.39397730
v 31.40906260 65.21761648 -25.06687459
v 31.25426218 65.25017693 -24.43116293
v 31.45567820 65.48575738 -24.39397730
v 31.61029551 65.45292799 -25.02975000
v 31.61029551 65.45292799 -25.02975000
v 31.45567820 65.48575738 -24.39397730
v 31.68201182 65.27787165 -24.32822714
v 31.83655283 65.24504798 -24.96399984
v 31.47269175 65.10760835 -24.34742267
v 31.48152659 65.04337648 -24.36522967
v 31.68201182 65.27787165 -24.32822714
v 31.83655283 65.24504798 -24.96399984
v 31.68201182 65.27787165 -24.32822714
v 31.48152659 65.04337648 -24.36522967
v 31.63632700 65.01081793 -25.00095659
v 31.63632700 65.01081793 -25.00095659
v 31.48152659 65.04337648 -24.36522967
v 31.25426218 65.25017693 -24.43116293
v 31.40906260 65.21761648 -25.06687459
v 31.31017039 65.25571778 -24.39458761
v 31.25426218 65.25017693 -24.43116293
v 31.48152659 65.04337648 -24.36522967
v 31.45567820 65.48575738 -24.39397730
v 31.25426218 65.25017693 -24.43116293
vt 0.50293308 0.75126052
vt 0.79011172 0.75126052
vt 0.79011166 0.87066543
vt 0.50293314 0.87066549
vt 0.88861132 0.52169478
vt 0.97284770 0.52169478
vt 0.98983854 0.50470388
vt 0.87162030 0.50470388
vt 0.50293314 0.87593424
vt 0.79011166 0.87593424
vt 0.79011160 0.99264514
vt 0.50293320 0.99264532
vt 0.50293320 0.50110424
vt 0.79011160 0.50110412
vt 0.79011166 0.61473608
vt 0.50293314 0.61473614
vt 0.88861132 0.52169478
vt 0.88861132 0.60701716
vt 0.97284758 0.60701728
vt 0.97284770 0.52169478
vt 0.87162030 0.62400812
vt 0.98983848 0.62400812
vt 0.87162030 0.50470388
vt 0.87162030 0.62400812
vt 0.98983854 0.50470388
vt 0.87162030 0.50470388
vt 0.98983848 0.62400812
vt 0.98983854 0.50470388
vt 0.86917019 0.30478406
vt 0.86917019 0.25399524
vt 0.09430118 0.25399530
vt 0.09430118 0.30478400
vt 0.86917019 0.25399524
vt 0.86917019 0.12950170
vt 0.09430120 0.12950170
vt 0.09430118 0.25399530
vt 0.86917019 0.12950170
vt 0.86917019 0.07871288
vt 0.09430117 0.07871282
vt 0.09430120 0.12950170
vt 0.50293314 0.63029611
vt 0.79011166 0.63029611
vt 0.79011172 0.75126052
vt 0.50293308 0.75126052
vt 0.88861132 0.60701716
vt 0.88861132 0.52169478
vt 0.87162030 0.50470388
vt 0.87162030 0.62400812
vt 0.88861132 0.52169478
vt 0.97284770 0.52169478
vt 0.98983854 0.50470388
vt 0.87162030 0.50470388
vt 0.86917019 0.25399524
vt 0.86917019 0.12950176
vt 0.09430121 0.12950170
vt 0.09430119 0.25399530
vt 0.88861132 0.60701716
vt 0.87162030 0.50470388
vt 0.87162030 0.62400812
vt 0.50293314 0.87593424
vt 0.79011166 0.87593424
vt 0.79011160 0.99264514
vt 0.50293320 0.99264532
vt 0.50293320 0.50110424
vt 0.79011160 0.50110412
vt 0.79011166 0.61473608
vt 0.50293314 0.61473614
vt 0.88861132 0.52169478
vt 0.88861132 0.60701716
vt 0.97284758 0.60701728
vt 0.97284770 0.52169478
vt 0.98983854 0.50470388
vt 0.87162030 0.50470388
vt 0.98983848 0.62400812
vt 0.98983854 0.50470388
vt 0.97284758 0.60701728
vt 0.98983848 0.62400812
vt 0.98983854 0.50470388
vt 0.86917019 0.30478406
vt 0.86917019 0.25399524
vt 0.09430118 0.25399530
vt 0.09430118 0.30478400
vt 0.86917019 0.25399524
vt 0.86917019 0.12950170
vt 0.09430120 0.12950170
vt 0.09430118 0.25399530
vt 0.86917019 0.12950170
vt 0.86917019 0.07871288
vt 0.09430117 0.07871282
vt 0.09430120 0.12950170
vt 0.86917019 0.25399524
vt 0.86917019 0.12950176
vt 0.09430121 0.12950170
vt 0.09430119 0.25399530
vt 0.50293314 0.63029611
vt 0.79011166 0.63029611
vt 0.79011172 0.75126052
vt 0.50293308 0.75126052
vt 0.50293308 0.75126052
vt 0.79011172 0.75126052
vt 0.79011166 0.87066543
vt 0.50293314 0.87066549
vt 0.50293314 0.87593424
vt 0.79011166 0.87593424
vt 0.79011160 0.99264514
vt 0.50293320 0.99264532
vt 0.50293320 0.50110424
vt 0.79011160 0.50110412
vt 0.79011166 0.61473608
vt 0.50293314 0.61473614
vt 0.88861132 0.52169478
vt 0.88861132 0.60701716
vt 0.97284758 0.60701728
vt 0.97284770 0.52169478
vt 0.87162030 0.62400812
vt 0.98983848 0.62400812
vt 0.87162030 0.50470388
vt 0.87162030 0.62400812
vt 0.98983854 0.50470388
vt 0.87162030 0.50470388
vt 0.98983848 0.62400812
vt 0.98983854 0.50470388
vt 0.86917019 0.30478406
vt 0.86917019 0.25399524
vt 0.09430118 0.25399530
vt 0.09430118 0.30478400
vt 0.86917019 0.25399524
vt 0.86917019 0.12950170
vt 0.09430120 0.12950170
vt 0.09430118 0.25399530
vt 0.86917019 0.12950170
vt 0.86917019 0.07871288
vt 0.09430117 0.07871282
vt 0.09430120 0.12950170
vt 0.86917019 0.25399524
vt 0.86917019 0.12950176
vt 0.09430121 0.12950170
vt 0.09430119 0.25399530
vt 0.86917019 0.30478406
vt 0.86917019 0.25399524
vt 0.09430118 0.25399530
vt 0.09430118 0.30478400
vt 0.86917019 0.25399524
vt 0.86917019 0.12950170
vt 0.09430120 0.12950170
vt 0.09430118 0.25399530
vt 0.86917019 0.12950170
vt 0.86917019 0.07871288
vt 0.09430117 0.07871282
vt 0.09430120 0.12950170
vt 0.86917019 0.25399524
vt 0.86917019 0.12950176
vt 0.09430121 0.12950170
vt 0.09430119 0.25399530
vt 0.97284758 0.60701728
vt 0.87162030 0.62400812
vt 0.98983848 0.62400812
vt 0.50293320 0.50110424
vt 0.79011160 0.50110412
vt 0.79011166 0.61473608
vt 0.50293314 0.61473614
vt 0.50293314 0.87593424
vt 0.79011166 0.87593424
vt 0.79011160 0.99264514
vt 0.50293320 0.99264532
vt 0.98983848 0.62400812
vt 0.98983854 0.50470388
vt 0.86917019 0.30478406
vt 0.86917019 0.25399524
vt 0.09430118 0.25399530
vt 0.09430118 0.30478400
vt 0.86917019 0.25399524
vt 0.86917019 0.12950170
vt 0.09430120 0.12950170
vt 0.09430118 0.25399530
vt 0.50293308 0.75126052
vt 0.79011172 0.75126052
vt 0.79011166 0.87066543
vt 0.50293314 0.87066549
vt 0.86917019 0.25399524
vt 0.86917019 0.12950176
vt 0.09430121 0.12950170
vt 0.09430119 0.25399530
vt 0.86917019 0.12950170
vt 0.86917019 0.07871288
vt 0.09430117 0.07871282
vt 0.09430120 0.12950170
vt 0.86917019 0.25399524
vt 0.86917019 0.12950170
vt 0.09430120 0.12950170
vt 0.09430118 0.25399530
vt 0.50293314 0.63029611
vt 0.79011166 0.63029611
vt 0.79011172 0.75126052
vt 0.50293308 0.75126052
vt 0.87162030 0.50470388
vt 0.87162030 0.62400812
vt 0.87162030 0.62400812
vt 0.98983848 0.62400812
vt 0.86917019 0.30478406
vt 0.86917019 0.25399524
vt 0.09430118 0.25399530
vt 0.09430118 0.30478400
vt 0.50293308 0.75126052
vt 0.79011172 0.75126052
vt 0.79011166 0.87066543
vt 0.50293314 0.87066549
vt 0.50293314 0.63029611
vt 0.79011166 0.63029611
vt 0.79011172 0.75126052
vt 0.50293308 0.75126052
vt 0.86917019 0.12950170
vt 0.86917019 0.07871288
vt 0.09430117 0.07871282
vt 0.09430120 0.12950170
vt 0.86917019 0.25399524
vt 0.86917019 0.12950176
vt 0.09430121 0.12950170
vt 0.09430119 0.25399530
vt 0.97284758 0.60701728
vt 0.88861132 0.60701716
vt 0.87162030 0.62400812
vt 0.98983848 0.62400812
vt 0.88861132 0.52169478
vt 0.87162030 0.50470388
vt 0.87162030 0.62400812
vt 0.97284770 0.52169478
vt 0.98983854 0.50470388
vt 0.87162030 0.50470388
vt 0.98983848 0.62400812
vt 0.98983854 0.50470388
vt 0.86917019 0.30478406
vt 0.86917019 0.25399524
vt 0.09430118 0.25399530
vt 0.09430118 0.30478400
vt 0.86917019 0.25399524
vt 0.86917019 0.12950170
vt 0.09430120 0.12950170
vt 0.09430118 0.25399530
vt 0.86917019 0.12950170
vt 0.86917019 0.07871288
vt 0.09430117 0.07871282
vt 0.09430120 0.12950170
vt 0.86917019 0.25399524
vt 0.86917019 0.12950176
vt 0.09430121 0.12950170
vt 0.09430119 0.25399530
vt 0.50293314 0.63029611
vt 0.79011166 0.63029611
vt 0.79011172 0.75126052
vt 0.50293308 0.75126052
vt 0.50293308 0.75126052
vt 0.79011172 0.75126052
vt 0.79011166 0.87066543
vt 0.50293314 0.87066549
vt 0.50293314 0.87593424
vt 0.79011166 0.87593424
vt 0.79011160 0.99264514
vt 0.50293320 0.99264532
vt 0.50293308 0.75126052
vt 0.79011172 0.75126052
vt 0.79011166 0.87066543
vt 0.50293314 0.87066549
vt 0.50293320 0.50110424
vt 0.79011160 0.50110412
vt 0.79011166 0.61473608
vt 0.50293314 0.61473614
vt 0.88861132 0.60701716
vt 0.87162030 0.62400812
vt 0.98983848 0.62400812
vt 0.87162030 0.50470388
vt 0.87162030 0.62400812
vt 0.50293308 0.75126052
vt 0.79011172 0.75126052
vt 0.79011166 0.87066543
vt 0.50293314 0.87066549
vt 0.50293314 0.87593424
vt 0.79011166 0.87593424
vt 0.79011160 0.99264514
vt 0.50293320 0.99264532
vt 0.50293320 0.50110424
vt 0.79011160 0.50110412
vt 0.79011166 0.61473608
vt 0.50293314 0.61473614
vt 0.88861132 0.52169478
vt 0.88861132 0.60701716
vt 0.97284758 0.60701728
vt 0.97284770 0.52169478
vt 0.87162030 0.62400812
vt 0.98983848 0.62400812
vt 0.87162030 0.50470388
vt 0.87162030 0.62400812
vt 0.98983854 0.50470388
vt 0.87162030 0.50470388
vt 0.98983848 0.62400812
vt 0.98983854 0.50470388
vt 0.86917019 0.30478406
vt 0.86917019 0.25399524
vt 0.09430118 0.25399530
vt 0.09430118 0.30478400
vt 0.86917019 0.25399524
vt 0.86917019 0.12950170
vt 0.09430120 0.12950170
vt 0.09430118 0.25399530
vt 0.86917019 0.12950170
vt 0.86917019 0.07871288
vt 0.09430117 0.07871282
vt 0.09430120 0.12950170
vt 0.86917019 0.25399524
vt 0.86917019 0.12950176
vt 0.09430121 0.12950170
vt 0.09430119 0.25399530
vt 0.50293314 0.63029611
vt 0.79011166 0.63029611
vt 0.79011172 0.75126052
vt 0.50293308 0.75126052
vt 0.50293308 0.75126052
vt 0.79011172 0.75126052
vt 0.79011166 0.87066543
vt 0.50293314 0.87066549
vt 0.50293314 0.87593424
vt 0.79011166 0.87593424
vt 0.79011160 0.99264514
vt 0.50293320 0.99264532
vt 0.50293320 0.50110424
vt 0.79011160 0.50110412
vt 0.79011166 0.61473608
vt 0.50293314 0.61473614
vt 0.50293314 0.63029611
vt 0.79011166 0.63029611
vt 0.79011172 0.75126052
vt 0.50293308 0.75126052
vt 0.86917019 0.25399524
vt 0.86917019 0.12950170
vt 0.09430120 0.12950170
vt 0.09430118 0.25399530
vt 0.97284770 0.52169478
vt 0.97284758 0.60701728
vt 0.98983848 0.62400812
vt 0.98983854 0.50470388
vt 0.97284758 0.60701728
vt 0.87162030 0.62400812
vt 0.98983848 0.62400812
vt 0.88861132 0.52169478
vt 0.88861132 0.60701716
vt 0.97284758 0.60701728
vt 0.97284770 0.52169478
vt 0.97284758 0.60701728
vt 0.88861132 0.60701716
vt 0.87162030 0.62400812
vt 0.98983848 0.62400812
vt 0.86917019 0.30478406
vt 0.86917019 0.25399524
vt 0.09430118 0.25399530
vt 0.09430118 0.30478400
vt 0.86917019 0.30478406
vt 0.86917019 0.25399524
vt 0.09430118 0.25399530
vt 0.09430118 0.30478400
vt 0.50293320 0.50110424
vt 0.79011160 0.50110412
vt 0.79011166 0.61473608
vt 0.50293314 0.61473614
vt 0.86917019 0.25399524
vt 0.86917019 0.12950170
vt 0.09430120 0.12950170
vt 0.09430118 0.25399530
vt 0.86917019 0.25399524
vt 0.86917019 0.12950176
vt 0.09430121 0.12950170
vt 0.09430119 0.25399530
vt 0.88861132 0.60701716
vt 0.88861132 0.52169478
vt 0.87162030 0.50470388
vt 0.87162030 0.62400812
vt 0.97284758 0.60701728
vt 0.87162030 0.62400812
vt 0.98983848 0.62400812
vt 0.97284770 0.52169478
vt 0.50293320 0.50110424
vt 0.79011160 0.50110412
vt 0.79011166 0.61473608
vt 0.50293314 0.61473614
vt 0.50293314 0.87593424
vt 0.79011166 0.87593424
vt 0.79011160 0.99264514
vt 0.50293320 0.99264532
vt 0.50293308 0.75126052
vt 0.79011172 0.75126052
vt 0.79011166 0.87066543
vt 0.50293314 0.87066549
vt 0.50293314 0.63029611
vt 0.79011166 0.63029611
vt 0.79011172 0.75126052
vt 0.50293308 0.75126052
vt 0.97284770 0.52169478
vt 0.98983848 0.62400812
vt 0.98983854 0.50470388
vt 0.88861132 0.52169478
vt 0.98983854 0.50470388
vt 0.87162030 0.50470388
vt 0.87162030 0.50470388
vt 0.87162030 0.62400812
vt 0.50293314 0.63029611
vt 0.79011166 0.63029611
vt 0.79011172 0.75126052
vt 0.50293308 0.75126052
vt 0.50293308 0.75126052
vt 0.79011172 0.75126052
vt 0.79011166 0.87066543
vt 0.50293314 0.87066549
vt 0.50293314 0.87593424
vt 0.79011166 0.87593424
vt 0.79011160 0.99264514
vt 0.50293320 0.99264532
vt 0.50293320 0.50110424
vt 0.79011160 0.50110412
vt 0.79011166 0.61473608
vt 0.50293314 0.61473614
vt 0.88861132 0.52169478
vt 0.88861132 0.60701716
vt 0.87162030 0.62400812
vt 0.98983848 0.62400812
vt 0.50293320 0.50110424
vt 0.79011160 0.50110412
vt 0.79011166 0.61473608
vt 0.50293314 0.61473614
vt 0.86917019 0.12950170
vt 0.86917019 0.07871288
vt 0.09430117 0.07871282
vt 0.09430120 0.12950170
vt 0.86917019 0.25399524
vt 0.86917019 0.12950176
vt 0.09430121 0.12950170
vt 0.09430119 0.25399530
vt 0.50293314 0.63029611
vt 0.79011166 0.63029611
vt 0.79011172 0.75126052
vt 0.50293308 0.75126052
vt 0.50293308 0.75126052
vt 0.79011172 0.75126052
vt 0.79011166 0.87066543
vt 0.50293314 0.87066549
vt 0.50293314 0.87593424
vt 0.79011166 0.87593424
vt 0.79011160 0.99264514
vt 0.50293320 0.99264532
vt 0.50293314 0.87593424
vt 0.79011166 0.87593424
vt 0.79011160 0.99264514
vt 0.50293320 0.99264532
vt 0.50293314 0.63029611
vt 0.79011166 0.63029611
vt 0.79011172 0.75126052
vt 0.50293308 0.75126052
vt 0.98983854 0.50470388
vt 0.87162030 0.50470388
vt 0.50293314 0.63029611
vt 0.79011166 0.63029611
vt 0.79011172 0.75126052
vt 0.50293308 0.75126052
vt 0.50293308 0.75126052
vt 0.79011172 0.75126052
vt 0.79011166 0.87066543
vt 0.50293314 0.87066549
vt 0.86917019 0.25399524
vt 0.86917019 0.12950176
vt 0.09430121 0.12950170
vt 0.09430119 0.25399530
vt 0.50293314 0.87593424
vt 0.79011166 0.87593424
vt 0.79011160 0.99264514
vt 0.50293320 0.99264532
vt 0.97284770 0.52169478
vt 0.86917019 0.12950170
vt 0.86917019 0.07871288
vt 0.09430117 0.07871282
vt 0.09430120 0.12950170
vt 0.50293320 0.50110424
vt 0.79011160 0.50110412
vt 0.79011166 0.61473608
vt 0.50293314 0.61473614
vt 0.88861132 0.52169478
vt 0.97284770 0.52169478
vt 0.98983854 0.50470388
vt 0.87162030 0.50470388
vt 0.88861132 0.60701716
vt 0.87162030 0.50470388
vt 0.87162030 0.62400812
vt 0.97284758 0.60701728
vt 0.87162030 0.62400812
vt 0.98983848 0.62400812
vt 0.86917019 0.25399524
vt 0.86917019 0.12950170
vt 0.09430120 0.12950170
vt 0.09430118 0.25399530
vt 0.86917019 0.30478406
vt 0.86917019 0.25399524
vt 0.09430118 0.25399530
vt 0.09430118 0.30478400
vt 0.98983848 0.62400812
vt 0.98983854 0.50470388
vt 0.98983854 0.50470388
vt 0.87162030 0.50470388
vt 0.87162030 0.50470388
vt 0.87162030 0.62400812
vt 0.87162030 0.62400812
vt 0.98983848 0.62400812
vt 0.86917019 0.12950170
vt 0.86917019 0.07871288
vt 0.09430117 0.07871282
vt 0.09430120 0.12950170
vt 0.86917019 0.30478406
vt 0.86917019 0.25399524
vt 0.09430118 0.25399530
vt 0.09430118 0.30478400
vt 0.86917019 0.25399524
vt 0.86917019 0.12950170
vt 0.09430120 0.12950170
vt 0.09430118 0.25399530
vt 0.86917019 0.12950170
vt 0.86917019 0.07871288
vt 0.09430117 0.07871282
vt 0.09430120 0.12950170
vt 0.87162030 0.50470388
vt 0.87162030 0.62400812
vt 0.98983848 0.62400812
vt 0.98983854 0.50470388
vt 0.50293320 0.50110424
vt 0.79011160 0.50110412
vt 0.79011166 0.61473608
vt 0.50293314 0.61473614
vt 0.50293314 0.87593424
vt 0.79011166 0.87593424
vt 0.79011160 0.99264514
vt 0.50293320 0.99264532
vt 0.50293308 0.75126052
vt 0.79011172 0.75126052
vt 0.79011166 0.87066543
vt 0.50293314 0.87066549
vt 0.50293314 0.63029611
vt 0.79011166 0.63029611
vt 0.79011172 0.75126052
vt 0.50293308 0.75126052
vt 0.86917019 0.25399524
vt 0.86917019 0.12950176
vt 0.09430121 0.12950170
vt 0.09430119 0.25399530
vt 0.86917019 0.12950170
vt 0.86917019 0.07871288
vt 0.09430117 0.07871282
vt 0.09430120 0.12950170
vt 0.86917019 0.25399524
vt 0.86917019 0.12950170
vt 0.09430120 0.12950170
vt 0.09430118 0.25399530
vt 0.98983854 0.50470388
vt 0.87162030 0.50470388
vt 0.97284770 0.52169478
vt 0.97284758 0.60701728
vt 0.98983848 0.62400812
vt 0.98983854 0.50470388
vt 0.86917019 0.30478406
vt 0.86917019 0.25399524
vt 0.09430118 0.25399530
vt 0.09430118 0.30478400
vt 0.86917019 0.25399524
vt 0.86917019 0.12950170
vt 0.09430120 0.12950170
vt 0.09430118 0.25399530
vt 0.98983854 0.50470388
vt 0.87162030 0.50470388
vt 0.86917019 0.12950170
vt 0.86917019 0.07871288
vt 0.09430117 0.07871282
vt 0.09430120 0.12950170
vt 0.98983848 0.62400812
vt 0.98983854 0.50470388
vt 0.88861132 0.52169478
vt 0.98983854 0.50470388
vt 0.87162030 0.50470388
vt 0.50293314 0.87593424
vt 0.79011166 0.87593424
vt 0.79011160 0.99264514
vt 0.50293320 0.99264532
vt 0.50293308 0.75126052
vt 0.79011172 0.75126052
vt 0.79011166 0.87066543
vt 0.50293314 0.87066549
vt 0.50293314 0.63029611
vt 0.79011166 0.63029611
vt 0.79011172 0.75126052
vt 0.50293308 0.75126052
vt 0.86917019 0.25399524
vt 0.86917019 0.12950176
vt 0.09430121 0.12950170
vt 0.09430119 0.25399530
vt 0.86917019 0.30478406
vt 0.86917019 0.25399524
vt 0.09430118 0.25399530
vt 0.09430118 0.30478400
vt 0.86917019 0.25399524
vt 0.86917019 0.12950170
vt 0.09430120 0.12950170
vt 0.09430118 0.25399530
vt 0.86917019 0.12950170
vt 0.86917019 0.07871288
vt 0.09430117 0.07871282
vt 0.09430120 0.12950170
vt 0.86917019 0.25399524
vt 0.86917019 0.12950176
vt 0.09430121 0.12950170
vt 0.09430119 0.25399530
vt 0.50293320 0.50110424
vt 0.79011160 0.50110412
vt 0.79011166 0.61473608
vt 0.50293314 0.61473614
vt 0.50293314 0.87593424
vt 0.79011166 0.87593424
vt 0.79011160 0.99264514
vt 0.50293320 0.99264532
vt 0.50293308 0.75126052
vt 0.79011172 0.75126052
vt 0.79011166 0.87066543
vt 0.50293314 0.87066549
vt 0.50293314 0.63029611
vt 0.79011166 0.63029611
vt 0.79011172 0.75126052
vt 0.50293308 0.75126052
vt 0.86917019 0.25399524
vt 0.86917019 0.12950176
vt 0.09430121 0.12950170
vt 0.09430119 0.25399530
vt 0.50293320 0.50110424
vt 0.79011160 0.50110412
vt 0.79011166 0.61473608
vt 0.50293314 0.61473614
vt 0.88861132 0.60701716
vt 0.88861132 0.60701716
vt 0.88861132 0.52169478
vt 0.87162030 0.50470388
vt 0.87162030 0.62400812
vt 0.87162030 0.62400812
vt 0.98983848 0.62400812
vt 0.97284770 0.52169478
vt 0.98983854 0.50470388
vt 0.87162030 0.50470388
vt 0.97284758 0.60701728
vt 0.98983848 0.62400812
vt 0.98983854 0.50470388
vt 0.87162030 0.50470388
vt 0.87162030 0.62400812
vt 0.86917019 0.30478406
vt 0.86917019 0.25399524
vt 0.09430118 0.25399530
vt 0.09430118 0.30478400
vt 0.98983848 0.62400812
vt 0.98983854 0.50470388
vt 0.87162030 0.62400812
vt 0.98983848 0.62400812
vt 0.86917019 0.12950170
vt 0.86917019 0.07871288
vt 0.09430117 0.07871282
vt 0.09430120 0.12950170
vt 0.86917019 0.25399524
vt 0.86917019 0.12950176
vt 0.09430121 0.12950170
vt 0.09430119 0.25399530
vt 0.50293314 0.87593424
vt 0.79011166 0.87593424
vt 0.79011160 0.99264514
vt 0.50293320 0.99264532
vt 0.50293308 0.75126052
vt 0.79011172 0.75126052
vt 0.79011166 0.87066543
vt 0.50293314 0.87066549
vt 0.86917019 0.30478406
vt 0.86917019 0.25399524
vt 0.09430118 0.25399530
vt 0.09430118 0.30478400
vt 0.86917019 0.25399524
vt 0.86917019 0.12950176
vt 0.09430121 0.12950170
vt 0.09430119 0.25399530
vt 0.50293314 0.87593424
vt 0.79011166 0.87593424
vt 0.79011160 0.99264514
vt 0.50293320 0.99264532
vt 0.50293320 0.50110424
vt 0.79011160 0.50110412
vt 0.79011166 0.61473608
vt 0.50293314 0.61473614
vt 0.97284758 0.60701728
vt 0.88861132 0.60701716
vt 0.87162030 0.62400812
vt 0.98983848 0.62400812
vt 0.86917019 0.25399524
vt 0.86917019 0.12950176
vt 0.09430121 0.12950170
vt 0.09430119 0.25399530
vt 0.97284758 0.60701728
vt 0.88861132 0.60701716
vt 0.87162030 0.62400812
vt 0.98983848 0.62400812
vt 0.88861132 0.52169478
vt 0.97284770 0.52169478
vt 0.98983854 0.50470388
vt 0.87162030 0.50470388
vt 0.88861132 0.52169478
vt 0.97284770 0.52169478
vt 0.50293320 0.50110424
vt 0.79011160 0.50110412
vt 0.79011166 0.61473608
vt 0.50293314 0.61473614
vt 0.50293308 0.75126052
vt 0.79011172 0.75126052
vt 0.79011166 0.87066543
vt 0.50293314 0.87066549
vt 0.88861132 0.52169478
vt 0.88861132 0.60701716
vt 0.97284758 0.60701728
vt 0.97284770 0.52169478
vt 0.87162030 0.62400812
vt 0.98983848 0.62400812
vt 0.87162030 0.50470388
vt 0.87162030 0.62400812
vt 0.98983854 0.50470388
vt 0.87162030 0.50470388
vt 0.88861132 0.52169478
vt 0.88861132 0.60701716
vt 0.97284758 0.60701728
vt 0.97284770 0.52169478
vt 0.98983848 0.62400812
vt 0.98983854 0.50470388
vt 0.87162030 0.62400812
vt 0.98983848 0.62400812
vt 0.87162030 0.50470388
vt 0.87162030 0.62400812
vt 0.98983854 0.50470388
vt 0.87162030 0.50470388
vt 0.98983848 0.62400812
vt 0.98983854 0.50470388
vt 0.86917019 0.30478406
vt 0.86917019 0.25399524
vt 0.09430118 0.25399530
vt 0.09430118 0.30478400
vt 0.86917019 0.25399524
vt 0.86917019 0.12950170
vt 0.09430120 0.12950170
vt 0.09430118 0.25399530
vt 0.86917019 0.12950170
vt 0.86917019 0.07871288
vt 0.09430117 0.07871282
vt 0.09430120 0.12950170
vt 0.86917019 0.25399524
vt 0.86917019 0.12950176
vt 0.09430121 0.12950170
vt 0.09430119 0.25399530
vt 0.50293314 0.63029611
vt 0.79011166 0.63029611
vt 0.79011172 0.75126052
vt 0.50293308 0.75126052
vt 0.86917019 0.30478406
vt 0.86917019 0.25399524
vt 0.09430118 0.25399530
vt 0.09430118 0.30478400
vt 0.50293308 0.75126052
vt 0.79011172 0.75126052
vt 0.79011166 0.87066543
vt 0.50293314 0.87066549
vt 0.86917019 0.25399524
vt 0.86917019 0.12950170
vt 0.09430120 0.12950170
vt 0.09430118 0.25399530
vt 0.86917019 0.12950170
vt 0.86917019 0.07871288
vt 0.09430117 0.07871282
vt 0.09430120 0.12950170
vt 0.88861132 0.60701716
vt 0.88861132 0.52169478
vt 0.87162030 0.50470388
vt 0.87162030 0.62400812
vt 0.97284758 0.60701728
vt 0.87162030 0.62400812
vt 0.98983848 0.62400812
vt 0.50293314 0.63029611
vt 0.79011166 0.63029611
vt 0.79011172 0.75126052
vt 0.50293308 0.75126052
vt 0.50293308 0.75126052
vt 0.79011172 0.75126052
vt 0.79011166 0.87066543
vt 0.50293314 0.87066549
vt 0.50293314 0.63029611
vt 0.79011166 0.63029611
vt 0.79011172 0.75126052
vt 0.50293308 0.75126052
vt 0.98983854 0.50470388
vt 0.87162030 0.50470388
vt 0.50293314 0.87593424
vt 0.79011166 0.87593424
vt 0.79011160 0.99264514
vt 0.50293320 0.99264532
vt 0.97284770 0.52169478
vt 0.86917019 0.30478406
vt 0.86917019 0.25399524
vt 0.09430118 0.25399530
vt 0.09430118 0.30478400
vt 0.86917019 0.25399524
vt 0.86917019 0.12950170
vt 0.09430120 0.12950170
vt 0.09430118 0.25399530
vt 0.88861132 0.52169478
vt 0.87162030 0.50470388
vt 0.87162030 0.62400812
vt 0.50293320 0.50110424
vt 0.79011160 0.50110412
vt 0.79011166 0.61473608
vt 0.50293314 0.61473614
vt 0.86917019 0.12950170
vt 0.86917019 0.07871288
vt 0.09430117 0.07871282
vt 0.09430120 0.12950170
vt 0.86917019 0.25399524
vt 0.86917019 0.12950170
vt 0.09430120 0.12950170
vt 0.09430118 0.25399530
vt 0.86917019 0.30478406
vt 0.86917019 0.25399524
vt 0.09430118 0.25399530
vt 0.09430118 0.30478400
vt 0.86917019 0.25399524
vt 0.86917019 0.12950176
vt 0.09430121 0.12950170
vt 0.09430119 0.25399530
vt 0.50293320 0.50110424
vt 0.79011160 0.50110412
vt 0.79011166 0.61473608
vt 0.50293314 0.61473614
vt 0.50293314 0.87593424
vt 0.79011166 0.87593424
vt 0.79011160 0.99264514
vt 0.50293320 0.99264532
vt 0.50293314 0.87593424
vt 0.79011166 0.87593424
vt 0.79011160 0.99264514
vt 0.50293320 0.99264532
vt 0.50293308 0.75126052
vt 0.79011172 0.75126052
vt 0.79011166 0.87066543
vt 0.50293314 0.87066549
vt 0.98983848 0.62400812
vt 0.98983854 0.50470388
vt 0.50293314 0.63029611
vt 0.79011166 0.63029611
vt 0.79011172 0.75126052
vt 0.50293308 0.75126052
vt 0.86917019 0.12950170
vt 0.86917019 0.07871288
vt 0.09430117 0.07871282
vt 0.09430120 0.12950170
vt 0.50293314 0.63029611
vt 0.79011166 0.63029611
vt 0.79011172 0.75126052
vt 0.50293308 0.75126052
vt 0.87162030 0.50470388
vt 0.87162030 0.62400812
vt 0.86917019 0.25399524
vt 0.86917019 0.12950170
vt 0.09430120 0.12950170
vt 0.09430118 0.25399530
vt 0.86917019 0.30478406
vt 0.86917019 0.25399524
vt 0.09430118 0.25399530
vt 0.09430118 0.30478400
vt 0.97284770 0.52169478
vt 0.98983848 0.62400812
vt 0.98983854 0.50470388
vt 0.50293320 0.50110424
vt 0.79011160 0.50110412
vt 0.79011166 0.61473608
vt 0.50293314 0.61473614
vt 0.86917019 0.12950170
vt 0.86917019 0.07871288
vt 0.09430117 0.07871282
vt 0.09430120 0.12950170
vt 0.98983848 0.62400812
vt 0.98983854 0.50470388
vt 0.98983854 0.50470388
vt 0.87162030 0.50470388
vt 0.86917019 0.25399524
vt 0.86917019 0.12950176
vt 0.09430121 0.12950170
vt 0.09430119 0.25399530
vt 0.86917019 0.25399524
vt 0.86917019 0.12950170
vt 0.09430120 0.12950170
vt 0.09430118 0.25399530
vt 0.88861132 0.60701716
vt 0.88861132 0.52169478
vt 0.87162030 0.50470388
vt 0.87162030 0.62400812
vt 0.88861132 0.60701716
vt 0.88861132 0.52169478
vt 0.87162030 0.50470388
vt 0.87162030 0.62400812
vt 0.97284770 0.52169478
vt 0.97284758 0.60701728
vt 0.98983848 0.62400812
vt 0.98983854 0.50470388
vt 0.50293314 0.87593424
vt 0.79011166 0.87593424
vt 0.79011160 0.99264514
vt 0.50293320 0.99264532
vt 0.50293320 0.50110424
vt 0.79011160 0.50110412
vt 0.79011166 0.61473608
vt 0.50293314 0.61473614
vt 0.50293320 0.50110424
vt 0.79011160 0.50110412
vt 0.79011166 0.61473608
vt 0.50293314 0.61473614
vt 0.50293314 0.87593424
vt 0.79011166 0.87593424
vt 0.79011160 0.99264514
vt 0.50293320 0.99264532
vt 0.97284770 0.52169478
vt 0.97284758 0.60701728
vt 0.98983848 0.62400812
vt 0.98983854 0.50470388
vt 0.50293314 0.63029611
vt 0.79011166 0.63029611
vt 0.79011172 0.75126052
vt 0.50293308 0.75126052
vt 0.50293308 0.75126052
vt 0.79011172 0.75126052
vt 0.79011166 0.87066543
vt 0.50293314 0.87066549
vt 0.50293314 0.87593424
vt 0.79011166 0.87593424
vt 0.79011160 0.99264514
vt 0.50293320 0.99264532
vt 0.50293320 0.50110424
vt 0.79011160 0.50110412
vt 0.79011166 0.61473608
vt 0.50293314 0.61473614
vt 0.97284770 0.52169478
vt 0.97284758 0.60701728
vt 0.98983848 0.62400812
vt 0.98983854 0.50470388
vt 0.97284758 0.60701728
vt 0.88861132 0.60701716
vt 0.87162030 0.62400812
vt 0.98983848 0.62400812
vt 0.88861132 0.60701716
vt 0.88861132 0.52169478
vt 0.87162030 0.50470388
vt 0.87162030 0.62400812
vt 0.86917019 0.12950170
vt 0.86917019 0.07871288
vt 0.09430117 0.07871282
vt 0.09430120 0.12950170
vt 0.97284770 0.52169478
vt 0.98983854 0.50470388
vt 0.87162030 0.50470388
vt 0.88861132 0.52169478
vt 0.88861132 0.60701716
vt 0.87162030 0.62400812
vt 0.98983848 0.62400812
vt 0.98983854 0.50470388
vt 0.87162030 0.50470388
vt 0.86917019 0.25399524
vt 0.86917019 0.12950170
vt 0.09430120 0.12950170
vt 0.09430118 0.25399530
vt 0.50293320 0.50110424
vt 0.79011160 0.50110412
vt 0.79011166 0.61473608
vt 0.50293314 0.61473614
vt 0.87162030 0.50470388
vt 0.87162030 0.62400812
vt 0.86917019 0.12950170
vt 0.86917019 0.07871288
vt 0.09430117 0.07871282
vt 0.09430120 0.12950170
vt 0.97284758 0.60701728
vt 0.98983848 0.62400812
vt 0.98983854 0.50470388
vt 0.86917019 0.25399524
vt 0.86917019 0.12950176
vt 0.09430121 0.12950170
vt 0.09430119 0.25399530
vt 0.86917019 0.12950170
vt 0.86917019 0.07871288
vt 0.09430117 0.07871282
vt 0.09430120 0.12950170
vt 0.86917019 0.25399524
vt 0.86917019 0.12950170
vt 0.09430120 0.12950170
vt 0.09430118 0.25399530
vt 0.87162030 0.62400812
vt 0.98983848 0.62400812
vt 0.87162030 0.62400812
vt 0.98983848 0.62400812
vt 0.50293314 0.63029611
vt 0.79011166 0.63029611
vt 0.79011172 0.75126052
vt 0.50293308 0.75126052
vt 0.50293314 0.63029611
vt 0.79011166 0.63029611
vt 0.79011172 0.75126052
vt 0.50293308 0.75126052
vt 0.86917019 0.25399524
vt 0.86917019 0.12950176
vt 0.09430121 0.12950170
vt 0.09430119 0.25399530
vt 0.50293308 0.75126052
vt 0.79011172 0.75126052
vt 0.79011166 0.87066543
vt 0.50293314 0.87066549
vt 0.88861132 0.52169478
vt 0.97284770 0.52169478
vt 0.50293320 0.50110424
vt 0.79011160 0.50110412
vt 0.79011166 0.61473608
vt 0.50293314 0.61473614
vt 0.50293308 0.75126052
vt 0.79011172 0.75126052
vt 0.79011166 0.87066543
vt 0.50293314 0.87066549
vt 0.50293314 0.87593424
vt 0.79011166 0.87593424
vt 0.79011160 0.99264514
vt 0.50293320 0.99264532
vt 0.87162030 0.62400812
vt 0.98983848 0.62400812
vt 0.86917019 0.12950170
vt 0.86917019 0.07871288
vt 0.09430117 0.07871282
vt 0.09430120 0.12950170
vt 0.98983854 0.50470388
vt 0.87162030 0.50470388
vt 0.87162030 0.50470388
vt 0.87162030 0.62400812
vt 0.98983854 0.50470388
vt 0.87162030 0.50470388
vt 0.98983848 0.62400812
vt 0.98983854 0.50470388
vt 0.86917019 0.25399524
vt 0.86917019 0.12950170
vt 0.09430120 0.12950170
vt 0.09430118 0.25399530
vt 0.86917019 0.30478406
vt 0.86917019 0.25399524
vt 0.09430118 0.25399530
vt 0.09430118 0.30478400
vt 0.86917019 0.30478406
vt 0.86917019 0.25399524
vt 0.09430118 0.25399530
vt 0.09430118 0.30478400
vt 0.86917019 0.25399524
vt 0.86917019 0.12950170
vt 0.09430120 0.12950170
vt 0.09430118 0.25399530
vt 0.50293314 0.87593424
vt 0.79011166 0.87593424
vt 0.79011160 0.99264514
vt 0.50293320 0.99264532
vt 0.50293308 0.75126052
vt 0.79011172 0.75126052
vt 0.79011166 0.87066543
vt 0.50293314 0.87066549
vt 0.50293314 0.63029611
vt 0.79011166 0.63029611
vt 0.79011172 0.75126052
vt 0.50293308 0.75126052
vt 0.98983854 0.50470388
vt 0.87162030 0.50470388
vt 0.86917019 0.25399524
vt 0.86917019 0.12950176
vt 0.09430121 0.12950170
vt 0.09430119 0.25399530
vt 0.86917019 0.30478406
vt 0.86917019 0.25399524
vt 0.09430118 0.25399530
vt 0.09430118 0.30478400
vt 0.50293308 0.75126052
vt 0.79011172 0.75126052
vt 0.79011166 0.87066543
vt 0.50293314 0.87066549
vt 0.86917019 0.25399524
vt 0.86917019 0.12950176
vt 0.09430121 0.12950170
vt 0.09430119 0.25399530
vt 0.50293314 0.63029611
vt 0.79011166 0.63029611
vt 0.79011172 0.75126052
vt 0.50293308 0.75126052
vt 0.86917019 0.30478406
vt 0.86917019 0.25399524
vt 0.09430118 0.25399530
vt 0.09430118 0.30478400
vt 0.88861132 0.60701716
vt 0.88861132 0.52169478
vt 0.87162030 0.50470388
vt 0.87162030 0.62400812
vt 0.50293314 0.63029611
vt 0.79011166 0.63029611
vt 0.79011172 0.75126052
vt 0.50293308 0.75126052
vt 0.50293308 0.75126052
vt 0.79011172 0.75126052
vt 0.79011166 0.87066543
vt 0.50293314 0.87066549
vt 0.97284770 0.52169478
vt 0.98983854 0.50470388
vt 0.87162030 0.50470388
vt 0.50293314 0.87593424
vt 0.79011166 0.87593424
vt 0.79011160 0.99264514
vt 0.50293320 0.99264532
vt 0.50293320 0.50110424
vt 0.79011160 0.50110412
vt 0.79011166 0.61473608
vt 0.50293314 0.61473614
vt 0.97284758 0.60701728
vt 0.98983848 0.62400812
vt 0.98983854 0.50470388
vt 0.87162030 0.62400812
vt 0.98983848 0.62400812
f 1/1 2/2 3/3
f 1/1 3/3 4/4
f 5/5 6/6 7/7
f 5/5 7/7 8/8
f 9/9 10/10 11/11
f 9/9 11/11 12/12
f 13/13 14/14 15/15
f 13/13 15/15 16/16
f 17/17 18/18 19/19
f 17/17 19/19 20/20
f 19/19 18/18 21/21
f 19/19 21/21 22/22
f 18/18 17/17 23/23
f 18/18 23/23 24/24
f 17/17 20/20 25/25
f 17/17 25/25 26/26
f 20/20 19/19 27/27
f 20/20 27/27 28/28
f 29/29 30/30 31/31
f 29/29 31/31 32/32
f 33/33 34/34 35/35
f 33/33 35/35 36/36
f 37/37 38/38 39/39
f 37/37 39/39 40/40
f 41/41 42/42 43/43
f 41/41 43/43 44/44
f 45/45 46/46 47/47
f 45/45 47/47 48/48
f 49/49 50/50 51/51
f 49/49 51/51 52/52
f 53/53 54/54 55/55
f 53/53 55/55 56/56
f 57/57 49/49 58/58
f 57/57 58/58 59/59
f 60/60 61/61 62/62
f 60/60 62/62 63/63
f 64/64 65/65 66/66
f 64/64 66/66 67/67
f 68/68 69/69 70/70
f 68/68 70/70 71/71
f 68/68 71/71 72/72
f 68/68 72/72 73/73
f 71/71 70/70 74/74
f 71/71 74/74 75/75
f 6/6 76/76 77/77
f 6/6 77/77 78/78
f 79/79 80/80 81/81
f 79/79 81/81 82/82
f 83/83 84/84 85/85
f 83/83 85/85 86/86
f 87/87 88/88 89/89
f 87/87 89/89 90/90
f 91/91 92/92 93/93
f 91/91 93/93 94/94
f 95/95 96/96 97/97
f 95/95 97/97 98/98
f 99/99 100/100 101/101
f 99/99 101/101 102/102
f 103/103 104/104 105/105
f 103/103 105/105 106/106
f 107/107 108/108 109/109
f 107/107 109/109 110/110
f 111/111 112/112 113/113
f 111/111 113/113 114/114
f 113/113 112/112 115/115
f 113/113 115/115 116/116
f 112/112 111/111 117/117
f 112/112 117/117 118/118
f 111/111 114/114 119/119
f 111/111 119/119 120/120
f 114/114 113/113 121/121
f 114/114 121/121 122/122
f 123/123 124/124 125/125
f 123/123 125/125 126/126
f 127/127 128/128 129/129
f 127/127 129/129 130/130
f 131/131 132/132 133/133
f 131/131 133/133 134/134
f 135/135 136/136 137/137
f 135/135 137/137 138/138
f 139/139 140/140 141/141
f 139/139 141/141 142/142
f 143/143 144/144 145/145
f 143/143 145/145 146/146
f 147/147 148/148 149/149
f 147/147 149/149 150/150
f 151/151 152/152 153/153
f 151/151 153/153 154/154
f 155/155 57/57 156/156
f 155/155 156/156 157/157
f 49/49 57/57 155/155
f 49/49 155/155 50/50
f 158/158 159/159 160/160
f 158/158 160/160 161/161
f 162/162 163/163 164/164
f 162/162 164/164 165/165
f 50/50 155/155 166/166
f 50/50 166/166 167/167
f 168/168 169/169 170/170
f 168/168 170/170 171/171
f 172/172 173/173 174/174
f 172/172 174/174 175/175
f 176/176 177/177 178/178
f 176/176 178/178 179/179
f 180/180 181/181 182/182
f 180/180 182/182 183/183
f 184/184 185/185 186/186
f 184/184 186/186 187/187
f 188/188 189/189 190/190
f 188/188 190/190 191/191
f 192/192 193/193 194/194
f 192/192 194/194 195/195
f 69/69 68/68 196/196
f 69/69 196/196 197/197
f 70/70 69/69 198/198
f 70/70 198/198 199/199
f 200/200 201/201 202/202
f 200/200 202/202 203/203
f 204/204 205/205 206/206
f 204/204 206/206 207/207
f 208/208 209/209 210/210
f 208/208 210/210 211/211
f 212/212 213/213 214/214
f 212/212 214/214 215/215
f 216/216 217/217 218/218
f 216/216 218/218 219/219
f 220/220 221/221 222/222
f 220/220 222/222 223/223
f 221/221 224/224 225/225
f 221/221 225/225 226/226
f 224/224 227/227 228/228
f 224/224 228/228 229/229
f 227/227 220/220 230/230
f 227/227 230/230 231/231
f 232/232 233/233 234/234
f 232/232 234/234 235/235
f 236/236 237/237 238/238
f 236/236 238/238 239/239
f 240/240 241/241 242/242
f 240/240 242/242 243/243
f 244/244 245/245 246/246
f 244/244 246/246 247/247
f 248/248 249/249 250/250
f 248/248 250/250 251/251
f 252/252 253/253 254/254
f 252/252 254/254 255/255
f 256/256 257/257 258/258
f 256/256 258/258 259/259
f 260/260 261/261 262/262
f 260/260 262/262 263/263
f 264/264 265/265 266/266
f 264/264 266/266 267/267
f 5/5 268/268 76/76
f 5/5 76/76 6/6
f 76/76 268/268 269/269
f 76/76 269/269 270/270
f 268/268 5/5 271/271
f 268/268 271/271 272/272
f 273/273 274/274 275/275
f 273/273 275/275 276/276
f 277/277 278/278 279/279
f 277/277 279/279 280/280
f 281/281 282/282 283/283
f 281/281 283/283 284/284
f 285/285 286/286 287/287
f 285/285 287/287 288/288
f 287/287 286/286 289/289
f 287/287 289/289 290/290
f 286/286 285/285 291/291
f 286/286 291/291 292/292
f 285/285 288/288 293/293
f 285/285 293/293 294/294
f 288/288 287/287 295/295
f 288/288 295/295 296/296
f 297/297 298/298 299/299
f 297/297 299/299 300/300
f 301/301 302/302 303/303
f 301/301 303/303 304/304
f 305/305 306/306 307/307
f 305/305 307/307 308/308
f 309/309 310/310 311/311
f 309/309 311/311 312/312
f 313/313 314/314 315/315
f 313/313 315/315 316/316
f 317/317 318/318 319/319
f 317/317 319/319 320/320
f 321/321 322/322 323/323
f 321/321 323/323 324/324
f 325/325 326/326 327/327
f 325/325 327/327 328/328
f 224/224 221/221 220/220
f 224/224 220/220 227/227
f 329/329 330/330 331/331
f 329/329 331/331 332/332
f 333/333 334/334 335/335
f 333/333 335/335 336/336
f 337/337 338/338 339/339
f 337/337 339/339 340/340
f 341/341 45/45 342/342
f 341/341 342/342 343/343
f 344/344 345/345 346/346
f 344/344 346/346 347/347
f 348/348 349/349 350/350
f 348/348 350/350 351/351
f 352/352 353/353 354/354
f 352/352 354/354 355/355
f 356/356 357/357 358/358
f 356/356 358/358 359/359
f 360/360 361/361 362/362
f 360/360 362/362 363/363
f 364/364 365/365 366/366
f 364/364 366/366 367/367
f 368/368 369/369 370/370
f 368/368 370/370 371/371
f 372/372 373/373 374/374
f 372/372 374/374 375/375
f 376/376 372/372 377/377
f 376/376 377/377 378/378
f 373/373 372/372 376/376
f 373/373 376/376 379/379
f 380/380 381/381 382/382
f 380/380 382/382 383/383
f 384/384 385/385 386/386
f 384/384 386/386 387/387
f 388/388 389/389 390/390
f 388/388 390/390 391/391
f 392/392 393/393 394/394
f 392/392 394/394 395/395
f 396/396 348/348 397/397
f 396/396 397/397 398/398
f 399/399 396/396 400/400
f 399/399 400/400 401/401
f 349/349 399/399 402/402
f 349/349 402/402 403/403
f 404/404 405/405 406/406
f 404/404 406/406 407/407
f 408/408 409/409 410/410
f 408/408 410/410 411/411
f 412/412 413/413 414/414
f 412/412 414/414 415/415
f 416/416 417/417 418/418
f 416/416 418/418 419/419
f 420/420 421/421 338/338
f 420/420 338/338 337/337
f 338/338 421/421 422/422
f 338/338 422/422 423/423
f 424/424 425/425 426/426
f 424/424 426/426 427/427
f 428/428 429/429 430/430
f 428/428 430/430 431/431
f 432/432 433/433 434/434
f 432/432 434/434 435/435
f 436/436 437/437 438/438
f 436/436 438/438 439/439
f 440/440 441/441 442/442
f 440/440 442/442 443/443
f 444/444 445/445 446/446
f 444/444 446/446 447/447
f 448/448 449/449 450/450
f 448/448 450/450 451/451
f 452/452 453/453 454/454
f 452/452 454/454 455/455
f 373/373 379/379 456/456
f 373/373 456/456 457/457
f 458/458 459/459 460/460
f 458/458 460/460 461/461
f 462/462 463/463 464/464
f 462/462 464/464 465/465
f 466/466 467/467 468/468
f 466/466 468/468 469/469
f 470/470 471/471 472/472
f 470/470 472/472 473/473
f 46/46 45/45 341/341
f 46/46 341/341 474/474
f 475/475 476/476 477/477
f 475/475 477/477 478/478
f 479/479 480/480 481/481
f 479/479 481/481 482/482
f 399/399 349/349 348/348
f 399/399 348/348 396/396
f 483/483 484/484 485/485
f 483/483 485/485 486/486
f 487/487 483/483 488/488
f 487/487 488/488 489/489
f 490/490 487/487 491/491
f 490/490 491/491 492/492
f 483/483 487/487 490/490
f 483/483 490/490 484/484
f 493/493 494/494 495/495
f 493/493 495/495 496/496
f 497/497 498/498 499/499
f 497/497 499/499 500/500
f 347/347 346/346 501/501
f 347/347 501/501 502/502
f 344/344 347/347 503/503
f 344/344 503/503 504/504
f 345/345 344/344 505/505
f 345/345 505/505 506/506
f 346/346 345/345 507/507
f 346/346 507/507 508/508
f 509/509 510/510 511/511
f 509/509 511/511 512/512
f 513/513 514/514 515/515
f 513/513 515/515 516/516
f 517/517 518/518 519/519
f 517/517 519/519 520/520
f 521/521 522/522 523/523
f 521/521 523/523 524/524
f 421/421 420/420 525/525
f 421/421 525/525 526/526
f 474/474 341/341 527/527
f 474/474 527/527 528/528
f 529/529 530/530 531/531
f 529/529 531/531 532/532
f 533/533 534/534 535/535
f 533/533 535/535 536/536
f 537/537 538/538 539/539
f 537/537 539/539 540/540
f 541/541 542/542 543/543
f 541/541 543/543 544/544
f 545/545 546/546 547/547
f 545/545 547/547 548/548
f 549/549 550/550 551/551
f 549/549 551/551 552/552
f 553/553 554/554 555/555
f 553/553 555/555 556/556
f 420/420 337/337 557/557
f 420/420 557/557 558/558
f 559/559 560/560 561/561
f 559/559 561/561 562/562
f 563/563 564/564 565/565
f 563/563 565/565 566/566
f 567/567 568/568 569/569
f 567/567 569/569 570/570
f 46/46 474/474 571/571
f 46/46 571/571 572/572
f 573/573 574/574 575/575
f 573/573 575/575 576/576
f 379/379 376/376 577/577
f 379/379 577/577 578/578
f 579/579 559/559 580/580
f 579/579 580/580 581/581
f 582/582 583/583 584/584
f 582/582 584/584 585/585
f 586/586 587/587 588/588
f 586/586 588/588 589/589
f 590/590 591/591 592/592
f 590/590 592/592 593/593
f 594/594 595/595 596/596
f 594/594 596/596 597/597
f 598/598 599/599 600/600
f 598/598 600/600 601/601
f 602/602 603/603 604/604
f 602/602 604/604 605/605
f 606/606 607/607 608/608
f 606/606 608/608 609/609
f 610/610 611/611 612/612
f 610/610 612/612 613/613
f 614/614 615/615 616/616
f 614/614 616/616 617/617
f 618/618 619/619 620/620
f 618/618 620/620 621/621
f 622/622 623/623 624/624
f 622/622 624/624 625/625
f 626/626 627/627 628/628
f 626/626 628/628 629/629
f 630/630 631/631 632/632
f 630/630 632/632 633/633
f 634/634 635/635 636/636
f 634/634 636/636 637/637
f 579/579 638/638 560/560
f 579/579 560/560 559/559
f 639/639 640/640 641/641
f 639/639 641/641 642/642
f 560/560 638/638 643/643
f 560/560 643/643 644/644
f 640/640 645/645 646/646
f 640/640 646/646 647/647
f 645/645 648/648 649/649
f 645/645 649/649 650/650
f 638/638 579/579 651/651
f 638/638 651/651 652/652
f 653/653 654/654 655/655
f 653/653 655/655 656/656
f 484/484 490/490 657/657
f 484/484 657/657 658/658
f 648/648 639/639 659/659
f 648/648 659/659 660/660
f 640/640 639/639 648/648
f 640/640 648/648 645/645
f 661/661 662/662 663/663
f 661/661 663/663 664/664
f 665/665 666/666 667/667
f 665/665 667/667 668/668
f 669/669 670/670 671/671
f 669/669 671/671 672/672
f 673/673 674/674 675/675
f 673/673 675/675 676/676
f 677/677 678/678 679/679
f 677/677 679/679 680/680
f 681/681 682/682 683/683
f 681/681 683/683 684/684
f 685/685 686/686 687/687
f 685/685 687/687 688/688
f 689/689 690/690 691/691
f 689/689 691/691 692/692
f 693/693 694/694 695/695
f 693/693 695/695 696/696
f 697/697 698/698 699/699
f 697/697 699/699 700/700
f 701/701 702/702 703/703
f 701/701 703/703 704/704
f 705/705 706/706 707/707
f 705/705 707/707 708/708
f 709/709 702/702 701/701
f 709/709 701/701 710/710
f 711/711 712/712 713/713
f 711/711 713/713 714/714
f 715/715 716/716 717/717
f 715/715 717/717 718/718
f 719/719 720/720 721/721
f 719/719 721/721 722/722
f 721/721 720/720 723/723
f 721/721 723/723 724/724
f 720/720 719/719 725/725
f 720/720 725/725 726/726
f 719/719 722/722 727/727
f 719/719 727/727 728/728
f 729/729 730/730 731/731
f 729/729 731/731 732/732
f 722/722 721/721 733/733
f 722/722 733/733 734/734
f 731/731 730/730 735/735
f 731/731 735/735 736/736
f 730/730 729/729 737/737
f 730/730 737/737 738/738
f 729/729 732/732 739/739
f 729/729 739/739 740/740
f 732/732 731/731 741/741
f 732/732 741/741 742/742
f 743/743 744/744 745/745
f 743/743 745/745 746/746
f 747/747 748/748 749/749
f 747/747 749/749 750/750
f 751/751 752/752 753/753
f 751/751 753/753 754/754
f 755/755 756/756 757/757
f 755/755 757/757 758/758
f 759/759 760/760 761/761
f 759/759 761/761 762/762
f 763/763 764/764 765/765
f 763/763 765/765 766/766
f 767/767 768/768 769/769
f 767/767 769/769 770/770
f 771/771 772/772 773/773
f 771/771 773/773 774/774
f 775/775 776/776 777/777
f 775/775 777/777 778/778
f 779/779 780/780 781/781
f 779/779 781/781 782/782
f 783/783 779/779 784/784
f 783/783 784/784 785/785
f 786/786 787/787 788/788
f 786/786 788/788 789/789
f 790/790 791/791 792/792
f 790/790 792/792 793/793
f 794/794 795/795 796/796
f 794/794 796/796 797/797
f 709/709 710/710 798/798
f 709/709 798/798 799/799
f 800/800 801/801 802/802
f 800/800 802/802 803/803
f 780/780 779/779 783/783
f 780/780 783/783 804/804
f 805/805 806/806 807/807
f 805/805 807/807 808/808
f 809/809 810/810 811/811
f 809/809 811/811 812/812
f 694/694 813/813 814/814
f 694/694 814/814 815/815
f 816/816 817/817 818/818
f 816/816 818/818 819/819
f 820/820 821/821 822/822
f 820/820 822/822 823/823
f 824/824 825/825 826/826
f 824/824 826/826 827/827
f 828/828 829/829 830/830
f 828/828 830/830 831/831
f 832/832 833/833 834/834
f 832/832 834/834 835/835
f 836/836 837/837 838/838
f 836/836 838/838 839/839
f 840/840 841/841 842/842
f 840/840 842/842 843/843
f 844/844 845/845 846/846
f 844/844 846/846 847/847
f 848/848 849/849 850/850
f 848/848 850/850 851/851
f 710/710 701/701 852/852
f 710/710 852/852 853/853
f 854/854 855/855 856/856
f 854/854 856/856 857/857
f 858/858 859/859 860/860
f 858/858 860/860 861/861
f 862/862 863/863 864/864
f 862/862 864/864 865/865
f 702/702 709/709 866/866
f 702/702 866/866 867/867
f 868/868 869/869 870/870
f 868/868 870/870 871/871
f 872/872 873/873 874/874
f 872/872 874/874 875/875
f 876/876 693/693 877/877
f 876/876 877/877 878/878
f 879/879 880/880 881/881
f 879/879 881/881 882/882
f 883/883 884/884 885/885
f 883/883 885/885 886/886
f 804/804 783/783 887/887
f 804/804 887/887 888/888
f 780/780 804/804 889/889
f 780/780 889/889 890/890
f 813/813 694/694 693/693
f 813/813 693/693 876/876
f 891/891 892/892 893/893
f 891/891 893/893 894/894
f 895/895 896/896 897/897
f 895/895 897/897 898/898
f 899/899 900/900 901/901
f 899/899 901/901 902/902
f 903/903 904/904 905/905
f 903/903 905/905 906/906
f 907/907 908/908 909/909
f 907/907 909/909 910/910
f 911/911 912/912 913/913
f 911/911 913/913 914/914
f 915/915 916/916 917/917
f 915/915 917/917 918/918
f 919/919 920/920 921/921
f 919/919 921/921 922/922
f 923/923 924/924 925/925
f 923/923 925/925 926/926
f 927/927 928/928 929/929
f 927/927 929/929 930/930
f 931/931 932/932 933/933
f 931/931 933/933 934/934
f 935/935 936/936 937/937
f 935/935 937/937 938/938
f 939/939 940/940 941/941
f 939/939 941/941 942/942
f 943/943 944/944 945/945
f 943/943 945/945 946/946
f 947/947 948/948 949/949
f 947/947 949/949 950/950
f 951/951 952/952 953/953
f 951/951 953/953 954/954
f 955/955 956/956 957/957
f 955/955 957/957 958/958
f 959/959 960/960 961/961
f 959/959 961/961 962/962
f 956/956 963/963 964/964
f 956/956 964/964 965/965
f 966/966 967/967 928/928
f 966/966 928/928 927/927
f 928/928 967/967 968/968
f 928/928 968/968 969/969
f 904/904 907/907 970/970
f 904/904 970/970 971/971
f 972/972 973/973 974/974
f 972/972 974/974 975/975
f 976/976 977/977 978/978
f 976/976 978/978 979/979
f 904/904 903/903 908/908
f 904/904 908/908 907/907
f 967/967 966/966 980/980
f 967/967 980/980 981/981
f 982/982 983/983 984/984
f 982/982 984/984 985/985
f 963/963 986/986 987/987
f 963/963 987/987 988/988
f 989/989 990/990 991/991
f 989/989 991/991 992/992
f 993/993 994/994 995/995
f 993/993 995/995 996/996
f 900/900 899/899 948/948
f 900/900 948/948 947/947
f 997/997 998/998 999/999
f 997/997 999/999 1000/1000
f 948/948 899/899 1001/1001
f 948/948 1001/1001 1002/1002
f 908/908 903/903 1003/1003
f 908/908 1003/1003 1004/1004
f 1005/1005 1006/1006 1007/1007
f 1005/1005 1007/1007 1008/1008
f 1009/1009 1010/1010 1011/1011
f 1009/1009 1011/1011 1012/1012
f 1013/1013 1014/1014 1015/1015
f 1013/1013 1015/1015 1016/1016
f 1017/1017 1018/1018 1019/1019
f 1017/1017 1019/1019 1020/1020
f 1021/1021 952/952 951/951
f 1021/1021 951/951 1022/1022
f 1023/1023 1024/1024 1025/1025
f 1023/1023 1025/1025 1026/1026
f 1027/1027 1028/1028 1029/1029
f 1027/1027 1029/1029 1030/1030
f 1031/1031 1032/1032 1033/1033
f 1031/1031 1033/1033 1034/1034
f 956/956 955/955 986/986
f 956/956 986/986 963/963
f 986/986 955/955 1035/1035
f 986/986 1035/1035 1036/1036
f 1037/1037 1038/1038 1039/1039
f 1037/1037 1039/1039 1040/1040
f 900/900 947/947 1041/1041
f 900/900 1041/1041 1042/1042
f 952/952 1021/1021 1043/1043
f 952/952 1043/1043 1044/1044
f 1021/1021 1022/1022 1045/1045
f 1021/1021 1045/1045 1046/1046
f 1022/1022 951/951 1047/1047
f 1022/1022 1047/1047 1048/1048
f 1049/1049 1050/1050 1051/1051
f 1049/1049 1051/1051 1052/1052
f 1053/1053 1054/1054 1055/1055
f 1053/1053 1055/1055 1056/1056
f 1057/1057 1058/1058 1059/1059
f 1057/1057 1059/1059 1060/1060
f 1061/1061 1062/1062 1063/1063
f 1061/1061 1063/1063 1064/1064
f 1065/1065 1066/1066 1067/1067
f 1065/1065 1067/1067 1068/1068
f 1069/1069 1070/1070 1071/1071
f 1069/1069 1071/1071 1072/1072
f 1073/1073 1074/1074 1075/1075
f 1073/1073 1075/1075 1076/1076
f 966/966 927/927 1077/1077
f 966/966 1077/1077 1078/1078
f 1079/1079 1080/1080 1081/1081
f 1079/1079 1081/1081 1082/1082
f 1083/1083 1084/1084 1085/1085
f 1083/1083 1085/1085 1086/1086
f 1087/1087 1088/1088 1089/1089
f 1087/1087 1089/1089 1090/1090
f 1091/1091 1092/1092 1093/1093
f 1091/1091 1093/1093 1094/1094
f 1095/1095 1096/1096 1097/1097
f 1095/1095 1097/1097 1098/1098
f 1099/1099 1100/1100 1101/1101
f 1099/1099 1101/1101 1102/1102
f 1103/1103 1104/1104 1105/1105
f 1103/1103 1105/1105 1106/1106
f 1107/1107 1108/1108 1109/1109
f 1107/1107 1109/1109 1110/1110
f 1111/1111 1112/1112 1113/1113
f 1111/1111 1113/1113 1114/1114
f 1104/1104 1115/1115 1116/1116
f 1104/1104 1116/1116 1117/1117
f 1118/1118 1119/1119 1120/1120
f 1118/1118 1120/1120 1121/1121
f 1122/1122 1123/1123 1124/1124
f 1122/1122 1124/1124 1125/1125
f 1115/1115 1126/1126 1127/1127
f 1115/1115 1127/1127 1128/1128
f 1104/1104 1103/1103 1126/1126
f 1104/1104 1126/1126 1115/1115
f 1126/1126 1103/1103 1129/1129
f 1126/1126 1129/1129 1130/1130

