# https://github.com/mikedh/trimesh
mtllib material.mtl
usemtl Mud_Pile
v 79.46856806 50.63142311 -15.05773220
v 79.02927515 50.63942635 -15.06024991
v 79.43418238 49.41835705 -14.81754341
v 79.38887903 45.68365792 -14.08759285
v 78.59719202 46.59233593 -14.38811485
v 79.13932917 45.40980843 -14.12184878
v 77.60671351 50.15780556 -15.05970051
v 77.34674952 50.00236427 -15.10474443
v 77.52590296 49.43804849 -14.99059334
v 84.80068323 41.77329583 -13.14826116
v 85.77747462 40.43799162 -12.86023604
v 85.07425806 41.90554375 -13.16162788
v 79.93302271 49.20810621 -14.75830875
v 80.41549036 49.04971998 -14.73761781
v 82.91397974 43.25067466 -13.27425322
v 82.25506708 44.05317249 -13.45847271
v 82.12762568 43.32115503 -13.11923919
v 81.64177058 46.39724281 -14.13434589
v 81.80849573 46.78656318 -14.19513697
v 83.10460779 43.51474323 -13.46514071
v 84.23645136 41.98322626 -13.09812081
v 83.41759608 42.13798093 -12.89585033
v 83.83266566 41.60983611 -12.77661806
v 83.30809901 40.26079891 -13.01018413
v 84.16478846 40.09599642 -12.62592202
v 83.80518458 40.60013153 -12.71889390
v 83.83442042 42.66053336 -13.27097248
v 83.56479761 42.40326259 -13.02486343
v 80.83596155 43.24655471 -13.69466337
v 80.44831202 43.77442488 -13.74654334
v 80.36139796 43.32031568 -13.79392181
v 80.00393030 47.11508494 -13.98850250
v 79.33949396 48.76708147 -14.50702694
v 79.74158594 46.90967873 -14.13716885
v 80.52932093 46.77167062 -14.03917689
v 81.18283961 45.92429668 -13.90599804
v 81.25512049 45.15883957 -13.67520873
v 80.16356013 44.78312236 -13.96338616
v 79.96339533 44.44927533 -13.87461047
v 79.55622217 44.58925944 -13.95726735
v 80.26062891 45.75965436 -13.87578561
v 79.56676600 46.02586678 -14.11763746
v 80.57807276 44.60755476 -13.77915151
v 78.73723719 51.73815832 -15.20377425
v 81.86390040 44.78029954 -13.62607537
v 81.45710108 44.35770741 -13.38358262
v 81.99773524 41.88920156 -13.35800849
v 81.90587733 42.59900229 -13.28697894
v 81.40621302 42.78873766 -13.52014853
v 82.81000635 42.80539270 -13.09403159
v 78.44439814 50.51782143 -15.06992396
v 78.08767817 51.54715643 -15.20916058
v 77.85093043 50.96179877 -15.16533724
v 78.34594843 51.97303687 -15.16674121
v 78.11729548 52.86932287 -15.22794436
v 78.07637903 52.04711064 -15.25460133
v 78.99896357 48.83451002 -14.71179990
v 78.79020045 49.35588756 -14.84801520
v 78.64042017 48.59677046 -14.71065546
v 81.34703944 43.35303821 -13.46561371
v 80.99527857 44.46889817 -13.59915881
v 82.24985621 44.70122084 -13.75701102
v 81.15014002 46.74517371 -14.17827600
v 80.78307459 43.71779189 -13.74256079
v 78.90170405 53.34281068 -15.50092417
v 78.42186854 52.99914462 -15.37223149
v 80.33448145 48.44915696 -14.57566093
v 83.10950587 40.61074396 -13.06761827
v 82.63625452 40.31037467 -13.25218853
v 79.32154963 52.85861879 -15.44219302
v 79.85427210 50.85966407 -15.10074677
v 79.83017847 52.18393619 -15.31469046
v 81.52456019 45.95360117 -14.04703503
v 81.81005976 45.42480022 -13.93067142
v 82.53919337 44.76497206 -13.77762566
v 83.13497278 44.48685012 -13.70050769
v 82.67660639 45.18052991 -13.84540527
v 84.22126124 43.00464192 -13.39581995
v 80.44548914 50.13332285 -14.93828632
v 81.68996546 45.64430553 -13.94780707
v 85.01696894 40.93095731 -12.90180106
v 85.53777430 40.03306917 -12.60887794
v 78.98497126 47.49338839 -14.44738013
v 84.35491297 40.86687043 -12.71076101
v 84.05228541 40.71297029 -12.66409961
v 84.36388514 40.09168581 -12.59079628
v 83.04242823 41.54372739 -12.87807374
v 81.85353968 41.31198444 -13.45604611
v 79.04377100 49.60788649 -14.71340220
v 80.24826929 46.60061200 -13.88253013
v 80.66422388 45.70248734 -13.65671517
v 84.18242762 41.15677978 -12.75067805
v 83.74557612 43.13328114 -13.43448574
v 83.49445460 43.97490251 -13.59239909
v 82.96581385 39.84466119 -13.12447239
v 81.75006983 43.84215109 -13.29628701
v 81.69096491 42.95548574 -13.34126977
v 83.57590601 41.44248535 -12.76116088
v 78.41295740 47.86830635 -14.58512128
v 77.28337977 52.52004915 -15.43668454
v 77.11822626 52.05734164 -15.38282094
v 80.17466090 50.96789466 -15.10112825
v 82.07071802 44.98060926 -13.82424129
v 82.41864893 45.61564952 -13.94000983
v 81.02288935 42.41222702 -13.67752762
v 79.81600306 44.11402448 -13.85395001
v 82.06977198 44.98807844 -13.78272213
v 81.03625605 45.00922716 -13.55429806
v 78.67223475 50.87843239 -15.03539338
v 82.91748926 42.24450253 -12.94979016
v 81.31141016 47.87529300 -14.44348920
v 81.87494013 45.31222089 -13.86273927
v 82.42925379 42.90050837 -13.07800987
v 82.46100733 42.30215021 -13.08173292
v 82.13590357 46.13089303 -14.05300125
v 78.35517237 47.17306253 -14.51874543
v 78.45198939 51.57741463 -15.07730938
v 78.07581446 47.87846106 -14.67417157
v 84.75574610 40.85708190 -12.78946584
v 77.88105128 48.39535443 -14.78296682
v 77.78699610 52.90883547 -15.39669131
v 80.74378321 49.28598707 -14.76271856
v 85.81285975 40.91634701 -12.94338126
v 80.03323481 43.76492628 -13.80513709
v 81.09887812 48.38541337 -14.55918142
v 77.48505518 55.79702661 -15.93372487
v 77.26888392 56.90737812 -16.23511665
v 77.15662501 55.99980064 -16.04981377
v 78.34601710 54.89913082 -15.78148778
v 78.29123804 53.48012452 -15.46921643
v 77.71074793 54.70247558 -15.59914522
v 77.34864161 54.86985683 -15.82642491
v 77.48185084 54.31981565 -15.69815944
v 77.02799341 53.91876127 -15.68932454
v 77.94661829 53.69256502 -15.44464982
v 79.19818995 53.45628264 -15.60907849
v 79.47164271 53.54275419 -15.67122755
v 79.34262965 54.10488033 -15.76979942
v 78.33176539 56.16453452 -16.04712825
v 78.97794459 55.82483572 -16.10148000
v 78.84761927 56.62175649 -16.19124758
v 77.57872889 56.94841663 -16.28339546
v 77.74739954 56.07541557 -16.02355340
v 77.90633509 57.01043598 -16.22988290
v 78.43805811 57.11677447 -16.30887767
v 78.00058863 56.28484245 -16.05222470
v 79.65781519 52.86575228 -15.43811892
v 77.99337122 54.98097896 -15.80300269
v 78.73730585 57.17703143 -16.33124706
v 77.60332606 55.25143337 -15.76638164
v 94.99315760 25.55677416 -9.79167587
v 94.57896540 26.34540176 -9.94818540
v 94.65990565 25.67514422 -9.75687059
v 95.40848658 23.19901666 -9.37926094
v 95.47669337 23.56402978 -9.39352796
v 95.11024592 23.66152580 -9.47607803
v 94.96417353 23.56985098 -9.53734205
v 94.43470118 24.47703175 -9.69322599
v 94.62131617 23.72669604 -9.75281144
v 95.89233515 25.74301522 -10.35257373
v 96.62472651 25.06663125 -10.30871986
v 96.25074885 25.73726265 -10.39404712
v 96.83135340 24.05741498 -10.11447531
v 97.11202357 24.16218944 -10.18281944
v 94.47612116 24.73535542 -9.67120760
v 95.55758021 24.77425770 -9.67554110
v 94.92809412 25.21480946 -9.68634440
v 95.29064295 24.59549338 -9.56139007
v 94.90305445 24.64596945 -9.55531708
v 96.05309412 23.98634724 -9.66127401
v 96.17833826 24.72768782 -10.03000276
v 95.31856653 26.18491741 -10.14935725
v 95.27584193 26.80364600 -10.48686651
v 95.84232447 26.44408026 -10.47870299
v 95.46112940 27.08268346 -10.55196054
v 95.64297602 25.55755994 -10.10350449
v 96.74212763 23.69800951 -9.79510880
v 95.56579706 24.07841117 -9.52106101
v 95.85236475 23.55287560 -9.39686964
v 96.64919398 23.21416861 -9.53039925
v 96.19082758 22.87795649 -9.31042849
v 94.46074793 25.17071155 -9.72200418
v 94.96756098 26.86173624 -10.30687384
v 97.01928065 23.19173816 -9.73344795
v 94.23899195 28.29034793 -10.66728667
v 94.62030909 27.82155979 -10.60992880
v 94.78797266 28.16938388 -10.68051602
v 94.65501520 26.78322979 -10.16537908
v 99.96659968 8.91572997 -7.15747211
v 99.79409907 10.11073727 -7.33398598
v 99.55171320 9.38476987 -7.31195217
v 101.20843622 9.99777644 -7.42848364
v 100.86508295 11.12506524 -7.51660333
v 100.58535883 10.85164303 -7.34848195
v 97.56148646 22.07829672 -9.56628773
v 96.68132899 22.70821771 -9.38815673
v 97.01514551 21.86191953 -9.15222520
v 98.33065150 19.67390077 -8.93744213
v 98.39534113 20.27724850 -9.20843832
v 97.90339777 20.47674957 -8.97949548
v 99.99163935 10.90226406 -7.34027273
v 99.20208094 10.59753075 -7.54994370
v 98.17321131 20.78729640 -9.29826689
v 98.37067530 20.90397268 -9.59167817
v 100.15647242 9.42756317 -7.11830288
v 99.88470576 11.55379908 -7.43895142
v 99.27153895 12.45103872 -7.70489700
v 99.35681269 11.07925836 -7.51489434
v 99.66014216 12.63033713 -7.64985858
v 99.29074213 13.07990681 -7.77726954
v 99.54933283 13.16453970 -7.68409939
v 99.44296381 13.62517963 -7.82345799
v 95.98407099 22.68252955 -9.27960570
v 99.03530237 19.30730067 -9.30900884
v 98.89838526 20.41768271 -9.56099266
v 96.02950403 21.30923091 -9.26948890
v 95.47882960 21.34898766 -9.42679176
v 95.69536707 20.90638361 -9.35147431
v 95.45881007 22.28473289 -9.47056938
v 100.50309107 9.40366791 -7.10708767
v 96.54522059 21.53960815 -9.01736797
v 96.19766352 22.21953976 -9.20680594
v 95.89177058 22.00644312 -9.30632373
v 100.27676508 10.97815365 -7.31170829
v 100.15710566 11.79501002 -7.45535466
v 100.36686823 12.37369193 -7.65371901
v 99.90599177 12.87189139 -7.67064109
v 100.06831476 13.70941577 -7.89850072
v 99.76706049 13.34441030 -7.72793792
v 100.13049433 13.23479878 -7.77357694
v 97.85389063 21.51101312 -9.37462199
v 99.57040522 14.37427173 -7.88180772
v 99.80583308 14.45423540 -7.97029345
v 99.10293696 15.73329573 -8.15420784
v 98.89738581 15.47432357 -8.11903629
v 99.34132502 15.00555832 -8.02420284
v 97.17665217 19.02566927 -8.85197754
v 96.78918574 19.95772949 -8.97896134
v 96.65284083 19.31021515 -8.98468328
v 98.83512995 16.65593365 -8.27096825
v 98.60566828 16.39241437 -8.24203754
v 99.18940851 16.51108959 -8.31408956
v 99.49022028 15.49123792 -8.20270023
v 97.99977991 21.18454371 -9.29884679
v 97.01206324 20.38563937 -8.84297508
v 96.73095820 20.97663514 -8.92070345
v 97.48543665 20.84710329 -8.90311004
v 95.38715479 22.79450616 -9.41337952
v 96.45461390 20.60043730 -9.12167690
v 100.80822871 9.20409058 -7.11808922
v 100.52975580 8.85629701 -7.03962847
v 100.88591120 7.86431553 -6.86674623
v 100.23973200 8.79993104 -7.04710527
v 99.24644587 17.93219392 -8.91296674
v 99.19229243 17.62479039 -8.71156594
v 99.75840876 17.34116761 -8.93619053
v 100.64840815 14.44425608 -8.39874498
v 100.83258173 14.97015785 -8.55113460
v 100.54005549 15.91704198 -8.71560924
v 100.97042963 14.49052071 -8.46957629
v 101.28460810 11.84485277 -7.94339178
v 101.22186396 13.49374798 -8.29956270
v 100.70520136 13.33026534 -8.09454558
v 101.46118281 7.79529999 -7.10247925
v 101.79644892 7.21424530 -7.12442130
v 101.63869593 9.31921808 -7.48634486
v 97.28464625 22.61764150 -9.59508116
v 96.23751185 19.52306760 -9.12359933
v 96.69882319 18.34641664 -8.92166432
v 96.00791285 20.22413265 -9.23822347
v 100.20158503 14.31161147 -8.12280502
v 97.76811335 20.23262423 -8.83314839
v 98.73279688 19.11536041 -9.00516054
v 97.99456904 19.09746953 -8.72378847
v 98.41415522 18.77868290 -8.73207394
v 96.60257838 22.09927762 -9.17096303
v 100.38725397 13.32007250 -7.90571807
v 98.78355524 18.36407871 -8.77087697
v 98.07450983 21.58137134 -9.70708050
v 97.52948878 22.69134903 -9.89384826
v 98.60893366 21.09226612 -9.67961460
v 98.79265711 19.31374755 -9.06061101
v 98.00743220 22.40716172 -9.90420893
v 97.55722163 23.30356977 -10.05182260
v 98.70575068 14.05040391 -8.01324687
v 99.01371882 13.97680315 -7.94665751
v 99.23088190 14.41743884 -7.89486925
v 99.04446528 16.92624308 -8.40997586
v 99.91677973 15.89100288 -8.55617015
v 97.28382990 21.31328980 -8.93788490
v 96.82451746 21.50441376 -8.96695292
v 100.90367243 6.57311684 -6.62905986
v 101.45967982 7.15173769 -7.00015371
v 100.90078852 7.47734502 -6.82045100
v 97.82432673 18.67962286 -8.66546931
v 97.52358362 19.28860111 -8.75197148
v 99.74886439 6.29668859 -6.80809119
v 99.98893854 7.08712437 -6.85691945
v 99.43116877 6.35191775 -6.96511940
v 100.35795710 6.74145943 -6.64491377
v 101.39122126 8.79042478 -7.24617143
v 100.88553736 8.33045627 -6.92126596
v 100.03486750 7.96072055 -6.95602542
v 99.81028864 8.44456146 -7.12068309
v 99.71152613 7.70665406 -7.06933715
v 100.36215327 7.28440527 -6.78021354
v 100.49624750 11.84086266 -7.52919195
v 94.96956751 22.33253103 -9.60531976
v 99.89067194 16.75939578 -8.80700952
v 99.22969172 17.31274816 -8.65294162
v 98.76065180 17.80823158 -8.53197002
v 99.40689204 18.29859556 -9.11696156
v 99.47999689 18.94572078 -9.29025573
v 99.26050684 19.51619348 -9.39667062
v 101.33706782 12.99578504 -8.21283166
v 99.03981135 8.88568538 -7.40660236
v 97.37023279 20.35137577 -8.76330894
v 98.21148798 18.41473792 -8.60161123
v 98.21392939 15.83252360 -8.33557382
v 98.37669489 17.05968882 -8.35127532
v 97.66827509 17.35531257 -8.58890049
v 98.19918940 17.56602121 -8.44995399
v 98.19517634 14.78172711 -8.22116325
v 98.84102747 12.64043842 -7.86593829
v 97.81930659 14.99650981 -8.34819271
v 98.11523554 14.01884870 -8.18985209
v 98.63333247 17.18867900 -8.34640779
v 98.74150965 11.16219747 -7.74923883
v 98.92605707 9.85275689 -7.54980625
v 98.98710749 13.01398121 -7.81530969
v 101.55832026 5.87463048 -6.80828949
v 101.23353693 9.57386441 -7.33097991
v 100.28936884 7.87687351 -6.86589174
v 101.66612360 11.20125232 -7.88621699
v 101.58711359 11.71525224 -7.98007389
v 100.61679194 7.55518773 -6.81947445
v 99.10614130 8.20010800 -7.30433784
v 98.17396662 19.50143832 -8.84730843
v 97.70687220 19.37226505 -8.76068426
v 97.27974055 16.65051672 -8.62707786
v 98.26713679 13.44695693 -8.09988618
v 99.16650507 7.17518279 -7.15492361
v 101.94754145 9.03319971 -7.49704122
v 101.83729670 9.98603476 -7.66475073
v 98.46548579 12.62206682 -7.97247516
v 98.58187983 12.05451617 -7.88614084
v 102.10673640 6.68549775 -7.08104047
v 102.07988093 7.36681029 -7.20230218
v 102.00093958 8.49903529 -7.40252820
v 96.94981501 17.63521976 -8.79811379
v 100.21684382 16.84417360 -8.88864406
v 99.92154047 17.71551146 -9.05241678
v 91.29952357 32.69758201 -11.37067179
v 92.02983973 32.20835473 -11.28052278
v 90.80399439 33.91584369 -11.59552550
v 90.65591547 33.57843373 -11.53265923
v 91.36433527 31.93103391 -11.01415006
v 92.02381251 31.69397334 -11.18709313
v 90.11315272 33.81693624 -11.49245236
v 90.25515101 32.99700526 -11.19435653
v 89.82312891 35.31012313 -11.86826132
v 91.12325403 31.48994050 -10.78291829
v 88.29554102 36.43678631 -12.02158182
v 88.69028590 35.95518843 -11.91010103
v 88.89565394 36.11452068 -12.02384007
v 87.06743738 35.11915938 -11.89166827
v 87.75753138 35.05571338 -11.58626360
v 87.43883631 35.60820361 -11.62938503
v 86.19405482 39.12456090 -12.43309654
v 85.94217799 39.47526890 -12.51550932
v 86.03260157 38.85879859 -12.33649310
v 89.43716547 33.78960779 -11.19737790
v 88.89019129 34.59444021 -11.44927012
v 89.04757044 33.86501673 -11.19211363
v 87.90279505 33.84143420 -11.63716672
v 88.49018214 33.71802879 -11.37567684
v 88.17129633 34.39657949 -11.46307929
v 87.21922419 37.00027052 -11.93947437
v 86.52793238 38.04951822 -12.16470952
v 86.69271204 37.17857710 -11.93442374
v 88.94051478 32.36369682 -11.33539341
v 89.84138605 32.17426663 -11.04546113
v 89.29479334 32.95773677 -11.13243636
v 89.35132716 33.43809108 -11.13129202
v 89.01393244 33.35531977 -11.21829763
v 87.79023096 35.67995045 -11.57018094
v 89.62835810 34.49975177 -11.61145577
v 88.90682337 36.64140666 -12.11905500
v 88.61950037 33.09195303 -11.43044053
v 88.16928980 32.49190876 -11.54062415
v 87.31648371 33.69845169 -11.80084773
v 86.83319971 38.95759921 -12.55101643
v 87.22016260 35.90696305 -11.74315461
v 86.76763270 36.52928511 -11.89218730
v 89.66688654 31.36070613 -11.14240008
v 86.35820124 36.11831248 -12.08791172
v 85.53928492 36.21956214 -12.29514135
v 86.47409937 34.91416515 -12.04112808
v 86.57938502 38.43001137 -12.27597668
v 87.26133082 38.45173222 -12.44833996
v 88.40503046 34.73318075 -11.44006909
v 88.47643397 35.29402515 -11.56468771
v 87.41474268 37.25649608 -12.07628471
v 87.50391505 36.59780471 -11.83362408
v 86.26885340 37.20484509 -12.02300101
v 85.69953272 37.21077309 -12.22035819
v 88.14977381 35.72718403 -11.58400541
v 86.13224146 37.92213023 -12.12486880
v 88.76557276 33.68773248 -11.24992915
v 87.39566920 36.16308183 -11.72110570
v 87.02282069 36.72937362 -11.86601851
v 86.07187769 38.45540963 -12.22246411
v 87.97809717 37.95296057 -12.34836429
v 86.83458063 39.52082399 -12.64584990
v 89.09644434 31.20630242 -11.27773026
v 87.85322687 36.32268875 -11.82492653
v 85.52591822 36.75672492 -12.30599044
v 90.17796442 32.73103695 -11.10468058
v 90.10003016 32.44408780 -11.03282690
v 87.49280665 37.58421670 -12.23325193
v 93.47918055 29.10107028 -10.69662945
v 93.01503870 29.83594881 -10.74411492
v 92.93873713 29.39148321 -10.52974412
v 91.22184107 30.78338229 -10.70761605
v 91.07010767 30.47034823 -10.70270267
v 91.66382716 30.21007146 -10.54697143
v 93.60398981 29.36704621 -10.81927964
v 92.91640589 30.43382628 -10.97700992
v 89.97390864 31.08340817 -11.04974867
v 90.73027155 30.33752046 -10.80753053
v 91.12426112 28.85651766 -10.74675453
v 90.08704493 29.82584745 -11.03224664
v 90.97843287 28.56353364 -10.78799899
v 93.85253260 25.43111038 -9.94739179
v 93.95405695 24.86520767 -9.95615025
v 90.57992670 31.16572175 -10.77737930
v 91.47872278 29.83181371 -10.53799920
v 91.91971705 29.76666632 -10.46773247
v 92.52617762 27.83770364 -10.34294578
v 93.00431177 27.67586894 -10.19124287
v 92.83777735 28.49605173 -10.30400545
v 94.45510218 27.70643225 -10.46982258
v 93.90976069 28.30172337 -10.59909514
v 93.56985590 28.09035866 -10.39261317
v 91.21260950 28.26387392 -10.72829130
v 91.60622523 28.86701574 -10.52254189
v 92.42728541 29.01979440 -10.34222880
v 94.30293391 26.23769761 -9.85065120
v 92.10168574 27.87120428 -10.50635215
v 91.47991297 27.96097171 -10.66484521
v 91.95881007 27.26211157 -10.52765332
v 93.58353541 27.65867991 -10.23891132
v 93.13758204 27.96152873 -10.22713159
v 93.18822596 26.12396617 -10.18475763
v 91.97161219 30.91593537 -10.82829784
v 92.30636713 30.47259890 -10.73196903
v 93.21125147 27.35741040 -10.11163771
v 93.42609522 27.10944745 -10.11471995
v 92.78751490 26.01074594 -10.28387871
v 93.78696558 26.02004623 -9.92746391
v 93.64502833 26.69784162 -10.06497623
v 93.47528956 26.30159376 -10.04628415
v 92.24688074 28.11612312 -10.41449428
v 94.16344569 27.13558575 -10.15283641
v 94.09749720 25.58371354 -9.85705979
v 90.33966944 31.52043518 -10.89102682
v 92.18676874 29.96613683 -10.55156429
v 92.65813563 29.35292427 -10.41318223
v 92.90503809 30.97554379 -11.06667065
v 92.59896204 30.17278658 -10.74651061
v 91.48380396 31.04865633 -10.77066541
v 91.88219569 30.44275273 -10.59869876
v 93.05175135 27.07761761 -10.15462168
v 94.16834376 29.12275300 -10.79993146
v 93.66391108 29.87639983 -10.90262323
v 94.36812708 27.22120280 -10.22380505
v 93.94728205 26.82925031 -10.05756048
v 93.09303400 28.65523903 -10.36603246
v 84.85407374 39.69714696 -12.46773408
v 84.98590967 39.15137822 -12.46100487
v 85.50212977 38.82454261 -12.31432208
v 85.54436610 38.15648994 -12.27141425
v 84.86047480 38.81291538 -12.52937945
v 85.03259394 39.96271092 -12.49744299
v 84.48085139 38.88816408 -12.64823017
v 83.36608240 39.20315885 -12.90039697
v 85.61118433 37.73178444 -12.27258911
v 85.08643458 37.70163304 -12.43707885
v 84.01188013 39.35803558 -12.73490017
v 83.65213892 38.78335143 -12.79608782
v 84.12664149 38.59910920 -12.68100600
v 101.78765986 5.23960546 -6.81204305
v 102.10817072 5.26986363 -6.85423360
v 102.11890528 5.85944796 -6.94755645
v 99.26721308 2.00202620 -6.24536161
v 98.79905054 2.48727091 -6.50030554
v 98.69407770 2.03144512 -6.43908720
v 99.72419855 -1.91588142 -5.70956385
v 99.79805109 -2.50029306 -5.80209305
v 100.58435175 -0.70528730 -6.02238448
v 100.16281245 0.94986413 -5.66941845
v 100.72904322 1.01802508 -5.99533093
v 100.42666743 1.84943838 -5.81945826
v 100.36749384 -2.01194316 -5.89417993
v 100.72176478 -1.18355115 -5.99211097
v 100.19555781 0.04912254 -5.75276180
v 100.46939204 -0.10818035 -5.94062799
v 99.93202326 2.38592213 -5.94866978
v 99.48977778 2.94390546 -6.35658308
v 99.91238520 5.27183205 -6.63197408
v 98.68943140 -1.89702149 -5.27195704
v 98.56155512 -1.52404330 -5.39646882
v 98.26149103 -2.02157899 -5.33000146
v 101.67389796 3.54296548 -6.58761650
v 102.07090113 4.41592841 -6.73417731
v 99.95762751 -1.46535043 -5.77601595
v 101.02401850 0.58493484 -6.18846135
v 98.73335383 1.01417984 -6.19335950
v 98.50012324 1.34006940 -6.34536761
v 98.36797449 0.91573774 -6.28990184
v 100.75407526 1.82159869 -5.98477198
v 100.14781306 1.99280234 -5.77967863
v 99.81091425 1.88689871 -5.84283474
v 100.61088679 2.73564593 -6.01283304
v 100.32538721 2.87443225 -5.96875042
v 100.05299494 3.19659105 -6.08851671
v 99.38874934 -0.34820101 -5.35014333
v 99.25340388 0.11320186 -5.50517270
v 98.97023127 -0.53761600 -5.45567309
v 99.75400660 -0.26465915 -5.44477835
v 99.75482294 0.71409297 -5.55137641
v 99.65135309 -0.57010195 -5.40171800
v 99.48469660 0.82590936 -5.65000925
v 100.73889277 3.47620836 -6.08989005
v 100.56038019 3.83039536 -6.14373837
v 100.39390681 3.23949115 -5.97785998
v 100.18928644 -0.85567790 -5.85557538
v 98.89580653 0.70049731 -6.03781135
v 99.14303705 -0.94172213 -5.39709453
v 98.83487818 -0.93046116 -5.47447185
v 99.17892573 5.88238955 -6.97161957
v 99.16223261 5.40052463 -6.90449607
v 100.91076014 2.68440690 -6.13928262
v 101.07302973 3.47976363 -6.24231009
v 99.46838496 4.94556097 -6.74023514
v 99.17797968 6.68244599 -7.08454999
v 99.11648676 4.62497381 -6.79573130
v 99.97431299 0.32184290 -5.60693360
v 100.82015345 3.89431442 -6.17070066
v 100.05287287 1.59990379 -5.71801779
v 99.60667536 1.15966485 -5.66268935
v 99.38919184 3.41507395 -6.49336294
v 100.89005396 -0.74399885 -6.04658492
v 100.54475519 4.50838150 -6.20813057
v 100.57669184 4.85811292 -6.33216933
v 100.26332972 4.68249189 -6.31140209
v 100.61471674 5.47753581 -6.46649255
v 100.88861201 4.94278393 -6.39326553
v 100.61848566 6.02728708 -6.51701449
v 100.31854365 5.57096537 -6.52493372
v 100.95606348 5.68736704 -6.50659268
v 99.00304529 3.60846382 -6.65403802
v 98.94204829 3.20576913 -6.59840441
v 100.60461542 6.54841287 -6.56639201
v 99.67682764 3.65964183 -6.44274958
v 99.37689326 4.18941170 -6.64041202
v 101.35978815 1.78230725 -6.35490442
v 99.04213068 -1.93825075 -5.33589136
v 98.94110987 -1.33943483 -5.32496617
v 97.91224024 -1.64715126 -5.71501128
v 98.21593592 -0.38305219 -6.01293935
v 97.66934321 -1.71908883 -5.78593412
v 97.54434321 -1.10575421 -6.00656105
v 97.17181513 -1.82371837 -5.89654507
v 98.11836359 0.22141708 -6.20195006
v 97.95478174 -0.19444595 -6.14395134
v 98.67512629 -0.07406932 -5.89019770
v 100.07690546 3.88768446 -6.27464353
v 99.67695734 -1.31053472 -5.55804418
v 99.93898890 -0.58943488 -5.66551194
v 98.69777796 -1.20865176 -5.40425086
v 98.22554133 -1.01968698 -5.80288675
v 101.19086573 0.09740891 -6.15019223
v 101.34164545 0.58209670 -6.21325689
v 101.57933924 1.42445814 -6.32933063
v 101.70320246 1.95293102 -6.39936856
v 98.41277430 -0.57981425 -5.86537157
v 99.31640742 -2.25535892 -5.46813924
v 101.25813410 4.80247172 -6.49871900
v 101.49029658 4.56556375 -6.58763193
v 100.20642206 4.43979323 -6.27154609
v 99.35600397 -1.25233005 -5.42686438
v 99.50295374 -0.86204837 -5.44746380
v 101.34986994 3.36423168 -6.42387441
v 101.95964930 3.36358315 -6.58950856
v 102.02992365 3.95709663 -6.67013610
v 99.87065241 1.04880976 -5.56631482
v 101.51903651 2.59907970 -6.46452369
v 101.29075739 3.01856671 -6.39064071
v 101.18779108 4.44687329 -6.36999580
v 100.88026545 4.50474227 -6.23838875
v 95.14481470 -7.03641045 -4.78645206
v 94.88472101 -6.86861717 -4.75016668
v 94.70163080 -7.58447563 -4.75427118
v 95.40766260 -7.48589626 -4.97498958
v 95.33519099 -8.08031004 -5.13331468
v 94.28272364 -8.19149316 -4.82147079
v 96.02133295 -6.77101437 -5.00222664
v 96.12719080 -7.38374633 -5.22299070
v 96.99436304 -6.53203889 -5.31634411
v 99.10067866 -3.80604865 -5.63363581
v 98.30735895 -4.94860386 -5.48274146
v 98.87510035 -4.70227361 -5.55268779
v 98.78587458 -2.42111512 -5.30216936
v 98.30522272 -2.64665527 -5.20196486
v 96.77493403 -3.05799414 -5.63339179
v 96.63908503 -2.72899178 -5.76625012
v 96.39280054 -3.10483864 -5.71092169
v 96.40422175 -5.23359218 -4.95133882
v 97.00189326 -4.65796202 -5.12473980
v 96.25319025 -4.98814693 -4.97947607
v 94.21012232 -7.76024161 -4.69387687
v 94.66987726 -8.97959439 -5.03478853
v 95.32164118 -8.49058073 -5.11442423
v 97.69318507 -5.75410006 -5.39137170
v 97.58004877 -6.36326143 -5.36132704
v 98.09614680 -5.75488589 -5.42306420
v 97.08591578 -5.15333860 -5.10894687
v 96.32058070 -5.78432765 -4.94418236
v 96.71457026 -4.47478026 -5.15557784
v 97.98552820 -2.53696748 -5.28518631
v 97.75417445 -2.65995333 -5.35581922
v 98.52032587 -4.04719089 -5.41461111
v 98.39526484 -5.36574100 -5.47143463
v 97.55256769 -3.34647675 -5.24049318
v 97.44583247 -2.88313601 -5.38012644
v 97.15418360 -3.16384433 -5.42129461
v 94.69265864 -6.56940758 -4.80261119
v 95.02139399 -6.29564965 -4.78898514
v 94.54544947 -6.37390436 -4.88525282
v 95.23598597 -5.37475126 -5.08920196
v 94.20654414 -6.26334682 -5.00714005
v 97.99895594 -3.74085540 -5.21844417
v 98.74765894 -3.82657169 -5.42718439
v 98.41547510 -3.11298676 -5.26187079
v 95.41607020 -6.76145470 -4.77067451
v 97.17257044 -6.32406923 -5.33219802
v 96.06607172 -4.03715061 -5.47964407
v 95.88360712 -3.79601599 -5.59970026
v 95.63769648 -4.09605718 -5.54543996
v 97.83712885 -3.40290374 -5.17459047
v 98.57641718 -2.83800049 -5.22897288
v 97.40128443 -4.04724425 -5.18519522
v 95.58649561 -6.14369500 -4.81936541
v 95.67823145 -5.64631189 -4.89977931
v 97.22791407 -3.76045532 -5.23133784
v 95.79368708 -5.03853147 -5.06802282
v 95.09116480 -5.11335298 -5.29826267
v 96.59058497 -3.75312349 -5.36424190
v 95.65532801 -8.21777647 -5.15197616
v 96.25858424 -7.69903869 -5.21961845
v 95.19074366 -4.61111759 -5.45013348
v 94.94979212 -4.86662600 -5.40815651
v 95.88491938 -6.37960352 -4.87780653
v 96.32779810 -6.34570614 -4.99577224
v 94.60568354 -5.21515963 -5.35412508
v 93.69521448 -9.25961604 -4.92285001
v 97.48774836 -4.49507446 -5.20574874
v 97.70398066 -5.06679078 -5.26747044
v 97.81190607 -4.56291505 -5.31243818
v 96.18196986 -4.25492402 -5.31538317
v 98.98164484 -3.40976260 -5.42631471
v 96.68093989 -7.30063172 -5.26364012
v 99.10688898 -3.18212437 -5.47672978
v 98.86449549 -3.01744386 -5.32614082
v 96.99367640 -2.14830332 -5.84799155
v 94.31327936 -5.49615022 -5.31056119
v 99.80452082 -3.16472176 -5.74778692
v 100.17893336 -2.42877512 -5.84248308
v 99.14002344 -4.29652716 -5.60432360
v 99.57034418 -3.59286812 -5.69314512
v 78.35372278 -10.13945659 -3.11677382
v 79.92266962 -9.92094696 -3.38555742
v 79.28451655 -9.89588439 -3.31643511
v 81.18163416 -10.23852814 -3.40691967
v 81.63824580 -9.93162814 -3.55013872
v 81.03687403 -9.94020357 -3.50185991
v 92.24850580 -7.71795187 -4.68347038
v 92.40826533 -7.88302905 -4.50576649
v 92.79377863 -7.69191273 -4.57707085
v 92.90365717 -8.26420122 -4.38984541
v 93.28408930 -7.67039784 -4.57595696
v 92.59368250 -8.11240678 -4.37554795
v 91.96733210 -8.50257400 -4.25984049
v 89.63870356 -9.94108867 -4.02464128
v 90.11972925 -10.21161176 -4.15722485
v 89.99102900 -9.80190564 -4.10938862
v 90.76847956 -10.47916703 -4.36770455
v 91.46522639 -10.12471300 -4.44145033
v 91.00711176 -10.00242904 -4.26153397
v 86.50935480 -9.69980143 -3.98362569
v 86.24750635 -9.46250439 -4.06550440
v 85.51078913 -9.58962534 -3.95338279
v 92.80990717 -7.07213130 -4.94602847
v 91.79716608 -7.71633446 -4.77470268
v 90.42486689 -10.21426680 -4.19851514
v 92.01658747 -8.82039167 -4.19383092
v 91.50287745 -8.77550796 -4.25207372
v 91.14483759 -9.26854992 -4.09396207
v 92.63980219 -8.95344835 -4.38447420
v 93.83602259 -6.28798979 -5.11270035
v 88.58912775 -9.13836960 -4.32881011
v 88.50566981 -8.85988909 -4.44074863
v 87.78036616 -9.37478163 -4.18095241
v 88.89093897 -9.31962875 -4.29336392
v 89.41281245 -8.99064928 -4.40156404
v 91.43447993 -7.56601251 -4.85768000
v 91.00804255 -7.79880059 -4.79313528
v 88.43708918 -10.03007794 -4.11045670
v 90.68552515 -7.96385490 -4.74650440
v 93.94206354 -7.98398122 -4.62003955
v 93.67532465 -8.28853139 -4.62510542
v 93.13111994 -7.40785514 -4.70068234
v 93.59544489 -7.06621086 -4.75419497
v 93.06829951 -9.69552911 -4.82363729
v 92.96106837 -10.08316338 -4.79344009
v 93.33780787 -9.86449731 -4.85162188
v 91.26142237 -9.54362012 -4.16435082
v 78.33834955 -10.51496013 -3.08605781
v 81.14291498 -10.68789184 -3.35842717
v 87.62877009 -10.60624978 -3.86691107
v 87.67131159 -10.12311838 -3.94172499
v 87.19543574 -10.63542457 -3.80607427
v 85.69928095 -9.89251992 -3.85435320
v 91.93451807 -8.19655138 -4.43553024
v 88.20887873 -10.39703654 -3.96925180
v 88.15760920 -10.11485576 -4.01824782
v 87.88935969 -10.47224709 -3.86417977
v 88.62024805 -10.63378429 -4.07122625
v 88.52079127 -10.29854105 -3.95138378
v 89.56598017 -9.62825300 -4.14828330
v 87.07213709 -10.08706948 -3.89250014
v 83.65753290 -10.11095707 -3.59852431
v 83.29321406 -9.84949010 -3.66920306
v 82.45176813 -9.90437595 -3.60847307
v 91.23336909 -8.34988697 -4.56584027
v 90.94711420 -9.05557539 -4.18160859
v 91.46240351 -8.57832628 -4.39553689
v 90.04223749 -8.90867907 -4.41972202
v 87.15264246 -9.25176527 -4.19666898
v 85.22264979 -10.68441288 -3.61347783
v 86.57291529 -10.52093787 -3.78156868
v 83.95464442 -9.79262060 -3.73864582
v 92.98027155 -9.47867118 -4.70463403
v 93.19912836 -9.11562643 -4.65164032
v 92.77758906 -9.10402972 -4.47677460
v 88.73745844 -9.93281843 -4.15119768
v 92.11284754 -10.15791616 -4.64703199
v 92.00428889 -10.59784231 -4.62188544
v 92.43493006 -10.37358390 -4.69956797
v 94.21251032 -9.30325618 -4.97796475
v 92.74691126 -6.75162046 -5.08027534
v 92.43612025 -6.95721737 -5.02752568
v 91.80613825 -7.35146632 -4.91718931
v 91.78656122 -7.96521292 -4.66197070
v 91.86210749 -9.26399520 -4.22933805
v 90.03852961 -10.77859787 -4.29354678
v 89.95263026 -9.32442000 -4.24462734
v 89.95181391 -8.29903707 -4.65260175
v 92.10362360 -9.84273823 -4.57078387
v 93.40457270 -7.92461689 -4.55151234
v 93.19304774 -8.47380359 -4.47395182
v 90.47532007 -9.24765303 -4.18589628
v 89.49752161 -10.39335156 -4.09564035
v 88.82731745 -10.20418071 -4.00202771
v 82.44192622 -10.70372285 -3.43638432
v 93.80056879 -5.94488068 -5.24093527
v 87.59639094 -9.13432601 -4.26933135
v 93.77584955 -7.69835194 -4.57688774
v 85.01156733 -9.66533944 -3.88232260
v 78.36664698 -9.84976087 -3.22508075
v 83.64253351 -10.45238772 -3.54362313
v 88.90512202 -10.51748944 -4.12196174
v 86.64155695 -9.37652875 -4.12289272
v 93.45407984 -6.23024291 -5.19261063
v 89.63613245 -8.43723592 -4.61688091
v 88.95205805 -8.70259388 -4.51670691
v 89.59829829 -10.80736067 -4.18620120
v 86.79139826 -11.63641639 -3.77055165
v 85.55345270 -11.94040198 -3.73312179
v 86.71284601 -12.06632516 -3.87988080
v 86.81373713 -11.31679816 -3.75022699
v 86.55635187 -10.77351660 -3.73971378
v 85.58847163 -10.97802250 -3.59202392
v 89.22010920 -11.04851820 -4.20854003
v 87.38543818 -11.59572884 -3.87025258
v 87.76197932 -11.38781258 -3.88099480
v 85.10562250 -12.32606025 -3.76782021
v 90.37743494 -10.98271470 -4.38194092
v 88.10063288 -11.02273844 -3.94027526
v 90.51146052 -11.26220232 -4.39808467
v 91.04419062 -11.04307086 -4.47480590
v 88.26133082 -11.42145061 -4.02978325
v 88.24288294 -11.67584515 -4.07894703
v 85.25715754 -11.56023686 -3.62917898
v 85.93464777 -12.50652595 -3.81776220
v 86.78694269 -12.35335061 -3.88238320
v 87.37683985 -12.22538279 -3.95193278
v 89.44851801 -11.35519699 -4.27883722
v 89.51954768 -11.63159469 -4.27778432
v 89.94108698 -11.48095993 -4.33166312
v 88.20893976 -12.02388286 -4.06527510
v 88.70382807 -11.88395215 -4.14433091
v 80.49022028 -11.36824309 -3.26409722
v 80.74585078 -11.08348358 -3.33021360
v 79.29794428 -11.04271207 -3.20324523
v 84.19088862 -11.50882235 -3.51515006
v 85.22898981 -11.05284397 -3.56808287
v 83.87087366 -11.20716370 -3.37296871
v 84.09645197 -10.87199678 -3.49026308
v 82.72515986 -12.23447696 -3.55599772
v 83.35345576 -11.55615511 -3.46587942
v 82.61749384 -11.62226381 -3.44271657
v 79.19912073 -11.65487180 -3.21410938
v 79.51392481 -11.98783384 -3.25672713
v 80.68090937 -11.62248504 -3.34200856
v 78.21900294 -12.79783520 -3.16981293
v 78.28268549 -11.60423168 -3.09803578
v 78.31413386 -10.99925121 -3.08541686
v 83.31668207 -11.25567138 -3.30160335
v 82.61981318 -11.30467496 -3.22248652
v 82.83923456 -10.96086396 -3.42533692
v 79.13580439 -11.34479030 -3.09589960
v 85.09859583 -12.00706000 -3.73029890
v 81.33267329 -12.49067964 -3.45249731
v 81.45289728 -12.87445344 -3.42767120
v 82.60656855 -12.84427157 -3.53512360
v 84.57496760 -12.68880743 -3.71047762
v 85.47752497 -12.57884498 -3.78278904
v 82.22129938 -11.32204710 -3.26357843
v 80.84994623 -11.35859953 -3.23156549
v 81.28428767 -12.17317475 -3.43057048
v 80.18519709 -12.88725556 -3.40826202
v 79.50664637 -12.86721313 -3.32116485
v 83.08520624 -12.81601993 -3.58091523
v 84.07010004 -12.74116796 -3.67097261
v 78.31199763 -11.30453378 -2.97944453
v 76.97654078 56.82218066 -16.29790655
v 76.61812708 56.73979084 -16.22573247
v 77.04486964 51.06453617 -15.29581516
v 76.54879114 54.46030330 -15.82096220
v 76.51899073 53.20471098 -15.67319588
v 75.83202479 56.55650988 -16.32395326
v 76.16126368 54.88642022 -15.98603185
v 76.87169764 51.71529299 -15.41179732
v 76.13610194 56.63513081 -16.24289859
v 96.10975764 19.87264645 -9.18234572
v 98.23332331 21.93832018 -9.82515307
v 94.34465906 23.46509935 -9.81676098
v 90.80086634 31.97083648 -10.90103666
v 90.96639368 32.16545469 -11.00075288
v 90.39400599 32.01482756 -10.93570463
v 90.83757136 31.34365450 -10.75275164
v 93.58359644 24.74771498 -10.04973238
v 101.20536158 5.47272165 -6.56704797
v 101.87243006 2.79102000 -6.51487773
v 99.06610224 4.11526923 -6.72453371
v 97.24089930 -6.73826906 -5.32559090
v 95.16821406 -6.57033073 -4.73269542
v 80.55773279 -12.89066590 -3.42080474
vt 3.27182651 0.25930303
vt 3.28085017 0.20668489
vt 3.19182944 0.20952415
vt 2.95517612 0.02560318
vt 3.03321576 -0.02194846
vt 2.94598842 -0.01770043
vt 3.27925301 0.01614183
vt 3.27527785 -0.02130461
vt 3.23668742 -0.02424204
vt 2.56508613 0.36496174
vt 2.45506549 0.36162788
vt 2.56435156 0.40157145
vt 3.16659093 0.25843406
vt 3.14570570 0.30805898
vt 2.70748353 0.27133322
vt 2.77549028 0.25521141
vt 2.73151708 0.19144028
vt 2.94196606 0.32835323
vt 2.96300077 0.36459786
vt 2.72038198 0.31276232
vt 2.59355831 0.32113618
vt 2.62379003 0.24157238
vt 2.58019495 0.24512726
vt 2.52020931 0.08551806
vt 2.48216343 0.16659164
vt 2.52257609 0.16849023
vt 2.64709044 0.32923287
vt 2.63642526 0.27677876
vt 2.76823473 0.04114449
vt 2.81027150 0.03286761
vt 2.78617144 -0.00565636
vt 3.02367282 0.17058718
vt 3.14861202 0.16667604
vt 3.02013302 0.12727445
vt 2.99128366 0.21917313
vt 2.92163205 0.24884325
vt 2.87065172 0.21366304
vt 2.87937546 0.06163216
vt 2.86424661 0.01995564
vt 2.88457584 -0.01700974
vt 2.93456221 0.12944883
vt 2.97133279 0.06304836
vt 2.85616159 0.10025495
vt 3.35876441 0.21079534
vt 2.83115578 0.25698465
vt 2.81361341 0.18610847
vt 2.65420580 0.07157815
vt 2.69728661 0.11647588
vt 2.72417784 0.07191217
vt 2.68223667 0.22802842
vt 3.28470564 0.12871921
vt 3.35817194 0.12269199
vt 3.32501674 0.07383126
vt 3.38057637 0.17121446
vt 3.44262695 0.17618388
vt 3.39038897 0.13962263
vt 3.16386485 0.12547404
vt 3.20232987 0.12186795
vt 3.15749621 0.07344568
vt 2.75839448 0.10740954
vt 2.83498907 0.14016038
vt 2.81834292 0.29963112
vt 2.97612906 0.28976667
vt 2.79784846 0.06558907
vt 3.46509504 0.29170805
vt 3.44824886 0.22074699
vt 3.10761285 0.27247220
vt 2.54637504 0.09101343
vt 2.54469085 0.01777279
vt 3.42523432 0.32437128
vt 3.27954555 0.31323415
vt 3.36969185 0.35924411
vt 2.91655207 0.29249263
vt 2.87570333 0.29534900
vt 2.81434608 0.33397454
vt 2.78010774 0.37800252
vt 2.83642745 0.37192160
vt 2.65731668 0.39323926
vt 3.21770692 0.35331511
vt 2.89208269 0.29068208
vt 2.50731587 0.32133067
vt 2.43640900 0.30121195
vt 3.07837701 0.06559938
vt 2.52127290 0.24441051
vt 2.52122092 0.20216471
vt 2.47550154 0.18613541
vt 2.60055375 0.16239947
vt 2.62613153 0.01207864
vt 3.21047568 0.16636568
vt 2.98551965 0.17470092
vt 2.91831756 0.17520827
vt 2.54350615 0.24845284
vt 2.67939663 0.35429752
vt 2.73824644 0.38279891
vt 2.50774741 0.01782882
vt 2.77443051 0.18506831
vt 2.72452617 0.11813551
vt 2.57793069 0.20814139
vt 3.11687946 0.01656902
vt 3.43440628 0.05961949
vt 3.40723181 0.02519888
vt 3.28019524 0.35502702
vt 2.84070182 0.29796642
vt 2.87096953 0.36904484
vt 2.71436048 0.00303853
vt 2.84836340 -0.01602995
vt 2.84032607 0.29313004
vt 2.86575890 0.17843294
vt 3.30269361 0.17093241
vt 2.64510465 0.19917423
vt 3.04640818 0.35817546
vt 2.86604261 0.29138416
vt 2.69830132 0.19470733
vt 2.66257906 0.15540421
vt 2.91135645 0.36708999
vt 3.07576346 -0.02279997
vt 3.35249400 0.16906178
vt 3.12647057 -0.02351177
vt 2.50958896 0.28617924
vt 3.16321087 -0.02540529
vt 3.45151567 0.13365227
vt 3.15379357 0.35501134
vt 2.48199320 0.40084702
vt 2.82141614 -0.01318419
vt 3.08512616 0.35664058
vt 3.64716196 0.16708750
vt 3.72513628 0.16005099
vt 3.66487408 0.12879682
vt 3.57829332 0.25779051
vt 3.48238420 0.21631867
vt 3.56977081 0.17175215
vt 3.58732843 0.12717700
vt 3.54860735 0.13134909
vt 3.52781248 0.06573611
vt 3.49986410 0.17700112
vt 3.47061205 0.33293688
vt 3.47324848 0.36950988
vt 3.51497459 0.36595362
vt 3.66649675 0.28261232
vt 3.63887835 0.35802346
vt 3.69668674 0.35349250
vt 3.72631502 0.19866705
vt 3.66448784 0.20621073
vt 3.72729874 0.23964810
vt 3.73261833 0.30650431
vt 3.67664957 0.24225509
vt 3.41952229 0.36508715
vt 3.58751774 0.21631277
vt 3.73658943 0.34363961
vt 3.60822535 0.17094189
vt 1.29010332 0.23501402
vt 1.34926605 0.24167240
vt 1.30475593 0.20480233
vt 1.13090634 0.13696367
vt 1.15255797 0.16558784
vt 1.16730011 0.12999976
vt 1.16525161 0.10691643
vt 1.23553967 0.10401708
vt 1.18398237 0.07064670
vt 1.28786457 0.36947972
vt 1.23121464 0.41219199
vt 1.28028703 0.41013914
vt 1.16388059 0.37397504
vt 1.16556489 0.41316384
vt 1.25045311 0.12554032
vt 1.22861958 0.24905449
vt 1.26972485 0.20530993
vt 1.22233856 0.20702797
vt 1.23395431 0.16735244
vt 1.16971934 0.26221097
vt 1.21674991 0.33186316
vt 1.32455993 0.31925148
vt 1.36639369 0.36723584
vt 1.33214033 0.40821165
vt 1.37928140 0.40593719
vt 1.27925932 0.31984723
vt 1.13921821 0.32769400
vt 1.18386889 0.20766133
vt 1.14375710 0.20682782
vt 1.10787284 0.28188616
vt 1.09356451 0.20606250
vt 1.27827811 0.15110731
vt 1.37490618 0.32753831
vt 1.10243058 0.33271968
vt 1.48131311 0.35268980
vt 1.44327199 0.36107624
vt 1.46004772 0.40284717
vt 1.37621081 0.28393745
vt 0.09930187 0.12098193
vt 0.18344522 0.11433083
vt 0.13259649 0.07284552
vt 0.17772436 0.29789692
vt 0.25194642 0.27137297
vt 0.23287788 0.22785574
vt 1.02181983 0.33769470
vt 1.07422960 0.25575668
vt 1.01244605 0.24560452
vt 0.84971690 0.28735203
vt 0.88985336 0.33461910
vt 0.90804833 0.27696520
vt 0.23711053 0.15394312
vt 0.22045913 0.04636270
vt 0.92683029 0.33725286
vt 0.93472445 0.38431674
vt 0.13493943 0.15293276
vt 0.28286529 0.15581024
vt 0.35043114 0.10273880
vt 0.25320473 0.07895863
vt 0.35927886 0.15659612
vt 0.39351618 0.12420762
vt 0.39625710 0.16012150
vt 0.42942190 0.16080940
vt 1.08514273 0.17136061
vt 0.81950200 0.37325293
vt 0.89413530 0.41963428
vt 0.99636972 0.09441543
vt 1.01100647 0.03307003
vt 0.97728425 0.03331822
vt 1.07197917 0.08416986
vt 0.13363028 0.19573832
vt 0.99903393 0.17159873
vt 1.05077255 0.16940498
vt 1.04420805 0.11993772
vt 0.24147096 0.19093752
vt 0.29805842 0.19492048
vt 0.33794194 0.23839116
vt 0.37388116 0.19432652
vt 0.43043500 0.24336952
vt 0.40709531 0.19194853
vt 0.39731079 0.23390162
vt 0.97836995 0.33433086
vt 0.47842252 0.20172608
vt 0.48241490 0.23449534
vt 0.57556689 0.19922161
vt 0.56069398 0.16367149
vt 0.52394855 0.19916183
vt 0.82490551 0.11400807
vt 0.89251280 0.11205333
vt 0.85267258 0.06445593
vt 0.64050269 0.20482135
vt 0.62589586 0.16703600
vt 0.62691641 0.24146432
vt 0.55596960 0.23898089
vt 0.95445126 0.33247727
vt 0.91561484 0.16344106
vt 0.95884484 0.16231257
vt 0.93741679 0.24256057
vt 1.10587299 0.10985106
vt 0.94106537 0.10430241
vt 0.12086183 0.23171902
vt 0.09595329 0.19338697
vt 0.02964550 0.23524892
vt 0.09110004 0.15620673
vt 0.72495228 0.32644385
vt 0.70339644 0.29851037
vt 0.68040103 0.36413479
vt 0.47854477 0.35137367
vt 0.51194137 0.39567477
vt 0.57770741 0.39827615
vt 0.47931564 0.39387560
vt 0.30211735 0.34859872
vt 0.41198045 0.39306623
vt 0.40326339 0.31892318
vt 0.03238684 0.31486291
vt -0.00198126 0.35923928
vt 0.13503003 0.34639579
vt 1.06048834 0.32890338
vt 0.87448812 0.02453190
vt 0.78798997 0.02553540
vt 0.92567837 0.03209502
vt 0.47103035 0.28337896
vt 0.89331162 0.24474114
vt 0.80849344 0.31405085
vt 0.81575090 0.21630579
vt 0.78875154 0.25213826
vt 1.03507805 0.20978045
vt 0.40259475 0.27191710
vt 0.75731230 0.28078437
vt 0.98428959 0.38528877
vt 1.06506670 0.37856555
vt 0.94334018 0.42322946
vt 0.82106215 0.33023983
vt 1.03944361 0.42075449
vt 1.10390496 0.41665632
vt 0.46710771 0.08512044
vt 0.45839798 0.12012893
vt 0.48506838 0.16289854
vt 0.65680665 0.24386364
vt 0.58131295 0.31761992
vt 0.97022367 0.24172843
vt 0.99098456 0.20111209
vt -0.05842096 0.24330199
vt -0.01054633 0.31542808
vt 0.00373834 0.23816359
vt 0.79076314 0.17605817
vt 0.83586586 0.16934717
vt -0.08763057 0.09618825
vt -0.03001767 0.12244278
vt -0.08596939 0.05174476
vt -0.05224943 0.17339617
vt 0.09738594 0.30793351
vt 0.06123060 0.23611867
vt 0.03161484 0.12731689
vt 0.06543255 0.09826320
vt 0.01274914 0.08284247
vt -0.01418352 0.17067057
vt 0.30040908 0.23840976
vt 1.08617723 0.03054923
vt 0.64008832 0.35315865
vt 0.68220997 0.28964061
vt 0.71898830 0.24753648
vt 0.74818790 0.36730272
vt 0.78940016 0.40846753
vt 0.82939601 0.41173375
vt 0.37822801 0.39166361
vt 0.09670573 0.00188226
vt 0.90686810 0.20339912
vt 0.76698977 0.20976418
vt 0.59489310 0.09512848
vt 0.67388391 0.16874838
vt 0.70565045 0.09713197
vt 0.71045089 0.17037171
vt 0.52421832 0.04817826
vt 0.36803204 0.05266243
vt 0.54490954 0.01168638
vt 0.47264463 0.01070529
vt 0.67859602 0.20410401
vt 0.26453874 0.00139171
vt 0.16792130 -0.00187135
vt 0.39193499 0.08511555
vt -0.09386688 0.33936346
vt 0.14867496 0.29322648
vt 0.02668756 0.16061115
vt 0.25959370 0.38499838
vt 0.29295921 0.38443786
vt 0.00652301 0.20187783
vt 0.04648411 0.00574404
vt 0.84025902 0.25835478
vt 0.83840525 0.19525707
vt 0.66498196 0.01961380
vt 0.43113947 0.00945169
vt -0.02851808 0.01366359
vt 0.11842066 0.38452196
vt 0.17930830 0.38391137
vt 0.37102157 0.00568467
vt 0.32928872 0.00447303
vt -0.03242809 0.40362865
vt 0.01070410 0.39603227
vt 0.08402479 0.38968980
vt 0.73634779 0.02372152
vt 0.64231890 0.39736277
vt 0.70294374 0.40158510
vt 1.82829177 0.36745548
vt 1.77757490 0.40709943
vt 1.91515839 0.40615857
vt 1.89959109 0.36572295
vt 1.77798021 0.30874997
vt 1.74707592 0.36862880
vt 1.92906463 0.32516116
vt 1.87418234 0.27238733
vt 2.02768636 0.40832055
vt 1.75684607 0.24722368
vt 2.14015269 0.33034676
vt 2.09921598 0.33541101
vt 2.10355496 0.37102985
vt 2.09971333 0.09097636
vt 2.07182002 0.16308063
vt 2.11384106 0.17233747
vt 2.36243701 0.30057323
vt 2.39116812 0.30131459
vt 2.35113668 0.26336259
vt 1.94431841 0.24276227
vt 2.00990176 0.24901706
vt 1.96026456 0.20871729
vt 1.99789488 0.08350372
vt 1.97055757 0.13904858
vt 2.02016735 0.15774286
vt 2.20377040 0.25218964
vt 2.28753972 0.25638342
vt 2.23002958 0.20968372
vt 1.87772429 0.08243179
vt 1.83738244 0.16554844
vt 1.89999068 0.16747820
vt 1.92609274 0.20832300
vt 1.93218982 0.16689843
vt 2.10651374 0.21269602
vt 1.98425734 0.32495707
vt 2.13444400 0.41055822
vt 1.93054831 0.10206449
vt 1.91032755 0.01090568
vt 2.00907946 0.01148897
vt 2.33450627 0.35983700
vt 2.13891816 0.17072970
vt 2.19013071 0.16975075
vt 1.79589474 0.08354360
vt 2.18111253 0.09295106
vt 2.21479869 0.01578170
vt 2.10783482 0.01419443
vt 2.30898333 0.28985715
vt 2.29146695 0.36830467
vt 2.03220606 0.20725495
vt 2.06356478 0.25650585
vt 2.21414876 0.29391873
vt 2.17086506 0.25150335
vt 2.24560857 0.16781205
vt 2.26572514 0.10736209
vt 2.09848285 0.25260806
vt 2.29195523 0.20548481
vt 1.95929587 0.16693050
vt 2.14791274 0.20811880
vt 2.19347048 0.21109104
vt 2.32550597 0.23739994
vt 2.24015164 0.40777528
vt 2.36746478 0.40065151
vt 1.80510604 0.01288611
vt 2.14451051 0.26943767
vt 2.24599552 0.05416363
vt 1.86020076 0.24320149
vt 1.84522545 0.21295768
vt 2.23238969 0.32915837
vt 1.54963052 0.32887417
vt 1.60598266 0.33011252
vt 1.58002710 0.28435278
vt 1.71211517 0.20602590
vt 1.69833910 0.16660607
vt 1.66421509 0.20895571
vt 1.56282914 0.36373013
vt 1.64603150 0.36943060
vt 1.77030528 0.09613603
vt 1.70142090 0.12012738
vt 1.60199511 0.04893714
vt 1.69236171 0.01313359
vt 1.58925462 0.01203066
vt 1.31152141 0.09884167
vt 1.27381527 0.06960469
vt 1.75410688 0.16907734
vt 1.64745438 0.16262871
vt 1.63031375 0.20328754
vt 1.49771583 0.12595940
vt 1.47343135 0.16641778
vt 1.52809024 0.20644540
vt 1.43906963 0.33004612
vt 1.49019778 0.31696069
vt 1.48471284 0.25977981
vt 1.56391180 0.01531178
vt 1.58701348 0.10455745
vt 1.57089937 0.20095313
vt 1.34829915 0.20294654
vt 1.51294982 0.08102387
vt 1.53751075 0.02163583
vt 1.48043668 0.02275115
vt 1.45703268 0.22776234
vt 1.48727429 0.20057088
vt 1.37417531 0.07309669
vt 1.69949043 0.29728925
vt 1.66297781 0.29845101
vt 1.44789946 0.16602498
vt 1.42703080 0.17127979
vt 1.37922180 0.02234405
vt 1.34942007 0.13392282
vt 1.39576387 0.16510302
vt 1.37608564 0.11909515
vt 1.52284276 0.11620766
vt 1.40928590 0.25172079
vt 1.31391478 0.13715649
vt 1.78317583 0.16931576
vt 1.63511765 0.24667335
vt 1.58450449 0.24881870
vt 1.67867196 0.40796590
vt 1.63743007 0.30993968
vt 1.72061646 0.25377429
vt 1.67199647 0.24848956
vt 1.43565238 0.12938702
vt 1.53267515 0.40544307
vt 1.59151459 0.40718710
vt 1.40984237 0.28131127
vt 1.39555490 0.20655733
vt 1.53105032 0.24557441
vt 2.43670106 0.20529729
vt 2.40131307 0.17661577
vt 2.36534333 0.20589578
vt 2.32524610 0.16122168
vt 2.38639736 0.13687462
vt 2.44667339 0.24280035
vt 2.40347075 0.10313416
vt 2.45742297 0.01374215
vt 2.29883361 0.13600576
vt 2.31501055 0.07761949
vt 2.44547582 0.09214342
vt 2.42439294 0.01164407
vt 2.39824009 0.04582649
vt -0.13134134 0.37773007
vt -0.12440377 0.41822100
vt -0.08624095 0.41331971
vt -0.39558041 0.10894006
vt -0.36931658 0.03577775
vt -0.40407038 0.03473014
vt -0.63219452 0.36138374
vt -0.66278958 0.40369684
vt -0.53433323 0.40812397
vt -0.44789779 0.27388096
vt -0.42645133 0.34860379
vt -0.38367069 0.27352208
vt -0.61733890 0.44622344
vt -0.55853105 0.44743222
vt -0.50152469 0.31948459
vt -0.50215626 0.36557108
vt -0.35825658 0.19474244
vt -0.32609558 0.11472577
vt -0.15783870 0.12698328
vt -0.66886997 0.22918671
vt -0.65029693 0.19158751
vt -0.69152546 0.18792623
vt -0.24318516 0.39784801
vt -0.17973471 0.42978257
vt -0.59870386 0.36669153
vt -0.44397438 0.40844363
vt -0.47513664 0.07317573
vt -0.45722318 0.03197128
vt -0.49115944 0.03149098
vt -0.37624693 0.31894708
vt -0.38105261 0.23448163
vt -0.39470530 0.19458431
vt -0.32094574 0.27240658
vt -0.31818056 0.23237544
vt -0.30096936 0.18898797
vt -0.55153251 0.23137569
vt -0.52549982 0.19480711
vt -0.57516193 0.19001526
vt -0.53547907 0.27102184
vt -0.47418976 0.23184186
vt -0.55687928 0.27115375
vt -0.47321355 0.19249445
vt -0.26983202 0.26904756
vt -0.24943292 0.23847574
vt -0.29289961 0.23207521
vt -0.55567193 0.36557263
vt -0.49313569 0.10744512
vt -0.59534311 0.23060882
vt -0.60392046 0.19107288
vt -0.12182879 0.02383476
vt -0.15628290 0.02704674
vt -0.31679058 0.31412989
vt -0.26174796 0.31383640
vt -0.18549609 0.07227570
vt -0.06400770 0.01720387
vt -0.21245742 0.03150970
vt -0.49196529 0.27614385
vt -0.24057877 0.27002388
vt -0.40891230 0.23628050
vt -0.44840169 0.19920403
vt -0.29458416 0.08994162
vt -0.52834153 0.44662195
vt -0.20437884 0.22436595
vt -0.17919230 0.22267461
vt -0.19573998 0.18615043
vt -0.13613796 0.21771562
vt -0.16835451 0.26091504
vt -0.09891027 0.21222514
vt -0.13334215 0.17835802
vt -0.11735058 0.25822306
vt -0.28642976 0.03588551
vt -0.31608093 0.03696293
vt -0.06360042 0.20587558
vt -0.27326095 0.12233478
vt -0.24007714 0.07270247
vt -0.36155188 0.40628564
vt -0.65870738 0.27185374
vt -0.62657142 0.22781682
vt -0.67995572 0.11192977
vt -0.58602047 0.07052785
vt -0.69339991 0.08669466
vt -0.65730786 0.03358632
vt -0.71980858 0.03770918
vt -0.54657316 0.03060299
vt -0.58103204 0.02908260
vt -0.55222845 0.11601728
vt -0.25257111 0.17440271
vt -0.59989357 0.31620663
vt -0.54825282 0.31725091
vt -0.62612581 0.19210023
vt -0.62811041 0.11116296
vt -0.46958327 0.44820833
vt -0.43641806 0.44731110
vt -0.37873435 0.44575971
vt -0.34355903 0.44342750
vt -0.59335232 0.10799521
vt -0.66714168 0.32383955
vt -0.17076480 0.31245542
vt -0.18131280 0.34981650
vt -0.21332788 0.18303752
vt -0.60734296 0.27258742
vt -0.57928729 0.27066678
vt -0.26204693 0.35802346
vt -0.24946713 0.43796784
vt -0.21013808 0.43400520
vt -0.45013392 0.23451793
vt -0.30655754 0.40195769
vt -0.28532314 0.35989827
vt -0.19660723 0.30740535
vt -0.19922554 0.26537937
vt -1.10181153 0.27960265
vt -1.10846269 0.24123609
vt -1.14897072 0.29709285
vt -1.10610974 0.34868813
vt -1.13317096 0.40478069
vt -1.19562423 0.32956952
vt -1.04382312 0.33391136
vt -1.06393349 0.40617806
vt -0.98400319 0.40586990
vt -0.75916505 0.40418386
vt -0.84972239 0.39915818
vt -0.81471848 0.44171840
vt -0.69590330 0.27174133
vt -0.72734618 0.23197341
vt -0.81315303 0.08380568
vt -0.79873943 0.04465455
vt -0.83320689 0.04712027
vt -0.95318747 0.23133206
vt -0.89420414 0.24063993
vt -0.94792795 0.19712186
vt -1.18367946 0.27653569
vt -1.20293629 0.44595957
vt -1.14967835 0.44543225
vt -0.91535473 0.40338689
vt -0.94874644 0.44448251
vt -0.89763451 0.44265795
vt -0.91580963 0.28924990
vt -0.98386872 0.27097267
vt -0.89771605 0.19742423
vt -0.73291802 0.19001114
vt -0.74921751 0.17028606
vt -0.79542637 0.35369414
vt -0.86628747 0.44051856
vt -0.79770350 0.19732362
vt -0.77510571 0.15208709
vt -0.80377483 0.13835305
vt -1.10561311 0.19628847
vt -1.07521403 0.20028895
vt -1.10428631 0.16404742
vt -1.01757491 0.13143343
vt -1.11701548 0.12202263
vt -0.80099440 0.27291286
vt -0.77476048 0.36073798
vt -0.74965954 0.27455461
vt -1.07565439 0.27591342
vt -0.96606731 0.40336609
vt -0.90284586 0.08942384
vt -0.89752889 0.05067915
vt -0.92714453 0.05191261
vt -0.78908372 0.23182154
vt -0.72790408 0.27319092
vt -0.84317183 0.23350823
vt -1.03840077 0.23543662
vt -1.00942743 0.19985461
vt -0.83493686 0.19399965
vt -0.97250891 0.15615338
vt -1.01083553 0.08767116
vt -0.86285496 0.12620223
vt -1.12245405 0.44488168
vt -1.07074797 0.44694936
vt -0.97815907 0.05314964
vt -1.00481045 0.05204970
vt -1.03393376 0.28340083
vt -1.00968778 0.32141370
vt -1.04202688 0.05342263
vt -1.26607358 0.40159065
vt -0.86319208 0.27661783
vt -0.88262868 0.34423977
vt -0.85198832 0.31686926
vt -0.90999889 0.12389374
vt -0.74352694 0.35668343
vt -1.03313839 0.44754863
vt -0.72623444 0.35808545
vt -0.72681665 0.31676078
vt -0.74767303 0.04155368
vt -1.07216609 0.05431837
vt -0.69942260 0.44375771
vt -0.64701676 0.44435328
vt -0.78340602 0.44176406
vt -0.73107243 0.44329685
vt -2.32424593 0.00196105
vt -2.21286821 -0.01687598
vt -2.25741673 -0.02421570
vt -2.12719727 0.03421229
vt -2.09095001 0.00121194
vt -2.13455963 -0.00612164
vt -1.29636896 0.11650503
vt -1.29453123 0.15274662
vt -1.26329434 0.15956551
vt -1.28022063 0.22942621
vt -1.23331606 0.19348484
vt -1.29317272 0.19275260
vt -1.34512639 0.19289219
vt -1.53646016 0.22425926
vt -1.51220584 0.27973658
vt -1.50949073 0.22458643
vt -1.47818732 0.34982628
vt -1.42605281 0.35002816
vt -1.45091319 0.30579680
vt -1.74457908 0.07601851
vt -1.75826812 0.03785020
vt -1.81259227 0.03446609
vt -1.23358142 0.08675730
vt -1.32369828 0.07972306
vt -1.49312043 0.29628241
vt -1.35383916 0.23000181
vt -1.38291192 0.19199347
vt -1.42148948 0.22751039
vt -1.31999993 0.28551632
vt -1.13809073 0.08907205
vt -1.58536792 0.07689404
vt -1.58367515 0.03840166
vt -1.64821649 0.07586706
vt -1.56916881 0.11179805
vt -1.52453208 0.09558874
vt -1.34159684 0.03987008
vt -1.37852216 0.04164416
vt -1.61723113 0.17843884
vt -1.40578294 0.04184943
vt -1.20804226 0.27706367
vt -1.23444164 0.28935593
vt -1.23053706 0.15265381
vt -1.18882978 0.15586251
vt -1.31629348 0.40603346
vt -1.33504128 0.44165093
vt -1.30657756 0.44174409
vt -1.42224002 0.26583362
vt -2.32748890 0.04816908
vt -2.13329983 0.09033680
vt -1.68566489 0.22286588
vt -1.67273402 0.16558087
vt -1.71548915 0.21276134
vt -1.80494428 0.07821500
vt -1.33492303 0.15331066
vt -1.64166474 0.21806908
vt -1.63887858 0.18096024
vt -1.66560721 0.21588427
vt -1.61917281 0.26398641
vt -1.61884475 0.21799171
vt -1.53253102 0.18200302
vt -1.71327281 0.14208990
vt -1.95099711 0.05814070
vt -1.97303867 0.01800770
vt -2.03313828 0.01087445
vt -1.38383842 0.11865526
vt -1.42702794 0.19173914
vt -1.37804484 0.16253680
vt -1.47992492 0.11672926
vt -1.68972993 0.03940719
vt -1.85110688 0.16571361
vt -1.75566125 0.17987460
vt -1.92499375 0.02396446
vt -1.31513762 0.37321883
vt -1.29101765 0.34531635
vt -1.31624818 0.31266218
vt -1.59476447 0.17871881
vt -1.38733792 0.39603847
vt -1.40718389 0.43880951
vt -1.37507033 0.44022852
vt -1.23966348 0.44430989
vt -1.22250593 0.04791898
vt -1.25108445 0.04551214
vt -1.30751157 0.04072636
vt -1.33426642 0.10892701
vt -1.37705636 0.27020383
vt -1.53128028 0.34474498
vt -1.49842238 0.16478515
vt -1.46622539 0.03794700
vt -1.37852550 0.35925961
vt -1.23657739 0.22962987
vt -1.27011883 0.27192658
vt -1.46284842 0.18640202
vt -1.55661273 0.27145952
vt -1.59607530 0.21901071
vt -2.04357815 0.11004698
vt -1.12290657 0.05221123
vt -1.65549159 0.03880793
vt -1.20649374 0.23515749
vt -1.84896827 0.03227812
vt -2.32125187 -0.03563833
vt -1.95675874 0.10020274
vt -1.59781814 0.26231015
vt -1.72848105 0.03873819
vt -1.15704334 0.05112761
vt -1.49235415 0.03837472
vt -1.54778981 0.03847700
vt -1.55982137 0.32570446
vt -1.75924802 0.32240039
vt -1.84574962 0.33078772
vt -1.77028346 0.37533122
vt -1.75291276 0.28373736
vt -1.76124787 0.21052814
vt -1.83084607 0.21105957
vt -1.58913684 0.33867806
vt -1.71943355 0.33593744
vt -1.69127345 0.32191181
vt -1.87996125 0.36962938
vt -1.51543450 0.38574487
vt -1.66201997 0.28944534
vt -1.51492047 0.42548752
vt -1.47750831 0.43167293
vt -1.65875411 0.34421521
vt -1.66425538 0.37529492
vt -1.86106038 0.27509654
vt -1.82753015 0.41133481
vt -1.76970506 0.41303104
vt -1.72973132 0.41530013
vt -1.58118367 0.38517898
vt -1.58295035 0.42136103
vt -1.55412841 0.42305726
vt -1.67270494 0.41685289
vt -1.63923955 0.41848487
vt -2.18420362 0.17115748
vt -2.16388130 0.13600773
vt -2.26380682 0.12003911
vt -1.93289542 0.24814022
vt -1.85642791 0.21137506
vt -1.95191216 0.20174164
vt -1.93147016 0.16319156
vt -2.03962040 0.31551665
vt -1.99031353 0.24000055
vt -2.04104471 0.23686361
vt -2.27496052 0.19907063
vt -2.25579643 0.24328649
vt -2.17312670 0.20668173
vt -2.35133362 0.33253974
vt -2.33795309 0.18505067
vt -2.33173513 0.10718477
vt -1.99039793 0.19710356
vt -2.03760386 0.19137156
vt -2.01867151 0.14735383
vt -2.27796745 0.15759742
vt -1.87677646 0.32958192
vt -2.13611889 0.32406580
vt -2.13149500 0.37431222
vt -2.05420017 0.38978237
vt -1.91982102 0.40514243
vt -1.85862565 0.40949917
vt -2.06515169 0.18750530
vt -2.15927124 0.17341101
vt -2.13694000 0.28371477
vt -2.21659517 0.36378413
vt -2.26326513 0.35579437
vt -2.02162790 0.39454776
vt -1.95441222 0.40263647
vt -2.33458233 0.14614820
vt 3.72360134 0.12221235
vt 3.72019339 0.07705611
vt 3.34731412 -0.02122080
vt 3.56884003 0.01962262
vt 3.48879242 -0.01775837
vt 3.71679688 -0.02589273
vt 3.60166693 -0.01971555
vt 3.39052200 -0.01742494
vt 3.71824408 0.01485366
vt 0.90025592 0.02669495
vt 1.00545430 0.42346102
vt 1.17411256 0.02360195
vt 1.79546750 0.24969649
vt 1.80295980 0.28293109
vt 1.81061327 0.21119374
vt 1.75662458 0.20768934
vt 1.27683389 0.02128965
vt -0.12739158 0.29429662
vt -0.28758514 0.44103879
vt -0.24954414 0.03395039
vt -0.98129070 0.44650704
vt -1.08027852 0.23765218
vt -2.19101095 0.36721641
f 1/1 2/2 3/3
f 4/4 5/5 6/6
f 7/7 8/8 9/9
f 10/10 11/11 12/12
f 1/1 13/13 14/14
f 15/15 16/16 17/17
f 14/14 18/18 19/19
f 20/20 16/16 15/15
f 21/21 22/22 23/23
f 24/24 25/25 26/26
f 27/27 28/28 21/21
f 29/29 30/30 31/31
f 32/32 33/33 34/34
f 35/35 3/3 33/33
f 36/36 35/35 37/37
f 13/13 3/3 35/35
f 38/38 4/4 39/39
f 4/4 6/6 40/40
f 41/41 42/42 43/43
f 1/1 44/44 2/2
f 45/45 37/37 46/46
f 47/47 48/48 49/49
f 39/39 4/4 40/40
f 28/28 50/50 22/22
f 13/13 1/1 3/3
f 51/51 52/52 53/53
f 51/51 53/53 7/7
f 54/54 55/55 56/56
f 57/57 58/58 59/59
f 60/60 61/61 43/43
f 62/62 45/45 16/16
f 63/63 35/35 36/36
f 27/27 15/15 28/28
f 49/49 60/60 64/64
f 65/65 66/66 1/1
f 13/13 67/67 14/14
f 1/1 66/66 44/44
f 68/68 47/47 69/69
f 65/65 1/1 70/70
f 70/70 71/71 72/72
f 73/73 74/74 18/18
f 75/75 76/76 77/77
f 10/10 12/12 78/78
f 71/71 14/14 79/79
f 67/67 13/13 35/35
f 27/27 21/21 10/10
f 80/80 73/73 36/36
f 81/81 82/82 11/11
f 83/83 34/34 57/57
f 68/68 69/69 24/24
f 84/84 85/85 86/86
f 68/68 26/26 87/87
f 83/83 57/57 59/59
f 47/47 88/88 69/69
f 89/89 51/51 58/58
f 3/3 89/89 33/33
f 35/35 32/32 90/90
f 35/35 90/90 91/91
f 81/81 21/21 92/92
f 90/90 34/34 41/41
f 21/21 28/28 22/22
f 27/27 20/20 15/15
f 20/20 62/62 16/16
f 92/92 21/21 23/23
f 27/27 10/10 93/93
f 93/93 78/78 94/94
f 43/43 61/61 41/41
f 43/43 42/42 38/38
f 69/69 95/95 24/24
f 63/63 67/67 35/35
f 60/60 46/46 61/61
f 96/96 97/97 17/17
f 98/98 26/26 85/85
f 20/20 93/93 75/75
f 83/83 59/59 99/99
f 53/53 100/100 101/101
f 71/71 102/102 72/72
f 67/67 63/63 14/14
f 21/21 81/81 10/10
f 74/74 103/103 75/75
f 74/74 75/75 18/18
f 75/75 77/77 104/104
f 20/20 75/75 62/62
f 42/42 4/4 38/38
f 59/59 7/7 99/99
f 29/29 31/31 105/105
f 39/39 40/40 106/106
f 62/62 107/107 45/45
f 16/16 45/45 46/46
f 108/108 61/61 46/46
f 36/36 73/73 63/63
f 46/46 96/96 16/16
f 91/91 90/90 41/41
f 90/90 32/32 34/34
f 89/89 109/109 51/51
f 37/37 91/91 108/108
f 110/110 87/87 98/98
f 22/22 98/98 23/23
f 14/14 19/19 111/111
f 71/71 79/79 102/102
f 1/1 14/14 71/71
f 109/109 52/52 51/51
f 52/52 56/56 53/53
f 107/107 112/112 45/45
f 42/42 41/41 34/34
f 113/113 114/114 110/110
f 62/62 75/75 103/103
f 18/18 115/115 19/19
f 1/1 71/71 70/70
f 50/50 110/110 22/22
f 10/10 78/78 93/93
f 93/93 94/94 75/75
f 27/27 93/93 20/20
f 17/17 113/113 15/15
f 15/15 113/113 50/50
f 99/99 116/116 5/5
f 44/44 54/54 117/117
f 96/96 46/46 97/97
f 44/44 117/117 109/109
f 49/49 48/48 97/97
f 17/17 16/16 96/96
f 33/33 57/57 34/34
f 108/108 41/41 61/61
f 47/47 87/87 48/48
f 35/35 33/33 32/32
f 99/99 118/118 116/116
f 119/119 92/92 84/84
f 99/99 120/120 118/118
f 55/55 121/121 56/56
f 46/46 37/37 108/108
f 108/108 91/91 41/41
f 37/37 35/35 91/91
f 2/2 44/44 109/109
f 109/109 117/117 52/52
f 84/84 92/92 85/85
f 98/98 87/87 26/26
f 22/22 110/110 98/98
f 14/14 122/122 79/79
f 11/11 123/123 12/12
f 81/81 11/11 10/10
f 63/63 18/18 14/14
f 110/110 114/114 87/87
f 50/50 113/113 110/110
f 75/75 94/94 76/76
f 113/113 48/48 114/114
f 83/83 99/99 4/4
f 49/49 64/64 29/29
f 38/38 39/39 30/30
f 7/7 53/53 101/101
f 7/7 101/101 8/8
f 42/42 83/83 4/4
f 4/4 99/99 5/5
f 64/64 38/38 30/30
f 30/30 124/124 31/31
f 68/68 87/87 47/47
f 29/29 105/105 47/47
f 81/81 119/119 82/82
f 87/87 114/114 48/48
f 42/42 34/34 83/83
f 56/56 100/100 53/53
f 45/45 36/36 37/37
f 81/81 92/92 119/119
f 64/64 30/30 29/29
f 14/14 111/111 125/125
f 63/63 73/73 18/18
f 14/14 125/125 122/122
f 28/28 15/15 50/50
f 24/24 26/26 68/68
f 49/49 97/97 60/60
f 47/47 105/105 88/88
f 60/60 97/97 46/46
f 49/49 29/29 47/47
f 126/126 127/127 128/128
f 66/66 129/129 130/130
f 131/131 132/132 133/133
f 134/134 121/121 133/133
f 135/135 133/133 121/121
f 56/56 121/121 100/100
f 136/136 137/137 138/138
f 139/139 140/140 141/141
f 136/136 138/138 140/140
f 66/66 130/130 55/55
f 135/135 121/121 55/55
f 130/130 135/135 55/55
f 142/142 127/127 143/143
f 139/139 65/65 136/136
f 144/144 139/139 145/145
f 145/145 139/139 141/141
f 139/139 146/146 129/129
f 65/65 70/70 136/136
f 70/70 72/72 147/147
f 65/65 129/129 66/66
f 129/129 148/148 130/130
f 139/139 136/136 140/140
f 139/139 144/144 146/146
f 100/100 121/121 134/134
f 145/145 141/141 149/149
f 135/135 131/131 133/133
f 150/150 132/132 131/131
f 143/143 127/127 126/126
f 148/148 150/150 131/131
f 65/65 139/139 129/129
f 151/151 152/152 153/153
f 154/154 155/155 156/156
f 157/157 158/158 159/159
f 160/160 161/161 162/162
f 163/163 164/164 161/161
f 156/156 165/165 158/158
f 166/166 167/167 168/168
f 167/167 169/169 168/168
f 170/170 171/171 166/166
f 172/172 160/160 173/173
f 173/173 174/174 175/175
f 176/176 172/172 151/151
f 166/166 151/151 167/167
f 172/172 152/152 151/151
f 171/171 177/177 163/163
f 168/168 169/169 178/178
f 172/172 176/176 160/160
f 173/173 160/160 174/174
f 178/178 155/155 179/179
f 177/177 171/171 170/170
f 170/170 166/166 178/178
f 178/178 169/169 155/155
f 180/180 177/177 179/179
f 180/180 179/179 181/181
f 151/151 153/153 167/167
f 167/167 182/182 169/169
f 167/167 153/153 182/182
f 183/183 172/172 173/173
f 165/165 169/169 182/182
f 176/176 151/151 166/166
f 156/156 158/158 157/157
f 156/156 169/169 165/165
f 184/184 177/177 180/180
f 185/185 186/186 187/187
f 166/166 168/168 178/178
f 172/172 188/188 152/152
f 171/171 176/176 166/166
f 160/160 163/163 161/161
f 160/160 162/162 174/174
f 154/154 156/156 157/157
f 172/172 183/183 188/188
f 156/156 155/155 169/169
f 189/189 190/190 191/191
f 192/192 193/193 194/194
f 195/195 196/196 197/197
f 198/198 199/199 200/200
f 190/190 201/201 202/202
f 203/203 199/199 204/204
f 205/205 201/201 190/190
f 206/206 207/207 208/208
f 206/206 209/209 207/207
f 210/210 211/211 212/212
f 179/179 213/213 181/181
f 204/204 214/214 215/215
f 216/216 217/217 218/218
f 219/219 217/217 216/216
f 220/220 201/201 205/205
f 221/221 222/222 223/223
f 194/194 224/224 220/220
f 225/225 209/209 206/206
f 226/226 227/227 225/225
f 228/228 229/229 230/230
f 231/231 195/195 197/197
f 232/232 212/212 229/229
f 233/233 232/232 228/228
f 234/234 235/235 236/236
f 237/237 238/238 239/239
f 240/240 241/241 234/234
f 242/242 234/234 243/243
f 200/200 203/203 244/244
f 245/245 246/246 238/238
f 200/200 244/244 247/247
f 154/154 157/157 248/248
f 246/246 216/216 249/249
f 238/238 246/246 249/249
f 250/250 220/220 251/251
f 250/250 194/194 220/220
f 252/252 251/251 253/253
f 199/199 214/214 204/204
f 246/246 221/221 216/216
f 254/254 255/255 256/256
f 257/257 258/258 259/259
f 257/257 260/260 258/258
f 257/257 261/261 262/262
f 257/257 263/263 261/261
f 264/264 265/265 266/266
f 213/213 154/154 248/248
f 154/154 213/213 155/155
f 195/195 267/267 196/196
f 239/239 268/268 269/269
f 201/201 208/208 202/202
f 216/216 270/270 249/249
f 257/257 233/233 271/271
f 272/272 200/200 247/247
f 273/273 274/274 275/275
f 234/234 241/241 235/235
f 209/209 211/211 210/210
f 196/196 181/181 276/276
f 226/226 277/277 230/230
f 254/254 278/278 255/255
f 195/195 279/279 280/280
f 195/195 280/280 267/267
f 204/204 215/215 281/281
f 203/203 204/204 244/244
f 282/282 214/214 199/199
f 280/280 283/283 284/284
f 201/201 206/206 208/208
f 285/285 212/212 286/286
f 212/212 287/287 286/286
f 242/242 288/288 240/240
f 233/233 257/257 289/289
f 285/285 286/286 287/287
f 221/221 223/223 216/216
f 231/231 197/197 290/290
f 197/197 276/276 291/291
f 276/276 222/222 221/221
f 292/292 293/293 294/294
f 184/184 180/180 267/267
f 267/267 180/180 196/196
f 237/237 295/295 296/296
f 297/297 298/298 299/299
f 300/300 298/298 297/297
f 301/301 250/250 302/302
f 303/303 304/304 305/305
f 253/253 304/304 303/303
f 253/253 189/189 304/304
f 216/216 218/218 270/270
f 189/189 191/191 304/304
f 278/278 273/273 275/275
f 223/223 248/248 219/219
f 306/306 303/303 298/298
f 261/261 226/226 307/307
f 219/219 308/308 217/217
f 179/179 155/155 213/213
f 309/309 310/310 242/242
f 216/216 223/223 219/219
f 310/310 311/311 288/288
f 228/228 271/271 233/233
f 289/289 309/309 243/243
f 243/243 309/309 242/242
f 263/263 277/277 226/226
f 209/209 210/210 207/207
f 214/214 312/312 313/313
f 214/214 313/313 314/314
f 273/273 214/214 282/282
f 273/273 312/312 214/214
f 214/214 314/314 215/215
f 312/312 273/273 278/278
f 195/195 231/231 279/279
f 184/184 267/267 280/280
f 263/263 226/226 261/261
f 307/307 193/193 261/261
f 261/261 315/315 262/262
f 264/264 266/266 301/301
f 310/310 255/255 311/311
f 255/255 278/278 311/311
f 242/242 240/240 234/234
f 254/254 256/256 312/312
f 200/200 199/199 203/203
f 223/223 213/213 248/248
f 223/223 222/222 213/213
f 192/192 266/266 261/261
f 298/298 305/305 299/299
f 293/293 265/265 264/264
f 191/191 316/316 304/304
f 291/291 221/221 246/246
f 247/247 317/317 272/272
f 246/246 245/245 317/317
f 275/275 274/274 318/318
f 319/319 320/320 321/321
f 319/319 241/241 320/320
f 320/320 322/322 321/321
f 285/285 323/323 324/324
f 323/323 325/325 326/326
f 327/327 322/322 320/320
f 311/311 318/318 327/327
f 318/318 295/295 322/322
f 196/196 180/180 181/181
f 181/181 213/213 222/222
f 276/276 181/181 222/222
f 197/197 196/196 276/276
f 243/243 234/234 236/236
f 202/202 328/328 329/329
f 285/285 324/324 330/330
f 243/243 233/233 289/289
f 242/242 310/310 288/288
f 228/228 232/232 229/229
f 294/294 293/293 264/264
f 254/254 312/312 278/278
f 302/302 264/264 301/301
f 292/292 331/331 293/293
f 300/300 306/306 298/298
f 250/250 301/301 332/332
f 333/333 253/253 303/303
f 253/253 205/205 189/189
f 232/232 287/287 212/212
f 230/230 229/229 227/227
f 229/229 212/212 211/211
f 226/226 230/230 227/227
f 225/225 227/227 209/209
f 208/208 324/324 202/202
f 261/261 334/334 335/335
f 207/207 210/210 330/330
f 193/193 307/307 194/194
f 307/307 226/226 225/225
f 302/302 251/251 252/252
f 252/252 253/253 333/333
f 220/220 224/224 201/201
f 298/298 303/303 305/305
f 294/294 252/252 336/336
f 261/261 335/335 315/315
f 291/291 276/276 221/221
f 290/290 197/197 291/291
f 306/306 333/333 303/303
f 190/190 202/202 191/191
f 205/205 190/190 189/189
f 208/208 207/207 324/324
f 304/304 316/316 337/337
f 305/305 304/304 337/337
f 192/192 332/332 266/266
f 332/332 301/301 266/266
f 319/319 321/321 323/323
f 311/311 278/278 318/318
f 278/278 275/275 318/318
f 318/318 274/274 295/295
f 338/338 339/339 274/274
f 327/327 318/318 322/322
f 240/240 327/327 320/320
f 240/240 320/320 241/241
f 323/323 340/340 325/325
f 324/324 326/326 341/341
f 305/305 337/337 342/342
f 266/266 343/343 344/344
f 324/324 345/345 346/346
f 265/265 347/347 348/348
f 266/266 349/349 343/343
f 331/331 265/265 293/293
f 323/323 350/350 340/340
f 323/323 326/326 324/324
f 324/324 341/341 345/345
f 235/235 241/241 319/319
f 247/247 246/246 317/317
f 323/323 235/235 319/319
f 322/322 237/237 321/321
f 295/295 237/237 322/322
f 257/257 262/262 260/260
f 255/255 310/310 256/256
f 257/257 259/259 309/309
f 310/310 309/309 256/256
f 289/289 257/257 309/309
f 207/207 330/330 324/324
f 250/250 251/251 302/302
f 256/256 351/351 352/352
f 193/193 192/192 261/261
f 353/353 354/354 355/355
f 356/356 353/353 355/355
f 357/357 358/358 353/353
f 356/356 359/359 360/360
f 353/353 356/356 360/360
f 356/356 355/355 361/361
f 353/353 358/358 354/354
f 358/358 357/357 362/362
f 363/363 364/364 365/365
f 366/366 367/367 368/368
f 369/369 370/370 371/371
f 372/372 373/373 374/374
f 375/375 376/376 377/377
f 378/378 379/379 380/380
f 381/381 382/382 383/383
f 384/384 385/385 383/383
f 386/386 368/368 367/367
f 364/364 387/387 365/365
f 365/365 361/361 388/388
f 389/389 375/375 390/390
f 375/375 366/366 391/391
f 372/372 374/374 384/384
f 82/82 392/392 11/11
f 360/360 359/359 372/372
f 383/383 385/385 389/389
f 366/366 393/393 394/394
f 389/389 390/390 381/381
f 395/395 382/382 381/381
f 396/396 397/397 398/398
f 82/82 370/370 392/392
f 392/392 399/399 400/400
f 370/370 369/369 392/392
f 387/387 359/359 356/356
f 373/373 401/401 374/374
f 392/392 369/369 371/371
f 400/400 365/365 388/388
f 387/387 364/364 402/402
f 403/403 378/378 404/404
f 405/405 406/406 396/396
f 364/364 407/407 402/402
f 368/368 393/393 366/366
f 366/366 394/394 396/396
f 375/375 391/391 390/390
f 387/387 373/373 372/372
f 403/403 399/399 379/379
f 387/387 402/402 373/373
f 387/387 356/356 365/365
f 380/380 408/408 405/405
f 401/401 409/409 374/374
f 403/403 379/379 378/378
f 389/389 376/376 375/375
f 399/399 392/392 371/371
f 410/410 394/394 393/393
f 378/378 380/380 411/411
f 380/380 405/405 394/394
f 379/379 408/408 380/380
f 379/379 412/412 408/408
f 400/400 413/413 414/414
f 400/400 388/388 413/413
f 395/395 381/381 415/415
f 381/381 390/390 415/415
f 366/366 398/398 391/391
f 402/402 407/407 386/386
f 416/416 403/403 404/404
f 396/396 406/406 417/417
f 396/396 417/417 397/397
f 366/366 396/396 398/398
f 416/416 404/404 410/410
f 396/396 394/394 405/405
f 401/401 377/377 409/409
f 376/376 409/409 377/377
f 418/418 384/384 419/419
f 381/381 383/383 389/389
f 418/418 360/360 384/384
f 360/360 372/372 384/384
f 410/410 411/411 394/394
f 411/411 380/380 394/394
f 359/359 387/387 372/372
f 399/399 420/420 400/400
f 392/392 400/400 414/414
f 365/365 356/356 361/361
f 420/420 399/399 403/403
f 421/421 422/422 423/423
f 424/424 425/425 426/426
f 422/422 427/427 428/428
f 429/429 395/395 430/430
f 431/431 432/432 433/433
f 158/158 434/434 435/435
f 429/429 430/430 436/436
f 426/426 437/437 438/438
f 430/430 425/425 436/436
f 439/439 440/440 441/441
f 442/442 443/443 444/444
f 430/430 395/395 431/431
f 431/431 433/433 445/445
f 446/446 447/447 438/438
f 152/152 448/448 153/153
f 449/449 450/450 451/451
f 395/395 415/415 432/432
f 158/158 435/435 159/159
f 452/452 444/444 453/453
f 434/434 454/454 435/435
f 421/421 443/443 185/185
f 455/455 456/456 428/428
f 452/452 457/457 458/458
f 449/449 459/459 454/454
f 165/165 434/434 158/158
f 460/460 461/461 462/462
f 439/439 463/463 449/449
f 460/460 462/462 434/434
f 188/188 464/464 152/152
f 465/465 460/460 434/434
f 439/439 441/441 463/463
f 436/436 466/466 429/429
f 423/423 467/467 468/468
f 422/422 467/467 423/423
f 358/358 428/428 469/469
f 442/442 444/444 452/452
f 422/422 470/470 467/467
f 463/463 447/447 446/446
f 455/455 471/471 472/472
f 437/437 425/425 430/430
f 434/434 462/462 454/454
f 443/443 442/442 185/185
f 153/153 465/465 182/182
f 473/473 439/439 449/449
f 456/456 470/470 428/428
f 470/470 422/422 428/428
f 449/449 451/451 459/459
f 455/455 362/362 471/471
f 185/185 187/187 474/474
f 446/446 437/437 431/431
f 428/428 427/427 475/475
f 422/422 421/421 427/427
f 421/421 185/185 427/427
f 426/426 425/425 437/437
f 431/431 395/395 432/432
f 165/165 182/182 434/434
f 442/442 186/186 185/185
f 188/188 476/476 464/464
f 463/463 441/441 447/447
f 458/458 461/461 477/477
f 443/443 478/478 444/444
f 464/464 452/452 458/458
f 464/464 458/458 477/477
f 455/455 428/428 358/358
f 456/456 455/455 472/472
f 182/182 465/465 434/434
f 453/453 441/441 440/440
f 421/421 423/423 443/443
f 431/431 437/437 430/430
f 358/358 469/469 354/354
f 428/428 475/475 469/469
f 473/473 458/458 457/457
f 446/446 438/438 437/437
f 455/455 358/358 362/362
f 479/479 480/480 481/481
f 481/481 480/480 482/482
f 479/479 86/86 483/483
f 370/370 82/82 484/484
f 485/485 86/86 25/25
f 486/486 24/24 95/95
f 370/370 484/484 371/371
f 406/406 487/487 488/488
f 485/485 483/483 86/86
f 487/487 408/408 482/482
f 371/371 484/484 481/481
f 479/479 483/483 480/480
f 412/412 371/371 481/481
f 412/412 481/481 482/482
f 489/489 490/490 491/491
f 484/484 479/479 481/481
f 489/489 25/25 24/24
f 488/488 485/485 491/491
f 488/488 491/491 490/490
f 489/489 485/485 25/25
f 485/485 489/489 491/491
f 417/417 488/488 397/397
f 489/489 24/24 486/486
f 488/488 490/490 397/397
f 489/489 486/486 490/490
f 408/408 412/412 482/482
f 406/406 488/488 417/417
f 492/492 493/493 494/494
f 495/495 496/496 497/497
f 498/498 499/499 500/500
f 501/501 502/502 503/503
f 500/500 504/504 505/505
f 506/506 507/507 502/502
f 508/508 509/509 495/495
f 510/510 300/300 297/297
f 511/511 512/512 513/513
f 514/514 515/515 492/492
f 498/498 500/500 516/516
f 507/507 500/500 517/517
f 518/518 519/519 520/520
f 502/502 521/521 503/503
f 522/522 508/508 523/523
f 524/524 525/525 522/522
f 525/525 526/526 508/508
f 527/527 528/528 529/529
f 530/530 531/531 527/527
f 530/530 527/527 532/532
f 531/531 533/533 528/528
f 534/534 535/535 536/536
f 537/537 516/516 500/500
f 528/528 533/533 538/538
f 539/539 529/529 540/540
f 299/299 541/541 542/542
f 534/534 543/543 544/544
f 510/510 299/299 545/545
f 299/299 546/546 541/541
f 545/545 542/542 547/547
f 521/521 543/543 524/524
f 527/527 531/531 528/528
f 523/523 508/508 495/495
f 530/530 548/548 531/531
f 534/534 549/549 535/535
f 550/550 523/523 551/551
f 509/509 552/552 495/495
f 500/500 505/505 553/553
f 538/538 495/495 518/518
f 503/503 522/522 550/550
f 554/554 555/555 556/556
f 555/555 557/557 556/556
f 558/558 557/557 555/555
f 557/557 559/559 560/560
f 561/561 559/559 557/557
f 552/552 562/562 563/563
f 292/292 564/564 559/559
f 565/565 566/566 552/552
f 502/502 567/567 521/521
f 568/568 569/569 511/511
f 523/523 495/495 538/538
f 570/570 571/571 572/572
f 572/572 573/573 574/574
f 521/521 524/524 503/503
f 571/571 575/575 576/576
f 577/577 538/538 571/571
f 521/521 567/567 543/543
f 539/539 527/527 529/529
f 526/526 578/578 565/565
f 579/579 498/498 516/516
f 580/580 537/537 500/500
f 530/530 580/580 506/506
f 525/525 536/536 526/526
f 503/503 524/524 522/522
f 522/522 525/525 508/508
f 550/550 522/522 523/523
f 571/571 576/576 573/573
f 538/538 518/518 571/571
f 512/512 581/581 582/582
f 569/569 581/581 512/512
f 511/511 569/569 512/512
f 517/517 583/583 584/584
f 567/567 585/585 586/586
f 587/587 577/577 571/571
f 582/582 587/587 571/571
f 588/588 498/498 579/579
f 513/513 512/512 570/570
f 589/589 590/590 492/492
f 508/508 526/526 509/509
f 570/570 582/582 571/571
f 551/551 523/523 533/533
f 526/526 565/565 552/552
f 591/591 510/510 545/545
f 533/533 523/523 538/538
f 510/510 297/297 299/299
f 592/592 579/579 593/593
f 506/506 548/548 530/530
f 543/543 534/534 524/524
f 556/556 510/510 591/591
f 560/560 300/300 510/510
f 594/594 514/514 590/590
f 331/331 492/492 265/265
f 590/590 514/514 492/492
f 492/492 515/515 493/493
f 514/514 595/595 596/596
f 514/514 596/596 515/515
f 556/556 560/560 510/510
f 532/532 580/580 530/530
f 566/566 591/591 545/545
f 545/545 299/299 542/542
f 592/592 569/569 568/568
f 592/592 539/539 569/569
f 540/540 529/529 587/587
f 292/292 559/559 561/561
f 561/561 557/557 558/558
f 529/529 577/577 587/587
f 512/512 582/582 570/570
f 581/581 587/587 582/582
f 557/557 560/560 556/556
f 581/581 540/540 587/587
f 528/528 538/538 577/577
f 572/572 571/571 573/573
f 529/529 528/528 577/577
f 597/597 550/550 551/551
f 543/543 598/598 599/599
f 543/543 567/567 598/598
f 534/534 544/544 549/549
f 554/554 556/556 591/591
f 502/502 507/507 517/517
f 600/600 590/590 589/589
f 593/593 539/539 592/592
f 526/526 552/552 509/509
f 549/549 554/554 535/535
f 567/567 502/502 517/517
f 601/601 554/554 549/549
f 513/513 570/570 572/572
f 602/602 603/603 604/604
f 604/604 605/605 602/602
f 606/606 605/605 604/604
f 607/607 606/606 604/604
f 608/608 609/609 610/610
f 611/611 612/612 613/613
f 605/605 606/606 609/609
f 614/614 511/511 615/615
f 615/615 511/511 513/513
f 616/616 617/617 618/618
f 619/619 620/620 621/621
f 622/622 604/604 603/603
f 606/606 623/623 624/624
f 625/625 626/626 627/627
f 628/628 619/619 629/629
f 620/620 630/630 621/621
f 628/628 620/620 619/619
f 631/631 513/513 632/632
f 612/612 611/611 633/633
f 612/612 634/634 613/613
f 635/635 636/636 637/637
f 638/638 639/639 640/640
f 639/639 641/641 642/642
f 643/643 644/644 645/645
f 605/605 609/609 646/646
f 647/647 625/625 628/628
f 648/648 649/649 650/650
f 645/645 615/615 651/651
f 645/645 652/652 615/615
f 620/620 653/653 630/630
f 654/654 619/619 655/655
f 615/615 513/513 631/631
f 614/614 615/615 652/652
f 619/619 621/621 655/655
f 653/653 656/656 630/630
f 651/651 632/632 635/635
f 645/645 651/651 643/643
f 641/641 657/657 658/658
f 659/659 637/637 616/616
f 636/636 572/572 616/616
f 606/606 624/624 660/660
f 606/606 660/660 661/661
f 648/648 662/662 658/658
f 655/655 657/657 641/641
f 658/658 662/662 663/663
f 664/664 608/608 665/665
f 658/658 663/663 666/666
f 665/665 647/647 629/629
f 665/665 608/608 610/610
f 607/607 667/667 606/606
f 668/668 669/669 670/670
f 667/667 623/623 606/606
f 630/630 659/659 671/671
f 645/645 644/644 672/672
f 609/609 606/606 661/661
f 609/609 661/661 673/673
f 647/647 626/626 625/625
f 659/659 616/616 648/648
f 669/669 625/625 612/612
f 630/630 656/656 659/659
f 614/614 588/588 568/568
f 672/672 674/674 675/675
f 614/614 568/568 511/511
f 616/616 676/676 617/617
f 657/657 648/648 658/658
f 657/657 671/671 648/648
f 648/648 650/650 662/662
f 656/656 635/635 637/637
f 656/656 637/637 659/659
f 655/655 621/621 657/657
f 658/658 666/666 677/677
f 499/499 678/678 679/679
f 671/671 659/659 648/648
f 637/637 636/636 616/616
f 657/657 621/621 671/671
f 610/610 647/647 665/665
f 664/664 665/665 629/629
f 669/669 612/612 670/670
f 629/629 647/647 628/628
f 602/602 605/605 646/646
f 643/643 633/633 644/644
f 640/640 639/639 642/642
f 628/628 625/625 669/669
f 628/628 669/669 668/668
f 621/621 630/630 671/671
f 635/635 632/632 636/636
f 670/670 612/612 633/633
f 588/588 674/674 499/499
f 498/498 588/588 499/499
f 611/611 613/613 680/680
f 674/674 611/611 499/499
f 674/674 672/672 611/611
f 632/632 513/513 572/572
f 644/644 611/611 672/672
f 633/633 611/611 644/644
f 632/632 572/572 636/636
f 639/639 655/655 641/641
f 611/611 680/680 681/681
f 675/675 674/674 588/588
f 682/682 683/683 684/684
f 685/685 686/686 687/687
f 688/688 689/689 690/690
f 691/691 692/692 693/693
f 691/691 693/693 694/694
f 695/695 696/696 697/697
f 698/698 699/699 700/700
f 701/701 702/702 703/703
f 688/688 704/704 705/705
f 706/706 697/697 696/696
f 707/707 708/708 709/709
f 691/691 694/694 707/707
f 710/710 691/691 707/707
f 711/711 658/658 677/677
f 712/712 713/713 714/714
f 715/715 716/716 712/712
f 705/705 717/717 718/718
f 712/712 714/714 719/719
f 705/705 718/718 720/720
f 607/607 622/622 721/721
f 722/722 607/607 721/721
f 723/723 692/692 724/724
f 725/725 726/726 727/727
f 700/700 699/699 728/728
f 729/729 730/730 682/682
f 731/731 732/732 733/733
f 724/724 711/711 704/704
f 724/724 704/704 723/723
f 701/701 703/703 734/734
f 735/735 694/694 689/689
f 736/736 737/737 738/738
f 739/739 740/740 736/736
f 715/715 741/741 716/716
f 742/742 733/733 732/732
f 714/714 732/732 737/737
f 732/732 738/738 737/737
f 689/689 694/694 693/693
f 743/743 744/744 745/745
f 746/746 747/747 748/748
f 747/747 746/746 749/749
f 747/747 708/708 748/748
f 714/714 750/750 701/701
f 734/734 751/751 752/752
f 743/743 753/753 744/744
f 754/754 755/755 756/756
f 715/715 757/757 741/741
f 758/758 759/759 760/760
f 667/667 761/761 623/623
f 704/704 762/762 763/763
f 688/688 723/723 704/704
f 705/705 764/764 717/717
f 765/765 688/688 705/705
f 699/699 766/766 728/728
f 746/746 748/748 765/765
f 767/767 706/706 696/696
f 716/716 768/768 749/749
f 749/749 746/746 769/769
f 770/770 710/710 699/699
f 771/771 692/692 691/691
f 772/772 691/691 710/710
f 697/697 773/773 768/768
f 774/774 695/695 775/775
f 695/695 741/741 775/775
f 775/775 741/741 757/757
f 685/685 745/745 686/686
f 776/776 743/743 685/685
f 765/765 705/705 746/746
f 708/708 694/694 748/748
f 716/716 741/741 768/768
f 699/699 710/710 766/766
f 749/749 768/768 773/773
f 749/749 773/773 747/747
f 722/722 667/667 607/607
f 724/724 640/640 642/642
f 714/714 737/737 719/719
f 701/701 752/752 742/742
f 711/711 677/677 777/777
f 714/714 713/713 778/778
f 746/746 705/705 769/769
f 779/779 603/603 692/692
f 622/622 603/603 779/779
f 603/603 638/638 692/692
f 705/705 720/720 769/769
f 622/622 779/779 721/721
f 779/779 692/692 771/771
f 730/730 685/685 682/682
f 685/685 687/687 683/683
f 734/734 703/703 780/780
f 682/682 684/684 781/781
f 782/782 743/743 776/776
f 776/776 685/685 730/730
f 734/734 743/743 782/782
f 685/685 683/683 682/682
f 754/754 725/725 755/755
f 774/774 775/775 783/783
f 731/731 738/738 732/732
f 701/701 750/750 784/784
f 701/701 784/784 702/702
f 711/711 777/777 785/785
f 748/748 735/735 765/765
f 706/706 700/700 728/728
f 698/698 700/700 706/706
f 709/709 708/708 747/747
f 743/743 745/745 685/685
f 728/728 766/766 709/709
f 707/707 694/694 708/708
f 766/766 707/707 709/709
f 786/786 787/787 716/716
f 766/766 710/710 707/707
f 714/714 778/778 750/750
f 742/742 714/714 701/701
f 742/742 752/752 733/733
f 755/755 725/725 667/667
f 734/734 752/752 701/701
f 742/742 732/732 714/714
f 690/690 692/692 723/723
f 622/622 607/607 604/604
f 688/688 690/690 723/723
f 755/755 722/722 772/772
f 770/770 699/699 758/758
f 734/734 782/782 751/751
f 755/755 667/667 722/722
f 788/788 767/767 696/696
f 694/694 735/735 748/748
f 724/724 642/642 711/711
f 712/712 757/757 715/715
f 719/719 757/757 712/712
f 789/789 790/790 791/791
f 792/792 793/793 794/794
f 739/739 795/795 783/783
f 796/796 797/797 731/731
f 790/790 798/798 791/791
f 792/792 796/796 731/731
f 706/706 767/767 799/799
f 789/789 796/796 792/792
f 698/698 706/706 799/799
f 733/733 752/752 793/793
f 800/800 738/738 731/731
f 699/699 799/799 758/758
f 799/799 801/801 802/802
f 795/795 774/774 783/783
f 795/795 788/788 774/774
f 803/803 739/739 800/800
f 797/797 800/800 731/731
f 803/803 797/797 804/804
f 790/790 789/789 805/805
f 791/791 806/806 807/807
f 796/796 789/789 791/791
f 791/791 807/807 808/808
f 739/739 803/803 804/804
f 809/809 810/810 811/811
f 788/788 795/795 809/809
f 699/699 698/698 799/799
f 797/797 803/803 800/800
f 804/804 812/812 813/813
f 814/814 815/815 816/816
f 817/817 818/818 819/819
f 818/818 820/820 819/819
f 821/821 822/822 823/823
f 824/824 825/825 826/826
f 782/782 820/820 751/751
f 827/827 825/825 828/828
f 821/821 805/805 817/817
f 826/826 814/814 824/824
f 794/794 793/793 751/751
f 816/816 729/729 829/829
f 822/822 830/830 831/831
f 830/830 832/832 831/831
f 824/824 814/814 833/833
f 834/834 790/790 805/805
f 818/818 751/751 820/820
f 817/817 805/805 818/818
f 835/835 836/836 837/837
f 798/798 838/838 839/839
f 821/821 835/835 798/798
f 826/826 840/840 841/841
f 840/840 832/832 815/815
f 842/842 843/843 835/835
f 840/840 831/831 832/832
f 823/823 831/831 840/840
f 834/834 821/821 798/798
f 843/843 827/827 844/844
f 823/823 822/822 831/831
f 821/821 834/834 805/805
f 828/828 825/825 824/824
f 826/826 825/825 842/842
f 825/825 843/843 842/842
f 814/814 816/816 833/833
f 751/751 793/793 752/752
f 821/821 842/842 835/835
f 835/835 837/837 845/845
f 790/790 834/834 798/798
f 805/805 794/794 818/818
f 794/794 751/751 818/818
f 821/821 817/817 822/822
f 798/798 846/846 838/838
f 825/825 827/827 843/843
f 824/824 847/847 828/828
f 824/824 833/833 847/847
f 833/833 816/816 847/847
f 847/847 816/816 829/829
f 826/826 841/841 814/814
f 823/823 840/840 826/826
f 840/840 815/815 841/841
f 814/814 841/841 815/815
f 128/128 848/848 849/849
f 127/127 848/848 128/128
f 101/101 850/850 8/8
f 132/132 128/128 134/134
f 101/101 851/851 852/852
f 851/851 853/853 854/854
f 133/133 132/132 134/134
f 101/101 852/852 855/855
f 101/101 855/855 850/850
f 849/849 856/856 851/851
f 851/851 856/856 853/853
f 134/134 849/849 851/851
f 851/851 854/854 852/852
f 134/134 128/128 849/849
f 55/55 54/54 44/44
f 55/55 44/44 66/66
f 84/84 484/484 82/82
f 84/84 82/82 119/119
f 86/86 479/479 484/484
f 86/86 484/484 84/84
f 25/25 86/86 85/85
f 25/25 85/85 26/26
f 7/7 59/59 58/58
f 7/7 58/58 51/51
f 36/36 45/45 112/112
f 36/36 112/112 80/80
f 104/104 115/115 18/18
f 104/104 18/18 75/75
f 58/58 57/57 33/33
f 58/58 33/33 89/89
f 109/109 89/89 3/3
f 109/109 3/3 2/2
f 43/43 38/38 64/64
f 43/43 64/64 60/60
f 56/56 52/52 117/117
f 56/56 117/117 54/54
f 98/98 85/85 92/92
f 98/98 92/92 23/23
f 48/48 113/113 17/17
f 48/48 17/17 97/97
f 9/9 120/120 99/99
f 9/9 99/99 7/7
f 124/124 30/30 39/39
f 124/124 39/39 106/106
f 131/131 135/135 130/130
f 131/131 130/130 148/148
f 147/147 137/137 136/136
f 147/147 136/136 70/70
f 132/132 150/150 126/126
f 132/132 126/126 128/128
f 126/126 150/150 148/148
f 126/126 148/148 143/143
f 144/144 142/142 143/143
f 144/144 143/143 146/146
f 143/143 148/148 129/129
f 143/143 129/129 146/146
f 178/178 179/179 177/177
f 178/178 177/177 170/170
f 284/284 164/164 163/163
f 284/284 163/163 280/280
f 175/175 187/187 186/186
f 175/175 186/186 173/173
f 163/163 160/160 176/176
f 163/163 176/176 171/171
f 173/173 186/186 442/442
f 173/173 442/442 183/183
f 280/280 163/163 177/177
f 280/280 177/177 184/184
f 476/476 188/188 183/183
f 476/476 183/183 442/442
f 336/336 564/564 292/292
f 336/336 292/292 294/294
f 306/306 300/300 564/564
f 306/306 564/564 336/336
f 857/857 268/268 239/239
f 857/857 239/239 238/238
f 205/205 253/253 251/251
f 205/205 251/251 220/220
f 290/290 247/247 244/244
f 290/290 244/244 231/231
f 333/333 306/306 336/336
f 333/333 336/336 252/252
f 352/352 313/313 312/312
f 352/352 312/312 256/256
f 351/351 256/256 309/309
f 351/351 309/309 259/259
f 349/349 266/266 265/265
f 349/349 265/265 348/348
f 198/198 273/273 282/282
f 198/198 282/282 199/199
f 270/270 857/857 238/238
f 270/270 238/238 249/249
f 858/858 283/283 280/280
f 858/858 280/280 279/279
f 198/198 338/338 274/274
f 198/198 274/274 273/273
f 212/212 285/285 330/330
f 212/212 330/330 210/210
f 327/327 240/240 288/288
f 327/327 288/288 311/311
f 344/344 334/334 261/261
f 344/344 261/261 266/266
f 329/329 316/316 191/191
f 329/329 191/191 202/202
f 200/200 272/272 338/338
f 200/200 338/338 198/198
f 342/342 546/546 299/299
f 342/342 299/299 305/305
f 281/281 858/858 279/279
f 281/281 279/279 204/204
f 204/204 279/279 231/231
f 204/204 231/231 244/244
f 232/232 233/233 243/243
f 232/232 243/243 236/236
f 159/159 219/219 248/248
f 159/159 248/248 157/157
f 308/308 219/219 159/159
f 308/308 159/159 859/859
f 245/245 238/238 237/237
f 245/245 237/237 296/296
f 235/235 323/323 285/285
f 235/235 285/285 287/287
f 291/291 246/246 247/247
f 291/291 247/247 290/290
f 287/287 232/232 236/236
f 287/287 236/236 235/235
f 209/209 227/227 229/229
f 209/209 229/229 211/211
f 302/302 252/252 294/294
f 302/302 294/294 264/264
f 271/271 277/277 263/263
f 271/271 263/263 257/257
f 228/228 230/230 277/277
f 228/228 277/277 271/271
f 194/194 250/250 332/332
f 194/194 332/332 192/192
f 225/225 224/224 194/194
f 225/225 194/194 307/307
f 206/206 201/201 224/224
f 206/206 224/224 225/225
f 339/339 338/338 272/272
f 339/339 272/272 317/317
f 239/239 323/323 321/321
f 239/239 321/321 237/237
f 269/269 350/350 323/323
f 269/269 323/323 239/239
f 295/295 274/274 339/339
f 295/295 339/339 296/296
f 296/296 339/339 317/317
f 296/296 317/317 245/245
f 346/346 328/328 202/202
f 346/346 202/202 324/324
f 860/860 362/362 357/357
f 860/860 357/357 861/861
f 418/418 860/860 861/861
f 418/418 861/861 360/360
f 862/862 863/863 362/362
f 862/862 362/362 860/860
f 862/862 860/860 418/418
f 862/862 418/418 419/419
f 360/360 861/861 357/357
f 360/360 357/357 353/353
f 365/365 400/400 420/420
f 365/365 420/420 363/363
f 416/416 407/407 364/364
f 416/416 364/364 363/363
f 412/412 379/379 399/399
f 412/412 399/399 371/371
f 403/403 416/416 363/363
f 403/403 363/363 420/420
f 411/411 410/410 404/404
f 411/411 404/404 378/378
f 367/367 366/366 375/375
f 367/367 375/375 377/377
f 385/385 384/384 374/374
f 385/385 374/374 409/409
f 410/410 386/386 407/407
f 410/410 407/407 416/416
f 408/408 487/487 406/406
f 408/408 406/406 405/405
f 466/466 862/862 419/419
f 466/466 419/419 382/382
f 386/386 401/401 373/373
f 386/386 373/373 402/402
f 414/414 123/123 11/11
f 414/414 11/11 392/392
f 393/393 368/368 386/386
f 393/393 386/386 410/410
f 382/382 419/419 384/384
f 382/382 384/384 383/383
f 367/367 377/377 401/401
f 367/367 401/401 386/386
f 409/409 376/376 389/389
f 409/409 389/389 385/385
f 449/449 463/463 446/446
f 449/449 446/446 431/431
f 440/440 439/439 473/473
f 440/440 473/473 457/457
f 864/864 435/435 454/454
f 864/864 454/454 459/459
f 859/859 159/159 435/435
f 859/859 435/435 864/864
f 440/440 457/457 452/452
f 440/440 452/452 453/453
f 450/450 449/449 431/431
f 450/450 431/431 445/445
f 477/477 448/448 152/152
f 477/477 152/152 464/464
f 460/460 448/448 477/477
f 460/460 477/477 461/461
f 465/465 153/153 448/448
f 465/465 448/448 460/460
f 472/472 467/467 470/470
f 472/472 470/470 456/456
f 382/382 395/395 429/429
f 382/382 429/429 466/466
f 426/426 438/438 467/467
f 426/426 467/467 472/472
f 424/424 426/426 472/472
f 424/424 472/472 471/471
f 449/449 454/454 462/462
f 449/449 462/462 473/473
f 447/447 441/441 478/478
f 447/447 478/478 468/468
f 441/441 453/453 444/444
f 441/441 444/444 478/478
f 468/468 478/478 443/443
f 468/468 443/443 423/423
f 438/438 447/447 468/468
f 438/438 468/468 467/467
f 425/425 424/424 863/863
f 425/425 863/863 436/436
f 474/474 475/475 427/427
f 474/474 427/427 185/185
f 458/458 473/473 462/462
f 458/458 462/462 461/461
f 863/863 424/424 471/471
f 863/863 471/471 362/362
f 436/436 863/863 862/862
f 436/436 862/862 466/466
f 452/452 464/464 476/476
f 452/452 476/476 442/442
f 480/480 483/483 487/487
f 480/480 487/487 482/482
f 483/483 485/485 488/488
f 483/483 488/488 487/487
f 553/553 583/583 517/517
f 553/553 517/517 500/500
f 504/504 500/500 499/499
f 504/504 499/499 679/679
f 347/347 265/265 492/492
f 347/347 492/492 494/494
f 590/590 600/600 544/544
f 590/590 544/544 594/594
f 589/589 558/558 601/601
f 589/589 601/601 600/600
f 594/594 544/544 543/543
f 594/594 543/543 599/599
f 578/578 526/526 536/536
f 578/578 536/536 535/535
f 591/591 578/578 535/535
f 591/591 535/535 554/554
f 554/554 601/601 558/558
f 554/554 558/558 555/555
f 300/300 560/560 559/559
f 300/300 559/559 564/564
f 527/527 539/539 593/593
f 527/527 593/593 532/532
f 502/502 501/501 548/548
f 502/502 548/548 506/506
f 540/540 581/581 569/569
f 540/540 569/569 539/539
f 580/580 532/532 593/593
f 580/580 593/593 579/579
f 507/507 506/506 580/580
f 507/507 580/580 500/500
f 537/537 580/580 579/579
f 537/537 579/579 516/516
f 865/865 561/561 558/558
f 865/865 558/558 589/589
f 536/536 525/525 524/524
f 536/536 524/524 534/534
f 531/531 548/548 501/501
f 531/531 501/501 597/597
f 550/550 597/597 501/501
f 550/550 501/501 503/503
f 551/551 533/533 531/531
f 551/551 531/531 597/597
f 331/331 292/292 561/561
f 331/331 561/561 865/865
f 520/520 575/575 571/571
f 520/520 571/571 518/518
f 579/579 592/592 568/568
f 579/579 568/568 588/588
f 586/586 866/866 598/598
f 586/586 598/598 567/567
f 547/547 867/867 566/566
f 547/547 566/566 545/545
f 563/563 496/496 495/495
f 563/563 495/495 552/552
f 331/331 865/865 589/589
f 331/331 589/589 492/492
f 566/566 565/565 578/578
f 566/566 578/578 591/591
f 600/600 601/601 549/549
f 600/600 549/549 544/544
f 497/497 519/519 518/518
f 497/497 518/518 495/495
f 867/867 562/562 552/552
f 867/867 552/552 566/566
f 866/866 595/595 514/514
f 866/866 514/514 598/598
f 514/514 594/594 599/599
f 514/514 599/599 598/598
f 584/584 585/585 567/567
f 584/584 567/567 517/517
f 673/673 868/868 610/610
f 673/673 610/610 609/609
f 603/603 602/602 646/646
f 603/603 646/646 869/869
f 639/639 638/638 603/603
f 639/639 603/603 869/869
f 631/631 632/632 651/651
f 631/631 651/651 615/615
f 653/653 668/668 643/643
f 653/653 643/643 651/651
f 635/635 656/656 653/653
f 635/635 653/653 651/651
f 620/620 628/628 668/668
f 620/620 668/668 653/653
f 619/619 654/654 664/664
f 619/619 664/664 629/629
f 869/869 646/646 664/664
f 869/869 664/664 654/654
f 639/639 869/869 654/654
f 639/639 654/654 655/655
f 608/608 664/664 646/646
f 608/608 646/646 609/609
f 626/626 647/647 610/610
f 626/626 610/610 868/868
f 675/675 652/652 645/645
f 675/675 645/645 672/672
f 634/634 612/612 625/625
f 634/634 625/625 627/627
f 588/588 614/614 652/652
f 588/588 652/652 675/675
f 574/574 676/676 616/616
f 574/574 616/616 572/572
f 658/658 711/711 642/642
f 658/658 642/642 641/641
f 649/649 648/648 616/616
f 649/649 616/616 618/618
f 678/678 499/499 611/611
f 678/678 611/611 681/681
f 633/633 643/643 668/668
f 633/633 668/668 670/670
f 772/772 710/710 756/756
f 772/772 756/756 755/755
f 741/741 695/695 697/697
f 741/741 697/697 768/768
f 771/771 691/691 772/772
f 771/771 772/772 722/722
f 713/713 712/712 716/716
f 713/713 716/716 787/787
f 762/762 704/704 711/711
f 762/762 711/711 785/785
f 695/695 774/774 788/788
f 695/695 788/788 696/696
f 692/692 690/690 689/689
f 692/692 689/689 693/693
f 761/761 667/667 725/725
f 761/761 725/725 727/727
f 688/688 765/765 735/735
f 688/688 735/735 689/689
f 786/786 716/716 749/749
f 786/786 749/749 769/769
f 756/756 710/710 770/770
f 756/756 770/770 754/754
f 737/737 736/736 740/740
f 737/737 740/740 719/719
f 719/719 740/740 775/775
f 719/719 775/775 757/757
f 775/775 740/740 739/739
f 775/775 739/739 783/783
f 771/771 722/722 721/721
f 771/771 721/721 779/779
f 764/764 705/705 704/704
f 764/764 704/704 763/763
f 747/747 773/773 697/697
f 747/747 697/697 709/709
f 697/697 706/706 728/728
f 697/697 728/728 709/709
f 760/760 726/726 725/725
f 760/760 725/725 758/758
f 758/758 725/725 754/754
f 758/758 754/754 770/770
f 753/753 743/743 734/734
f 753/753 734/734 780/780
f 640/640 724/724 692/692
f 640/640 692/692 638/638
f 791/791 804/804 797/797
f 791/791 797/797 796/796
f 792/792 794/794 805/805
f 792/792 805/805 789/789
f 736/736 738/738 800/800
f 736/736 800/800 739/739
f 733/733 793/793 792/792
f 733/733 792/792 731/731
f 802/802 759/759 758/758
f 802/802 758/758 799/799
f 808/808 812/812 804/804
f 808/808 804/804 791/791
f 804/804 809/809 795/795
f 804/804 795/795 739/739
f 813/813 810/810 809/809
f 813/813 809/809 804/804
f 806/806 791/791 798/798
f 806/806 798/798 839/839
f 801/801 799/799 809/809
f 801/801 809/809 811/811
f 809/809 799/799 767/767
f 809/809 767/767 788/788
f 832/832 776/776 730/730
f 832/832 730/730 815/815
f 815/815 730/730 729/729
f 815/815 729/729 816/816
f 832/832 830/830 819/819
f 832/832 819/819 820/820
f 819/819 830/830 822/822
f 819/819 822/822 817/817
f 823/823 826/826 842/842
f 823/823 842/842 821/821
f 836/836 835/835 843/843
f 836/836 843/843 870/870
f 820/820 782/782 776/776
f 820/820 776/776 832/832
f 845/845 846/846 798/798
f 845/845 798/798 835/835
f 851/851 101/101 100/100
f 851/851 100/100 134/134

