# https://github.com/mikedh/trimesh
v -0.65499997 0.30199999 0.35736251
v -0.45500001 0.30199999 0.35736251
v -0.65499997 0.30199999 0.35736251
v -0.45500001 0.30199999 0.35736251
v -0.65499997 0.29706112 0.35796219
v -0.65499997 0.29240927 0.35972640
v -0.65499997 0.28831482 0.36255261
v -0.65499997 0.28501567 0.36627656
v -0.65499997 0.28270361 0.37068185
v -0.65499997 0.28151298 0.37551242
v -0.65499997 0.28151298 0.38048756
v -0.65499997 0.28270361 0.38531816
v -0.65499997 0.28501567 0.38972345
v -0.65499997 0.28831482 0.39344740
v -0.65499997 0.29240927 0.39627361
v -0.65499997 0.29706112 0.39803782
v -0.65499997 0.30199999 0.39863750
v -0.65499997 0.30693889 0.39803782
v -0.65499997 0.31159073 0.39627361
v -0.65499997 0.31568518 0.39344740
v -0.65499997 0.31898433 0.38972345
v -0.65499997 0.32129639 0.38531816
v -0.65499997 0.32248703 0.38048756
v -0.65499997 0.32248703 0.37551242
v -0.65499997 0.32129639 0.37068185
v -0.65499997 0.31898433 0.36627656
v -0.65499997 0.31568518 0.36255261
v -0.65499997 0.31159073 0.35972640
v -0.65499997 0.30693889 0.35796219
v -0.45499998 0.30693889 0.35796219
v -0.45499998 0.31159073 0.35972640
v -0.45499998 0.31568518 0.36255261
v -0.45499998 0.31898433 0.36627656
v -0.45499998 0.32129639 0.37068185
v -0.45499998 0.32248703 0.37551242
v -0.45499998 0.32248703 0.38048756
v -0.45499998 0.32129639 0.38531816
v -0.45499998 0.31898433 0.38972345
v -0.45499998 0.31568518 0.39344740
v -0.45499998 0.31159073 0.39627361
v -0.45499998 0.30693889 0.39803782
v -0.45499998 0.30199999 0.39863750
v -0.45499998 0.29706112 0.39803782
v -0.45499998 0.29240927 0.39627361
v -0.45499998 0.28831482 0.39344740
v -0.45499998 0.28501567 0.38972345
v -0.45499998 0.28270361 0.38531816
v -0.45499998 0.28151298 0.38048756
v -0.45499998 0.28151298 0.37551242
v -0.45499998 0.28270361 0.37068185
v -0.45499998 0.28501567 0.36627656
v -0.45499998 0.28831482 0.36255261
v -0.45499998 0.29240927 0.35972640
v -0.45499998 0.29706112 0.35796219
v -0.69499999 0.25500000 0.41299999
v -0.68721175 0.25500000 0.41212249
v -0.67981404 0.25500000 0.40953392
v -0.67317784 0.25500000 0.40536410
v -0.66763592 0.25500000 0.39982215
v -0.66346610 0.25500000 0.39318594
v -0.66087753 0.25500000 0.38578823
v -0.66000003 0.25500000 0.37799999
v -0.66087753 0.25500000 0.37021178
v -0.66346610 0.25500000 0.36281407
v -0.66763592 0.25500000 0.35617787
v -0.67317784 0.25500000 0.35063589
v -0.67981404 0.25500000 0.34646609
v -0.68721175 0.25500000 0.34387752
v -0.69499999 0.25500000 0.34299999
v -0.70499998 0.25500000 0.41299999
v -0.70499998 0.25500000 0.34299999
v -0.71278822 0.25500000 0.34387752
v -0.72018594 0.25500000 0.34646609
v -0.72682214 0.25500000 0.35063589
v -0.73236412 0.25500000 0.35617787
v -0.73653394 0.25500000 0.36281407
v -0.73912245 0.25500000 0.37021178
v -0.74000001 0.25500000 0.37799999
v -0.73912245 0.25500000 0.38578823
v -0.73653394 0.25500000 0.39318594
v -0.73236412 0.25500000 0.39982215
v -0.72682214 0.25500000 0.40536410
v -0.72018594 0.25500000 0.40953392
v -0.71278822 0.25500000 0.41212249
v -0.69499999 0.28000000 0.41299999
v -0.69499999 0.25500000 0.41299999
v -0.65499997 0.28000000 0.41299999
v -0.65499997 0.29499999 0.41299999
v -0.70499998 0.29499999 0.41299999
v -0.70499998 0.25500000 0.41299999
v -0.69499999 0.25500000 0.41299999
v -0.68721175 0.25500000 0.41212249
v -0.67981404 0.25500000 0.40953392
v -0.67317784 0.25500000 0.40536410
v -0.66763592 0.25500000 0.39982215
v -0.66346610 0.25500000 0.39318594
v -0.66087753 0.25500000 0.38578823
v -0.66000003 0.25500000 0.37799999
v -0.66087753 0.25500000 0.37021178
v -0.66346610 0.25500000 0.36281407
v -0.66763592 0.25500000 0.35617787
v -0.67317784 0.25500000 0.35063589
v -0.67981404 0.25500000 0.34646609
v -0.68721175 0.25500000 0.34387752
v -0.69499999 0.25500000 0.34299999
v -0.69499999 0.28000000 0.34299999
v -0.69499999 0.28000000 0.41299999
v -0.68721175 0.28000000 0.41212249
v -0.67981404 0.28000000 0.40953392
v -0.67317784 0.28000000 0.40536410
v -0.66763592 0.28000000 0.39982215
v -0.66346610 0.28000000 0.39318594
v -0.66087753 0.28000000 0.38578823
v -0.66000003 0.28000000 0.37799999
v -0.66087753 0.28000000 0.37021178
v -0.66346610 0.28000000 0.36281407
v -0.66763592 0.28000000 0.35617787
v -0.67317784 0.28000000 0.35063589
v -0.67981404 0.28000000 0.34646609
v -0.68721175 0.28000000 0.34387752
v -0.65499997 0.28000000 0.34299999
v -0.69499999 0.28000000 0.34299999
v -0.69499999 0.25500000 0.34299999
v -0.70499998 0.25500000 0.34299999
v -0.70499998 0.29499999 0.34299999
v -0.65499997 0.29499999 0.34299999
v -0.71187502 0.30187500 0.41231814
v -0.71902525 0.29758486 0.41006699
v -0.72553211 0.29368073 0.40634489
v -0.73099130 0.29040521 0.40144035
v -0.73525089 0.28784949 0.39560357
v -0.73798609 0.28620833 0.38970113
v -0.73958176 0.28525093 0.38339445
v -0.73998278 0.28501034 0.37690142
v -0.73917514 0.28549489 0.37044635
v -0.73718691 0.28668785 0.36425221
v -0.73408669 0.28854796 0.35853302
v -0.72998166 0.29101101 0.35348639
v -0.72501355 0.29399189 0.34928662
v -0.71935403 0.29738760 0.34607881
v -0.71568197 0.29959083 0.34466991
v -0.71187502 0.30187500 0.34368187
v -0.70001090 0.30899346 0.34591910
v -0.68920684 0.31547588 0.34961447
v -0.68048424 0.32070947 0.35425082
v -0.67379212 0.32472473 0.35952193
v -0.66911972 0.32752815 0.36508027
v -0.66658729 0.32904762 0.36989081
v -0.66531503 0.32981098 0.37436727
v -0.66500485 0.32999709 0.37845051
v -0.66540593 0.32975644 0.38212180
v -0.66644710 0.32913175 0.38574752
v -0.66811687 0.32812989 0.38928765
v -0.67039675 0.32676193 0.39270303
v -0.67434126 0.32439524 0.39699790
v -0.67992377 0.32104573 0.40137991
v -0.68901616 0.31559029 0.40630266
v -0.69990307 0.30905816 0.41005257
v -0.70499998 0.29499999 0.41299999
v -0.70672929 0.29672930 0.41295725
v -0.70845437 0.29845437 0.41282913
v -0.71017098 0.30017099 0.41261590
v -0.71187502 0.30187500 0.41231814
v -0.65499997 0.29499999 0.41299999
v -0.65499997 0.30278823 0.41212249
v -0.65499997 0.31018594 0.40953392
v -0.65499997 0.31682214 0.40536410
v -0.65499997 0.32236409 0.39982215
v -0.65499997 0.32653391 0.39318594
v -0.65499997 0.32912248 0.38578823
v -0.65499997 0.33000001 0.37799999
v -0.65499997 0.32912248 0.37021178
v -0.65499997 0.32653391 0.36281407
v -0.65499997 0.32236409 0.35617787
v -0.65499997 0.31682214 0.35063589
v -0.65499997 0.31018594 0.34646609
v -0.65499997 0.30278823 0.34387752
v -0.65499997 0.29499999 0.34299999
v -0.70499998 0.29499999 0.34299999
v -0.71187502 0.30187500 0.34368187
v -0.71017098 0.30017099 0.34338409
v -0.70845437 0.29845437 0.34317088
v -0.70672929 0.29672930 0.34304276
v -0.70001090 0.30899346 0.34591910
v -0.68920684 0.31547588 0.34961447
v -0.68048424 0.32070947 0.35425082
v -0.67379212 0.32472473 0.35952193
v -0.66911972 0.32752815 0.36508027
v -0.66658729 0.32904762 0.36989081
v -0.66531503 0.32981098 0.37436727
v -0.66500485 0.32999709 0.37845051
v -0.66540593 0.32975644 0.38212180
v -0.66644710 0.32913175 0.38574752
v -0.66811687 0.32812989 0.38928765
v -0.67039675 0.32676193 0.39270303
v -0.67434126 0.32439524 0.39699790
v -0.67992377 0.32104573 0.40137991
v -0.68901616 0.31559029 0.40630266
v -0.69990307 0.30905816 0.41005257
v -0.71187502 0.30187500 0.34368187
v -0.71017098 0.30017099 0.34338409
v -0.70845437 0.29845437 0.34317088
v -0.70672929 0.29672930 0.34304276
v -0.70499998 0.29499999 0.34299999
v -0.70499998 0.25500000 0.34299999
v -0.71278822 0.25500000 0.34387752
v -0.72018594 0.25500000 0.34646609
v -0.72682214 0.25500000 0.35063589
v -0.73236412 0.25500000 0.35617787
v -0.73653394 0.25500000 0.36281407
v -0.73912245 0.25500000 0.37021178
v -0.74000001 0.25500000 0.37799999
v -0.73912245 0.25500000 0.38578823
v -0.73653394 0.25500000 0.39318594
v -0.73236412 0.25500000 0.39982215
v -0.72682214 0.25500000 0.40536410
v -0.72018594 0.25500000 0.40953392
v -0.71278822 0.25500000 0.41212249
v -0.70499998 0.25500000 0.41299999
v -0.70499998 0.29499999 0.41299999
v -0.70672929 0.29672930 0.41295725
v -0.70845437 0.29845437 0.41282913
v -0.71017098 0.30017099 0.41261590
v -0.71187502 0.30187500 0.41231814
v -0.71902525 0.29758486 0.41006699
v -0.72553211 0.29368073 0.40634489
v -0.73099130 0.29040521 0.40144035
v -0.73525089 0.28784949 0.39560357
v -0.73798609 0.28620833 0.38970113
v -0.73958176 0.28525093 0.38339445
v -0.73998278 0.28501034 0.37690142
v -0.73917514 0.28549489 0.37044635
v -0.73718691 0.28668785 0.36425221
v -0.73408669 0.28854796 0.35853302
v -0.72998166 0.29101101 0.35348639
v -0.72501355 0.29399189 0.34928662
v -0.71935403 0.29738760 0.34607881
v -0.71568197 0.29959083 0.34466991
v -0.65499997 0.29499999 0.41299999
v -0.65499997 0.30278823 0.41212249
v -0.65499997 0.31018594 0.40953392
v -0.65499997 0.31682214 0.40536410
v -0.65499997 0.32236409 0.39982215
v -0.65499997 0.32653391 0.39318594
v -0.65499997 0.32912248 0.38578823
v -0.65499997 0.33000001 0.37799999
v -0.65499997 0.32912248 0.37021178
v -0.65499997 0.32653391 0.36281407
v -0.65499997 0.32236409 0.35617787
v -0.65499997 0.31682214 0.35063589
v -0.65499997 0.31018594 0.34646609
v -0.65499997 0.30278823 0.34387752
v -0.65499997 0.29499999 0.34299999
v -0.65499997 0.28000000 0.41299999
v -0.65499997 0.28000000 0.34299999
v -0.65499997 0.30199999 0.35736251
v -0.65499997 0.29706112 0.35796219
v -0.65499997 0.29240927 0.35972640
v -0.65499997 0.28831482 0.36255261
v -0.65499997 0.28501567 0.36627656
v -0.65499997 0.28270361 0.37068185
v -0.65499997 0.28151298 0.37551242
v -0.65499997 0.28151298 0.38048756
v -0.65499997 0.28270361 0.38531816
v -0.65499997 0.28501567 0.38972345
v -0.65499997 0.28831482 0.39344740
v -0.65499997 0.29240927 0.39627361
v -0.65499997 0.29706112 0.39803782
v -0.65499997 0.30199999 0.39863750
v -0.65499997 0.30693889 0.39803782
v -0.65499997 0.31159073 0.39627361
v -0.65499997 0.31568518 0.39344740
v -0.65499997 0.31898433 0.38972345
v -0.65499997 0.32129639 0.38531816
v -0.65499997 0.32248703 0.38048756
v -0.65499997 0.32248703 0.37551242
v -0.65499997 0.32129639 0.37068185
v -0.65499997 0.31898433 0.36627656
v -0.65499997 0.31568518 0.36255261
v -0.65499997 0.31159073 0.35972640
v -0.65499997 0.30693889 0.35796219
v -0.65499997 0.28000000 0.34299999
v -0.65499997 0.28000000 0.41299999
v -0.69499999 0.28000000 0.41299999
v -0.68721175 0.28000000 0.41212249
v -0.67981404 0.28000000 0.40953392
v -0.67317784 0.28000000 0.40536410
v -0.66763592 0.28000000 0.39982215
v -0.66346610 0.28000000 0.39318594
v -0.66087753 0.28000000 0.38578823
v -0.66000003 0.28000000 0.37799999
v -0.66087753 0.28000000 0.37021178
v -0.66346610 0.28000000 0.36281407
v -0.66763592 0.28000000 0.35617787
v -0.67317784 0.28000000 0.35063589
v -0.67981404 0.28000000 0.34646609
v -0.68721175 0.28000000 0.34387752
v -0.69499999 0.28000000 0.34299999
v -0.39500001 0.32499999 0.37799999
v -0.39108124 0.32477993 0.37799999
v -0.38721177 0.32412249 0.37799999
v -0.38344023 0.32303593 0.37799999
v -0.37981406 0.32153392 0.37799999
v -0.37317786 0.31736410 0.37799999
v -0.36763591 0.31182215 0.37799999
v -0.36346608 0.30518594 0.37799999
v -0.36087751 0.29778823 0.37799999
v -0.36000001 0.28999999 0.37799999
v -0.39500001 0.32477993 0.38191876
v -0.39500001 0.32412249 0.38578823
v -0.39500001 0.32303593 0.38955978
v -0.39500001 0.32153392 0.39318594
v -0.39500001 0.31736410 0.39982215
v -0.39500001 0.31182215 0.40536410
v -0.39500001 0.30518594 0.40953392
v -0.39500001 0.29778823 0.41212249
v -0.39500001 0.28999999 0.41299999
v -0.38721177 0.28999999 0.41212249
v -0.38344023 0.28999999 0.41103593
v -0.37981406 0.28999999 0.40953392
v -0.37637886 0.28999999 0.40763536
v -0.37317786 0.28999999 0.40536410
v -0.37025127 0.28999999 0.40274873
v -0.36763591 0.28999999 0.39982215
v -0.36536464 0.28999999 0.39662111
v -0.36346608 0.28999999 0.39318594
v -0.36196408 0.28999999 0.38955978
v -0.36087751 0.28999999 0.38578823
v -0.38754830 0.32403028 0.38137811
v -0.37993884 0.32110214 0.38355145
v -0.39162189 0.32403028 0.38545170
v -0.37287718 0.31630248 0.38461512
v -0.38426194 0.32153392 0.38873807
v -0.36700657 0.30987445 0.38480985
v -0.37706092 0.31724519 0.39068425
v -0.38944855 0.32110214 0.39306116
v -0.36284512 0.30220747 0.38448387
v -0.37071505 0.31132919 0.39142784
v -0.38231575 0.31724519 0.39593908
v -0.36073697 0.29381260 0.38404214
v -0.36583105 0.30409595 0.39124674
v -0.37565064 0.31182215 0.39734933
v -0.38838488 0.31630248 0.40012282
v -0.36286700 0.29598460 0.39051616
v -0.37012661 0.30506381 0.39747807
v -0.38157216 0.31132919 0.40228495
v -0.36630121 0.29733175 0.39664471
v -0.37552190 0.30506381 0.40287340
v -0.38819015 0.30987445 0.40599343
v -0.37087175 0.29778823 0.40212825
v -0.38175327 0.30409595 0.40716895
v -0.37635529 0.29733175 0.40669879
v -0.38851613 0.30220747 0.41015488
v -0.38248384 0.29598460 0.41013300
v -0.38895786 0.29381260 0.41226304
v -0.39500001 0.32499999 0.37799999
v -0.39108124 0.32477993 0.37799999
v -0.38721177 0.32412249 0.37799999
v -0.38344023 0.32303593 0.37799999
v -0.37981406 0.32153392 0.37799999
v -0.37317786 0.31736410 0.37799999
v -0.36763591 0.31182215 0.37799999
v -0.36346608 0.30518594 0.37799999
v -0.36087751 0.29778823 0.37799999
v -0.36000001 0.28999999 0.37799999
v -0.36087751 0.28999999 0.37021178
v -0.36196408 0.28999999 0.36644024
v -0.36346608 0.28999999 0.36281407
v -0.36536464 0.28999999 0.35937887
v -0.36763591 0.28999999 0.35617787
v -0.37025127 0.28999999 0.35325125
v -0.37317786 0.28999999 0.35063589
v -0.37637886 0.28999999 0.34836465
v -0.37981406 0.28999999 0.34646609
v -0.38344023 0.28999999 0.34496409
v -0.38721177 0.28999999 0.34387752
v -0.39500001 0.28999999 0.34299999
v -0.39500001 0.29778823 0.34387752
v -0.39500001 0.30518594 0.34646609
v -0.39500001 0.31182215 0.35063589
v -0.39500001 0.31736410 0.35617787
v -0.39500001 0.32153392 0.36281407
v -0.39500001 0.32303593 0.36644024
v -0.39500001 0.32412249 0.37021178
v -0.39500001 0.32477993 0.37408125
v -0.39162189 0.32403028 0.37054828
v -0.38944855 0.32110214 0.36293885
v -0.38754830 0.32403028 0.37462187
v -0.38838488 0.31630248 0.35587719
v -0.38426194 0.32153392 0.36726192
v -0.38819015 0.30987445 0.35000658
v -0.38231575 0.31724519 0.36006093
v -0.37993884 0.32110214 0.37244853
v -0.38851613 0.30220747 0.34584510
v -0.38157216 0.31132919 0.35371506
v -0.37706092 0.31724519 0.36531577
v -0.38895786 0.29381260 0.34373695
v -0.38175327 0.30409595 0.34883103
v -0.37565064 0.31182215 0.35865065
v -0.37287718 0.31630248 0.37138489
v -0.38248384 0.29598460 0.34586701
v -0.37552190 0.30506381 0.35312662
v -0.37071505 0.31132919 0.36457214
v -0.37635529 0.29733175 0.34930122
v -0.37012661 0.30506381 0.35852191
v -0.36700657 0.30987445 0.37119013
v -0.37087175 0.29778823 0.35387176
v -0.36583105 0.30409595 0.36475325
v -0.36630121 0.29733175 0.35935530
v -0.36284512 0.30220747 0.37151611
v -0.36286700 0.29598460 0.36548382
v -0.36073697 0.29381260 0.37195784
v -0.39500001 0.27000001 0.41299999
v -0.38721177 0.27000001 0.41212249
v -0.37981406 0.27000001 0.40953392
v -0.37317786 0.27000001 0.40536410
v -0.36763591 0.27000001 0.39982215
v -0.36346608 0.27000001 0.39318594
v -0.36087751 0.27000001 0.38578823
v -0.36000001 0.27000001 0.37799999
v -0.36087751 0.27000001 0.37021178
v -0.36346608 0.27000001 0.36281407
v -0.36763591 0.27000001 0.35617787
v -0.37317786 0.27000001 0.35063589
v -0.37981406 0.27000001 0.34646609
v -0.38721177 0.27000001 0.34387752
v -0.39500001 0.27000001 0.34299999
v -0.39500001 0.28999999 0.34299999
v -0.36000001 0.28999999 0.37799999
v -0.36087751 0.28999999 0.37021178
v -0.36196408 0.28999999 0.36644024
v -0.36346608 0.28999999 0.36281407
v -0.36536464 0.28999999 0.35937887
v -0.36763591 0.28999999 0.35617787
v -0.37025127 0.28999999 0.35325125
v -0.37317786 0.28999999 0.35063589
v -0.37637886 0.28999999 0.34836465
v -0.37981406 0.28999999 0.34646609
v -0.38344023 0.28999999 0.34496409
v -0.38721177 0.28999999 0.34387752
v -0.39500001 0.28999999 0.41299999
v -0.38721177 0.28999999 0.41212249
v -0.38344023 0.28999999 0.41103593
v -0.37981406 0.28999999 0.40953392
v -0.37637886 0.28999999 0.40763536
v -0.37317786 0.28999999 0.40536410
v -0.37025127 0.28999999 0.40274873
v -0.36763591 0.28999999 0.39982215
v -0.36536464 0.28999999 0.39662111
v -0.36346608 0.28999999 0.39318594
v -0.36196408 0.28999999 0.38955978
v -0.36087751 0.28999999 0.38578823
v -0.45499998 0.28999999 0.34299999
v -0.45499998 0.29778823 0.34387752
v -0.45499998 0.30518594 0.34646609
v -0.45499998 0.31182215 0.35063589
v -0.45499998 0.31736410 0.35617787
v -0.45499998 0.32153392 0.36281407
v -0.45499998 0.32412249 0.37021178
v -0.45499998 0.32499999 0.37799999
v -0.45499998 0.32412249 0.38578823
v -0.45499998 0.32153392 0.39318594
v -0.45499998 0.31736410 0.39982215
v -0.45499998 0.31182215 0.40536410
v -0.45499998 0.30518594 0.40953392
v -0.45499998 0.29778823 0.41212249
v -0.45499998 0.28999999 0.41299999
v -0.39500001 0.28999999 0.41299999
v -0.39500001 0.32499999 0.37799999
v -0.39500001 0.32477993 0.38191876
v -0.39500001 0.32412249 0.38578823
v -0.39500001 0.32303593 0.38955978
v -0.39500001 0.32153392 0.39318594
v -0.39500001 0.31736410 0.39982215
v -0.39500001 0.31182215 0.40536410
v -0.39500001 0.30518594 0.40953392
v -0.39500001 0.29778823 0.41212249
v -0.39500001 0.28999999 0.34299999
v -0.39500001 0.29778823 0.34387752
v -0.39500001 0.30518594 0.34646609
v -0.39500001 0.31182215 0.35063589
v -0.39500001 0.31736410 0.35617787
v -0.39500001 0.32153392 0.36281407
v -0.39500001 0.32303593 0.36644024
v -0.39500001 0.32412249 0.37021178
v -0.39500001 0.32477993 0.37408125
v -0.45499998 0.28999999 0.34299999
v -0.45499998 0.29778823 0.34387752
v -0.45499998 0.30518594 0.34646609
v -0.45499998 0.31182215 0.35063589
v -0.45499998 0.31736410 0.35617787
v -0.45499998 0.32153392 0.36281407
v -0.45499998 0.32412249 0.37021178
v -0.45499998 0.32499999 0.37799999
v -0.45499998 0.32412249 0.38578823
v -0.45499998 0.32153392 0.39318594
v -0.45499998 0.31736410 0.39982215
v -0.45499998 0.31182215 0.40536410
v -0.45499998 0.30518594 0.40953392
v -0.45499998 0.29778823 0.41212249
v -0.45499998 0.28999999 0.41299999
v -0.45499998 0.28099999 0.34299999
v -0.45499998 0.28099999 0.41299999
v -0.45500001 0.30199999 0.35736251
v -0.45499998 0.30693889 0.35796219
v -0.45499998 0.31159073 0.35972640
v -0.45499998 0.31568518 0.36255261
v -0.45499998 0.31898433 0.36627656
v -0.45499998 0.32129639 0.37068185
v -0.45499998 0.32248703 0.37551242
v -0.45499998 0.32248703 0.38048756
v -0.45499998 0.32129639 0.38531816
v -0.45499998 0.31898433 0.38972345
v -0.45499998 0.31568518 0.39344740
v -0.45499998 0.31159073 0.39627361
v -0.45499998 0.30693889 0.39803782
v -0.45499998 0.30199999 0.39863750
v -0.45499998 0.29706112 0.39803782
v -0.45499998 0.29240927 0.39627361
v -0.45499998 0.28831482 0.39344740
v -0.45499998 0.28501567 0.38972345
v -0.45499998 0.28270361 0.38531816
v -0.45499998 0.28151298 0.38048756
v -0.45499998 0.28151298 0.37551242
v -0.45499998 0.28270361 0.37068185
v -0.45499998 0.28501567 0.36627656
v -0.45499998 0.28831482 0.36255261
v -0.45499998 0.29240927 0.35972640
v -0.45499998 0.29706112 0.35796219
v -0.39500001 0.28999999 0.34299999
v -0.45499998 0.28999999 0.34299999
v -0.39500001 0.27000001 0.34299999
v -0.44000000 0.27000001 0.34299999
v -0.44000000 0.28099999 0.34299999
v -0.45499998 0.28099999 0.34299999
v -0.39500001 0.27000001 0.41299999
v -0.38721177 0.27000001 0.41212249
v -0.37981406 0.27000001 0.40953392
v -0.37317786 0.27000001 0.40536410
v -0.36763591 0.27000001 0.39982215
v -0.36346608 0.27000001 0.39318594
v -0.36087751 0.27000001 0.38578823
v -0.36000001 0.27000001 0.37799999
v -0.36087751 0.27000001 0.37021178
v -0.36346608 0.27000001 0.36281407
v -0.36763591 0.27000001 0.35617787
v -0.37317786 0.27000001 0.35063589
v -0.37981406 0.27000001 0.34646609
v -0.38721177 0.27000001 0.34387752
v -0.39500001 0.27000001 0.34299999
v -0.44000000 0.27000001 0.41299999
v -0.44000000 0.27000001 0.34299999
v -0.44000000 0.27000001 0.34299999
v -0.44000000 0.27000001 0.41299999
v -0.44000000 0.28099999 0.41299999
v -0.44000000 0.28099999 0.34299999
v -0.44000000 0.28099999 0.34299999
v -0.44000000 0.28099999 0.41299999
v -0.45499998 0.28099999 0.41299999
v -0.45499998 0.28099999 0.34299999
v -0.45499998 0.28999999 0.41299999
v -0.39500001 0.28999999 0.41299999
v -0.45499998 0.28099999 0.41299999
v -0.44000000 0.28099999 0.41299999
v -0.44000000 0.27000001 0.41299999
v -0.39500001 0.27000001 0.41299999
f 3 4 54
f 5 54 53
f 5 3 54
f 6 53 52
f 6 5 53
f 7 6 52
f 8 52 51
f 8 7 52
f 9 51 50
f 9 8 51
f 10 50 49
f 10 9 50
f 11 49 48
f 11 10 49
f 12 48 47
f 12 11 48
f 13 47 46
f 13 12 47
f 14 46 45
f 14 13 46
f 15 14 45
f 15 45 44
f 16 15 44
f 16 44 43
f 17 16 43
f 17 43 42
f 18 17 42
f 18 42 41
f 19 18 41
f 19 41 40
f 20 19 40
f 20 40 39
f 21 20 39
f 21 39 38
f 22 21 38
f 22 38 37
f 23 22 37
f 23 37 36
f 24 23 36
f 24 36 35
f 25 35 34
f 25 24 35
f 26 34 33
f 26 25 34
f 27 33 32
f 27 26 33
f 28 32 31
f 28 27 32
f 29 31 30
f 29 28 31
f 1 30 2
f 1 29 30
f 77 76 75
f 80 73 72
f 80 74 73
f 80 75 74
f 80 78 77
f 80 79 78
f 80 77 75
f 81 80 72
f 65 67 66
f 83 82 81
f 84 83 81
f 84 81 72
f 70 72 71
f 70 71 69
f 70 84 72
f 63 65 64
f 55 69 68
f 55 70 69
f 56 68 67
f 56 55 68
f 61 63 62
f 61 65 63
f 59 57 56
f 59 61 60
f 59 67 65
f 59 56 67
f 59 65 61
f 58 57 59
f 85 90 86
f 89 90 85
f 88 85 87
f 88 89 85
f 105 106 120
f 104 120 119
f 104 105 120
f 103 119 118
f 103 104 119
f 102 103 118
f 101 118 117
f 101 102 118
f 100 117 116
f 100 101 117
f 99 115 114
f 99 116 115
f 99 100 116
f 98 99 114
f 97 114 113
f 97 98 114
f 96 113 112
f 96 97 113
f 95 112 111
f 95 96 112
f 94 111 110
f 94 95 111
f 93 110 109
f 93 94 110
f 92 109 108
f 92 93 109
f 91 108 107
f 91 92 108
f 122 123 124
f 122 126 121
f 125 126 122
f 125 122 124
f 151 149 148
f 151 150 149
f 152 151 148
f 153 148 147
f 153 152 148
f 154 147 146
f 154 153 147
f 141 143 142
f 155 146 145
f 155 154 146
f 140 143 141
f 156 155 145
f 157 145 144
f 157 156 145
f 158 144 143
f 158 157 144
f 133 135 134
f 128 140 139
f 128 127 158
f 128 143 140
f 128 158 143
f 132 136 135
f 132 135 133
f 129 139 138
f 129 128 139
f 131 137 136
f 131 136 132
f 130 138 137
f 130 129 138
f 130 137 131
f 160 159 164
f 161 164 165
f 161 160 164
f 162 161 165
f 163 162 165
f 199 165 166
f 199 163 165
f 198 166 167
f 198 199 166
f 197 167 168
f 197 198 167
f 196 197 168
f 169 196 168
f 195 196 169
f 194 195 169
f 170 194 169
f 193 194 170
f 192 193 170
f 171 192 170
f 191 192 171
f 190 191 171
f 172 190 171
f 189 190 172
f 188 172 173
f 188 189 172
f 187 188 173
f 174 187 173
f 186 187 174
f 175 186 174
f 185 186 175
f 185 175 176
f 184 185 176
f 184 176 177
f 180 184 177
f 181 180 177
f 182 181 177
f 182 177 178
f 183 182 178
f 179 183 178
f 203 204 205
f 203 205 206
f 202 203 206
f 201 202 206
f 200 201 206
f 238 206 207
f 238 200 206
f 237 238 207
f 236 207 208
f 236 237 207
f 235 208 209
f 235 236 208
f 234 209 210
f 234 235 209
f 233 210 211
f 233 234 210
f 232 233 211
f 231 211 212
f 231 232 211
f 230 212 213
f 230 231 212
f 229 213 214
f 229 230 213
f 228 214 215
f 228 229 214
f 227 215 216
f 227 228 215
f 226 216 217
f 226 227 216
f 225 217 218
f 225 226 217
f 224 225 218
f 223 224 218
f 222 223 218
f 221 222 218
f 221 218 219
f 220 221 219
f 260 255 259
f 258 255 253
f 258 259 255
f 261 255 260
f 257 253 252
f 257 258 253
f 262 255 261
f 256 252 251
f 256 257 252
f 281 256 251
f 250 281 251
f 280 281 250
f 249 279 280
f 249 280 250
f 278 279 249
f 248 278 249
f 277 278 248
f 254 263 264
f 254 264 265
f 254 265 266
f 254 266 267
f 247 276 277
f 247 277 248
f 246 276 247
f 246 275 276
f 239 267 268
f 239 254 267
f 240 268 269
f 240 239 268
f 245 275 246
f 245 274 275
f 241 240 269
f 241 269 270
f 244 274 245
f 244 273 274
f 242 241 270
f 242 270 271
f 243 273 244
f 243 242 271
f 243 271 272
f 243 272 273
f 254 255 263
f 263 255 262
f 282 295 296
f 282 296 297
f 282 297 298
f 294 295 282
f 293 294 282
f 292 293 282
f 291 292 282
f 283 285 286
f 283 286 287
f 283 287 288
f 283 288 289
f 283 289 290
f 283 290 291
f 282 283 291
f 283 284 285
f 309 300 299
f 329 301 300
f 329 302 301
f 330 303 302
f 330 304 303
f 330 302 329
f 331 309 310
f 331 310 311
f 331 329 300
f 331 300 309
f 332 305 304
f 332 304 330
f 333 329 331
f 333 330 329
f 334 306 305
f 334 305 332
f 335 330 333
f 335 332 330
f 336 311 312
f 336 312 313
f 336 333 331
f 336 331 311
f 337 307 306
f 337 306 334
f 338 334 332
f 338 332 335
f 339 333 336
f 339 335 333
f 340 308 307
f 340 327 328
f 340 328 308
f 340 307 337
f 341 337 334
f 341 334 338
f 342 338 335
f 342 335 339
f 343 313 314
f 343 336 313
f 343 339 336
f 344 326 327
f 344 340 337
f 344 327 340
f 344 337 341
f 345 338 342
f 345 341 338
f 346 339 343
f 346 342 339
f 347 344 341
f 347 324 325
f 347 325 326
f 347 326 344
f 347 341 345
f 348 342 346
f 348 345 342
f 349 346 343
f 349 314 315
f 349 343 314
f 350 345 348
f 350 347 345
f 350 322 323
f 350 323 324
f 350 324 347
f 351 348 346
f 351 346 349
f 352 350 348
f 352 348 351
f 352 322 350
f 352 320 321
f 352 321 322
f 353 315 316
f 353 349 315
f 353 351 349
f 354 319 320
f 354 320 352
f 354 351 353
f 354 352 351
f 355 316 317
f 355 317 318
f 355 318 319
f 355 319 354
f 355 354 353
f 355 353 316
f 357 385 356
f 386 383 384
f 386 384 385
f 386 385 357
f 387 381 382
f 387 382 383
f 387 383 386
f 388 357 358
f 388 358 359
f 388 386 357
f 389 380 381
f 389 381 387
f 390 386 388
f 390 387 386
f 391 379 380
f 391 380 389
f 392 387 390
f 392 389 387
f 393 359 360
f 393 360 361
f 393 390 388
f 393 388 359
f 394 378 379
f 394 379 391
f 395 389 392
f 395 391 389
f 396 390 393
f 396 392 390
f 397 375 376
f 397 376 377
f 397 377 378
f 397 378 394
f 398 394 391
f 398 391 395
f 399 395 392
f 399 392 396
f 400 361 362
f 400 393 361
f 400 396 393
f 401 374 375
f 401 397 394
f 401 375 397
f 401 394 398
f 402 395 399
f 402 398 395
f 403 396 400
f 403 399 396
f 404 401 398
f 404 372 373
f 404 373 374
f 404 398 402
f 404 374 401
f 405 399 403
f 405 402 399
f 406 403 400
f 406 362 363
f 406 400 362
f 407 402 405
f 407 404 402
f 407 370 371
f 407 371 372
f 407 372 404
f 408 405 403
f 408 403 406
f 409 368 369
f 409 369 370
f 409 407 405
f 409 370 407
f 409 405 408
f 410 363 364
f 410 406 363
f 410 408 406
f 411 367 368
f 411 368 409
f 411 409 408
f 411 408 410
f 412 364 365
f 412 365 366
f 412 366 367
f 412 410 364
f 412 411 410
f 412 367 411
f 426 427 428
f 426 440 439
f 426 428 440
f 425 438 437
f 425 439 438
f 425 426 439
f 424 436 435
f 424 437 436
f 424 425 437
f 423 434 433
f 423 435 434
f 423 424 435
f 422 432 431
f 422 433 432
f 422 423 433
f 421 431 430
f 421 422 431
f 420 430 429
f 420 421 430
f 419 452 451
f 419 429 452
f 419 420 429
f 418 450 449
f 418 451 450
f 418 419 451
f 417 448 447
f 417 449 448
f 417 418 449
f 416 446 445
f 416 447 446
f 416 417 447
f 415 416 445
f 415 444 443
f 415 445 444
f 414 443 442
f 414 415 443
f 413 414 442
f 413 442 441
f 478 453 454
f 479 478 454
f 480 454 455
f 480 479 454
f 481 455 456
f 481 480 455
f 482 456 457
f 482 457 458
f 482 481 456
f 483 482 458
f 484 458 459
f 484 483 458
f 485 484 459
f 486 459 460
f 486 485 459
f 469 486 460
f 470 460 461
f 470 469 460
f 471 470 461
f 472 461 462
f 472 471 461
f 473 462 463
f 473 472 462
f 474 473 463
f 475 463 464
f 475 464 465
f 475 474 463
f 476 465 466
f 476 475 465
f 477 466 467
f 477 476 466
f 468 477 467
f 507 492 491
f 508 493 492
f 508 492 507
f 506 491 490
f 506 507 491
f 509 493 508
f 505 490 489
f 505 506 490
f 510 494 493
f 510 493 509
f 504 489 488
f 504 505 489
f 511 494 510
f 529 488 487
f 529 504 488
f 495 494 511
f 512 495 511
f 528 487 502
f 528 529 487
f 513 495 512
f 496 495 513
f 527 528 502
f 514 496 513
f 526 527 502
f 497 496 514
f 515 497 514
f 525 526 502
f 498 497 515
f 498 515 516
f 524 525 502
f 499 498 516
f 499 516 517
f 500 499 517
f 500 517 518
f 501 500 518
f 501 518 519
f 503 501 519
f 503 519 520
f 503 520 521
f 503 521 522
f 503 522 523
f 502 503 524
f 524 503 523
f 534 530 532
f 534 532 533
f 531 534 535
f 531 530 534
f 544 546 545
f 544 547 546
f 544 548 547
f 536 551 552
f 536 552 550
f 537 549 548
f 537 550 549
f 537 536 550
f 542 544 543
f 541 544 542
f 540 544 541
f 539 538 537
f 539 548 544
f 539 537 548
f 539 544 540
f 554 555 556
f 554 556 553
f 558 559 560
f 558 560 557
f 564 561 563
f 566 564 565
f 562 564 566
f 562 561 564

