# https://github.com/mikedh/trimesh
v -0.36000001 0.27000001 0.22112300
v -0.36000001 0.23556571 0.22112300
v -0.44000000 0.27000001 0.22112300
v -0.44000000 0.23556571 0.22112300
v -0.35564041 0.22693692 0.22112300
v -0.35311803 0.21760421 0.22112300
v -0.35253733 0.20795409 0.22112300
v -0.35392234 0.19838625 0.22112300
v -0.35721573 0.18929695 0.22112300
v -0.36228105 0.18106262 0.22112300
v -0.36890858 0.17402430 0.22112300
v -0.37682378 0.16847350 0.22112300
v -0.38569885 0.16464008 0.22112300
v -0.39516622 0.16268286 0.22112300
v -0.40483379 0.16268286 0.22112300
v -0.41430116 0.16464008 0.22112300
v -0.42317623 0.16847350 0.22112300
v -0.43109143 0.17402430 0.22112300
v -0.43771893 0.18106262 0.22112300
v -0.44278428 0.18929695 0.22112300
v -0.44607764 0.19838625 0.22112300
v -0.44746268 0.20795409 0.22112300
v -0.44688195 0.21760421 0.22112300
v -0.44435957 0.22693692 0.22112300
v -0.44000000 0.23556571 0.38800001
v -0.43912247 0.23556571 0.39578822
v -0.43653390 0.23556571 0.40318593
v -0.43236411 0.23556571 0.40982214
v -0.42682216 0.23556571 0.41536412
v -0.42018592 0.23556571 0.41953391
v -0.41278824 0.23556571 0.42212248
v -0.40500000 0.23556571 0.42300001
v -0.40500000 0.27000001 0.42300001
v -0.41278824 0.27000001 0.42212248
v -0.42018592 0.27000001 0.41953391
v -0.42682216 0.27000001 0.41536412
v -0.43236411 0.27000001 0.40982214
v -0.43653390 0.27000001 0.40318593
v -0.43912247 0.27000001 0.39578822
v -0.44000000 0.27000001 0.38800001
v -0.40500000 0.27000001 0.42300001
v -0.41278824 0.27000001 0.42212248
v -0.42018592 0.27000001 0.41953391
v -0.42682216 0.27000001 0.41536412
v -0.43236411 0.27000001 0.40982214
v -0.43653390 0.27000001 0.40318593
v -0.43912247 0.27000001 0.39578822
v -0.44000000 0.27000001 0.38800001
v -0.39500001 0.27000001 0.42300001
v -0.36000001 0.27000001 0.38800001
v -0.36087751 0.27000001 0.39578822
v -0.36346608 0.27000001 0.40318593
v -0.36763591 0.27000001 0.40982214
v -0.37317786 0.27000001 0.41536412
v -0.37981406 0.27000001 0.41953391
v -0.38721177 0.27000001 0.42212248
v -0.36000001 0.27000001 0.22112300
v -0.44000000 0.27000001 0.22112300
v -0.40500000 0.23556571 0.42300001
v -0.40500000 0.27000001 0.42300001
v -0.39500001 0.23556571 0.42300001
v -0.39500001 0.27000001 0.42300001
v -0.36000001 0.27000001 0.38800001
v -0.36087751 0.27000001 0.39578822
v -0.36346608 0.27000001 0.40318593
v -0.36763591 0.27000001 0.40982214
v -0.37317786 0.27000001 0.41536412
v -0.37981406 0.27000001 0.41953391
v -0.38721177 0.27000001 0.42212248
v -0.39500001 0.27000001 0.42300001
v -0.39500001 0.23556571 0.42300001
v -0.38721177 0.23556571 0.42212248
v -0.37981406 0.23556571 0.41953391
v -0.37317786 0.23556571 0.41536412
v -0.36763591 0.23556571 0.40982214
v -0.36346608 0.23556571 0.40318593
v -0.36087751 0.23556571 0.39578822
v -0.36000001 0.23556571 0.38800001
v -0.36000001 0.23556571 0.37599999
v -0.44000000 0.23556571 0.37599999
v -0.35343000 0.20056570 0.34099999
v -0.35256502 0.20737676 0.34166911
v -0.35268134 0.21413484 0.34373736
v -0.35364205 0.22031295 0.34710291
v -0.35511670 0.22550113 0.35143948
v -0.35682765 0.22975963 0.35669428
v -0.35846591 0.23299631 0.36283749
v -0.35959810 0.23492725 0.36934549
v -0.44656998 0.20056570 0.34099999
v -0.44043398 0.23487532 0.36908266
v -0.44164762 0.23279057 0.36234137
v -0.44332334 0.22942735 0.35620090
v -0.44503665 0.22505178 0.35099137
v -0.44649073 0.21970071 0.34669384
v -0.44737977 0.21337642 0.34342882
v -0.44741186 0.20697986 0.34159276
v -0.40500000 0.23556571 0.42300001
v -0.39500001 0.23556571 0.42300001
v -0.38721177 0.23556571 0.42212248
v -0.37981406 0.23556571 0.41953391
v -0.37317786 0.23556571 0.41536412
v -0.36763591 0.23556571 0.40982214
v -0.36346608 0.23556571 0.40318593
v -0.36087751 0.23556571 0.39578822
v -0.36000001 0.23556571 0.38800001
v -0.36000001 0.23556571 0.37599999
v -0.44000000 0.23556571 0.37599999
v -0.44000000 0.23556571 0.38800001
v -0.43912247 0.23556571 0.39578822
v -0.43653390 0.23556571 0.40318593
v -0.43236411 0.23556571 0.40982214
v -0.42682216 0.23556571 0.41536412
v -0.42018592 0.23556571 0.41953391
v -0.41278824 0.23556571 0.42212248
v -0.35343000 0.20056570 0.34099999
v -0.35614777 0.19167490 0.34099999
v -0.36054513 0.18348369 0.34099999
v -0.36645365 0.17630582 0.34099999
v -0.37364703 0.17041618 0.34099999
v -0.38184980 0.16604039 0.34099999
v -0.39074770 0.16334602 0.34099999
v -0.40000001 0.16243629 0.34099999
v -0.40925229 0.16334602 0.34099999
v -0.41815022 0.16604039 0.34099999
v -0.42635295 0.17041618 0.34099999
v -0.43354636 0.17630582 0.34099999
v -0.43945488 0.18348369 0.34099999
v -0.44385222 0.19167490 0.34099999
v -0.44656998 0.20056570 0.34099999
v -0.44000000 0.27000001 0.38800001
v -0.44000000 0.23556571 0.38800001
v -0.44000000 0.27000001 0.22112300
v -0.44000000 0.23556571 0.22112300
v -0.44000000 0.23556571 0.37599999
v -0.36000001 0.23556571 0.38800001
v -0.36000001 0.27000001 0.38800001
v -0.36000001 0.23556571 0.37599999
v -0.36000001 0.23556571 0.22112300
v -0.36000001 0.27000001 0.22112300
v -0.35343000 0.20056570 0.34099999
v -0.35614777 0.19167490 0.34099999
v -0.36054513 0.18348369 0.34099999
v -0.36645365 0.17630582 0.34099999
v -0.37364703 0.17041618 0.34099999
v -0.38184980 0.16604039 0.34099999
v -0.39074770 0.16334602 0.34099999
v -0.40000001 0.16243629 0.34099999
v -0.40925229 0.16334602 0.34099999
v -0.41815022 0.16604039 0.34099999
v -0.42635295 0.17041618 0.34099999
v -0.43354636 0.17630582 0.34099999
v -0.43945488 0.18348369 0.34099999
v -0.44385222 0.19167490 0.34099999
v -0.44656998 0.20056570 0.34099999
v -0.44000000 0.23556571 0.37599999
v -0.44043398 0.23487532 0.36908266
v -0.44164762 0.23279057 0.36234137
v -0.44332334 0.22942735 0.35620090
v -0.44503665 0.22505178 0.35099137
v -0.44649073 0.21970071 0.34669384
v -0.44737977 0.21337642 0.34342882
v -0.44741186 0.20697986 0.34159276
v -0.44000000 0.23556571 0.22112300
v -0.36000001 0.23556571 0.22112300
v -0.35564041 0.22693692 0.22112300
v -0.35311803 0.21760421 0.22112300
v -0.35253733 0.20795409 0.22112300
v -0.35392234 0.19838625 0.22112300
v -0.35721573 0.18929695 0.22112300
v -0.36228105 0.18106262 0.22112300
v -0.36890858 0.17402430 0.22112300
v -0.37682378 0.16847350 0.22112300
v -0.38569885 0.16464008 0.22112300
v -0.39516622 0.16268286 0.22112300
v -0.40483379 0.16268286 0.22112300
v -0.41430116 0.16464008 0.22112300
v -0.42317623 0.16847350 0.22112300
v -0.43109143 0.17402430 0.22112300
v -0.43771893 0.18106262 0.22112300
v -0.44278428 0.18929695 0.22112300
v -0.44607764 0.19838625 0.22112300
v -0.44746268 0.20795409 0.22112300
v -0.44688195 0.21760421 0.22112300
v -0.44435957 0.22693692 0.22112300
v -0.36000001 0.23556571 0.37599999
v -0.35256502 0.20737676 0.34166911
v -0.35268134 0.21413484 0.34373736
v -0.35364205 0.22031295 0.34710291
v -0.35511670 0.22550113 0.35143948
v -0.35682765 0.22975963 0.35669428
v -0.35846591 0.23299631 0.36283749
v -0.35959810 0.23492725 0.36934549
f 16 17 18
f 21 19 20
f 14 15 16
f 14 18 19
f 14 16 18
f 23 21 22
f 4 23 24
f 4 19 21
f 4 21 23
f 10 11 12
f 10 12 13
f 10 13 14
f 9 14 19
f 9 10 14
f 6 7 8
f 6 8 9
f 5 6 9
f 5 9 19
f 2 4 3
f 2 19 4
f 2 5 19
f 1 2 3
f 32 33 34
f 31 34 35
f 31 32 34
f 30 35 36
f 30 31 35
f 29 36 37
f 29 30 36
f 28 37 38
f 28 29 37
f 27 38 39
f 27 28 38
f 26 39 40
f 26 27 39
f 25 26 40
f 53 51 50
f 53 52 51
f 56 54 53
f 56 55 54
f 49 53 50
f 49 56 53
f 48 41 49
f 48 50 57
f 48 57 58
f 48 49 50
f 47 42 41
f 47 41 48
f 45 43 42
f 45 44 43
f 45 47 46
f 45 42 47
f 62 60 59
f 62 59 61
f 70 71 72
f 69 72 73
f 69 70 72
f 68 73 74
f 68 69 73
f 67 74 75
f 67 68 74
f 66 75 76
f 66 67 75
f 65 76 77
f 65 66 76
f 64 65 77
f 63 77 78
f 63 64 77
f 80 88 79
f 90 87 88
f 90 88 80
f 91 86 87
f 91 87 90
f 92 85 86
f 92 86 91
f 93 84 85
f 93 85 92
f 94 83 84
f 94 84 93
f 95 82 83
f 95 83 94
f 96 81 82
f 96 82 95
f 89 81 96
f 110 109 108
f 112 111 110
f 112 110 108
f 113 112 108
f 106 108 107
f 97 114 113
f 97 113 108
f 105 108 106
f 98 108 105
f 98 97 108
f 104 98 105
f 103 99 98
f 103 100 99
f 103 98 104
f 102 101 100
f 102 100 103
f 124 126 125
f 124 127 126
f 129 128 127
f 120 122 121
f 118 120 119
f 116 118 117
f 116 123 122
f 116 124 123
f 116 127 124
f 116 120 118
f 116 122 120
f 115 129 127
f 115 127 116
f 134 130 132
f 134 132 133
f 131 130 134
f 137 138 139
f 136 135 137
f 136 137 139
f 156 155 163
f 157 156 163
f 158 163 184
f 158 157 163
f 159 158 184
f 160 184 183
f 160 159 184
f 161 183 182
f 161 160 183
f 162 161 182
f 154 182 181
f 154 162 182
f 153 181 180
f 153 154 181
f 152 180 179
f 152 153 180
f 151 179 178
f 151 152 179
f 150 178 177
f 150 151 178
f 149 177 176
f 149 150 177
f 148 176 175
f 148 149 176
f 147 148 175
f 147 175 174
f 146 147 174
f 146 174 173
f 145 146 173
f 145 173 172
f 144 145 172
f 144 172 171
f 143 144 171
f 143 171 170
f 142 143 170
f 142 170 169
f 141 169 168
f 141 142 169
f 140 168 167
f 140 141 168
f 186 140 167
f 187 167 166
f 187 186 167
f 188 166 165
f 188 187 166
f 189 188 165
f 190 165 164
f 190 189 165
f 191 190 164
f 192 191 164
f 185 192 164

