# https://github.com/mikedh/trimesh
v -1.04265523 0.17386207 0.41299999
v -1.04802608 0.16925904 0.41299999
v -1.05421281 0.16582993 0.41299999
v -1.06096268 0.16371478 0.41299999
v -1.06799996 0.16300000 0.41299999
v -1.06799996 0.16300000 0.34299999
v -1.06096268 0.16371478 0.34299999
v -1.05421281 0.16582993 0.34299999
v -1.04802608 0.16925904 0.34299999
v -1.04265523 0.17386207 0.34299999
v -1.06799996 0.16300000 0.34299999
v -1.06096268 0.16371478 0.34299999
v -1.05421281 0.16582993 0.34299999
v -1.04802608 0.16925904 0.34299999
v -1.04265523 0.17386207 0.34299999
v -1.10000002 0.16300000 0.34299999
v -1.10000002 0.19127661 0.34299999
v -1.01999998 0.19127661 0.34299999
v -1.01999998 0.18400000 0.34299999
v -1.03299999 0.18400000 0.34299999
v -1.06799996 0.16300000 0.41299999
v -1.06799996 0.16300000 0.34299999
v -1.10000002 0.16300000 0.41299999
v -1.10000002 0.16300000 0.34299999
v -1.10778821 0.16300000 0.34387752
v -1.11518598 0.16300000 0.34646609
v -1.12182212 0.16300000 0.35063589
v -1.12736416 0.16300000 0.35617787
v -1.13153386 0.16300000 0.36281407
v -1.13412249 0.16300000 0.37021178
v -1.13499999 0.16300000 0.37799999
v -1.13412249 0.16300000 0.38578823
v -1.13153386 0.16300000 0.39318594
v -1.12736416 0.16300000 0.39982215
v -1.12182212 0.16300000 0.40536410
v -1.11518598 0.16300000 0.40953392
v -1.10778821 0.16300000 0.41212249
v -1.06500006 0.20500000 0.34580266
v -1.06133425 0.21149951 0.34943369
v -1.05818462 0.21708399 0.35435727
v -1.05574763 0.22140484 0.36018735
v -1.05417657 0.22419041 0.36609703
v -1.05325234 0.22582917 0.37242141
v -1.05300713 0.22626397 0.37894019
v -1.05344951 0.22547969 0.38542622
v -1.05456400 0.22350365 0.39165348
v -1.05631173 0.22040470 0.39740503
v -1.05863202 0.21629080 0.40248039
v -1.06144381 0.21130534 0.40670279
v -1.06317103 0.20824288 0.40861285
v -1.06500006 0.20500000 0.41019735
v -1.11372340 0.20500000 0.34580266
v -1.06500006 0.20500000 0.34580266
v -1.11372340 0.20500000 0.41019735
v -1.12080312 0.20500000 0.40614662
v -1.12675297 0.20500000 0.40056720
v -1.13124990 0.20500000 0.39376217
v -1.13404953 0.20500000 0.38610107
v -1.13499999 0.20500000 0.37799999
v -1.13404953 0.20500000 0.36989895
v -1.13124990 0.20500000 0.36223784
v -1.12675297 0.20500000 0.35543281
v -1.12080312 0.20500000 0.34985340
v -1.06500006 0.20500000 0.41019735
v -1.10000002 0.19127661 0.34299999
v -1.10623407 0.19751066 0.34355965
v -1.11004150 0.20131814 0.34447140
v -1.11372340 0.20500000 0.34580266
v -1.10000002 0.16300000 0.34299999
v -1.10778821 0.16300000 0.34387752
v -1.11518598 0.16300000 0.34646609
v -1.12182212 0.16300000 0.35063589
v -1.12736416 0.16300000 0.35617787
v -1.13153386 0.16300000 0.36281407
v -1.13412249 0.16300000 0.37021178
v -1.13499999 0.16300000 0.37799999
v -1.13412249 0.16300000 0.38578823
v -1.13153386 0.16300000 0.39318594
v -1.12736416 0.16300000 0.39982215
v -1.12182212 0.16300000 0.40536410
v -1.11518598 0.16300000 0.40953392
v -1.10778821 0.16300000 0.41212249
v -1.10000002 0.16300000 0.41299999
v -1.10000002 0.19127661 0.41299999
v -1.11372340 0.20500000 0.41019735
v -1.10776913 0.19904570 0.41212684
v -1.10390902 0.19518562 0.41278103
v -1.12080312 0.20500000 0.40614662
v -1.12675297 0.20500000 0.40056720
v -1.13124990 0.20500000 0.39376217
v -1.13404953 0.20500000 0.38610107
v -1.13499999 0.20500000 0.37799999
v -1.13404953 0.20500000 0.36989895
v -1.13124990 0.20500000 0.36223784
v -1.12675297 0.20500000 0.35543281
v -1.12080312 0.20500000 0.34985340
v -1.11372340 0.20500000 0.41019735
v -1.10776913 0.19904570 0.41212684
v -1.10390902 0.19518562 0.41278103
v -1.10000002 0.19127661 0.41299999
v -1.01999998 0.19127661 0.41299999
v -1.01999998 0.19906484 0.41212249
v -1.01999998 0.20646253 0.40953392
v -1.01999998 0.21309875 0.40536410
v -1.01999998 0.21864071 0.39982215
v -1.01999998 0.22281052 0.39318594
v -1.01999998 0.22539908 0.38578823
v -1.01999998 0.22627661 0.37799999
v -1.01999998 0.22539908 0.37021178
v -1.01999998 0.22281052 0.36281407
v -1.01999998 0.21864071 0.35617787
v -1.01999998 0.21309875 0.35063589
v -1.01999998 0.20646253 0.34646609
v -1.01999998 0.19906484 0.34387752
v -1.01999998 0.19127661 0.34299999
v -1.10000002 0.19127661 0.34299999
v -1.10623407 0.19751066 0.34355965
v -1.11004150 0.20131814 0.34447140
v -1.11372340 0.20500000 0.34580266
v -1.06500006 0.20500000 0.34580266
v -1.06133425 0.21149951 0.34943369
v -1.05818462 0.21708399 0.35435727
v -1.05574763 0.22140484 0.36018735
v -1.05417657 0.22419041 0.36609703
v -1.05325234 0.22582917 0.37242141
v -1.05300713 0.22626397 0.37894019
v -1.05344951 0.22547969 0.38542622
v -1.05456400 0.22350365 0.39165348
v -1.05631173 0.22040470 0.39740503
v -1.05863202 0.21629080 0.40248039
v -1.06144381 0.21130534 0.40670279
v -1.06317103 0.20824288 0.40861285
v -1.06500006 0.20500000 0.41019735
v -1.01999998 0.19127661 0.41299999
v -1.01999998 0.19906484 0.41212249
v -1.01999998 0.20646253 0.40953392
v -1.01999998 0.21309875 0.40536410
v -1.01999998 0.21864071 0.39982215
v -1.01999998 0.22281052 0.39318594
v -1.01999998 0.22539908 0.38578823
v -1.01999998 0.22627661 0.37799999
v -1.01999998 0.22539908 0.37021178
v -1.01999998 0.22281052 0.36281407
v -1.01999998 0.21864071 0.35617787
v -1.01999998 0.21309875 0.35063589
v -1.01999998 0.20646253 0.34646609
v -1.01999998 0.19906484 0.34387752
v -1.01999998 0.19127661 0.34299999
v -1.01999998 0.18400000 0.41299999
v -1.01999998 0.18400000 0.34299999
v -1.01999998 0.20500000 0.35736251
v -1.01999998 0.20006113 0.35796219
v -1.01999998 0.19540927 0.35972640
v -1.01999998 0.19131480 0.36255261
v -1.01999998 0.18801567 0.36627656
v -1.01999998 0.18570361 0.37068185
v -1.01999998 0.18451297 0.37551242
v -1.01999998 0.18451297 0.38048756
v -1.01999998 0.18570361 0.38531816
v -1.01999998 0.18801567 0.38972345
v -1.01999998 0.19131480 0.39344740
v -1.01999998 0.19540927 0.39627361
v -1.01999998 0.20006113 0.39803782
v -1.01999998 0.20500000 0.39863750
v -1.01999998 0.20993888 0.39803782
v -1.01999998 0.21459073 0.39627361
v -1.01999998 0.21868519 0.39344740
v -1.01999998 0.22198433 0.38972345
v -1.01999998 0.22429639 0.38531816
v -1.01999998 0.22548702 0.38048756
v -1.01999998 0.22548702 0.37551242
v -1.01999998 0.22429639 0.37068185
v -1.01999998 0.22198433 0.36627656
v -1.01999998 0.21868519 0.36255261
v -1.01999998 0.21459073 0.35972640
v -1.01999998 0.20993888 0.35796219
v -1.01999998 0.18400000 0.34299999
v -1.01999998 0.18400000 0.41299999
v -1.03299999 0.18400000 0.41299999
v -1.03299999 0.18400000 0.34299999
v -1.04265523 0.17386207 0.34299999
v -1.04265523 0.17386207 0.41299999
v -1.03299999 0.18400000 0.34299999
v -1.03299999 0.18400000 0.41299999
v -1.04265523 0.17386207 0.41299999
v -1.04802608 0.16925904 0.41299999
v -1.05421281 0.16582993 0.41299999
v -1.06096268 0.16371478 0.41299999
v -1.06799996 0.16300000 0.41299999
v -1.03299999 0.18400000 0.41299999
v -1.01999998 0.18400000 0.41299999
v -1.01999998 0.19127661 0.41299999
v -1.10000002 0.19127661 0.41299999
v -1.10000002 0.16300000 0.41299999
v -0.80000001 0.17000000 0.37799999
v -0.80000001 0.17094342 0.36992845
v -0.80000001 0.17372286 0.36229202
v -0.80000001 0.17818844 0.35550243
v -0.80000001 0.18409945 0.34992570
v -0.80000001 0.19113721 0.34586245
v -0.80000001 0.19892232 0.34353173
v -0.80000001 0.20703506 0.34305921
v -0.80000001 0.21503811 0.34447038
v -0.80000001 0.22250000 0.34768912
v -0.80000001 0.22901846 0.35254192
v -0.80000001 0.23424207 0.35876718
v -0.80000001 0.23788925 0.36602929
v -0.80000001 0.23976335 0.37393674
v -0.80000001 0.23976335 0.38206324
v -0.80000001 0.23788925 0.38997072
v -0.80000001 0.23424207 0.39723280
v -0.80000001 0.22901846 0.40345809
v -0.80000001 0.22250000 0.40831089
v -0.80000001 0.21503811 0.41152963
v -0.80000001 0.20703506 0.41294080
v -0.80000001 0.19892232 0.41246828
v -0.80000001 0.19113721 0.41013756
v -0.80000001 0.18409945 0.40607432
v -0.80000001 0.17818844 0.40049756
v -0.80000001 0.17372286 0.39370796
v -0.80000001 0.17094342 0.38607156
v -0.80000001 0.17000000 0.37799999
v -0.80666667 0.17500000 0.37799999
v -0.81333333 0.18000001 0.37799999
v -0.81999999 0.18500000 0.37799999
v -0.80666667 0.17500000 0.37799999
v -0.81333333 0.18000001 0.37799999
v -0.81999999 0.18500000 0.37799999
v -0.81999999 0.18558116 0.38278630
v -0.81999999 0.18729088 0.38729447
v -0.81999999 0.19002979 0.39126244
v -0.81999999 0.19363871 0.39445966
v -0.81999999 0.19790789 0.39670032
v -0.81999999 0.20258927 0.39785418
v -0.81999999 0.20741074 0.39785418
v -0.81999999 0.21209210 0.39670032
v -0.81999999 0.21636130 0.39445966
v -0.81999999 0.21997021 0.39126244
v -0.81999999 0.22270912 0.38729447
v -0.81999999 0.22441883 0.38278630
v -0.81999999 0.22499999 0.37799999
v -0.81999999 0.22441883 0.37321368
v -0.81999999 0.22270912 0.36870554
v -0.81999999 0.21997021 0.36473754
v -0.81999999 0.21636130 0.36154032
v -0.81999999 0.21209210 0.35929969
v -0.81999999 0.20741074 0.35814583
v -0.81999999 0.20258927 0.35814583
v -0.81999999 0.19790789 0.35929969
v -0.81999999 0.19363871 0.36154032
v -0.81999999 0.19002979 0.36473754
v -0.81999999 0.18729088 0.36870554
v -0.81999999 0.18558116 0.37321368
v -0.81333333 0.18135457 0.36988252
v -0.80666667 0.17662549 0.36825901
v -0.81333333 0.18527149 0.36264467
v -0.80666667 0.18132578 0.35957363
v -0.81333333 0.19132629 0.35707083
v -0.80666667 0.18859155 0.35288501
v -0.81333333 0.19886287 0.35376498
v -0.80666667 0.19763544 0.34891799
v -0.81333333 0.20706448 0.35308540
v -0.80666667 0.20747738 0.34810245
v -0.81333333 0.21504238 0.35510567
v -0.80666667 0.21705087 0.35052681
v -0.81333333 0.22193204 0.35960689
v -0.80666667 0.22531845 0.35592827
v -0.81333333 0.22698684 0.36610132
v -0.80666667 0.23138422 0.36372158
v -0.81333333 0.22965904 0.37388512
v -0.80666667 0.23459084 0.37306216
v -0.81333333 0.22965904 0.38211486
v -0.80666667 0.23459084 0.38293785
v -0.81333333 0.22698684 0.38989869
v -0.80666667 0.23138422 0.39227843
v -0.81333333 0.22193204 0.39639309
v -0.80666667 0.22531845 0.40007171
v -0.81333333 0.21504238 0.40089434
v -0.80666667 0.21705087 0.40547320
v -0.81333333 0.20706448 0.40291461
v -0.80666667 0.20747738 0.40789753
v -0.81333333 0.19886287 0.40223500
v -0.80666667 0.19763544 0.40708202
v -0.81333333 0.19132629 0.39892915
v -0.80666667 0.18859155 0.40311500
v -0.81333333 0.18527149 0.39335531
v -0.80666667 0.18132578 0.39642638
v -0.81333333 0.18135457 0.38611749
v -0.80666667 0.17662549 0.38774097
v -0.76764679 0.17000000 0.37799999
v -0.76764679 0.17094342 0.36992845
v -0.76764679 0.17372286 0.36229202
v -0.76764679 0.17818844 0.35550243
v -0.76764679 0.18409945 0.34992570
v -0.76764679 0.19113721 0.34586245
v -0.76764679 0.19892232 0.34353173
v -0.76764679 0.20703506 0.34305921
v -0.76764679 0.21503811 0.34447038
v -0.76764679 0.22250000 0.34768912
v -0.76764679 0.22901846 0.35254192
v -0.76764679 0.23424207 0.35876718
v -0.76764679 0.23788925 0.36602929
v -0.76764679 0.23976335 0.37393674
v -0.76764679 0.23976335 0.38206324
v -0.76764679 0.23788925 0.38997072
v -0.76764679 0.23424207 0.39723280
v -0.76764679 0.22901846 0.40345809
v -0.76764679 0.22250000 0.40831089
v -0.76764679 0.21503811 0.41152963
v -0.76764679 0.20703506 0.41294080
v -0.76764679 0.19892232 0.41246828
v -0.76764679 0.19113721 0.41013756
v -0.76764679 0.18409945 0.40607432
v -0.76764679 0.17818844 0.40049756
v -0.76764679 0.17372286 0.39370796
v -0.76764679 0.17094342 0.38607156
v -0.76764679 0.17000000 0.37799999
v -0.80000001 0.17000000 0.37799999
v -0.80000001 0.17000000 0.37799999
v -0.80000001 0.17094342 0.36992845
v -0.80000001 0.17372286 0.36229202
v -0.80000001 0.17818844 0.35550243
v -0.80000001 0.18409945 0.34992570
v -0.80000001 0.19113721 0.34586245
v -0.80000001 0.19892232 0.34353173
v -0.80000001 0.20703506 0.34305921
v -0.80000001 0.21503811 0.34447038
v -0.80000001 0.22250000 0.34768912
v -0.80000001 0.22901846 0.35254192
v -0.80000001 0.23424207 0.35876718
v -0.80000001 0.23788925 0.36602929
v -0.80000001 0.23976335 0.37393674
v -0.80000001 0.23976335 0.38206324
v -0.80000001 0.23788925 0.38997072
v -0.80000001 0.23424207 0.39723280
v -0.80000001 0.22901846 0.40345809
v -0.80000001 0.22250000 0.40831089
v -0.80000001 0.21503811 0.41152963
v -0.80000001 0.20703506 0.41294080
v -0.80000001 0.19892232 0.41246828
v -0.80000001 0.19113721 0.41013756
v -0.80000001 0.18409945 0.40607432
v -0.80000001 0.17818844 0.40049756
v -0.80000001 0.17372286 0.39370796
v -0.80000001 0.17094342 0.38607156
v -0.76764679 0.17000000 0.37799999
v -0.76764679 0.17094342 0.36992845
v -0.76764679 0.17372286 0.36229202
v -0.76764679 0.17818844 0.35550243
v -0.76764679 0.18409945 0.34992570
v -0.76764679 0.19113721 0.34586245
v -0.76764679 0.19892232 0.34353173
v -0.76764679 0.20703506 0.34305921
v -0.76764679 0.21503811 0.34447038
v -0.76764679 0.22250000 0.34768912
v -0.76764679 0.22901846 0.35254192
v -0.76764679 0.23424207 0.35876718
v -0.76764679 0.23788925 0.36602929
v -0.76764679 0.23976335 0.37393674
v -0.76764679 0.23976335 0.38206324
v -0.76764679 0.23788925 0.38997072
v -0.76764679 0.23424207 0.39723280
v -0.76764679 0.22901846 0.40345809
v -0.76764679 0.22250000 0.40831089
v -0.76764679 0.21503811 0.41152963
v -0.76764679 0.20703506 0.41294080
v -0.76764679 0.19892232 0.41246828
v -0.76764679 0.19113721 0.41013756
v -0.76764679 0.18409945 0.40607432
v -0.76764679 0.17818844 0.40049756
v -0.76764679 0.17372286 0.39370796
v -0.76764679 0.17094342 0.38607156
v -1.01999998 0.20500000 0.35736251
v -1.01999998 0.20006113 0.35796219
v -1.01999998 0.19540927 0.35972640
v -1.01999998 0.19131480 0.36255261
v -1.01999998 0.18801567 0.36627656
v -1.01999998 0.18570361 0.37068185
v -1.01999998 0.18451297 0.37551242
v -1.01999998 0.18451297 0.38048756
v -1.01999998 0.18570361 0.38531816
v -1.01999998 0.18801567 0.38972345
v -1.01999998 0.19131480 0.39344740
v -1.01999998 0.19540927 0.39627361
v -1.01999998 0.20006113 0.39803782
v -1.01999998 0.20500000 0.39863750
v -1.01999998 0.20993888 0.39803782
v -1.01999998 0.21459073 0.39627361
v -1.01999998 0.21868519 0.39344740
v -1.01999998 0.22198433 0.38972345
v -1.01999998 0.22429639 0.38531816
v -1.01999998 0.22548702 0.38048756
v -1.01999998 0.22548702 0.37551242
v -1.01999998 0.22429639 0.37068185
v -1.01999998 0.22198433 0.36627656
v -1.01999998 0.21868519 0.36255261
v -1.01999998 0.21459073 0.35972640
v -1.01999998 0.20993888 0.35796219
v -1.01999998 0.20500000 0.35736251
v -0.81999999 0.20500000 0.35736251
v -0.81999999 0.20500000 0.35736251
v -0.81999999 0.20006113 0.35796219
v -0.81999999 0.19540927 0.35972640
v -0.81999999 0.19131480 0.36255261
v -0.81999999 0.18801567 0.36627656
v -0.81999999 0.18570361 0.37068185
v -0.81999999 0.18451297 0.37551242
v -0.81999999 0.18451297 0.38048756
v -0.81999999 0.18570361 0.38531816
v -0.81999999 0.18801567 0.38972345
v -0.81999999 0.19131480 0.39344740
v -0.81999999 0.19540927 0.39627361
v -0.81999999 0.20006113 0.39803782
v -0.81999999 0.20500000 0.39863750
v -0.81999999 0.20993888 0.39803782
v -0.81999999 0.21459073 0.39627361
v -0.81999999 0.21868519 0.39344740
v -0.81999999 0.22198433 0.38972345
v -0.81999999 0.22429639 0.38531816
v -0.81999999 0.22548702 0.38048756
v -0.81999999 0.22548702 0.37551242
v -0.81999999 0.22429639 0.37068185
v -0.81999999 0.22198433 0.36627656
v -0.81999999 0.21868519 0.36255261
v -0.81999999 0.21459073 0.35972640
v -0.81999999 0.20993888 0.35796219
v -0.81999999 0.20500000 0.35736251
v -0.81999999 0.20006113 0.35796219
v -0.81999999 0.19540927 0.35972640
v -0.81999999 0.19131480 0.36255261
v -0.81999999 0.18801567 0.36627656
v -0.81999999 0.18570361 0.37068185
v -0.81999999 0.18451297 0.37551242
v -0.81999999 0.18451297 0.38048756
v -0.81999999 0.18570361 0.38531816
v -0.81999999 0.18801567 0.38972345
v -0.81999999 0.19131480 0.39344740
v -0.81999999 0.19540927 0.39627361
v -0.81999999 0.20006113 0.39803782
v -0.81999999 0.20500000 0.39863750
v -0.81999999 0.20993888 0.39803782
v -0.81999999 0.21459073 0.39627361
v -0.81999999 0.21868519 0.39344740
v -0.81999999 0.22198433 0.38972345
v -0.81999999 0.22429639 0.38531816
v -0.81999999 0.22548702 0.38048756
v -0.81999999 0.22548702 0.37551242
v -0.81999999 0.22429639 0.37068185
v -0.81999999 0.22198433 0.36627656
v -0.81999999 0.21868519 0.36255261
v -0.81999999 0.21459073 0.35972640
v -0.81999999 0.20993888 0.35796219
v -0.81999999 0.18500000 0.37799999
v -0.81999999 0.18558116 0.38278630
v -0.81999999 0.18729088 0.38729447
v -0.81999999 0.19002979 0.39126244
v -0.81999999 0.19363871 0.39445966
v -0.81999999 0.19790789 0.39670032
v -0.81999999 0.20258927 0.39785418
v -0.81999999 0.20741074 0.39785418
v -0.81999999 0.21209210 0.39670032
v -0.81999999 0.21636130 0.39445966
v -0.81999999 0.21997021 0.39126244
v -0.81999999 0.22270912 0.38729447
v -0.81999999 0.22441883 0.38278630
v -0.81999999 0.22499999 0.37799999
v -0.81999999 0.22441883 0.37321368
v -0.81999999 0.22270912 0.36870554
v -0.81999999 0.21997021 0.36473754
v -0.81999999 0.21636130 0.36154032
v -0.81999999 0.21209210 0.35929969
v -0.81999999 0.20741074 0.35814583
v -0.81999999 0.20258927 0.35814583
v -0.81999999 0.19790789 0.35929969
v -0.81999999 0.19363871 0.36154032
v -0.81999999 0.19002979 0.36473754
v -0.81999999 0.18729088 0.36870554
v -0.81999999 0.18558116 0.37321368
f 4 5 6
f 4 6 7
f 3 7 8
f 3 4 7
f 2 8 9
f 2 3 8
f 1 9 10
f 1 2 9
f 20 18 19
f 17 12 11
f 17 13 12
f 17 14 13
f 17 15 14
f 17 11 16
f 17 20 15
f 17 18 20
f 24 26 25
f 24 27 26
f 24 28 27
f 24 29 28
f 24 30 29
f 24 31 30
f 36 32 31
f 36 33 32
f 36 34 33
f 36 35 34
f 36 31 24
f 23 37 36
f 23 36 24
f 21 24 22
f 21 23 24
f 45 43 42
f 45 44 43
f 46 42 41
f 46 45 42
f 47 41 40
f 47 46 41
f 48 40 39
f 48 47 40
f 49 48 39
f 50 39 38
f 50 49 39
f 51 50 38
f 61 63 62
f 54 53 52
f 54 59 58
f 54 60 59
f 54 61 60
f 54 52 63
f 54 64 53
f 54 63 61
f 57 54 58
f 56 55 54
f 56 54 57
f 65 69 70
f 66 65 70
f 67 70 71
f 67 66 70
f 68 67 71
f 96 71 72
f 96 68 71
f 95 72 73
f 95 96 72
f 94 73 74
f 94 95 73
f 93 74 75
f 93 94 74
f 92 75 76
f 92 76 77
f 92 93 75
f 91 77 78
f 91 92 77
f 90 78 79
f 90 91 78
f 89 79 80
f 89 90 79
f 88 80 81
f 88 89 80
f 85 88 81
f 86 81 82
f 86 85 81
f 87 82 83
f 87 86 82
f 84 87 83
f 99 100 101
f 99 101 102
f 98 99 102
f 133 102 103
f 133 98 102
f 132 133 103
f 97 98 133
f 131 103 104
f 131 132 103
f 130 104 105
f 130 131 104
f 129 130 105
f 106 129 105
f 128 129 106
f 107 128 106
f 127 128 107
f 126 107 108
f 126 127 107
f 125 108 109
f 125 126 108
f 124 109 110
f 124 125 109
f 123 124 110
f 111 123 110
f 122 123 111
f 112 122 111
f 121 122 112
f 113 121 112
f 120 121 113
f 114 120 113
f 118 119 120
f 117 118 120
f 117 120 114
f 117 114 115
f 116 117 115
f 155 150 154
f 153 148 147
f 153 150 148
f 153 154 150
f 156 150 155
f 152 147 146
f 152 153 147
f 157 150 156
f 151 152 146
f 145 151 146
f 176 151 145
f 175 176 145
f 144 175 145
f 174 175 144
f 143 174 144
f 173 174 143
f 142 172 173
f 142 173 143
f 149 158 159
f 149 159 160
f 149 160 161
f 149 161 162
f 171 172 142
f 134 149 162
f 141 171 142
f 170 171 141
f 135 134 162
f 135 162 163
f 140 170 141
f 140 169 170
f 168 169 140
f 136 135 163
f 136 163 164
f 139 168 140
f 139 167 168
f 137 136 164
f 137 164 165
f 137 165 166
f 138 137 166
f 138 167 139
f 138 166 167
f 149 150 158
f 158 150 157
f 178 179 180
f 178 180 177
f 184 182 181
f 184 181 183
f 189 193 194
f 188 193 189
f 187 193 188
f 186 193 187
f 185 193 186
f 190 193 185
f 192 190 191
f 192 193 190
f 224 225 253
f 196 195 223
f 227 229 228
f 222 221 226
f 254 223 224
f 254 253 252
f 254 224 253
f 255 197 196
f 255 196 223
f 255 223 254
f 256 254 252
f 256 252 251
f 257 198 197
f 257 199 198
f 257 255 254
f 257 254 256
f 257 197 255
f 258 250 249
f 258 251 250
f 258 256 251
f 259 200 199
f 259 256 258
f 259 257 256
f 259 199 257
f 260 258 249
f 260 249 248
f 261 259 258
f 261 201 200
f 261 200 259
f 261 258 260
f 262 247 246
f 262 248 247
f 262 261 260
f 262 260 248
f 263 201 261
f 263 202 201
f 263 203 202
f 263 261 262
f 264 246 245
f 264 262 246
f 264 263 262
f 265 204 203
f 265 263 264
f 265 203 263
f 266 264 245
f 266 245 244
f 267 205 204
f 267 206 205
f 267 204 265
f 267 265 264
f 267 264 266
f 268 266 244
f 268 243 242
f 268 244 243
f 269 266 268
f 269 207 206
f 269 267 266
f 269 206 267
f 270 242 241
f 270 268 242
f 271 208 207
f 271 269 268
f 271 268 270
f 271 207 269
f 272 241 240
f 272 271 270
f 272 270 241
f 273 209 208
f 273 210 209
f 273 271 272
f 273 208 271
f 274 272 240
f 274 239 238
f 274 240 239
f 275 211 210
f 275 273 272
f 275 272 274
f 275 210 273
f 276 274 238
f 276 238 237
f 276 275 274
f 277 212 211
f 277 213 212
f 277 211 275
f 277 275 276
f 278 237 236
f 278 276 237
f 279 214 213
f 279 213 277
f 279 277 276
f 279 276 278
f 280 235 234
f 280 236 235
f 280 278 236
f 280 279 278
f 281 215 214
f 281 216 215
f 281 279 280
f 281 214 279
f 282 280 234
f 282 234 233
f 283 217 216
f 283 216 281
f 283 280 282
f 283 281 280
f 284 232 231
f 284 233 232
f 284 282 233
f 285 283 282
f 285 217 283
f 285 218 217
f 285 282 284
f 286 231 230
f 286 285 284
f 286 284 231
f 287 218 285
f 287 219 218
f 287 220 219
f 287 285 286
f 288 230 229
f 288 286 230
f 288 229 227
f 289 220 287
f 289 286 288
f 289 287 286
f 289 221 220
f 289 227 226
f 289 288 227
f 289 226 221
f 290 318 320
f 291 320 321
f 291 290 320
f 292 321 322
f 292 291 321
f 293 292 322
f 294 322 323
f 294 293 322
f 295 323 324
f 295 324 325
f 295 294 323
f 296 295 325
f 297 325 326
f 297 296 325
f 298 326 327
f 298 327 328
f 298 297 326
f 299 298 328
f 300 328 329
f 300 329 330
f 300 299 328
f 301 300 330
f 301 330 331
f 302 301 331
f 302 331 332
f 303 302 332
f 303 332 333
f 304 303 333
f 305 304 333
f 305 333 334
f 305 334 335
f 306 305 335
f 307 306 335
f 307 335 336
f 308 307 336
f 308 336 337
f 309 308 337
f 309 337 338
f 310 309 338
f 310 338 339
f 311 310 339
f 311 339 340
f 311 340 341
f 312 311 341
f 313 312 341
f 313 341 342
f 314 313 342
f 314 342 343
f 315 343 344
f 315 314 343
f 316 344 345
f 316 315 344
f 317 345 319
f 317 316 345
f 346 368 369
f 346 369 370
f 346 370 371
f 346 371 372
f 365 366 367
f 365 367 368
f 348 346 347
f 349 346 348
f 363 364 365
f 362 363 365
f 359 360 361
f 359 361 362
f 359 362 365
f 354 349 350
f 354 350 351
f 354 351 352
f 354 352 353
f 355 349 354
f 356 357 358
f 356 358 359
f 356 365 368
f 356 368 346
f 356 346 349
f 356 359 365
f 356 349 355
f 373 400 402
f 374 402 403
f 374 373 402
f 375 403 404
f 375 374 403
f 376 404 405
f 376 375 404
f 377 405 406
f 377 376 405
f 378 406 407
f 378 377 406
f 379 407 408
f 379 378 407
f 380 408 409
f 380 379 408
f 381 409 410
f 381 380 409
f 382 410 411
f 382 381 410
f 383 382 411
f 384 383 411
f 384 411 412
f 384 412 413
f 385 384 413
f 386 385 413
f 386 413 414
f 386 414 415
f 387 386 415
f 387 415 416
f 388 387 416
f 389 388 416
f 389 416 417
f 389 417 418
f 390 389 418
f 391 390 418
f 391 418 419
f 392 391 419
f 392 419 420
f 392 420 421
f 393 392 421
f 394 393 421
f 394 421 422
f 395 394 422
f 395 422 423
f 396 423 424
f 396 395 423
f 397 396 424
f 397 424 425
f 398 425 426
f 398 397 425
f 399 426 401
f 399 398 426
f 476 431 430
f 475 430 429
f 475 476 430
f 477 431 476
f 432 431 477
f 474 475 429
f 428 474 429
f 478 432 477
f 433 432 478
f 473 474 428
f 427 473 428
f 453 433 478
f 434 433 453
f 472 473 427
f 452 472 427
f 454 434 453
f 435 434 454
f 471 472 452
f 451 471 452
f 455 435 454
f 436 435 455
f 470 471 451
f 450 470 451
f 456 436 455
f 469 470 450
f 437 436 456
f 457 437 456
f 449 469 450
f 468 469 449
f 438 437 457
f 458 438 457
f 448 468 449
f 467 468 448
f 439 438 458
f 459 439 458
f 447 467 448
f 466 467 447
f 440 439 459
f 460 440 459
f 446 466 447
f 465 466 446
f 441 440 460
f 461 441 460
f 445 465 446
f 464 465 445
f 442 461 462
f 442 441 461
f 444 463 464
f 444 464 445
f 443 462 463
f 443 442 462
f 443 463 444

