# https://github.com/mikedh/trimesh
v -0.36764741 0.24472500 0.22112300
v -0.36168107 0.23801735 0.22112300
v -0.35708317 0.23030703 0.22112300
v -0.35401791 0.22186936 0.22112300
v -0.35259476 0.21300571 0.22112300
v -0.35286459 0.20403257 0.22112300
v -0.35481772 0.19527043 0.22112300
v -0.35838437 0.18703218 0.22112300
v -0.36343724 0.17961204 0.22112300
v -0.36979583 0.17327499 0.22112300
v -0.36764741 0.24472500 0.22112326
v -0.36979583 0.17327499 0.22112326
v -0.36343724 0.17961204 0.22112326
v -0.35838437 0.18703218 0.22112326
v -0.35481772 0.19527043 0.22112326
v -0.35286459 0.20403257 0.22112326
v -0.35259476 0.21300571 0.22112326
v -0.35401791 0.22186936 0.22112326
v -0.35708317 0.23030703 0.22112326
v -0.36168107 0.23801735 0.22112326
v -0.36979583 0.17327499 0.22112300
v -0.37764549 0.16802479 0.22112300
v -0.38637862 0.16443108 0.22112300
v -0.39565003 0.16263588 0.22112300
v -0.40509334 0.16271013 0.22112300
v -0.41433537 0.16465090 0.22112300
v -0.42301089 0.16838151 0.22112300
v -0.43077701 0.17375451 0.22112300
v -0.43732685 0.18055756 0.22112300
v -0.44240153 0.18852182 0.22112300
v -0.44580054 0.19733253 0.22112300
v -0.44738951 0.20664151 0.22112300
v -0.44710571 0.21608086 0.22112300
v -0.44496027 0.22527754 0.22112300
v -0.44103804 0.23386812 0.22112300
v -0.43549398 0.24151307 0.22112300
v -0.42854723 0.24791031 0.22112300
v -0.42047232 0.25280699 0.22112300
v -0.41158834 0.25600961 0.22112300
v -0.40224639 0.25739157 0.22112300
v -0.39281565 0.25689831 0.22112300
v -0.38366884 0.25454929 0.22112300
v -0.37516746 0.25043735 0.22112300
v -0.36764741 0.24472500 0.22112300
v -0.36168107 0.23801735 0.22112300
v -0.35708317 0.23030703 0.22112300
v -0.35401791 0.22186936 0.22112300
v -0.35259476 0.21300571 0.22112300
v -0.35286459 0.20403257 0.22112300
v -0.35481772 0.19527043 0.22112300
v -0.35838437 0.18703218 0.22112300
v -0.36343724 0.17961204 0.22112300
v -0.36979583 0.17327499 0.22112300
v -0.37764549 0.16802479 0.22112300
v -0.38637862 0.16443108 0.22112300
v -0.39565003 0.16263588 0.22112300
v -0.40509334 0.16271013 0.22112300
v -0.41433537 0.16465090 0.22112300
v -0.42301089 0.16838151 0.22112300
v -0.43077701 0.17375451 0.22112300
v -0.43732685 0.18055756 0.22112300
v -0.44240153 0.18852182 0.22112300
v -0.44580054 0.19733253 0.22112300
v -0.44738951 0.20664151 0.22112300
v -0.44710571 0.21608086 0.22112300
v -0.44496027 0.22527754 0.22112300
v -0.44103804 0.23386812 0.22112300
v -0.43549398 0.24151307 0.22112300
v -0.42854723 0.24791031 0.22112300
v -0.42047232 0.25280699 0.22112300
v -0.41158834 0.25600961 0.22112300
v -0.40224639 0.25739157 0.22112300
v -0.39281565 0.25689831 0.22112300
v -0.38366884 0.25454929 0.22112300
v -0.37516746 0.25043735 0.22112300
v -0.36764741 0.24472500 0.22112300
v -0.36764741 0.24472500 0.16830300
v -0.36979583 0.17327499 0.16830300
v -0.37764549 0.16802479 0.16830300
v -0.38637862 0.16443108 0.16830300
v -0.39565003 0.16263588 0.16830300
v -0.40509334 0.16271013 0.16830300
v -0.41433537 0.16465090 0.16830300
v -0.42301089 0.16838151 0.16830300
v -0.43077701 0.17375451 0.16830300
v -0.43732685 0.18055756 0.16830300
v -0.44240153 0.18852182 0.16830300
v -0.44580054 0.19733253 0.16830300
v -0.44738951 0.20664151 0.16830300
v -0.44710571 0.21608086 0.16830300
v -0.44496027 0.22527754 0.16830300
v -0.44103804 0.23386812 0.16830300
v -0.43549398 0.24151307 0.16830300
v -0.42854723 0.24791031 0.16830300
v -0.42047232 0.25280699 0.16830300
v -0.41158834 0.25600961 0.16830300
v -0.40224639 0.25739157 0.16830300
v -0.39281565 0.25689831 0.16830300
v -0.38366884 0.25454929 0.16830300
v -0.37516746 0.25043735 0.16830300
v -0.30875900 0.17327499 0.16830301
v -0.36979583 0.17327499 0.16830300
v -0.30577198 0.17327499 0.16858391
v -0.30277652 0.17327499 0.16875261
v -0.29977682 0.17327499 0.16880886
v 0.29022318 0.17327499 0.16880886
v 0.29946676 0.17327499 0.16827305
v 0.30858654 0.17327499 0.16667277
v 0.31746030 0.17327499 0.16402946
v 0.31746030 0.17327499 0.22112326
v -0.36979583 0.17327499 0.22112326
v -0.36979583 0.17327499 0.22112300
v -0.36764741 0.24472500 0.22112300
v -0.36764741 0.24472500 0.16830300
v -0.36764741 0.24472500 0.22112326
v 0.31746030 0.24472500 0.22112326
v 0.31746030 0.24472500 0.16402946
v 0.30858654 0.24472500 0.16667277
v 0.29946676 0.24472500 0.16827305
v 0.29022318 0.24472500 0.16880886
v -0.29977682 0.24472500 0.16880886
v -0.30277652 0.24472500 0.16875261
v -0.30577198 0.24472500 0.16858391
v -0.30875900 0.24472500 0.16830301
v 0.11522318 0.26899999 0.00880886
v 0.11522318 0.26899999 0.16880886
v 0.11522318 0.35900000 0.00880886
v 0.11522318 0.35900000 0.16880886
v -0.12477683 0.26899999 0.16880886
v -0.12477683 0.26899999 0.00880886
v -0.12477683 0.35900000 0.16880886
v -0.12477683 0.35900000 0.00880886
v -0.12477683 0.14900000 0.00880886
v -0.12477683 0.14900000 0.16880886
v -0.12477683 0.06000000 0.00880886
v -0.12477683 0.06000000 0.16880886
v 0.11522318 0.14900000 0.16880886
v 0.11522318 0.14900000 0.00880886
v 0.11522318 0.06000000 0.16880886
v 0.11522318 0.06000000 0.00880886
v -0.29977682 0.06000000 0.16880886
v -0.12477683 0.06000000 0.16880886
v -0.29977682 0.06000000 0.00880886
v -0.31229159 0.06000000 0.00979380
v -0.32449818 0.06000000 0.01272434
v -0.33609605 0.06000000 0.01752834
v -0.34679964 0.06000000 0.02408750
v -0.35634536 0.06000000 0.03224032
v -0.36449817 0.06000000 0.04178604
v -0.37105733 0.06000000 0.05248962
v -0.37586135 0.06000000 0.06408750
v -0.37879190 0.06000000 0.07629411
v -0.37977684 0.06000000 0.08880886
v -0.37879190 0.06000000 0.10132362
v -0.37586135 0.06000000 0.11353023
v -0.37105733 0.06000000 0.12512811
v -0.36449817 0.06000000 0.13583168
v -0.35634536 0.06000000 0.14537741
v -0.34679964 0.06000000 0.15353023
v -0.33609605 0.06000000 0.16008939
v -0.32449818 0.06000000 0.16489339
v -0.31229159 0.06000000 0.16782393
v -0.12477683 0.06000000 0.00880886
v 0.29022318 0.06000000 0.00880886
v 0.11522318 0.06000000 0.00880886
v 0.29022318 0.06000000 0.16880886
v 0.30273792 0.06000000 0.16782393
v 0.31494454 0.06000000 0.16489339
v 0.32654241 0.06000000 0.16008939
v 0.33724600 0.06000000 0.15353023
v 0.34679171 0.06000000 0.14537741
v 0.35494453 0.06000000 0.13583168
v 0.36150369 0.06000000 0.12512811
v 0.36630771 0.06000000 0.11353023
v 0.36923826 0.06000000 0.10132362
v 0.37022316 0.06000000 0.08880886
v 0.36923826 0.06000000 0.07629411
v 0.36630771 0.06000000 0.06408750
v 0.36150369 0.06000000 0.05248962
v 0.35494453 0.06000000 0.04178604
v 0.34679171 0.06000000 0.03224032
v 0.33724600 0.06000000 0.02408750
v 0.32654241 0.06000000 0.01752834
v 0.31494454 0.06000000 0.01272434
v 0.30273792 0.06000000 0.00979380
v 0.11522318 0.06000000 0.16880886
v 0.29022318 0.06000000 0.16880886
v 0.30273792 0.06000000 0.16782393
v 0.31494454 0.06000000 0.16489339
v 0.32654241 0.06000000 0.16008939
v 0.33724600 0.06000000 0.15353023
v 0.34679171 0.06000000 0.14537741
v 0.35494453 0.06000000 0.13583168
v 0.36150369 0.06000000 0.12512811
v 0.36630771 0.06000000 0.11353023
v 0.36923826 0.06000000 0.10132362
v 0.37022316 0.06000000 0.08880886
v 0.36923826 0.06000000 0.07629411
v 0.36630771 0.06000000 0.06408750
v 0.36150369 0.06000000 0.05248962
v 0.35494453 0.06000000 0.04178604
v 0.34679171 0.06000000 0.03224032
v 0.33724600 0.06000000 0.02408750
v 0.32654241 0.06000000 0.01752834
v 0.31494454 0.06000000 0.01272434
v 0.30273792 0.06000000 0.00979380
v 0.29022318 0.06000000 0.00880886
v 0.29022318 0.00000000 0.16880886
v 0.29022318 0.00000000 0.00880886
v 0.30273792 0.00000000 0.00979380
v 0.31494454 0.00000000 0.01272434
v 0.32654241 0.00000000 0.01752834
v 0.33724600 0.00000000 0.02408750
v 0.34679171 0.00000000 0.03224032
v 0.35494453 0.00000000 0.04178604
v 0.36150369 0.00000000 0.05248962
v 0.36630771 0.00000000 0.06408750
v 0.36923826 0.00000000 0.07629411
v 0.37022316 0.00000000 0.08880886
v 0.36923826 0.00000000 0.10132362
v 0.36630771 0.00000000 0.11353023
v 0.36150369 0.00000000 0.12512811
v 0.35494453 0.00000000 0.13583168
v 0.34679171 0.00000000 0.14537741
v 0.33724600 0.00000000 0.15353023
v 0.32654241 0.00000000 0.16008939
v 0.31494454 0.00000000 0.16489339
v 0.30273792 0.00000000 0.16782393
v -0.12477683 0.00000000 0.00880886
v 0.11522318 0.00000000 0.00880886
v -0.29977682 0.00000000 0.00880886
v -0.29977682 0.00000000 0.16880886
v -0.31229159 0.00000000 0.16782393
v -0.32449818 0.00000000 0.16489339
v -0.33609605 0.00000000 0.16008939
v -0.34679964 0.00000000 0.15353023
v -0.35634536 0.00000000 0.14537741
v -0.36449817 0.00000000 0.13583168
v -0.37105733 0.00000000 0.12512811
v -0.37586135 0.00000000 0.11353023
v -0.37879190 0.00000000 0.10132362
v -0.37977684 0.00000000 0.08880886
v -0.37879190 0.00000000 0.07629411
v -0.37586135 0.00000000 0.06408750
v -0.37105733 0.00000000 0.05248962
v -0.36449817 0.00000000 0.04178604
v -0.35634536 0.00000000 0.03224032
v -0.34679964 0.00000000 0.02408750
v -0.33609605 0.00000000 0.01752834
v -0.32449818 0.00000000 0.01272434
v -0.31229159 0.00000000 0.00979380
v -0.12477683 0.00000000 0.16880886
v 0.11522318 0.00000000 0.16880886
v 0.29022318 0.00000000 0.16880886
v 0.29022318 0.00000000 0.00880886
v 0.30273792 0.00000000 0.00979380
v 0.31494454 0.00000000 0.01272434
v 0.32654241 0.00000000 0.01752834
v 0.33724600 0.00000000 0.02408750
v 0.34679171 0.00000000 0.03224032
v 0.35494453 0.00000000 0.04178604
v 0.36150369 0.00000000 0.05248962
v 0.36630771 0.00000000 0.06408750
v 0.36923826 0.00000000 0.07629411
v 0.37022316 0.00000000 0.08880886
v 0.36923826 0.00000000 0.10132362
v 0.36630771 0.00000000 0.11353023
v 0.36150369 0.00000000 0.12512811
v 0.35494453 0.00000000 0.13583168
v 0.34679171 0.00000000 0.14537741
v 0.33724600 0.00000000 0.15353023
v 0.32654241 0.00000000 0.16008939
v 0.31494454 0.00000000 0.16489339
v 0.30273792 0.00000000 0.16782393
v -0.29977682 0.06000000 0.00880886
v -0.31229159 0.06000000 0.00979380
v -0.32449818 0.06000000 0.01272434
v -0.33609605 0.06000000 0.01752834
v -0.34679964 0.06000000 0.02408750
v -0.35634536 0.06000000 0.03224032
v -0.36449817 0.06000000 0.04178604
v -0.37105733 0.06000000 0.05248962
v -0.37586135 0.06000000 0.06408750
v -0.37879190 0.06000000 0.07629411
v -0.37977684 0.06000000 0.08880886
v -0.37879190 0.06000000 0.10132362
v -0.37586135 0.06000000 0.11353023
v -0.37105733 0.06000000 0.12512811
v -0.36449817 0.06000000 0.13583168
v -0.35634536 0.06000000 0.14537741
v -0.34679964 0.06000000 0.15353023
v -0.33609605 0.06000000 0.16008939
v -0.32449818 0.06000000 0.16489339
v -0.31229159 0.06000000 0.16782393
v -0.29977682 0.06000000 0.16880886
v -0.29977682 0.00000000 0.00880886
v -0.29977682 0.00000000 0.16880886
v -0.31229159 0.00000000 0.16782393
v -0.32449818 0.00000000 0.16489339
v -0.33609605 0.00000000 0.16008939
v -0.34679964 0.00000000 0.15353023
v -0.35634536 0.00000000 0.14537741
v -0.36449817 0.00000000 0.13583168
v -0.37105733 0.00000000 0.12512811
v -0.37586135 0.00000000 0.11353023
v -0.37879190 0.00000000 0.10132362
v -0.37977684 0.00000000 0.08880886
v -0.37879190 0.00000000 0.07629411
v -0.37586135 0.00000000 0.06408750
v -0.37105733 0.00000000 0.05248962
v -0.36449817 0.00000000 0.04178604
v -0.35634536 0.00000000 0.03224032
v -0.34679964 0.00000000 0.02408750
v -0.33609605 0.00000000 0.01752834
v -0.32449818 0.00000000 0.01272434
v -0.31229159 0.00000000 0.00979380
v -0.12477683 0.35900000 0.00880886
v -0.12477683 0.35900000 0.16880886
v -0.29977682 0.35900000 0.16880886
v -0.29977682 0.35900000 0.00880886
v -0.31229159 0.35900000 0.00979380
v -0.32449818 0.35900000 0.01272434
v -0.33609605 0.35900000 0.01752834
v -0.34679964 0.35900000 0.02408750
v -0.35634536 0.35900000 0.03224032
v -0.36449817 0.35900000 0.04178604
v -0.37105733 0.35900000 0.05248962
v -0.37586135 0.35900000 0.06408750
v -0.37879190 0.35900000 0.07629411
v -0.37977684 0.35900000 0.08880886
v -0.37879190 0.35900000 0.10132362
v -0.37586135 0.35900000 0.11353023
v -0.37105733 0.35900000 0.12512811
v -0.36449817 0.35900000 0.13583168
v -0.35634536 0.35900000 0.14537741
v -0.34679964 0.35900000 0.15353023
v -0.33609605 0.35900000 0.16008939
v -0.32449818 0.35900000 0.16489339
v -0.31229159 0.35900000 0.16782393
v 0.11522318 0.35900000 0.16880886
v 0.11522318 0.35900000 0.00880886
v 0.29022318 0.35900000 0.00880886
v 0.29022318 0.35900000 0.16880886
v 0.30273792 0.35900000 0.16782393
v 0.31494454 0.35900000 0.16489339
v 0.32654241 0.35900000 0.16008939
v 0.33724600 0.35900000 0.15353023
v 0.34679171 0.35900000 0.14537741
v 0.35494453 0.35900000 0.13583168
v 0.36150369 0.35900000 0.12512811
v 0.36630771 0.35900000 0.11353023
v 0.36923826 0.35900000 0.10132362
v 0.37022316 0.35900000 0.08880886
v 0.36923826 0.35900000 0.07629411
v 0.36630771 0.35900000 0.06408750
v 0.36150369 0.35900000 0.05248962
v 0.35494453 0.35900000 0.04178604
v 0.34679171 0.35900000 0.03224032
v 0.33724600 0.35900000 0.02408750
v 0.32654241 0.35900000 0.01752834
v 0.31494454 0.35900000 0.01272434
v 0.30273792 0.35900000 0.00979380
v -0.29977682 0.35900000 0.00880886
v -0.31229159 0.35900000 0.00979380
v -0.32449818 0.35900000 0.01272434
v -0.33609605 0.35900000 0.01752834
v -0.34679964 0.35900000 0.02408750
v -0.35634536 0.35900000 0.03224032
v -0.36449817 0.35900000 0.04178604
v -0.37105733 0.35900000 0.05248962
v -0.37586135 0.35900000 0.06408750
v -0.37879190 0.35900000 0.07629411
v -0.37977684 0.35900000 0.08880886
v -0.37879190 0.35900000 0.10132362
v -0.37586135 0.35900000 0.11353023
v -0.37105733 0.35900000 0.12512811
v -0.36449817 0.35900000 0.13583168
v -0.35634536 0.35900000 0.14537741
v -0.34679964 0.35900000 0.15353023
v -0.33609605 0.35900000 0.16008939
v -0.32449818 0.35900000 0.16489339
v -0.31229159 0.35900000 0.16782393
v -0.29977682 0.35900000 0.16880886
v -0.29977682 0.41800001 0.16880886
v -0.31229159 0.41800001 0.16782393
v -0.32449818 0.41800001 0.16489339
v -0.33609605 0.41800001 0.16008939
v -0.34679964 0.41800001 0.15353023
v -0.35634536 0.41800001 0.14537741
v -0.36449817 0.41800001 0.13583168
v -0.37105733 0.41800001 0.12512811
v -0.37586135 0.41800001 0.11353023
v -0.37879190 0.41800001 0.10132362
v -0.37977684 0.41800001 0.08880886
v -0.37879190 0.41800001 0.07629411
v -0.37586135 0.41800001 0.06408750
v -0.37105733 0.41800001 0.05248962
v -0.36449817 0.41800001 0.04178604
v -0.35634536 0.41800001 0.03224032
v -0.34679964 0.41800001 0.02408750
v -0.33609605 0.41800001 0.01752834
v -0.32449818 0.41800001 0.01272434
v -0.31229159 0.41800001 0.00979380
v -0.29977682 0.41800001 0.00880886
v 0.29022318 0.41800001 0.16880886
v 0.11522318 0.41800001 0.16880886
v 0.29022318 0.41800001 0.00880886
v 0.30273792 0.41800001 0.00979380
v 0.31494454 0.41800001 0.01272434
v 0.32654241 0.41800001 0.01752834
v 0.33724600 0.41800001 0.02408750
v 0.34679171 0.41800001 0.03224032
v 0.35494453 0.41800001 0.04178604
v 0.36150369 0.41800001 0.05248962
v 0.36630771 0.41800001 0.06408750
v 0.36923826 0.41800001 0.07629411
v 0.37022316 0.41800001 0.08880886
v 0.36923826 0.41800001 0.10132362
v 0.36630771 0.41800001 0.11353023
v 0.36150369 0.41800001 0.12512811
v 0.35494453 0.41800001 0.13583168
v 0.34679171 0.41800001 0.14537741
v 0.33724600 0.41800001 0.15353023
v 0.32654241 0.41800001 0.16008939
v 0.31494454 0.41800001 0.16489339
v 0.30273792 0.41800001 0.16782393
v 0.11522318 0.41800001 0.00880886
v -0.12477683 0.41800001 0.00880886
v -0.29977682 0.41800001 0.00880886
v -0.29977682 0.41800001 0.16880886
v -0.31229159 0.41800001 0.16782393
v -0.32449818 0.41800001 0.16489339
v -0.33609605 0.41800001 0.16008939
v -0.34679964 0.41800001 0.15353023
v -0.35634536 0.41800001 0.14537741
v -0.36449817 0.41800001 0.13583168
v -0.37105733 0.41800001 0.12512811
v -0.37586135 0.41800001 0.11353023
v -0.37879190 0.41800001 0.10132362
v -0.37977684 0.41800001 0.08880886
v -0.37879190 0.41800001 0.07629411
v -0.37586135 0.41800001 0.06408750
v -0.37105733 0.41800001 0.05248962
v -0.36449817 0.41800001 0.04178604
v -0.35634536 0.41800001 0.03224032
v -0.34679964 0.41800001 0.02408750
v -0.33609605 0.41800001 0.01752834
v -0.32449818 0.41800001 0.01272434
v -0.31229159 0.41800001 0.00979380
v -0.12477683 0.41800001 0.16880886
v 0.29022318 0.35900000 0.16880886
v 0.30273792 0.35900000 0.16782393
v 0.31494454 0.35900000 0.16489339
v 0.32654241 0.35900000 0.16008939
v 0.33724600 0.35900000 0.15353023
v 0.34679171 0.35900000 0.14537741
v 0.35494453 0.35900000 0.13583168
v 0.36150369 0.35900000 0.12512811
v 0.36630771 0.35900000 0.11353023
v 0.36923826 0.35900000 0.10132362
v 0.37022316 0.35900000 0.08880886
v 0.36923826 0.35900000 0.07629411
v 0.36630771 0.35900000 0.06408750
v 0.36150369 0.35900000 0.05248962
v 0.35494453 0.35900000 0.04178604
v 0.34679171 0.35900000 0.03224032
v 0.33724600 0.35900000 0.02408750
v 0.32654241 0.35900000 0.01752834
v 0.31494454 0.35900000 0.01272434
v 0.30273792 0.35900000 0.00979380
v 0.29022318 0.35900000 0.00880886
v 0.29022318 0.41800001 0.00880886
v 0.30273792 0.41800001 0.00979380
v 0.31494454 0.41800001 0.01272434
v 0.32654241 0.41800001 0.01752834
v 0.33724600 0.41800001 0.02408750
v 0.34679171 0.41800001 0.03224032
v 0.35494453 0.41800001 0.04178604
v 0.36150369 0.41800001 0.05248962
v 0.36630771 0.41800001 0.06408750
v 0.36923826 0.41800001 0.07629411
v 0.37022316 0.41800001 0.08880886
v 0.36923826 0.41800001 0.10132362
v 0.36630771 0.41800001 0.11353023
v 0.36150369 0.41800001 0.12512811
v 0.35494453 0.41800001 0.13583168
v 0.34679171 0.41800001 0.14537741
v 0.33724600 0.41800001 0.15353023
v 0.32654241 0.41800001 0.16008939
v 0.31494454 0.41800001 0.16489339
v 0.30273792 0.41800001 0.16782393
v 0.29022318 0.41800001 0.16880886
v 0.29022318 0.14900000 0.16880886
v 0.11522318 0.14900000 0.16880886
v 0.29022318 0.17327499 0.16880886
v -0.29977682 0.17327499 0.16880886
v -0.29977682 0.14900000 0.16880886
v -0.12477683 0.14900000 0.16880886
v -0.12477683 0.06000000 0.16880886
v -0.29977682 0.06000000 0.16880886
v -0.29977682 0.00000000 0.16880886
v -0.12477683 0.00000000 0.16880886
v 0.11522318 0.00000000 0.16880886
v 0.29022318 0.00000000 0.16880886
v 0.29022318 0.06000000 0.16880886
v 0.11522318 0.06000000 0.16880886
v -0.29977682 0.14900000 0.00880886
v -0.12477683 0.14900000 0.00880886
v -0.29977682 0.14900000 0.16880886
v -0.31229159 0.14900000 0.16782393
v -0.32449818 0.14900000 0.16489339
v -0.33609605 0.14900000 0.16008939
v -0.34679964 0.14900000 0.15353023
v -0.35634536 0.14900000 0.14537741
v -0.36449817 0.14900000 0.13583168
v -0.37105733 0.14900000 0.12512811
v -0.37586135 0.14900000 0.11353023
v -0.37879190 0.14900000 0.10132362
v -0.37977684 0.14900000 0.08880886
v -0.37879190 0.14900000 0.07629411
v -0.37586135 0.14900000 0.06408750
v -0.37105733 0.14900000 0.05248962
v -0.36449817 0.14900000 0.04178604
v -0.35634536 0.14900000 0.03224032
v -0.34679964 0.14900000 0.02408750
v -0.33609605 0.14900000 0.01752834
v -0.32449818 0.14900000 0.01272434
v -0.31229159 0.14900000 0.00979380
v -0.12477683 0.14900000 0.16880886
v 0.29022318 0.14900000 0.16880886
v 0.11522318 0.14900000 0.16880886
v 0.29022318 0.14900000 0.00880886
v 0.30273792 0.14900000 0.00979380
v 0.31494454 0.14900000 0.01272434
v 0.32654241 0.14900000 0.01752834
v 0.33724600 0.14900000 0.02408750
v 0.34679171 0.14900000 0.03224032
v 0.35494453 0.14900000 0.04178604
v 0.36150369 0.14900000 0.05248962
v 0.36630771 0.14900000 0.06408750
v 0.36923826 0.14900000 0.07629411
v 0.37022316 0.14900000 0.08880886
v 0.36923826 0.14900000 0.10132362
v 0.36630771 0.14900000 0.11353023
v 0.36150369 0.14900000 0.12512811
v 0.35494453 0.14900000 0.13583168
v 0.34679171 0.14900000 0.14537741
v 0.33724600 0.14900000 0.15353023
v 0.32654241 0.14900000 0.16008939
v 0.31494454 0.14900000 0.16489339
v 0.30273792 0.14900000 0.16782393
v 0.11522318 0.14900000 0.00880886
v 0.29022318 0.26899999 0.00880886
v 0.11522318 0.26899999 0.00880886
v 0.29022318 0.14900000 0.00880886
v 0.11522318 0.14900000 0.00880886
v 0.11522318 0.06000000 0.00880886
v 0.29022318 0.06000000 0.00880886
v 0.29022318 0.00000000 0.00880886
v 0.11522318 0.00000000 0.00880886
v -0.12477683 0.00000000 0.00880886
v -0.29977682 0.00000000 0.00880886
v -0.29977682 0.06000000 0.00880886
v -0.12477683 0.06000000 0.00880886
v -0.12477683 0.14900000 0.00880886
v -0.29977682 0.14900000 0.00880886
v -0.29977682 0.26899999 0.00880886
v -0.12477683 0.26899999 0.00880886
v -0.12477683 0.35900000 0.00880886
v -0.29977682 0.35900000 0.00880886
v -0.29977682 0.41800001 0.00880886
v -0.12477683 0.41800001 0.00880886
v 0.11522318 0.41800001 0.00880886
v 0.29022318 0.41800001 0.00880886
v 0.29022318 0.35900000 0.00880886
v 0.11522318 0.35900000 0.00880886
v -0.29977682 0.26899999 0.16880886
v -0.12477683 0.26899999 0.16880886
v -0.29977682 0.26899999 0.00880886
v -0.31229159 0.26899999 0.00979380
v -0.32449818 0.26899999 0.01272434
v -0.33609605 0.26899999 0.01752834
v -0.34679964 0.26899999 0.02408750
v -0.35634536 0.26899999 0.03224032
v -0.36449817 0.26899999 0.04178604
v -0.37105733 0.26899999 0.05248962
v -0.37586135 0.26899999 0.06408750
v -0.37879190 0.26899999 0.07629411
v -0.37977684 0.26899999 0.08880886
v -0.37879190 0.26899999 0.10132362
v -0.37586135 0.26899999 0.11353023
v -0.37105733 0.26899999 0.12512811
v -0.36449817 0.26899999 0.13583168
v -0.35634536 0.26899999 0.14537741
v -0.34679964 0.26899999 0.15353023
v -0.33609605 0.26899999 0.16008939
v -0.32449818 0.26899999 0.16489339
v -0.31229159 0.26899999 0.16782393
v -0.12477683 0.26899999 0.00880886
v 0.29022318 0.26899999 0.00880886
v 0.11522318 0.26899999 0.00880886
v 0.29022318 0.26899999 0.16880886
v 0.30273792 0.26899999 0.16782393
v 0.31494454 0.26899999 0.16489339
v 0.32654241 0.26899999 0.16008939
v 0.33724600 0.26899999 0.15353023
v 0.34679171 0.26899999 0.14537741
v 0.35494453 0.26899999 0.13583168
v 0.36150369 0.26899999 0.12512811
v 0.36630771 0.26899999 0.11353023
v 0.36923826 0.26899999 0.10132362
v 0.37022316 0.26899999 0.08880886
v 0.36923826 0.26899999 0.07629411
v 0.36630771 0.26899999 0.06408750
v 0.36150369 0.26899999 0.05248962
v 0.35494453 0.26899999 0.04178604
v 0.34679171 0.26899999 0.03224032
v 0.33724600 0.26899999 0.02408750
v 0.32654241 0.26899999 0.01752834
v 0.31494454 0.26899999 0.01272434
v 0.30273792 0.26899999 0.00979380
v 0.11522318 0.26899999 0.16880886
v -0.29977682 0.26899999 0.00880886
v -0.31229159 0.26899999 0.00979380
v -0.32449818 0.26899999 0.01272434
v -0.33609605 0.26899999 0.01752834
v -0.34679964 0.26899999 0.02408750
v -0.35634536 0.26899999 0.03224032
v -0.36449817 0.26899999 0.04178604
v -0.37105733 0.26899999 0.05248962
v -0.37586135 0.26899999 0.06408750
v -0.37879190 0.26899999 0.07629411
v -0.37977684 0.26899999 0.08880886
v -0.37879190 0.26899999 0.10132362
v -0.37586135 0.26899999 0.11353023
v -0.37105733 0.26899999 0.12512811
v -0.36449817 0.26899999 0.13583168
v -0.35634536 0.26899999 0.14537741
v -0.34679964 0.26899999 0.15353023
v -0.33609605 0.26899999 0.16008939
v -0.32449818 0.26899999 0.16489339
v -0.31229159 0.26899999 0.16782393
v -0.29977682 0.26899999 0.16880886
v -0.29977682 0.14900000 0.00880886
v -0.29977682 0.14900000 0.16880886
v -0.31229159 0.14900000 0.16782393
v -0.32449818 0.14900000 0.16489339
v -0.33609605 0.14900000 0.16008939
v -0.34679964 0.14900000 0.15353023
v -0.35634536 0.14900000 0.14537741
v -0.36449817 0.14900000 0.13583168
v -0.37105733 0.14900000 0.12512811
v -0.37586135 0.14900000 0.11353023
v -0.37879190 0.14900000 0.10132362
v -0.37977684 0.14900000 0.08880886
v -0.37879190 0.14900000 0.07629411
v -0.37586135 0.14900000 0.06408750
v -0.37105733 0.14900000 0.05248962
v -0.36449817 0.14900000 0.04178604
v -0.35634536 0.14900000 0.03224032
v -0.34679964 0.14900000 0.02408750
v -0.33609605 0.14900000 0.01752834
v -0.32449818 0.14900000 0.01272434
v -0.31229159 0.14900000 0.00979380
v -0.29977682 0.17327499 0.16880886
v -0.30875900 0.17327499 0.16830301
v -0.30577198 0.17327499 0.16858391
v -0.30277652 0.17327499 0.16875261
v -0.30875900 0.24472500 0.16830301
v -0.29977682 0.24472500 0.16880886
v -0.30277652 0.24472500 0.16875261
v -0.30577198 0.24472500 0.16858391
v -0.30875900 0.24472500 0.16830301
v -0.30875900 0.17327499 0.16830301
v -0.36979583 0.17327499 0.16830300
v -0.37764549 0.16802479 0.16830300
v -0.38637862 0.16443108 0.16830300
v -0.39565003 0.16263588 0.16830300
v -0.40509334 0.16271013 0.16830300
v -0.41433537 0.16465090 0.16830300
v -0.42301089 0.16838151 0.16830300
v -0.43077701 0.17375451 0.16830300
v -0.43732685 0.18055756 0.16830300
v -0.44240153 0.18852182 0.16830300
v -0.44580054 0.19733253 0.16830300
v -0.44738951 0.20664151 0.16830300
v -0.44710571 0.21608086 0.16830300
v -0.44496027 0.22527754 0.16830300
v -0.44103804 0.23386812 0.16830300
v -0.43549398 0.24151307 0.16830300
v -0.42854723 0.24791031 0.16830300
v -0.42047232 0.25280699 0.16830300
v -0.41158834 0.25600961 0.16830300
v -0.40224639 0.25739157 0.16830300
v -0.39281565 0.25689831 0.16830300
v -0.38366884 0.25454929 0.16830300
v -0.37516746 0.25043735 0.16830300
v -0.36764741 0.24472500 0.16830300
v 0.31746030 0.17327499 0.16402946
v 0.31746030 0.24472500 0.16402946
v 0.31746030 0.24472500 0.22112326
v 0.31746030 0.17327499 0.22112326
v 0.31746030 0.17327499 0.22112326
v -0.36979583 0.17327499 0.22112326
v 0.31746030 0.24472500 0.22112326
v -0.36764741 0.24472500 0.22112326
v -0.36343724 0.17961204 0.22112326
v -0.35838437 0.18703218 0.22112326
v -0.35481772 0.19527043 0.22112326
v -0.35286459 0.20403257 0.22112326
v -0.35259476 0.21300571 0.22112326
v -0.35401791 0.22186936 0.22112326
v -0.35708317 0.23030703 0.22112326
v -0.36168107 0.23801735 0.22112326
v 0.29022318 0.26899999 0.16880886
v 0.30273792 0.26899999 0.16782393
v 0.31494454 0.26899999 0.16489339
v 0.32654241 0.26899999 0.16008939
v 0.33724600 0.26899999 0.15353023
v 0.34679171 0.26899999 0.14537741
v 0.35494453 0.26899999 0.13583168
v 0.36150369 0.26899999 0.12512811
v 0.36630771 0.26899999 0.11353023
v 0.36923826 0.26899999 0.10132362
v 0.37022316 0.26899999 0.08880886
v 0.36923826 0.26899999 0.07629411
v 0.36630771 0.26899999 0.06408750
v 0.36150369 0.26899999 0.05248962
v 0.35494453 0.26899999 0.04178604
v 0.34679171 0.26899999 0.03224032
v 0.33724600 0.26899999 0.02408750
v 0.32654241 0.26899999 0.01752834
v 0.31494454 0.26899999 0.01272434
v 0.30273792 0.26899999 0.00979380
v 0.29022318 0.26899999 0.00880886
v 0.29022318 0.24472500 0.16880886
v 0.31746030 0.24472500 0.16402946
v 0.30858654 0.24472500 0.16667277
v 0.29946676 0.24472500 0.16827305
v 0.31746030 0.17327499 0.16402946
v 0.29022318 0.17327499 0.16880886
v 0.29946676 0.17327499 0.16827305
v 0.30858654 0.17327499 0.16667277
v 0.29022318 0.14900000 0.16880886
v 0.29022318 0.14900000 0.00880886
v 0.30273792 0.14900000 0.00979380
v 0.31494454 0.14900000 0.01272434
v 0.32654241 0.14900000 0.01752834
v 0.33724600 0.14900000 0.02408750
v 0.34679171 0.14900000 0.03224032
v 0.35494453 0.14900000 0.04178604
v 0.36150369 0.14900000 0.05248962
v 0.36630771 0.14900000 0.06408750
v 0.36923826 0.14900000 0.07629411
v 0.37022316 0.14900000 0.08880886
v 0.36923826 0.14900000 0.10132362
v 0.36630771 0.14900000 0.11353023
v 0.36150369 0.14900000 0.12512811
v 0.35494453 0.14900000 0.13583168
v 0.34679171 0.14900000 0.14537741
v 0.33724600 0.14900000 0.15353023
v 0.32654241 0.14900000 0.16008939
v 0.31494454 0.14900000 0.16489339
v 0.30273792 0.14900000 0.16782393
v 0.29022318 0.24472500 0.16880886
v -0.29977682 0.24472500 0.16880886
v 0.29022318 0.26899999 0.16880886
v 0.11522318 0.26899999 0.16880886
v 0.11522318 0.35900000 0.16880886
v 0.29022318 0.35900000 0.16880886
v 0.29022318 0.41800001 0.16880886
v 0.11522318 0.41800001 0.16880886
v -0.12477683 0.41800001 0.16880886
v -0.29977682 0.41800001 0.16880886
v -0.29977682 0.35900000 0.16880886
v -0.12477683 0.35900000 0.16880886
v -0.12477683 0.26899999 0.16880886
v -0.29977682 0.26899999 0.16880886
f 1 20 11
f 2 20 1
f 3 18 19
f 3 19 20
f 3 20 2
f 4 18 3
f 5 16 17
f 5 17 18
f 5 18 4
f 6 16 5
f 7 15 16
f 7 16 6
f 8 13 14
f 8 14 15
f 8 15 7
f 9 12 13
f 9 13 8
f 10 12 9
f 35 37 36
f 34 37 35
f 32 34 33
f 42 41 40
f 43 38 37
f 43 39 38
f 43 40 39
f 43 42 40
f 29 31 30
f 45 44 43
f 46 32 31
f 46 37 34
f 46 34 32
f 46 43 37
f 46 45 43
f 26 28 27
f 26 29 28
f 24 26 25
f 24 31 29
f 24 29 26
f 22 24 23
f 51 47 46
f 51 48 47
f 51 49 48
f 51 50 49
f 51 46 31
f 51 31 24
f 21 24 22
f 52 51 24
f 52 24 21
f 79 53 54
f 79 78 53
f 80 54 55
f 80 79 54
f 81 55 56
f 81 80 55
f 82 56 57
f 82 81 56
f 83 57 58
f 83 82 57
f 84 58 59
f 84 83 58
f 85 59 60
f 85 84 59
f 86 60 61
f 86 61 62
f 86 85 60
f 87 86 62
f 88 62 63
f 88 87 62
f 89 63 64
f 89 88 63
f 90 64 65
f 90 89 64
f 91 90 65
f 91 65 66
f 92 91 66
f 92 66 67
f 93 92 67
f 93 67 68
f 94 68 69
f 94 93 68
f 95 94 69
f 95 69 70
f 96 70 71
f 96 95 70
f 97 71 72
f 97 96 71
f 98 72 73
f 98 73 74
f 98 97 72
f 99 98 74
f 100 74 75
f 100 75 76
f 100 99 74
f 77 100 76
f 101 111 112
f 101 112 102
f 103 111 101
f 104 111 103
f 105 111 104
f 110 111 105
f 106 110 105
f 107 110 106
f 108 110 107
f 109 110 108
f 124 114 113
f 124 113 115
f 123 124 115
f 122 123 115
f 121 122 115
f 116 117 118
f 116 118 119
f 116 119 120
f 116 120 121
f 116 121 115
f 128 125 127
f 126 125 128
f 130 129 131
f 130 131 132
f 135 134 133
f 135 136 134
f 139 138 137
f 139 140 138
f 156 157 158
f 161 158 159
f 161 159 160
f 141 161 162
f 153 154 155
f 152 155 156
f 152 156 158
f 152 158 161
f 152 153 155
f 149 150 151
f 149 151 152
f 148 149 152
f 146 147 148
f 146 148 152
f 143 144 145
f 143 145 146
f 143 161 141
f 143 152 161
f 143 146 152
f 163 141 142
f 163 143 141
f 170 168 169
f 173 170 171
f 173 171 172
f 174 170 173
f 164 166 167
f 164 186 166
f 164 165 186
f 184 167 168
f 184 185 164
f 184 164 167
f 178 176 177
f 179 174 175
f 179 175 176
f 179 183 184
f 179 168 170
f 179 170 174
f 179 176 178
f 179 184 168
f 181 179 180
f 181 182 183
f 181 183 179
f 187 208 228
f 188 187 228
f 189 228 227
f 189 188 228
f 190 227 226
f 190 189 227
f 191 226 225
f 191 190 226
f 192 225 224
f 192 191 225
f 193 224 223
f 193 192 224
f 194 223 222
f 194 193 223
f 195 222 221
f 195 194 222
f 196 221 220
f 196 195 221
f 197 220 219
f 197 196 220
f 198 219 218
f 198 197 219
f 199 217 216
f 199 218 217
f 199 198 218
f 200 199 216
f 201 200 216
f 201 216 215
f 202 201 215
f 202 214 213
f 202 215 214
f 203 202 213
f 204 203 213
f 204 213 212
f 205 204 212
f 205 212 211
f 206 210 209
f 206 211 210
f 206 205 211
f 207 206 209
f 235 236 237
f 241 237 238
f 241 238 239
f 241 239 240
f 241 235 237
f 244 241 242
f 244 242 243
f 245 233 234
f 245 234 235
f 245 241 244
f 245 235 241
f 247 245 246
f 249 247 248
f 249 245 247
f 231 232 233
f 231 249 250
f 231 250 251
f 231 233 245
f 231 245 249
f 229 252 232
f 229 232 231
f 230 253 252
f 230 252 229
f 254 253 230
f 273 274 254
f 272 273 254
f 271 272 254
f 266 267 268
f 255 254 230
f 264 266 268
f 264 265 266
f 264 268 269
f 264 269 270
f 256 271 254
f 256 254 255
f 256 270 271
f 259 256 257
f 259 257 258
f 261 262 263
f 261 263 264
f 260 264 270
f 260 270 256
f 260 261 264
f 260 256 259
f 275 296 316
f 276 275 316
f 277 316 315
f 277 276 316
f 278 315 314
f 278 277 315
f 279 314 313
f 279 278 314
f 280 313 312
f 280 279 313
f 281 312 311
f 281 280 312
f 282 311 310
f 282 281 311
f 283 310 309
f 283 282 310
f 284 309 308
f 284 283 309
f 285 308 307
f 285 284 308
f 286 307 306
f 286 285 307
f 287 305 304
f 287 306 305
f 287 286 306
f 288 287 304
f 289 288 304
f 289 304 303
f 290 289 303
f 290 302 301
f 290 303 302
f 291 290 301
f 292 291 301
f 292 301 300
f 293 292 300
f 293 300 299
f 294 298 297
f 294 299 298
f 294 293 299
f 295 294 297
f 333 335 334
f 338 336 335
f 338 337 336
f 338 335 333
f 319 339 338
f 330 332 331
f 329 333 332
f 329 338 333
f 329 332 330
f 327 329 328
f 326 329 327
f 322 324 323
f 322 325 324
f 320 322 321
f 320 326 325
f 320 319 338
f 320 338 329
f 320 329 326
f 320 325 322
f 317 318 319
f 317 319 320
f 347 346 345
f 350 348 347
f 350 349 348
f 351 350 347
f 342 340 341
f 342 344 343
f 342 343 340
f 355 354 353
f 361 345 344
f 361 342 362
f 361 344 342
f 356 352 351
f 356 353 352
f 356 361 360
f 356 347 345
f 356 351 347
f 356 355 353
f 356 345 361
f 358 357 356
f 358 360 359
f 358 356 360
f 403 363 364
f 403 364 365
f 403 404 363
f 402 403 365
f 401 365 366
f 401 366 367
f 401 402 365
f 400 401 367
f 399 367 368
f 399 400 367
f 398 368 369
f 398 399 368
f 397 369 370
f 397 370 371
f 397 398 369
f 396 397 371
f 395 371 372
f 395 396 371
f 394 372 373
f 394 373 374
f 394 395 372
f 393 394 374
f 392 374 375
f 392 375 376
f 392 393 374
f 391 392 376
f 390 391 376
f 390 376 377
f 389 390 377
f 389 377 378
f 389 378 379
f 388 389 379
f 387 388 379
f 387 379 380
f 386 387 380
f 386 380 381
f 385 386 381
f 385 381 382
f 384 382 383
f 384 385 382
f 433 435 434
f 439 436 435
f 439 437 436
f 439 438 437
f 439 435 433
f 442 440 439
f 442 441 440
f 443 432 431
f 443 433 432
f 443 442 439
f 443 439 433
f 445 444 443
f 447 446 445
f 447 445 443
f 429 431 430
f 429 448 447
f 429 449 448
f 429 443 431
f 429 447 443
f 428 430 450
f 428 429 430
f 427 450 406
f 427 428 450
f 405 427 406
f 425 405 426
f 424 405 425
f 423 405 424
f 418 420 419
f 407 427 405
f 408 405 423
f 408 423 422
f 408 407 405
f 416 420 418
f 416 418 417
f 416 421 420
f 416 422 421
f 411 409 408
f 411 410 409
f 413 415 414
f 413 416 415
f 412 422 416
f 412 408 422
f 412 411 408
f 412 416 413
f 491 451 452
f 491 452 453
f 491 492 451
f 490 491 453
f 489 453 454
f 489 454 455
f 489 490 453
f 488 489 455
f 487 455 456
f 487 488 455
f 486 456 457
f 486 487 456
f 485 457 458
f 485 458 459
f 485 486 457
f 484 485 459
f 483 459 460
f 483 484 459
f 482 460 461
f 482 461 462
f 482 483 460
f 481 482 462
f 480 462 463
f 480 463 464
f 480 481 462
f 479 480 464
f 478 479 464
f 478 464 465
f 477 478 465
f 477 465 466
f 477 466 467
f 476 477 467
f 475 476 467
f 475 467 468
f 474 475 468
f 474 468 469
f 473 474 469
f 473 469 470
f 472 470 471
f 472 473 470
f 499 500 501
f 499 501 502
f 498 496 497
f 506 502 503
f 506 499 502
f 494 498 499
f 494 499 506
f 504 506 503
f 505 506 504
f 495 494 493
f 495 496 498
f 495 498 494
f 527 528 507
f 523 524 525
f 522 525 526
f 522 526 527
f 522 523 525
f 521 522 527
f 509 507 508
f 509 508 529
f 510 527 507
f 510 507 509
f 518 519 520
f 511 527 510
f 516 517 518
f 516 520 521
f 516 518 520
f 513 511 512
f 513 521 527
f 513 516 521
f 513 527 511
f 514 515 516
f 514 516 513
f 539 537 538
f 534 535 536
f 534 536 537
f 541 539 540
f 541 537 539
f 544 541 542
f 544 542 543
f 546 544 545
f 549 547 548
f 551 546 547
f 551 549 550
f 551 544 546
f 551 547 549
f 530 532 533
f 530 533 534
f 530 534 537
f 530 537 541
f 530 541 544
f 530 544 551
f 552 532 530
f 531 552 530
f 557 558 559
f 557 559 560
f 554 553 555
f 554 555 556
f 564 560 561
f 564 557 560
f 565 556 557
f 565 557 564
f 562 564 561
f 573 574 575
f 573 575 576
f 563 564 562
f 568 554 556
f 568 556 565
f 569 576 554
f 569 554 568
f 572 573 576
f 572 576 569
f 567 565 566
f 567 568 565
f 571 569 570
f 571 572 569
f 585 583 584
f 587 585 586
f 589 587 588
f 579 580 581
f 579 581 582
f 579 582 583
f 579 583 585
f 579 585 587
f 591 589 590
f 592 587 589
f 592 589 591
f 592 579 587
f 594 592 593
f 596 594 595
f 597 594 596
f 577 597 598
f 577 579 592
f 577 592 594
f 577 594 597
f 599 579 577
f 578 599 577
f 600 601 622
f 619 620 621
f 617 618 619
f 617 621 600
f 617 619 621
f 614 615 616
f 614 616 617
f 614 617 600
f 602 600 622
f 611 612 613
f 603 600 602
f 608 603 604
f 608 604 605
f 608 609 610
f 608 610 611
f 608 613 614
f 608 614 600
f 608 611 613
f 608 600 603
f 607 605 606
f 607 608 605
f 624 623 644
f 624 644 664
f 625 664 663
f 625 624 664
f 626 663 662
f 626 625 663
f 627 662 661
f 627 626 662
f 628 661 660
f 628 627 661
f 629 659 658
f 629 660 659
f 629 628 660
f 630 629 658
f 631 658 657
f 631 630 658
f 632 657 656
f 632 631 657
f 633 656 655
f 633 632 656
f 634 655 654
f 634 633 655
f 635 634 654
f 635 654 653
f 636 635 653
f 636 653 652
f 637 636 652
f 637 652 651
f 638 637 651
f 638 651 650
f 639 638 650
f 639 650 649
f 640 639 649
f 640 649 648
f 641 640 648
f 641 648 647
f 667 666 646
f 645 667 646
f 668 667 645
f 665 668 645
f 669 646 666
f 642 647 646
f 642 641 647
f 642 646 669
f 672 642 669
f 643 642 672
f 643 671 670
f 643 672 671
f 696 697 698
f 674 698 673
f 694 695 696
f 694 696 698
f 692 693 694
f 692 694 698
f 690 691 692
f 690 692 698
f 675 698 674
f 676 698 675
f 687 688 689
f 687 689 690
f 687 690 698
f 678 676 677
f 680 678 679
f 681 698 676
f 681 676 678
f 681 678 680
f 683 684 685
f 683 685 686
f 683 686 687
f 683 687 698
f 682 698 681
f 682 683 698
f 700 701 702
f 700 702 699
f 703 707 704
f 703 708 707
f 703 709 708
f 703 710 709
f 703 711 710
f 705 712 711
f 705 713 712
f 705 714 713
f 705 711 703
f 705 706 714
f 742 741 744
f 742 744 764
f 743 742 764
f 739 715 736
f 763 743 764
f 716 715 739
f 740 743 763
f 738 716 739
f 762 740 763
f 737 740 762
f 717 738 737
f 717 716 738
f 718 737 762
f 718 717 737
f 719 762 761
f 719 718 762
f 720 761 760
f 720 719 761
f 721 759 758
f 721 760 759
f 721 720 760
f 722 721 758
f 723 722 758
f 723 758 757
f 724 723 757
f 724 757 756
f 725 724 756
f 725 756 755
f 726 725 755
f 726 755 754
f 727 726 754
f 727 754 753
f 728 727 753
f 728 753 752
f 729 728 752
f 729 752 751
f 730 729 751
f 730 751 750
f 731 750 749
f 731 730 750
f 732 749 748
f 732 731 749
f 733 748 747
f 733 732 748
f 734 746 745
f 734 747 746
f 734 733 747
f 735 734 745
f 777 778 766
f 773 774 775
f 773 775 776
f 769 776 777
f 769 777 768
f 772 773 776
f 772 776 769
f 765 777 766
f 765 768 777
f 767 768 765
f 771 769 770
f 771 772 769

