# https://github.com/mikedh/trimesh
v 0.38022318 0.35900000 0.08880886
v 0.37926409 0.35900000 0.07570476
v 0.37640724 0.35900000 0.06287994
v 0.37171352 0.35900000 0.05060776
v 0.36528298 0.35900000 0.03914977
v 0.35725269 0.35900000 0.02875017
v 0.34779376 0.35900000 0.01963062
v 0.33710781 0.35900000 0.01198549
v 0.32542261 0.35900000 0.00597771
v 0.31298718 0.35900000 0.00173533
v 0.30006659 0.35900000 -0.00065122
v 0.28693619 0.35900000 -0.00113109
v 0.27387586 0.35900000 0.00030595
v 0.26116395 0.35900000 0.00362928
v 0.24907137 0.35900000 0.00876807
v 0.23785588 0.35900000 0.01561279
v 0.22775650 0.35900000 0.02401755
v 0.21898849 0.35900000 0.03380323
v 0.21173874 0.35900000 0.04476126
v 0.20616172 0.35900000 0.05665809
v 0.20237635 0.35900000 0.06924015
v 0.20046327 0.35900000 0.08223929
v 0.20046327 0.35900000 0.09537844
v 0.20237635 0.35900000 0.10837758
v 0.20616172 0.35900000 0.12095965
v 0.21173874 0.35900000 0.13285647
v 0.21898849 0.35900000 0.14381450
v 0.22775650 0.35900000 0.15360017
v 0.23785588 0.35900000 0.16200495
v 0.24907137 0.35900000 0.16884966
v 0.26116395 0.35900000 0.17398845
v 0.27387586 0.35900000 0.17731178
v 0.28693619 0.35900000 0.17874882
v 0.30006659 0.35900000 0.17826895
v 0.31298718 0.35900000 0.17588240
v 0.32542261 0.35900000 0.17164002
v 0.33710781 0.35900000 0.16563225
v 0.34779376 0.35900000 0.15798710
v 0.35725269 0.35900000 0.14886756
v 0.36528298 0.35900000 0.13846797
v 0.37171352 0.35900000 0.12700997
v 0.37640724 0.35900000 0.11473779
v 0.37926409 0.35900000 0.10191297
v 0.38022318 0.35900000 0.08880886
v 0.38022318 0.26899999 0.08880886
v 0.38022318 0.26899999 0.08880886
v 0.37926409 0.26899999 0.07570476
v 0.37640724 0.26899999 0.06287994
v 0.37171352 0.26899999 0.05060776
v 0.36528298 0.26899999 0.03914977
v 0.35725269 0.26899999 0.02875017
v 0.34779376 0.26899999 0.01963062
v 0.33710781 0.26899999 0.01198549
v 0.32542261 0.26899999 0.00597771
v 0.31298718 0.26899999 0.00173533
v 0.30006659 0.26899999 -0.00065122
v 0.28693619 0.26899999 -0.00113109
v 0.27387586 0.26899999 0.00030595
v 0.26116395 0.26899999 0.00362928
v 0.24907137 0.26899999 0.00876807
v 0.23785588 0.26899999 0.01561279
v 0.22775650 0.26899999 0.02401755
v 0.21898849 0.26899999 0.03380323
v 0.21173874 0.26899999 0.04476126
v 0.20616172 0.26899999 0.05665809
v 0.20237635 0.26899999 0.06924015
v 0.20046327 0.26899999 0.08223929
v 0.20046327 0.26899999 0.09537844
v 0.20237635 0.26899999 0.10837758
v 0.20616172 0.26899999 0.12095965
v 0.21173874 0.26899999 0.13285647
v 0.21898849 0.26899999 0.14381450
v 0.22775650 0.26899999 0.15360017
v 0.23785588 0.26899999 0.16200495
v 0.24907137 0.26899999 0.16884966
v 0.26116395 0.26899999 0.17398845
v 0.27387586 0.26899999 0.17731178
v 0.28693619 0.26899999 0.17874882
v 0.30006659 0.26899999 0.17826895
v 0.31298718 0.26899999 0.17588240
v 0.32542261 0.26899999 0.17164002
v 0.33710781 0.26899999 0.16563225
v 0.34779376 0.26899999 0.15798710
v 0.35725269 0.26899999 0.14886756
v 0.36528298 0.26899999 0.13846797
v 0.37171352 0.26899999 0.12700997
v 0.37640724 0.26899999 0.11473779
v 0.37926409 0.26899999 0.10191297
v 0.38022318 0.35900000 0.08880886
v 0.37926409 0.35900000 0.07570476
v 0.37640724 0.35900000 0.06287994
v 0.37171352 0.35900000 0.05060776
v 0.36528298 0.35900000 0.03914977
v 0.35725269 0.35900000 0.02875017
v 0.34779376 0.35900000 0.01963062
v 0.33710781 0.35900000 0.01198549
v 0.32542261 0.35900000 0.00597771
v 0.31298718 0.35900000 0.00173533
v 0.30006659 0.35900000 -0.00065122
v 0.28693619 0.35900000 -0.00113109
v 0.27387586 0.35900000 0.00030595
v 0.26116395 0.35900000 0.00362928
v 0.24907137 0.35900000 0.00876807
v 0.23785588 0.35900000 0.01561279
v 0.22775650 0.35900000 0.02401755
v 0.21898849 0.35900000 0.03380323
v 0.21173874 0.35900000 0.04476126
v 0.20616172 0.35900000 0.05665809
v 0.20237635 0.35900000 0.06924015
v 0.20046327 0.35900000 0.08223929
v 0.20046327 0.35900000 0.09537844
v 0.20237635 0.35900000 0.10837758
v 0.20616172 0.35900000 0.12095965
v 0.21173874 0.35900000 0.13285647
v 0.21898849 0.35900000 0.14381450
v 0.22775650 0.35900000 0.15360017
v 0.23785588 0.35900000 0.16200495
v 0.24907137 0.35900000 0.16884966
v 0.26116395 0.35900000 0.17398845
v 0.27387586 0.35900000 0.17731178
v 0.28693619 0.35900000 0.17874882
v 0.30006659 0.35900000 0.17826895
v 0.31298718 0.35900000 0.17588240
v 0.32542261 0.35900000 0.17164002
v 0.33710781 0.35900000 0.16563225
v 0.34779376 0.35900000 0.15798710
v 0.35725269 0.35900000 0.14886756
v 0.36528298 0.35900000 0.13846797
v 0.37171352 0.35900000 0.12700997
v 0.37640724 0.35900000 0.11473779
v 0.37926409 0.35900000 0.10191297
v 0.38022318 0.26899999 0.08880886
v 0.37926409 0.26899999 0.07570476
v 0.37640724 0.26899999 0.06287994
v 0.37171352 0.26899999 0.05060776
v 0.36528298 0.26899999 0.03914977
v 0.35725269 0.26899999 0.02875017
v 0.34779376 0.26899999 0.01963062
v 0.33710781 0.26899999 0.01198549
v 0.32542261 0.26899999 0.00597771
v 0.31298718 0.26899999 0.00173533
v 0.30006659 0.26899999 -0.00065122
v 0.28693619 0.26899999 -0.00113109
v 0.27387586 0.26899999 0.00030595
v 0.26116395 0.26899999 0.00362928
v 0.24907137 0.26899999 0.00876807
v 0.23785588 0.26899999 0.01561279
v 0.22775650 0.26899999 0.02401755
v 0.21898849 0.26899999 0.03380323
v 0.21173874 0.26899999 0.04476126
v 0.20616172 0.26899999 0.05665809
v 0.20237635 0.26899999 0.06924015
v 0.20046327 0.26899999 0.08223929
v 0.20046327 0.26899999 0.09537844
v 0.20237635 0.26899999 0.10837758
v 0.20616172 0.26899999 0.12095965
v 0.21173874 0.26899999 0.13285647
v 0.21898849 0.26899999 0.14381450
v 0.22775650 0.26899999 0.15360017
v 0.23785588 0.26899999 0.16200495
v 0.24907137 0.26899999 0.16884966
v 0.26116395 0.26899999 0.17398845
v 0.27387586 0.26899999 0.17731178
v 0.28693619 0.26899999 0.17874882
v 0.30006659 0.26899999 0.17826895
v 0.31298718 0.26899999 0.17588240
v 0.32542261 0.26899999 0.17164002
v 0.33710781 0.26899999 0.16563225
v 0.34779376 0.26899999 0.15798710
v 0.35725269 0.26899999 0.14886756
v 0.36528298 0.26899999 0.13846797
v 0.37171352 0.26899999 0.12700997
v 0.37640724 0.26899999 0.11473779
v 0.37926409 0.26899999 0.10191297
f 1 45 47
f 2 1 47
f 3 47 48
f 3 48 49
f 3 2 47
f 4 3 49
f 5 4 49
f 5 49 50
f 6 5 50
f 6 50 51
f 7 6 51
f 7 51 52
f 8 7 52
f 8 52 53
f 9 8 53
f 9 53 54
f 9 54 55
f 10 9 55
f 11 10 55
f 11 55 56
f 12 11 56
f 12 56 57
f 12 57 58
f 13 12 58
f 14 13 58
f 14 58 59
f 14 59 60
f 15 14 60
f 16 15 60
f 16 60 61
f 17 16 61
f 17 61 62
f 17 62 63
f 18 17 63
f 19 63 64
f 19 18 63
f 20 64 65
f 20 65 66
f 20 19 64
f 21 20 66
f 22 66 67
f 22 21 66
f 23 67 68
f 23 22 67
f 24 68 69
f 24 69 70
f 24 23 68
f 25 24 70
f 26 70 71
f 26 25 70
f 27 71 72
f 27 72 73
f 27 26 71
f 28 27 73
f 29 28 73
f 29 73 74
f 30 29 74
f 30 74 75
f 31 30 75
f 31 75 76
f 32 31 76
f 32 76 77
f 33 32 77
f 33 77 78
f 34 33 78
f 34 78 79
f 35 34 79
f 35 79 80
f 36 35 80
f 36 80 81
f 37 36 81
f 37 81 82
f 37 82 83
f 38 37 83
f 39 38 83
f 39 83 84
f 40 39 84
f 40 84 85
f 41 40 85
f 41 85 86
f 42 41 86
f 42 86 87
f 43 42 87
f 43 87 88
f 44 43 88
f 44 88 46
f 96 94 95
f 92 93 94
f 97 94 96
f 89 90 91
f 89 91 92
f 100 98 99
f 131 92 94
f 131 89 92
f 101 98 100
f 130 97 98
f 130 94 97
f 130 131 94
f 128 129 130
f 104 102 103
f 105 101 102
f 105 102 104
f 106 101 105
f 125 126 127
f 108 106 107
f 108 101 106
f 123 124 125
f 123 127 128
f 123 98 101
f 123 130 98
f 123 128 130
f 123 125 127
f 121 122 123
f 121 123 101
f 111 108 109
f 111 109 110
f 119 120 121
f 118 119 121
f 114 108 111
f 114 111 112
f 114 112 113
f 117 121 101
f 117 118 121
f 116 101 108
f 116 117 101
f 116 108 114
f 116 114 115
f 139 138 137
f 135 137 136
f 140 139 137
f 132 134 133
f 132 135 134
f 143 142 141
f 174 137 135
f 174 135 132
f 144 143 141
f 173 141 140
f 173 140 137
f 173 137 174
f 171 173 172
f 147 146 145
f 148 145 144
f 148 147 145
f 149 148 144
f 168 170 169
f 151 150 149
f 151 149 144
f 166 168 167
f 166 171 170
f 166 144 141
f 166 141 173
f 166 173 171
f 166 170 168
f 164 166 165
f 164 144 166
f 154 152 151
f 154 153 152
f 162 164 163
f 161 164 162
f 157 154 151
f 157 155 154
f 157 156 155
f 160 144 164
f 160 164 161
f 159 151 144
f 159 144 160
f 159 157 151
f 159 158 157

