# https://github.com/mikedh/trimesh
v 0.60890186 0.46799999 0.32911396
v 0.35921818 0.46799999 0.03101883
v 0.60890186 0.41800001 0.32911396
v 0.35921818 0.41800001 0.03101883
v 0.35921818 0.46799999 0.03101883
v 0.34994140 0.46799999 0.02147586
v 0.33935872 0.46799999 0.01340529
v 0.32770157 0.46799999 0.00698362
v 0.31522483 0.46799999 0.00235126
v 0.30220139 0.46799999 -0.00039048
v 0.28891599 0.46799999 -0.00118164
v 0.27565920 0.46799999 -0.00000493
v 0.26272088 0.46799999 0.00311391
v 0.25038397 0.46799999 0.00810670
v 0.23891826 0.46799999 0.01486425
v 0.22857445 0.46799999 0.02323879
v 0.21957874 0.46799999 0.03304718
v 0.21212786 0.46799999 0.04407495
v 0.20638475 0.46799999 0.05608094
v 0.20247495 0.46799999 0.06880261
v 0.20048402 0.46799999 0.08196177
v 0.20045544 0.46799999 0.09527066
v 0.20238988 0.46799999 0.10843824
v 0.20624502 0.46799999 0.12117658
v 0.21193655 0.46799999 0.13320711
v 0.21934003 0.46799999 0.14426675
v 0.22829354 0.46799999 0.15411368
v 0.23860130 0.46799999 0.16253255
v 0.35921818 0.41800001 0.03101883
v 0.23860130 0.41800001 0.16253255
v 0.22829354 0.41800001 0.15411368
v 0.21934003 0.41800001 0.14426675
v 0.21193655 0.41800001 0.13320711
v 0.20624502 0.41800001 0.12117658
v 0.20238988 0.41800001 0.10843824
v 0.20045544 0.41800001 0.09527066
v 0.20048402 0.41800001 0.08196177
v 0.20247495 0.41800001 0.06880261
v 0.20638475 0.41800001 0.05608094
v 0.21212786 0.41800001 0.04407495
v 0.21957874 0.41800001 0.03304718
v 0.22857445 0.41800001 0.02323879
v 0.23891826 0.41800001 0.01486425
v 0.25038397 0.41800001 0.00810670
v 0.26272088 0.41800001 0.00311391
v 0.27565920 0.41800001 -0.00000493
v 0.28891599 0.41800001 -0.00118164
v 0.30220139 0.41800001 -0.00039048
v 0.31522483 0.41800001 0.00235126
v 0.32770157 0.41800001 0.00698362
v 0.33935872 0.41800001 0.01340529
v 0.34994140 0.41800001 0.02147586
v 0.53715944 0.46799999 0.41170803
v 0.23860130 0.46799999 0.16253255
v 0.23860130 0.41800001 0.16253255
v 0.53715944 0.41800001 0.41170803
v 0.53715944 0.46799999 0.41170803
v 0.54590040 0.46799999 0.41670361
v 0.55540550 0.46799999 0.42002219
v 0.56535631 0.46799999 0.42155254
v 0.57541937 0.46799999 0.42124340
v 0.58525747 0.46799999 0.41910514
v 0.59454101 0.46799999 0.41520935
v 0.60295886 0.46799999 0.40968663
v 0.61022896 0.46799999 0.40272200
v 0.61610776 0.46799999 0.39454886
v 0.62039822 0.46799999 0.38544104
v 0.62295657 0.46799999 0.37570372
v 0.62369716 0.46799999 0.36566320
v 0.62259513 0.46799999 0.35565591
v 0.61968744 0.46799999 0.34601712
v 0.61507142 0.46799999 0.33706990
v 0.60890186 0.46799999 0.32911396
v 0.53715944 0.41800001 0.41170803
v 0.60890186 0.41800001 0.32911396
v 0.61507142 0.41800001 0.33706990
v 0.61968744 0.41800001 0.34601712
v 0.62259513 0.41800001 0.35565591
v 0.62369716 0.41800001 0.36566320
v 0.62295657 0.41800001 0.37570372
v 0.62039822 0.41800001 0.38544104
v 0.61610776 0.41800001 0.39454886
v 0.61022896 0.41800001 0.40272200
v 0.60295886 0.41800001 0.40968663
v 0.59454101 0.41800001 0.41520935
v 0.58525747 0.41800001 0.41910514
v 0.57541937 0.41800001 0.42124340
v 0.56535631 0.41800001 0.42155254
v 0.55540550 0.41800001 0.42002219
v 0.54590040 0.41800001 0.41670361
v 0.53715944 0.46799999 0.41170803
v 0.54590040 0.46799999 0.41670361
v 0.55540550 0.46799999 0.42002219
v 0.56535631 0.46799999 0.42155254
v 0.57541937 0.46799999 0.42124340
v 0.58525747 0.46799999 0.41910514
v 0.59454101 0.46799999 0.41520935
v 0.60295886 0.46799999 0.40968663
v 0.61022896 0.46799999 0.40272200
v 0.61610776 0.46799999 0.39454886
v 0.62039822 0.46799999 0.38544104
v 0.62295657 0.46799999 0.37570372
v 0.62369716 0.46799999 0.36566320
v 0.62259513 0.46799999 0.35565591
v 0.61968744 0.46799999 0.34601712
v 0.61507142 0.46799999 0.33706990
v 0.60890186 0.46799999 0.32911396
v 0.35921818 0.46799999 0.03101883
v 0.34994140 0.46799999 0.02147586
v 0.33935872 0.46799999 0.01340529
v 0.32770157 0.46799999 0.00698362
v 0.31522483 0.46799999 0.00235126
v 0.30220139 0.46799999 -0.00039048
v 0.28891599 0.46799999 -0.00118164
v 0.27565920 0.46799999 -0.00000493
v 0.26272088 0.46799999 0.00311391
v 0.25038397 0.46799999 0.00810670
v 0.23891826 0.46799999 0.01486425
v 0.22857445 0.46799999 0.02323879
v 0.21957874 0.46799999 0.03304718
v 0.21212786 0.46799999 0.04407495
v 0.20638475 0.46799999 0.05608094
v 0.20247495 0.46799999 0.06880261
v 0.20048402 0.46799999 0.08196177
v 0.20045544 0.46799999 0.09527066
v 0.20238988 0.46799999 0.10843824
v 0.20624502 0.46799999 0.12117658
v 0.21193655 0.46799999 0.13320711
v 0.21934003 0.46799999 0.14426675
v 0.22829354 0.46799999 0.15411368
v 0.23860130 0.46799999 0.16253255
v 0.35921818 0.41800001 0.03101883
v 0.60890186 0.41800001 0.32911396
v 0.23860130 0.41800001 0.16253255
v 0.22829354 0.41800001 0.15411368
v 0.21934003 0.41800001 0.14426675
v 0.21193655 0.41800001 0.13320711
v 0.20624502 0.41800001 0.12117658
v 0.20238988 0.41800001 0.10843824
v 0.20045544 0.41800001 0.09527066
v 0.20048402 0.41800001 0.08196177
v 0.20247495 0.41800001 0.06880261
v 0.20638475 0.41800001 0.05608094
v 0.21212786 0.41800001 0.04407495
v 0.21957874 0.41800001 0.03304718
v 0.22857445 0.41800001 0.02323879
v 0.23891826 0.41800001 0.01486425
v 0.25038397 0.41800001 0.00810670
v 0.26272088 0.41800001 0.00311391
v 0.27565920 0.41800001 -0.00000493
v 0.28891599 0.41800001 -0.00118164
v 0.30220139 0.41800001 -0.00039048
v 0.31522483 0.41800001 0.00235126
v 0.32770157 0.41800001 0.00698362
v 0.33935872 0.41800001 0.01340529
v 0.34994140 0.41800001 0.02147586
v 0.53715944 0.41800001 0.41170803
v 0.61507142 0.41800001 0.33706990
v 0.61968744 0.41800001 0.34601712
v 0.62259513 0.41800001 0.35565591
v 0.62369716 0.41800001 0.36566320
v 0.62295657 0.41800001 0.37570372
v 0.62039822 0.41800001 0.38544104
v 0.61610776 0.41800001 0.39454886
v 0.61022896 0.41800001 0.40272200
v 0.60295886 0.41800001 0.40968663
v 0.59454101 0.41800001 0.41520935
v 0.58525747 0.41800001 0.41910514
v 0.57541937 0.41800001 0.42124340
v 0.56535631 0.41800001 0.42155254
v 0.55540550 0.41800001 0.42002219
v 0.54590040 0.41800001 0.41670361
f 3 2 1
f 3 4 2
f 31 27 26
f 31 28 27
f 31 30 28
f 32 31 26
f 33 25 24
f 33 26 25
f 33 32 26
f 34 33 24
f 35 23 22
f 35 24 23
f 35 34 24
f 36 35 22
f 37 22 21
f 37 36 22
f 38 20 19
f 38 21 20
f 38 37 21
f 39 38 19
f 40 18 17
f 40 19 18
f 40 39 19
f 41 40 17
f 42 17 16
f 42 41 17
f 43 42 16
f 43 16 15
f 44 43 15
f 44 14 13
f 44 15 14
f 45 44 13
f 46 13 12
f 46 45 13
f 47 12 11
f 47 46 12
f 48 11 10
f 48 47 11
f 49 10 9
f 49 48 10
f 50 8 7
f 50 9 8
f 50 49 9
f 51 50 7
f 52 6 5
f 52 7 6
f 52 51 7
f 29 52 5
f 54 56 53
f 55 56 54
f 76 73 72
f 76 75 73
f 77 72 71
f 77 76 72
f 78 71 70
f 78 77 71
f 79 70 69
f 79 78 70
f 80 69 68
f 80 79 69
f 81 68 67
f 81 80 68
f 82 67 66
f 82 81 67
f 83 66 65
f 83 82 66
f 84 65 64
f 84 83 65
f 85 64 63
f 85 84 64
f 86 63 62
f 86 85 63
f 87 62 61
f 87 86 62
f 88 61 60
f 88 87 61
f 89 60 59
f 89 88 60
f 90 59 58
f 90 89 59
f 74 58 57
f 74 90 58
f 128 129 130
f 128 130 131
f 126 127 128
f 125 128 131
f 125 126 128
f 93 91 92
f 122 123 124
f 122 124 125
f 95 93 94
f 95 91 93
f 120 121 122
f 98 95 96
f 98 96 97
f 119 125 131
f 119 122 125
f 119 120 122
f 100 98 99
f 101 98 100
f 101 95 98
f 117 118 119
f 102 95 101
f 103 95 102
f 116 117 119
f 105 103 104
f 106 103 105
f 107 103 106
f 107 131 91
f 107 91 95
f 107 95 103
f 113 116 119
f 113 114 115
f 113 115 116
f 112 113 119
f 112 119 131
f 110 112 131
f 110 111 112
f 108 131 107
f 109 110 131
f 109 131 108
f 134 135 136
f 140 136 137
f 140 137 138
f 140 138 139
f 140 134 136
f 141 134 140
f 171 172 157
f 170 171 157
f 169 170 157
f 144 141 142
f 144 142 143
f 144 134 141
f 167 168 169
f 167 169 157
f 166 167 157
f 146 144 145
f 164 165 166
f 147 134 144
f 147 144 146
f 159 160 161
f 159 161 162
f 159 162 163
f 159 163 164
f 159 164 166
f 150 147 148
f 150 148 149
f 133 159 166
f 133 157 134
f 133 158 159
f 133 166 157
f 151 147 150
f 153 151 152
f 155 153 154
f 132 133 134
f 156 147 151
f 156 151 153
f 156 153 155
f 156 132 134
f 156 134 147

