# https://github.com/mikedh/trimesh
v -0.54008192 0.46799999 0.40748754
v -0.24198680 0.46799999 0.15780388
v -0.54008192 0.41800001 0.40748754
v -0.24198680 0.41800001 0.15780388
v -0.24198680 0.46799999 0.15780388
v -0.23244381 0.46799999 0.14852709
v -0.22437325 0.46799999 0.13794440
v -0.21795158 0.46799999 0.12628724
v -0.21331921 0.46799999 0.11381052
v -0.21057749 0.46799999 0.10078707
v -0.20978631 0.46799999 0.08750169
v -0.21096303 0.46799999 0.07424489
v -0.21408187 0.46799999 0.06130658
v -0.21907467 0.46799999 0.04896967
v -0.22583221 0.46799999 0.03750395
v -0.23420675 0.46799999 0.02716014
v -0.24401514 0.46799999 0.01816444
v -0.25504291 0.46799999 0.01071355
v -0.26704890 0.46799999 0.00497043
v -0.27977058 0.46799999 0.00106065
v -0.29292974 0.46799999 -0.00093030
v -0.30623862 0.46799999 -0.00095887
v -0.31940621 0.46799999 0.00097557
v -0.33214453 0.46799999 0.00483070
v -0.34417507 0.46799999 0.01052224
v -0.35523471 0.46799999 0.01792571
v -0.36508164 0.46799999 0.02687922
v -0.37350050 0.46799999 0.03718698
v -0.24198680 0.41800001 0.15780388
v -0.37350050 0.41800001 0.03718698
v -0.36508164 0.41800001 0.02687922
v -0.35523471 0.41800001 0.01792571
v -0.34417507 0.41800001 0.01052224
v -0.33214453 0.41800001 0.00483070
v -0.31940621 0.41800001 0.00097557
v -0.30623862 0.41800001 -0.00095887
v -0.29292974 0.41800001 -0.00093030
v -0.27977058 0.41800001 0.00106065
v -0.26704890 0.41800001 0.00497043
v -0.25504291 0.41800001 0.01071355
v -0.24401514 0.41800001 0.01816444
v -0.23420675 0.41800001 0.02716014
v -0.22583221 0.41800001 0.03750395
v -0.21907467 0.41800001 0.04896967
v -0.21408187 0.41800001 0.06130658
v -0.21096303 0.41800001 0.07424489
v -0.20978631 0.41800001 0.08750169
v -0.21057749 0.41800001 0.10078707
v -0.21331921 0.41800001 0.11381052
v -0.21795158 0.41800001 0.12628724
v -0.22437325 0.41800001 0.13794440
v -0.23244381 0.41800001 0.14852709
v -0.62267596 0.46799999 0.33574510
v -0.37350050 0.46799999 0.03718698
v -0.37350050 0.41800001 0.03718698
v -0.62267596 0.41800001 0.33574510
v -0.62267596 0.46799999 0.33574510
v -0.62767160 0.46799999 0.34448606
v -0.63099015 0.46799999 0.35399121
v -0.63252050 0.46799999 0.36394203
v -0.63221139 0.46799999 0.37400508
v -0.63007307 0.46799999 0.38384318
v -0.62617731 0.46799999 0.39312670
v -0.62065458 0.46799999 0.40154454
v -0.61368996 0.46799999 0.40881464
v -0.60551679 0.46799999 0.41469342
v -0.59640896 0.46799999 0.41898391
v -0.58667165 0.46799999 0.42154229
v -0.57663113 0.46799999 0.42228287
v -0.56662387 0.46799999 0.42118084
v -0.55698508 0.46799999 0.41827309
v -0.54803783 0.46799999 0.41365710
v -0.54008192 0.46799999 0.40748754
v -0.62267596 0.41800001 0.33574510
v -0.54008192 0.41800001 0.40748754
v -0.54803783 0.41800001 0.41365710
v -0.55698508 0.41800001 0.41827309
v -0.56662387 0.41800001 0.42118084
v -0.57663113 0.41800001 0.42228287
v -0.58667165 0.41800001 0.42154229
v -0.59640896 0.41800001 0.41898391
v -0.60551679 0.41800001 0.41469342
v -0.61368996 0.41800001 0.40881464
v -0.62065458 0.41800001 0.40154454
v -0.62617731 0.41800001 0.39312670
v -0.63007307 0.41800001 0.38384318
v -0.63221139 0.41800001 0.37400508
v -0.63252050 0.41800001 0.36394203
v -0.63099015 0.41800001 0.35399121
v -0.62767160 0.41800001 0.34448606
v -0.62267596 0.46799999 0.33574510
v -0.62767160 0.46799999 0.34448606
v -0.63099015 0.46799999 0.35399121
v -0.63252050 0.46799999 0.36394203
v -0.63221139 0.46799999 0.37400508
v -0.63007307 0.46799999 0.38384318
v -0.62617731 0.46799999 0.39312670
v -0.62065458 0.46799999 0.40154454
v -0.61368996 0.46799999 0.40881464
v -0.60551679 0.46799999 0.41469342
v -0.59640896 0.46799999 0.41898391
v -0.58667165 0.46799999 0.42154229
v -0.57663113 0.46799999 0.42228287
v -0.56662387 0.46799999 0.42118084
v -0.55698508 0.46799999 0.41827309
v -0.54803783 0.46799999 0.41365710
v -0.54008192 0.46799999 0.40748754
v -0.24198680 0.46799999 0.15780388
v -0.23244381 0.46799999 0.14852709
v -0.22437325 0.46799999 0.13794440
v -0.21795158 0.46799999 0.12628724
v -0.21331921 0.46799999 0.11381052
v -0.21057749 0.46799999 0.10078707
v -0.20978631 0.46799999 0.08750169
v -0.21096303 0.46799999 0.07424489
v -0.21408187 0.46799999 0.06130658
v -0.21907467 0.46799999 0.04896967
v -0.22583221 0.46799999 0.03750395
v -0.23420675 0.46799999 0.02716014
v -0.24401514 0.46799999 0.01816444
v -0.25504291 0.46799999 0.01071355
v -0.26704890 0.46799999 0.00497043
v -0.27977058 0.46799999 0.00106065
v -0.29292974 0.46799999 -0.00093030
v -0.30623862 0.46799999 -0.00095887
v -0.31940621 0.46799999 0.00097557
v -0.33214453 0.46799999 0.00483070
v -0.34417507 0.46799999 0.01052224
v -0.35523471 0.46799999 0.01792571
v -0.36508164 0.46799999 0.02687922
v -0.37350050 0.46799999 0.03718698
v -0.24198680 0.41800001 0.15780388
v -0.54008192 0.41800001 0.40748754
v -0.37350050 0.41800001 0.03718698
v -0.36508164 0.41800001 0.02687922
v -0.35523471 0.41800001 0.01792571
v -0.34417507 0.41800001 0.01052224
v -0.33214453 0.41800001 0.00483070
v -0.31940621 0.41800001 0.00097557
v -0.30623862 0.41800001 -0.00095887
v -0.29292974 0.41800001 -0.00093030
v -0.27977058 0.41800001 0.00106065
v -0.26704890 0.41800001 0.00497043
v -0.25504291 0.41800001 0.01071355
v -0.24401514 0.41800001 0.01816444
v -0.23420675 0.41800001 0.02716014
v -0.22583221 0.41800001 0.03750395
v -0.21907467 0.41800001 0.04896967
v -0.21408187 0.41800001 0.06130658
v -0.21096303 0.41800001 0.07424489
v -0.20978631 0.41800001 0.08750169
v -0.21057749 0.41800001 0.10078707
v -0.21331921 0.41800001 0.11381052
v -0.21795158 0.41800001 0.12628724
v -0.22437325 0.41800001 0.13794440
v -0.23244381 0.41800001 0.14852709
v -0.62267596 0.41800001 0.33574510
v -0.54803783 0.41800001 0.41365710
v -0.55698508 0.41800001 0.41827309
v -0.56662387 0.41800001 0.42118084
v -0.57663113 0.41800001 0.42228287
v -0.58667165 0.41800001 0.42154229
v -0.59640896 0.41800001 0.41898391
v -0.60551679 0.41800001 0.41469342
v -0.61368996 0.41800001 0.40881464
v -0.62065458 0.41800001 0.40154454
v -0.62617731 0.41800001 0.39312670
v -0.63007307 0.41800001 0.38384318
v -0.63221139 0.41800001 0.37400508
v -0.63252050 0.41800001 0.36394203
v -0.63099015 0.41800001 0.35399121
v -0.62767160 0.41800001 0.34448606
f 3 2 1
f 3 4 2
f 30 28 27
f 31 27 26
f 31 30 27
f 32 26 25
f 32 31 26
f 33 25 24
f 33 32 25
f 34 24 23
f 34 33 24
f 35 23 22
f 35 34 23
f 36 22 21
f 36 35 22
f 37 21 20
f 37 36 21
f 38 20 19
f 38 37 20
f 39 19 18
f 39 38 19
f 40 18 17
f 40 39 18
f 41 17 16
f 41 40 17
f 42 41 16
f 42 16 15
f 43 42 15
f 43 15 14
f 44 43 14
f 45 13 12
f 45 14 13
f 45 44 14
f 46 12 11
f 46 45 12
f 47 46 11
f 48 10 9
f 48 11 10
f 48 47 11
f 49 9 8
f 49 48 9
f 50 8 7
f 50 49 8
f 51 50 7
f 52 6 5
f 52 7 6
f 52 51 7
f 29 52 5
f 55 53 54
f 55 56 53
f 75 73 72
f 76 72 71
f 76 75 72
f 77 71 70
f 77 76 71
f 78 70 69
f 78 77 70
f 79 69 68
f 79 78 69
f 80 68 67
f 80 79 68
f 81 67 66
f 81 80 67
f 82 66 65
f 82 81 66
f 83 65 64
f 83 82 65
f 84 64 63
f 84 83 64
f 85 63 62
f 85 84 63
f 86 62 61
f 86 85 62
f 87 61 60
f 87 86 61
f 88 87 60
f 89 59 58
f 89 60 59
f 89 88 60
f 90 58 57
f 90 89 58
f 74 90 57
f 128 129 130
f 128 130 131
f 127 128 131
f 125 126 127
f 125 127 131
f 123 124 125
f 93 91 92
f 122 123 125
f 122 125 131
f 95 93 94
f 95 91 93
f 96 91 95
f 121 122 131
f 100 96 97
f 100 97 98
f 100 98 99
f 118 119 120
f 118 120 121
f 101 91 96
f 101 96 100
f 117 118 121
f 102 91 101
f 103 91 102
f 105 103 104
f 115 116 117
f 115 117 121
f 106 103 105
f 106 91 103
f 107 91 106
f 107 131 91
f 110 111 112
f 110 112 113
f 108 131 107
f 109 131 108
f 109 115 121
f 109 110 113
f 109 113 114
f 109 114 115
f 109 121 131
f 137 134 135
f 137 135 136
f 139 137 138
f 141 139 140
f 141 134 137
f 141 137 139
f 171 172 157
f 169 170 171
f 168 169 171
f 145 141 142
f 145 142 143
f 145 143 144
f 145 134 141
f 166 167 168
f 166 171 157
f 166 168 171
f 165 166 157
f 147 145 146
f 147 134 145
f 162 163 164
f 149 147 148
f 160 161 162
f 160 164 165
f 160 165 157
f 160 162 164
f 150 147 149
f 158 159 160
f 133 158 160
f 133 157 134
f 133 160 157
f 152 150 151
f 132 133 134
f 156 132 134
f 156 150 152
f 156 152 153
f 156 153 154
f 156 154 155
f 156 134 147
f 156 147 150

