# https://github.com/mikedh/trimesh
v -1.17279649 0.20590773 0.34299999
v -1.17279649 0.21369596 0.34387752
v -1.17279649 0.22109365 0.34646609
v -1.17279649 0.22772987 0.35063589
v -1.17279649 0.23327182 0.35617787
v -1.17279649 0.23744163 0.36281407
v -1.17279649 0.24003020 0.37021178
v -1.17279649 0.24090773 0.37799999
v -1.17279649 0.24003020 0.38578823
v -1.17279649 0.23744163 0.39318594
v -1.17279649 0.23327182 0.39982215
v -1.17279649 0.22772987 0.40536410
v -1.17279649 0.22109365 0.40953392
v -1.17279649 0.21369596 0.41212249
v -1.17279649 0.20590773 0.41299999
v -1.17279649 0.20415020 0.34299999
v -1.17279649 0.20415020 0.41299999
v -1.17279649 0.19636197 0.41212249
v -1.17279649 0.18896428 0.40953392
v -1.17279649 0.18232806 0.40536410
v -1.17279649 0.17678609 0.39982215
v -1.17279649 0.17261629 0.39318594
v -1.17279649 0.17002773 0.38578823
v -1.17279649 0.16915020 0.37799999
v -1.17279649 0.17002773 0.37021178
v -1.17279649 0.17261629 0.36281407
v -1.17279649 0.17678609 0.35617787
v -1.17279649 0.18232806 0.35063589
v -1.17279649 0.18896428 0.34646609
v -1.17279649 0.19636197 0.34387752
v -1.17279649 0.20415020 0.41299999
v -1.17279649 0.19636197 0.41212249
v -1.17279649 0.18896428 0.40953392
v -1.17279649 0.18232806 0.40536410
v -1.17279649 0.17678609 0.39982215
v -1.17279649 0.17261629 0.39318594
v -1.17279649 0.17002773 0.38578823
v -1.17279649 0.16915020 0.37799999
v -1.17279649 0.17002773 0.37021178
v -1.17279649 0.17261629 0.36281407
v -1.17279649 0.17678609 0.35617787
v -1.17279649 0.18232806 0.35063589
v -1.17279649 0.18896428 0.34646609
v -1.17279649 0.19636197 0.34387752
v -1.17279649 0.20415020 0.34299999
v -1.14205205 0.20415020 0.34299999
v -1.14205205 0.19636197 0.34387752
v -1.14205205 0.18896428 0.34646609
v -1.14205205 0.18232806 0.35063589
v -1.14205205 0.17678609 0.35617787
v -1.14205205 0.17261629 0.36281407
v -1.14205205 0.17002773 0.37021178
v -1.14205205 0.16915020 0.37799999
v -1.14205205 0.17002773 0.38578823
v -1.14205205 0.17261629 0.39318594
v -1.14205205 0.17678609 0.39982215
v -1.14205205 0.18232806 0.40536410
v -1.14205205 0.18896428 0.40953392
v -1.14205205 0.19636197 0.41212249
v -1.14205205 0.20415020 0.41299999
v -1.17279649 0.20415020 0.34299999
v -1.17279649 0.20590773 0.34299999
v -1.10000002 0.20590773 0.34299999
v -1.10000002 0.20500000 0.34299999
v -1.14205205 0.20500000 0.34299999
v -1.14205205 0.20415020 0.34299999
v -1.17279649 0.20590773 0.34299999
v -1.17279649 0.21369596 0.34387752
v -1.17279649 0.22109365 0.34646609
v -1.17279649 0.22772987 0.35063589
v -1.17279649 0.23327182 0.35617787
v -1.17279649 0.23744163 0.36281407
v -1.17279649 0.24003020 0.37021178
v -1.17279649 0.24090773 0.37799999
v -1.17279649 0.24003020 0.38578823
v -1.17279649 0.23744163 0.39318594
v -1.17279649 0.23327182 0.39982215
v -1.17279649 0.22772987 0.40536410
v -1.17279649 0.22109365 0.40953392
v -1.17279649 0.21369596 0.41212249
v -1.17279649 0.20590773 0.41299999
v -1.10000002 0.20590773 0.41299999
v -1.10000002 0.20590773 0.34299999
v -1.09252799 0.21337971 0.34380689
v -1.08540058 0.22050719 0.34619033
v -1.07908177 0.22682594 0.34993884
v -1.07381177 0.23209597 0.35477984
v -1.06975257 0.23615514 0.36039051
v -1.06695485 0.23895283 0.36646652
v -1.06546700 0.24044076 0.37230176
v -1.06500137 0.24090639 0.37830573
v -1.06557178 0.24033594 0.38430062
v -1.06716144 0.23874630 0.39010900
v -1.06972325 0.23618454 0.39555889
v -1.07318127 0.23272645 0.40048900
v -1.07743323 0.22847445 0.40475336
v -1.08235335 0.22355440 0.40822572
v -1.08969855 0.21620920 0.41144967
v -1.09479129 0.21111646 0.41261023
v -1.10000002 0.20590773 0.41299999
v -1.10000002 0.20500000 0.41299999
v -1.09221172 0.20500000 0.41212249
v -1.08481407 0.20500000 0.40953392
v -1.07817781 0.20500000 0.40536410
v -1.07263589 0.20500000 0.39982215
v -1.06846607 0.20500000 0.39318594
v -1.06587756 0.20500000 0.38578823
v -1.06500006 0.20500000 0.37799999
v -1.06587756 0.20500000 0.37021178
v -1.06846607 0.20500000 0.36281407
v -1.07263589 0.20500000 0.35617787
v -1.07817781 0.20500000 0.35063589
v -1.08481407 0.20500000 0.34646609
v -1.09221172 0.20500000 0.34387752
v -1.10000002 0.20500000 0.34299999
v -1.10000002 0.20590773 0.34299999
v -1.09252799 0.21337971 0.34380689
v -1.08540058 0.22050719 0.34619033
v -1.07908177 0.22682594 0.34993884
v -1.07381177 0.23209597 0.35477984
v -1.06975257 0.23615514 0.36039051
v -1.06695485 0.23895283 0.36646652
v -1.06546700 0.24044076 0.37230176
v -1.06500137 0.24090639 0.37830573
v -1.06557178 0.24033594 0.38430062
v -1.06716144 0.23874630 0.39010900
v -1.06972325 0.23618454 0.39555889
v -1.07318127 0.23272645 0.40048900
v -1.07743323 0.22847445 0.40475336
v -1.08235335 0.22355440 0.40822572
v -1.08969855 0.21620920 0.41144967
v -1.09479129 0.21111646 0.41261023
v -1.17279649 0.20590773 0.41299999
v -1.17279649 0.20415020 0.41299999
v -1.14205205 0.20415020 0.41299999
v -1.14205205 0.20500000 0.41299999
v -1.10000002 0.20500000 0.41299999
v -1.10000002 0.20590773 0.41299999
v -1.14205205 0.20415020 0.34299999
v -1.14205205 0.19636197 0.34387752
v -1.14205205 0.18896428 0.34646609
v -1.14205205 0.18232806 0.35063589
v -1.14205205 0.17678609 0.35617787
v -1.14205205 0.17261629 0.36281407
v -1.14205205 0.17002773 0.37021178
v -1.14205205 0.16915020 0.37799999
v -1.14205205 0.17002773 0.38578823
v -1.14205205 0.17261629 0.39318594
v -1.14205205 0.17678609 0.39982215
v -1.14205205 0.18232806 0.40536410
v -1.14205205 0.18896428 0.40953392
v -1.14205205 0.19636197 0.41212249
v -1.14205205 0.20415020 0.41299999
v -1.14205205 0.20500000 0.34299999
v -1.14205205 0.20500000 0.41299999
v -1.10000002 0.20500000 0.41299999
v -1.09221172 0.20500000 0.41212249
v -1.08481407 0.20500000 0.40953392
v -1.07817781 0.20500000 0.40536410
v -1.07263589 0.20500000 0.39982215
v -1.06846607 0.20500000 0.39318594
v -1.06587756 0.20500000 0.38578823
v -1.06500006 0.20500000 0.37799999
v -1.06587756 0.20500000 0.37021178
v -1.06846607 0.20500000 0.36281407
v -1.07263589 0.20500000 0.35617787
v -1.07817781 0.20500000 0.35063589
v -1.08481407 0.20500000 0.34646609
v -1.09221172 0.20500000 0.34387752
v -1.10000002 0.20500000 0.34299999
v -1.14205205 0.20500000 0.41299999
v -1.14205205 0.20500000 0.34299999
f 3 5 4
f 3 6 5
f 8 7 6
f 10 9 8
f 10 8 6
f 29 16 30
f 11 10 6
f 28 16 29
f 12 6 3
f 12 11 6
f 26 28 27
f 14 13 12
f 15 2 1
f 15 3 2
f 15 12 3
f 15 14 12
f 24 26 25
f 24 16 28
f 24 28 26
f 17 1 16
f 17 15 1
f 18 17 16
f 22 24 23
f 21 19 18
f 21 20 19
f 21 16 24
f 21 18 16
f 21 24 22
f 59 31 32
f 59 60 31
f 58 32 33
f 58 59 32
f 57 33 34
f 57 58 33
f 56 34 35
f 56 57 34
f 55 35 36
f 55 56 35
f 54 36 37
f 54 55 36
f 53 37 38
f 53 54 37
f 52 38 39
f 52 53 38
f 51 39 40
f 51 52 39
f 50 40 41
f 50 51 40
f 49 41 42
f 49 42 43
f 49 50 41
f 48 49 43
f 47 43 44
f 47 48 43
f 46 44 45
f 46 47 44
f 65 63 64
f 61 65 66
f 62 65 61
f 62 63 65
f 81 82 99
f 80 99 98
f 80 81 99
f 79 98 97
f 79 80 98
f 78 97 96
f 78 79 97
f 77 95 94
f 77 96 95
f 77 78 96
f 76 94 93
f 76 77 94
f 75 93 92
f 75 76 93
f 74 91 90
f 74 92 91
f 74 75 92
f 73 90 89
f 73 74 90
f 72 89 88
f 72 73 89
f 71 88 87
f 71 72 88
f 70 87 86
f 70 71 87
f 69 86 85
f 69 70 86
f 68 84 83
f 68 85 84
f 68 69 85
f 67 68 83
f 132 100 101
f 102 132 101
f 131 132 102
f 103 131 102
f 130 103 104
f 130 131 103
f 129 104 105
f 129 130 104
f 128 129 105
f 127 105 106
f 127 128 105
f 126 106 107
f 126 127 106
f 125 107 108
f 125 126 107
f 124 125 108
f 123 108 109
f 123 124 108
f 122 109 110
f 122 123 109
f 121 110 111
f 121 122 110
f 120 111 112
f 120 121 111
f 119 112 113
f 119 120 112
f 118 119 113
f 117 113 114
f 117 118 113
f 116 114 115
f 116 117 114
f 136 133 134
f 136 134 135
f 138 136 137
f 138 133 136
f 141 143 142
f 146 144 143
f 146 145 144
f 146 143 141
f 149 148 147
f 152 140 139
f 152 141 140
f 152 147 146
f 152 150 149
f 152 151 150
f 152 146 141
f 152 149 147
f 153 152 139
f 155 139 154
f 155 153 139
f 168 170 169
f 171 172 170
f 166 168 167
f 164 166 165
f 164 170 168
f 164 168 166
f 156 171 170
f 163 156 170
f 163 170 164
f 158 157 156
f 161 163 162
f 159 158 156
f 160 156 163
f 160 163 161
f 160 159 156

