# https://github.com/mikedh/trimesh
v -0.76764679 0.18025126 0.35325125
v -0.76764679 0.18662582 0.34821093
v -0.76764679 0.19399093 0.34477651
v -0.76764679 0.20194955 0.34313318
v -0.76764679 0.21007262 0.34336954
v -0.76764679 0.21792221 0.34547284
v -0.76764679 0.22507517 0.34932968
v -0.76764679 0.23114587 0.35473216
v -0.76764679 0.23580705 0.36138898
v -0.76764679 0.23880741 0.36894134
v -0.76764679 0.23998520 0.37698203
v -0.76764679 0.23927692 0.38507763
v -0.76764679 0.23672077 0.39279163
v -0.76764679 0.23245455 0.39970824
v -0.76764679 0.22670825 0.40545455
v -0.76764679 0.21979164 0.40972078
v -0.76764679 0.21207762 0.41227692
v -0.76764679 0.20398204 0.41298521
v -0.76764679 0.19594133 0.41180742
v -0.76764679 0.18838899 0.40880704
v -0.76764679 0.18173215 0.40414587
v -0.76764679 0.17632967 0.39807516
v -0.76764679 0.17247283 0.39092222
v -0.76764679 0.17036954 0.38307261
v -0.76764679 0.17013319 0.37494954
v -0.76764679 0.17177650 0.36699092
v -0.76764679 0.17521092 0.35962582
v -0.76764679 0.18025126 0.35325125
v -0.72177553 0.18025126 0.35325125
v -0.72177553 0.18025126 0.35325125
v -0.72932523 0.17600456 0.35839733
v -0.73500168 0.17281155 0.36425579
v -0.73800617 0.17112152 0.36921087
v -0.73948246 0.17029111 0.37349516
v -0.73999125 0.17000492 0.37741286
v -0.73971641 0.17015953 0.38133794
v -0.73866135 0.17075299 0.38522097
v -0.73683941 0.17177783 0.38901308
v -0.73427355 0.17322114 0.39266643
v -0.72975224 0.17576435 0.39724258
v -0.72328186 0.17940395 0.40187135
v -0.71344399 0.18493775 0.40667936
v -0.70167822 0.19155599 0.41031498
v -0.68879998 0.19880000 0.41244647
v -0.69499999 0.20500000 0.41299999
v -0.69344229 0.20344229 0.41296533
v -0.69188768 0.20188767 0.41286135
v -0.69033921 0.20033921 0.41268829
v -0.70499998 0.20500000 0.41299999
v -0.70499998 0.20500000 0.34299999
v -0.71247196 0.21247199 0.34380689
v -0.71959949 0.21959946 0.34619033
v -0.72591823 0.22591822 0.34993884
v -0.73118824 0.23118824 0.35477984
v -0.73524743 0.23524742 0.36039051
v -0.73804510 0.23804510 0.36646652
v -0.73953301 0.23953304 0.37230176
v -0.73999864 0.23999867 0.37830573
v -0.73942822 0.23942822 0.38430062
v -0.73783857 0.23783858 0.39010900
v -0.73527682 0.23527680 0.39555889
v -0.73181874 0.23181874 0.40048900
v -0.72756672 0.22756673 0.40475336
v -0.72264665 0.22264668 0.40822572
v -0.71530145 0.21530148 0.41144967
v -0.71020871 0.21020874 0.41261023
v -0.69499999 0.20500000 0.34299999
v -0.68879998 0.19880000 0.34355351
v -0.69033921 0.20033921 0.34331173
v -0.69188768 0.20188767 0.34313866
v -0.69344229 0.20344229 0.34303468
v -0.70088738 0.19200085 0.34550351
v -0.71203095 0.18573260 0.34878069
v -0.68879998 0.19880000 0.41244647
v -0.68160224 0.20284872 0.41033420
v -0.67501992 0.20655128 0.40673670
v -0.66944933 0.20968474 0.40191993
v -0.66506243 0.21215238 0.39613125
v -0.66221225 0.21375561 0.39024597
v -0.66050655 0.21471505 0.38393328
v -0.66000491 0.21499723 0.37741342
v -0.66072482 0.21459231 0.37091407
v -0.66264111 0.21351439 0.36466208
v -0.66568691 0.21180113 0.35887563
v -0.66975588 0.20951231 0.35375676
v -0.67470610 0.20672783 0.34948409
v -0.68036467 0.20354488 0.34620681
v -0.68449819 0.20121977 0.34461269
v -0.68879998 0.19880000 0.34355351
v -0.72177553 0.18025126 0.35325125
v -0.72932523 0.17600456 0.35839733
v -0.73500168 0.17281155 0.36425579
v -0.73800617 0.17112152 0.36921087
v -0.73948246 0.17029111 0.37349516
v -0.73999125 0.17000492 0.37741286
v -0.73971641 0.17015953 0.38133794
v -0.73866135 0.17075299 0.38522097
v -0.73683941 0.17177783 0.38901308
v -0.73427355 0.17322114 0.39266643
v -0.72975224 0.17576435 0.39724258
v -0.72328186 0.17940395 0.40187135
v -0.71344399 0.18493775 0.40667936
v -0.70167822 0.19155599 0.41031498
v -0.70088738 0.19200085 0.34550351
v -0.71203095 0.18573260 0.34878069
v -0.69499999 0.25500000 0.34299999
v -0.68721175 0.25500000 0.34387752
v -0.67981404 0.25500000 0.34646609
v -0.67317784 0.25500000 0.35063589
v -0.66763592 0.25500000 0.35617787
v -0.66346610 0.25500000 0.36281407
v -0.66087753 0.25500000 0.37021178
v -0.66000003 0.25500000 0.37799999
v -0.66087753 0.25500000 0.38578823
v -0.66346610 0.25500000 0.39318594
v -0.66763592 0.25500000 0.39982215
v -0.67317784 0.25500000 0.40536410
v -0.67981404 0.25500000 0.40953392
v -0.68721175 0.25500000 0.41212249
v -0.69499999 0.25500000 0.41299999
v -0.69499999 0.20500000 0.41299999
v -0.69344229 0.20344229 0.41296533
v -0.69188768 0.20188767 0.41286135
v -0.69033921 0.20033921 0.41268829
v -0.68879998 0.19880000 0.41244647
v -0.68160224 0.20284872 0.41033420
v -0.67501992 0.20655128 0.40673670
v -0.66944933 0.20968474 0.40191993
v -0.66506243 0.21215238 0.39613125
v -0.66221225 0.21375561 0.39024597
v -0.66050655 0.21471505 0.38393328
v -0.66000491 0.21499723 0.37741342
v -0.66072482 0.21459231 0.37091407
v -0.66264111 0.21351439 0.36466208
v -0.66568691 0.21180113 0.35887563
v -0.66975588 0.20951231 0.35375676
v -0.67470610 0.20672783 0.34948409
v -0.68036467 0.20354488 0.34620681
v -0.68449819 0.20121977 0.34461269
v -0.68879998 0.19880000 0.34355351
v -0.69033921 0.20033921 0.34331173
v -0.69188768 0.20188767 0.34313866
v -0.69344229 0.20344229 0.34303468
v -0.69499999 0.20500000 0.34299999
v -0.69499999 0.25500000 0.34299999
v -0.68721175 0.25500000 0.34387752
v -0.67981404 0.25500000 0.34646609
v -0.67317784 0.25500000 0.35063589
v -0.66763592 0.25500000 0.35617787
v -0.66346610 0.25500000 0.36281407
v -0.66087753 0.25500000 0.37021178
v -0.66000003 0.25500000 0.37799999
v -0.66087753 0.25500000 0.38578823
v -0.66346610 0.25500000 0.39318594
v -0.66763592 0.25500000 0.39982215
v -0.67317784 0.25500000 0.40536410
v -0.67981404 0.25500000 0.40953392
v -0.68721175 0.25500000 0.41212249
v -0.69499999 0.25500000 0.41299999
v -0.70499998 0.25500000 0.34299999
v -0.70499998 0.25500000 0.41299999
v -0.71278822 0.25500000 0.41212249
v -0.72018594 0.25500000 0.40953392
v -0.72682214 0.25500000 0.40536410
v -0.73236412 0.25500000 0.39982215
v -0.73653394 0.25500000 0.39318594
v -0.73912245 0.25500000 0.38578823
v -0.74000001 0.25500000 0.37799999
v -0.73912245 0.25500000 0.37021178
v -0.73653394 0.25500000 0.36281407
v -0.73236412 0.25500000 0.35617787
v -0.72682214 0.25500000 0.35063589
v -0.72018594 0.25500000 0.34646609
v -0.71278822 0.25500000 0.34387752
v -0.69499999 0.20500000 0.34299999
v -0.69499999 0.25500000 0.34299999
v -0.70499998 0.20500000 0.34299999
v -0.70499998 0.25500000 0.34299999
v -0.69499999 0.25500000 0.41299999
v -0.69499999 0.20500000 0.41299999
v -0.70499998 0.25500000 0.41299999
v -0.70499998 0.20500000 0.41299999
v -0.76764679 0.18025126 0.35325125
v -0.76764679 0.18662582 0.34821093
v -0.76764679 0.19399093 0.34477651
v -0.76764679 0.20194955 0.34313318
v -0.76764679 0.21007262 0.34336954
v -0.76764679 0.21792221 0.34547284
v -0.76764679 0.22507517 0.34932968
v -0.76764679 0.23114587 0.35473216
v -0.76764679 0.23580705 0.36138898
v -0.76764679 0.23880741 0.36894134
v -0.76764679 0.23998520 0.37698203
v -0.76764679 0.23927692 0.38507763
v -0.76764679 0.23672077 0.39279163
v -0.76764679 0.23245455 0.39970824
v -0.76764679 0.22670825 0.40545455
v -0.76764679 0.21979164 0.40972078
v -0.76764679 0.21207762 0.41227692
v -0.76764679 0.20398204 0.41298521
v -0.76764679 0.19594133 0.41180742
v -0.76764679 0.18838899 0.40880704
v -0.76764679 0.18173215 0.40414587
v -0.76764679 0.17632967 0.39807516
v -0.76764679 0.17247283 0.39092222
v -0.76764679 0.17036954 0.38307261
v -0.76764679 0.17013319 0.37494954
v -0.76764679 0.17177650 0.36699092
v -0.76764679 0.17521092 0.35962582
v -0.70499998 0.20500000 0.41299999
v -0.70499998 0.25500000 0.41299999
v -0.71278822 0.25500000 0.41212249
v -0.72018594 0.25500000 0.40953392
v -0.72682214 0.25500000 0.40536410
v -0.73236412 0.25500000 0.39982215
v -0.73653394 0.25500000 0.39318594
v -0.73912245 0.25500000 0.38578823
v -0.74000001 0.25500000 0.37799999
v -0.73912245 0.25500000 0.37021178
v -0.73653394 0.25500000 0.36281407
v -0.73236412 0.25500000 0.35617787
v -0.72682214 0.25500000 0.35063589
v -0.72018594 0.25500000 0.34646609
v -0.71278822 0.25500000 0.34387752
v -0.70499998 0.25500000 0.34299999
v -0.70499998 0.20500000 0.34299999
v -0.71247196 0.21247199 0.34380689
v -0.71959949 0.21959946 0.34619033
v -0.72591823 0.22591822 0.34993884
v -0.73118824 0.23118824 0.35477984
v -0.73524743 0.23524742 0.36039051
v -0.73804510 0.23804510 0.36646652
v -0.73953301 0.23953304 0.37230176
v -0.73999864 0.23999867 0.37830573
v -0.73942822 0.23942822 0.38430062
v -0.73783857 0.23783858 0.39010900
v -0.73527682 0.23527680 0.39555889
v -0.73181874 0.23181874 0.40048900
v -0.72756672 0.22756673 0.40475336
v -0.72264665 0.22264668 0.40822572
v -0.71530145 0.21530148 0.41144967
v -0.71020871 0.21020874 0.41261023
f 31 28 29
f 27 28 31
f 32 27 31
f 26 32 33
f 26 27 32
f 25 33 34
f 25 34 35
f 25 26 33
f 24 35 36
f 24 36 37
f 24 25 35
f 23 24 37
f 23 37 38
f 23 38 39
f 22 23 39
f 22 39 40
f 22 40 41
f 21 22 41
f 21 41 42
f 20 21 42
f 20 42 43
f 49 46 45
f 49 47 46
f 49 48 47
f 19 20 43
f 19 43 44
f 19 44 48
f 18 48 49
f 18 19 48
f 18 49 66
f 17 18 66
f 17 66 65
f 16 17 65
f 16 65 64
f 15 16 64
f 15 64 63
f 62 15 63
f 14 15 62
f 61 14 62
f 13 14 61
f 13 61 60
f 12 60 59
f 12 13 60
f 58 12 59
f 11 12 58
f 57 11 58
f 10 57 56
f 10 11 57
f 9 56 55
f 9 10 56
f 8 55 54
f 8 9 55
f 53 8 54
f 7 53 52
f 7 8 53
f 6 52 51
f 6 7 52
f 50 67 71
f 70 50 71
f 5 51 50
f 5 6 51
f 4 50 70
f 4 69 68
f 4 70 69
f 4 5 50
f 3 4 68
f 3 68 72
f 2 3 72
f 2 72 73
f 30 2 73
f 1 2 30
f 96 95 94
f 97 94 93
f 97 96 94
f 98 93 92
f 98 97 93
f 99 92 91
f 99 98 92
f 88 104 89
f 100 99 91
f 87 104 88
f 101 91 90
f 101 100 91
f 102 90 105
f 102 101 90
f 103 105 104
f 103 102 105
f 80 82 81
f 75 74 103
f 75 104 87
f 75 103 104
f 79 83 82
f 79 82 80
f 76 86 85
f 76 87 86
f 76 75 87
f 78 84 83
f 78 83 79
f 77 85 84
f 77 76 85
f 77 84 78
f 120 121 122
f 120 122 123
f 119 123 124
f 119 124 125
f 119 125 126
f 119 120 123
f 118 126 127
f 118 119 126
f 117 127 128
f 117 118 127
f 116 128 129
f 116 117 128
f 115 129 130
f 115 116 129
f 114 130 131
f 114 115 130
f 113 131 132
f 113 132 133
f 113 114 131
f 112 133 134
f 112 113 133
f 111 134 135
f 111 112 134
f 110 135 136
f 110 111 135
f 109 136 137
f 109 110 136
f 108 137 138
f 108 138 139
f 108 109 137
f 107 108 139
f 107 139 140
f 107 140 141
f 107 141 142
f 106 107 142
f 106 142 143
f 106 143 144
f 151 150 149
f 154 147 146
f 154 148 147
f 154 149 148
f 154 152 151
f 154 153 152
f 154 151 149
f 173 160 174
f 155 154 146
f 157 156 155
f 158 157 155
f 158 155 146
f 159 146 145
f 159 158 146
f 169 171 170
f 161 145 160
f 161 159 145
f 168 171 169
f 162 160 173
f 162 161 160
f 165 167 166
f 165 168 167
f 165 172 171
f 165 173 172
f 165 171 168
f 164 163 162
f 164 162 173
f 164 173 165
f 176 175 177
f 178 176 177
f 181 182 180
f 179 181 180
f 188 190 189
f 192 191 190
f 195 194 193
f 183 185 184
f 197 196 195
f 207 186 185
f 207 187 186
f 207 188 187
f 207 209 208
f 207 183 209
f 207 190 188
f 207 192 190
f 207 185 183
f 205 207 206
f 205 192 207
f 204 193 192
f 204 195 193
f 204 197 195
f 204 192 205
f 203 198 197
f 203 199 198
f 203 200 199
f 203 201 200
f 203 202 201
f 203 197 204
f 242 210 211
f 242 211 212
f 241 212 213
f 241 242 212
f 240 213 214
f 240 241 213
f 239 240 214
f 238 214 215
f 238 239 214
f 237 215 216
f 237 238 215
f 236 237 216
f 217 236 216
f 235 236 217
f 218 235 217
f 234 235 218
f 233 218 219
f 233 234 218
f 232 219 220
f 232 233 219
f 231 232 220
f 221 231 220
f 230 231 221
f 222 230 221
f 229 222 223
f 229 230 222
f 228 223 224
f 228 229 223
f 227 224 225
f 227 228 224
f 226 227 225

