# https://github.com/mikedh/trimesh
v -1.21444690 0.20500000 0.34050000
v -1.21444690 0.21334453 0.34144020
v -1.21444690 0.22127064 0.34421366
v -1.21444690 0.22838087 0.34868133
v -1.21444690 0.23431867 0.35461915
v -1.21444690 0.23878634 0.36172935
v -1.21444690 0.24155980 0.36965546
v -1.21444690 0.24250001 0.37799999
v -1.21444690 0.24155980 0.38634452
v -1.21444690 0.23878634 0.39427063
v -1.21444690 0.23431867 0.40138087
v -1.21444690 0.22838087 0.40731868
v -1.21444690 0.22127064 0.41178632
v -1.21444690 0.21334453 0.41455981
v -1.21444690 0.20500000 0.41549999
v -1.21444690 0.19665547 0.41455981
v -1.21444690 0.18872936 0.41178632
v -1.21444690 0.18161914 0.40731868
v -1.21444690 0.17568132 0.40138087
v -1.21444690 0.17121367 0.39427063
v -1.21444690 0.16844021 0.38634452
v -1.21444690 0.16750000 0.37799999
v -1.21444690 0.16844021 0.36965546
v -1.21444690 0.17121367 0.36172935
v -1.21444690 0.17568132 0.35461915
v -1.21444690 0.18161914 0.34868133
v -1.21444690 0.18872936 0.34421366
v -1.21444690 0.19665547 0.34144020
v -1.17274690 0.20500000 0.34050000
v -1.17274690 0.19665547 0.34144020
v -1.17274690 0.18872936 0.34421366
v -1.17274690 0.18161914 0.34868133
v -1.17274690 0.17568132 0.35461915
v -1.17274690 0.17121367 0.36172935
v -1.17274690 0.16844021 0.36965546
v -1.17274690 0.16750000 0.37799999
v -1.17274690 0.16844021 0.38634452
v -1.17274690 0.17121367 0.39427063
v -1.17274690 0.17568132 0.40138087
v -1.17274690 0.18161914 0.40731868
v -1.17274690 0.18872936 0.41178632
v -1.17274690 0.19665547 0.41455981
v -1.17274690 0.20500000 0.41549999
v -1.17274690 0.21334453 0.41455981
v -1.17274690 0.22127064 0.41178632
v -1.17274690 0.22838087 0.40731868
v -1.17274690 0.23431867 0.40138087
v -1.17274690 0.23878634 0.39427063
v -1.17274690 0.24155980 0.38634452
v -1.17274690 0.24250001 0.37799999
v -1.17274690 0.24155980 0.36965546
v -1.17274690 0.23878634 0.36172935
v -1.17274690 0.23431867 0.35461915
v -1.17274690 0.22838087 0.34868133
v -1.17274690 0.22127064 0.34421366
v -1.17274690 0.21334453 0.34144020
v -1.21444690 0.20500000 0.34050000
v -1.21444690 0.21334453 0.34144020
v -1.21444690 0.22127064 0.34421366
v -1.21444690 0.22838087 0.34868133
v -1.21444690 0.23431867 0.35461915
v -1.21444690 0.23878634 0.36172935
v -1.21444690 0.24155980 0.36965546
v -1.21444690 0.24250001 0.37799999
v -1.21444690 0.24155980 0.38634452
v -1.21444690 0.23878634 0.39427063
v -1.21444690 0.23431867 0.40138087
v -1.21444690 0.22838087 0.40731868
v -1.21444690 0.22127064 0.41178632
v -1.21444690 0.21334453 0.41455981
v -1.21444690 0.20500000 0.41549999
v -1.21444690 0.19665547 0.41455981
v -1.21444690 0.18872936 0.41178632
v -1.21444690 0.18161914 0.40731868
v -1.21444690 0.17568132 0.40138087
v -1.21444690 0.17121367 0.39427063
v -1.21444690 0.16844021 0.38634452
v -1.21444690 0.16750000 0.37799999
v -1.21444690 0.16844021 0.36965546
v -1.21444690 0.17121367 0.36172935
v -1.21444690 0.17568132 0.35461915
v -1.21444690 0.18161914 0.34868133
v -1.21444690 0.18872936 0.34421366
v -1.21444690 0.19665547 0.34144020
v -1.21444690 0.20500000 0.34050000
v -1.17274690 0.20500000 0.34050000
v -1.17274690 0.20500000 0.34050000
v -1.17274690 0.19665547 0.34144020
v -1.17274690 0.18872936 0.34421366
v -1.17274690 0.18161914 0.34868133
v -1.17274690 0.17568132 0.35461915
v -1.17274690 0.17121367 0.36172935
v -1.17274690 0.16844021 0.36965546
v -1.17274690 0.16750000 0.37799999
v -1.17274690 0.16844021 0.38634452
v -1.17274690 0.17121367 0.39427063
v -1.17274690 0.17568132 0.40138087
v -1.17274690 0.18161914 0.40731868
v -1.17274690 0.18872936 0.41178632
v -1.17274690 0.19665547 0.41455981
v -1.17274690 0.20500000 0.41549999
v -1.17274690 0.21334453 0.41455981
v -1.17274690 0.22127064 0.41178632
v -1.17274690 0.22838087 0.40731868
v -1.17274690 0.23431867 0.40138087
v -1.17274690 0.23878634 0.39427063
v -1.17274690 0.24155980 0.38634452
v -1.17274690 0.24250001 0.37799999
v -1.17274690 0.24155980 0.36965546
v -1.17274690 0.23878634 0.36172935
v -1.17274690 0.23431867 0.35461915
v -1.17274690 0.22838087 0.34868133
v -1.17274690 0.22127064 0.34421366
v -1.17274690 0.21334453 0.34144020
f 28 26 25
f 28 27 26
f 22 24 23
f 22 25 24
f 2 1 28
f 21 25 22
f 19 21 20
f 6 4 3
f 6 5 4
f 15 17 16
f 15 18 17
f 9 7 6
f 9 8 7
f 13 15 14
f 11 3 2
f 11 10 9
f 11 19 18
f 11 28 25
f 11 2 28
f 11 25 21
f 11 6 3
f 11 21 19
f 11 9 6
f 11 18 15
f 12 11 15
f 12 15 13
f 42 41 40
f 37 39 38
f 36 39 37
f 44 43 42
f 45 44 42
f 34 36 35
f 32 34 33
f 31 39 36
f 31 36 34
f 31 34 32
f 50 46 45
f 50 47 46
f 50 48 47
f 50 49 48
f 50 45 42
f 53 31 30
f 53 40 39
f 53 51 50
f 53 52 51
f 53 42 40
f 53 50 42
f 53 39 31
f 54 30 29
f 54 56 55
f 54 29 56
f 54 53 30
f 84 85 86
f 84 86 88
f 83 88 89
f 83 84 88
f 82 89 90
f 82 90 91
f 82 83 89
f 81 82 91
f 80 91 92
f 80 81 91
f 79 92 93
f 79 93 94
f 79 80 92
f 78 79 94
f 77 94 95
f 77 78 94
f 76 95 96
f 76 96 97
f 76 77 95
f 75 76 97
f 74 75 97
f 74 97 98
f 73 74 98
f 73 98 99
f 73 99 100
f 72 73 100
f 71 72 100
f 71 100 101
f 70 71 101
f 70 101 102
f 69 70 102
f 69 102 103
f 68 69 103
f 68 103 104
f 67 68 104
f 67 104 105
f 66 67 105
f 66 105 106
f 66 106 107
f 65 66 107
f 64 65 107
f 64 107 108
f 63 64 108
f 63 108 109
f 62 63 109
f 62 109 110
f 61 110 111
f 61 62 110
f 60 111 112
f 60 61 111
f 59 112 113
f 59 60 112
f 58 113 114
f 58 114 87
f 58 59 113
f 57 58 87

